<?xml version="1.0" encoding="UTF-8"?>
<!DOCTYPE svg PUBLIC "-//W3C//DTD SVG 1.1//EN" "http://www.w3.org/Graphics/SVG/1.1/DTD/svg11.dtd">
<!-- Creator: CorelDRAW X8 -->
<svg xmlns="http://www.w3.org/2000/svg" xml:space="preserve" width="204.783mm" height="271.453mm" version="1.1" style="shape-rendering:geometricPrecision; text-rendering:geometricPrecision; image-rendering:optimizeQuality; fill-rule:evenodd; clip-rule:evenodd"
viewBox="0 0 20478 27145"
 xmlns:xlink="http://www.w3.org/1999/xlink">
 <defs>
  <style type="text/css">
   <![CDATA[
    .fil2 {fill:black}
    .fil1 {fill:black}
    .fil3 {fill:#BA0000}
    .fil4 {fill:#BA0000}
    .fil0 {fill:white}
   ]]>
  </style>
 </defs>
 <g id="Camada_x0020_1">
  <metadata id="CorelCorpID_0Corel-Layer"/>
  <g id="_1155725968">
   <path class="fil0" d="M7966 4249l0 -46 28 23 972 -804 821 679 473 391 0 2232 -1812 1498 0 1319 -1490 1231 0 -1318 -1691 1398 0 -2773 -327 271 0 1275 -1495 1236 0 -1275 -1178 973 -399 -329 0 0 -1004 -831 0 -2803 -864 714 894 -2258 972 -802 0 -40 24 20 955 -790 1031 853 197 163 -1248 1032 -394 -326 53 -44 -147 -122 0 3646 158 130 950 -785 0 -2904 816 -672 -2 -1 209 -172 0 -2 0 1 986 -815 818 676 0 0 485 401 0 3585 201 -166 0 -2835 1008 -834zm482 2437l332 -275 0 -1166 -332 -275 0 1716zm-3508 65l327 -271 0 -1237 -327 -271 0 1779z"/>
   <g>
    <path class="fil1" d="M7145 10097l923 -763 0 -1304 1823 -1507 0 -2093 -925 -765 -1821 1506 0 2835 -767 634 0 -4212 -924 -763 -901 745 901 745 0 1413 -899 743 0 -2899 -923 759 0 2904 -1137 940 -521 -430 0 -4132 731 605 902 -745 -762 -630 -1794 1483 -442 1115 1253 -1036 -811 1181 0 2885 1018 843 1563 -1292 815 -674 -815 1055 0 938 923 -763 0 -1320 899 -743 0 2836 1691 -1398 810 -670 -810 1095 0 879zm923 -2854l899 -744 0 -1342 -899 -744 0 2830z"/>
    <polygon class="fil2" points="442,6702 538,6459 1310,5821 1051,6199 "/>
    <polygon class="fil2" points="2724,5162 2825,5245 3780,4456 3679,4373 "/>
    <polygon class="fil2" points="2053,8534 2150,8615 2150,4688 2053,4607 "/>
    <polygon class="fil2" points="2162,10230 2267,10317 3524,9278 3896,8797 "/>
    <polygon class="fil2" points="3632,10464 3632,10293 4655,9447 4655,8169 5357,7589 5357,7762 4753,8262 4753,9537 "/>
    <polygon class="fil2" points="5454,10306 5454,10454 7145,9057 7441,8664 "/>
    <polygon class="fil2" points="9974,4498 10073,4580 10073,6636 8261,8134 8261,9453 7145,10375 7145,10231 8153,9397 8153,8072 9974,6570 "/>
    <polygon class="fil2" points="4655,7077 4753,6996 4753,4714 4655,4633 "/>
    <polygon class="fil2" points="6459,8434 6570,8342 6570,4587 6459,4495 "/>
    <polygon class="fil2" points="8153,7033 8261,6944 8261,4689 8153,4601 "/>
   </g>
   <path class="fil0" d="M864 16216l19614 -16216 0 4137 -19614 16216 0 -4137zm27 4402l19587 -16194 0 4137 -17099 14137 -2488 -2080zm2661 2224l14898 -12316 0 4137 -12409 10258 -2489 -2079zm12985 -2173l-7834 6476 -2489 -2079 10323 -8534 0 4137z"/>
   <g>
    <polygon class="fil3" points="1051,16304 20291,397 20291,4049 1051,19956 "/>
    <polygon class="fil2" points="1183,20619 20291,4822 20291,8473 3380,22454 "/>
    <polygon class="fil4" points="3845,22843 6042,24678 18263,14575 18263,10923 "/>
    <polygon class="fil2" points="16350,20581 16350,16929 6507,25067 8704,26902 "/>
   </g>
  </g>
 </g>
</svg>
