<?xml version="1.0" encoding="UTF-8"?>
<!DOCTYPE svg PUBLIC "-//W3C//DTD SVG 1.1//EN" "http://www.w3.org/Graphics/SVG/1.1/DTD/svg11.dtd">
<!-- Creator: CorelDRAW X8 -->
<svg xmlns="http://www.w3.org/2000/svg" xml:space="preserve" width="100%" height="100%" version="1.1" style="shape-rendering:geometricPrecision; text-rendering:geometricPrecision; image-rendering:optimizeQuality; fill-rule:evenodd; clip-rule:evenodd"
viewBox="0 0 847 847"
 xmlns:xlink="http://www.w3.org/1999/xlink">
 <defs>
  <style type="text/css">
   <![CDATA[
    .fil0 {fill:black}
    .fil3 {fill:#A09B99}
    .fil1 {fill:#D93F16}
    .fil2 {fill:white}
   ]]>
  </style>
 </defs>
 <g id="Camada_x0020_1">
  <metadata id="CorelCorpID_0Corel-Layer"/>
  <g id="_4374200128">
   <path class="fil0" d="M423 -1c-234,0 -424,190 -424,424 0,235 190,425 424,425 234,0 425,-190 425,-425 0,-234 -191,-424 -425,-424z"/>
   <path class="fil1" d="M10 423c0,228 186,413 413,413 228,0 413,-185 413,-413 0,-227 -185,-413 -413,-413 -227,0 -413,186 -413,413zm13 0c0,-221 179,-400 400,-400 221,0 400,179 400,400 0,221 -179,400 -400,400 -221,0 -400,-179 -400,-400z"/>
   <path class="fil2" d="M81 501c-1,1 -3,3 -4,6 -1,2 -1,4 0,7 1,5 4,8 6,10 4,1 9,2 13,1 5,-2 8,-5 10,-8 2,-3 2,-8 1,-12 -1,-2 -2,-4 -4,-5 -1,-2 -4,-3 -7,-3l0 0 -2 -8c4,0 9,1 13,3 4,4 7,7 7,11 2,6 2,13 -1,18 -4,6 -8,9 -15,12 -6,2 -12,1 -17,-2 -5,-3 -10,-7 -11,-14 -1,-3 -1,-5 -1,-8 0,-2 1,-4 1,-6l0 0 -3 2 -2 -6 15 -4 1 6zm26 -30l-7 1 0 -6 -32 3 0 5 -6 0 -2 -19 7 0 0 5 32 -2 -1 -11 -6 0 -1 -7 13 -1 3 32zm-20 -55c5,0 7,-1 8,-2 2,-2 2,-3 2,-6 0,-3 0,-5 -1,-7 -2,0 -4,-1 -8,-1l0 0 -22 -1 0 4 -6 0 0 -18 7 0 -1 5 21 1c4,0 6,0 8,1 2,0 3,1 5,2 2,2 3,3 4,6 1,2 2,5 2,8 -1,3 -1,6 -2,8 -1,2 -2,4 -4,5 -2,2 -3,2 -5,2 -3,1 -5,1 -8,1l0 0 -22 -1 0 5 -6 0 1 -18 5 0 0 5 22 1zm3 -61l14 3 1 -3c1,-3 1,-5 0,-7 -1,-1 -2,-3 -5,-3 -3,-1 -5,-1 -7,1 -1,1 -2,2 -3,6l0 0 0 3zm-17 -4l11 3 1 -3c0,-3 0,-4 -1,-6 -1,-2 -2,-3 -3,-3 -2,-1 -4,0 -5,1 -1,1 -2,3 -2,4l0 0 -1 4zm35 22l-6 -2 1 -4 -32 -8 -1 5 -6 -1 3 -16c2,-6 3,-9 6,-11 3,-2 6,-3 8,-2 3,1 5,2 6,3 1,2 2,4 2,7 1,-3 3,-5 5,-7 3,-1 5,-1 9,-1 4,1 6,4 8,7 2,4 2,8 0,14l0 0 -3 16zm12 -48l-6 -2 2 -5 -31 -12 -2 5 -5 -2 12 -33 12 5 -3 6 -6 -2 -5 13 10 5 5 -12 6 2 -4 12 14 5 5 -13 -7 -3 3 -7 13 6 -13 32zm26 -97l5 -8 -15 -5 10 13zm9 13l2 -4 6 3 -10 14 -5 -4 3 -3 -21 -28 -3 3 -5 -3 14 -19 5 4 -4 4 34 9 2 -3 6 4 -10 14 -6 -4 4 -4 -9 -2 -8 11 5 8zm40 -48l4 -4 5 4 -14 14 -5 -4 5 -4 -25 -23 -4 5 5 4 -5 5 -10 -8 24 -25 9 8 -5 5 -5 -4 -3 4 24 23zm24 -14l-3 -5 3 -2 -20 -26 -4 2 -4 -5 15 -11 4 5 -4 4 20 26 9 -8 -5 -6 6 -4 8 11 -25 19zm36 -26l-3 -6 4 -2 -16 -29 -4 3 -3 -6 30 -17 6 11 -6 3 -3 -5 -13 7 6 10 11 -6 3 6 -11 6 8 13 12 -7 -4 -7 7 -3 7 12 -31 17zm-12 -50l0 -13 6 -3 -3 13 -3 3zm75 13l5 -2 2 6 -19 6 -2 -6 6 -1 -11 -32 -6 2 3 7 -8 1 -4 -11 33 -12 4 13 -7 2 -1 -7 -6 3 11 31zm39 -11l5 -1 1 6 -17 4 -2 -6 5 -1 -8 -32 -4 1 -1 -6 17 -5 1 7 -4 1 7 32zm52 -31c-1,-3 -3,-4 -5,-6 -2,-1 -4,-2 -7,-2 -5,1 -8,3 -11,6 -2,3 -3,7 -3,12 1,5 2,8 5,11 3,2 7,4 12,3 2,0 5,-1 6,-2 2,-1 4,-4 6,-6l0 0 7 -1c-1,5 -2,8 -6,12 -4,3 -7,5 -12,6 -7,0 -13,-2 -18,-6 -5,-4 -8,-9 -9,-16 0,-7 1,-13 5,-18 5,-5 10,-7 17,-8 2,0 5,0 7,1 2,0 4,1 5,3l0 0 0 -4 7 -1 1 15 -7 1zm29 6c1,-7 4,-12 9,-16 5,-4 11,-5 18,-4 3,0 6,0 9,2 2,1 4,3 6,5 2,3 4,6 5,9 2,3 2,6 1,10 0,3 -1,6 -3,8 -1,3 -3,5 -5,8 -3,1 -6,3 -9,4 -3,1 -6,1 -9,1 -7,-1 -13,-4 -17,-10 -4,-5 -5,-10 -5,-17l0 0zm9 1c-1,5 0,9 2,12 3,4 7,5 11,6 5,0 8,-1 11,-3 4,-3 5,-6 6,-11 1,-4 0,-9 -2,-12 -3,-3 -7,-5 -11,-6 -4,-1 -8,1 -11,3 -4,3 -5,6 -6,11l0 0zm106 7l-7 15 3 1c3,2 7,2 9,2 2,-1 4,-3 5,-5 0,-3 0,-5 0,-7 -2,-2 -4,-3 -8,-5l0 0 -2 -1zm-12 31l5 2 -2 6 -18 -8 2 -5 5 2 13 -31 -5 -2 2 -6 15 6c5,3 10,5 12,9 2,4 2,7 0,12 -2,4 -4,7 -8,8 -4,2 -10,1 -16,-2l0 0 -2 -1 -3 10zm48 6l9 5 3 -16 -12 11zm-12 11l4 2 -2 5 -15 -8 4 -5 2 1 27 -23 -4 -2 3 -6 21 12 -4 6 -5 -3 -7 35 5 1 -4 6 -15 -9 3 -5 5 3 1 -10 -12 -6 -7 6zm69 5l-7 10 5 3c2,2 4,3 5,3 2,0 4,0 5,-2 1,-2 1,-4 1,-5 0,-2 -1,-4 -4,-5l0 0 -5 -4zm-20 27l4 3 -3 5 -15 -12 4 -5 3 4 21 -27 -4 -3 4 -5 15 12c5,3 7,6 8,10 1,3 0,6 -2,9 -2,2 -4,4 -6,4 -2,0 -4,0 -6,0 0,1 1,3 2,5 0,1 -1,3 -2,5l0 0 -6 7 3 3 -4 5 -10 -8 7 -9c3,-3 4,-5 4,-7 0,-1 -2,-4 -4,-6l0 0 -4 -2 -9 12zm51 26l7 8 9 -14 -16 6zm-14 6l3 4 -5 4 -11 -13 5 -4 3 3 32 -13 -3 -3 5 -5 15 18 -4 4 -4 -4 -17 31 2 3 -5 4 -11 -13 4 -5 4 4 5 -8 -10 -10 -8 3zm35 46l3 4 -6 4 -9 -16 6 -3 2 4 28 -17 -2 -5 5 -3 7 12 -16 30 20 -12 -3 -5 6 -3 9 15 -6 3 -2 -4 -35 21 -3 -5 19 -34 -23 14zm43 47l3 10 13 -10 -16 0zm-16 1l2 4 -6 3 -6 -15 6 -3 1 4 36 -1 -2 -5 6 -2 8 22 -6 2 -2 -5 -26 22 0 5 -5 1 -6 -16 6 -2 1 5 7 -6 -5 -14 -9 1zm9 43l6 -1 1 5 33 -7 -2 -5 7 -2 7 35 -12 2 -1 -7 6 -1 -4 -15 -12 3 4 12 -7 1 -2 -11 -15 3 3 14 7 -1 2 7 -13 3 -8 -35zm18 62l0 5 -6 0 -1 -18 7 0 0 5 33 -1 0 -5 6 0 0 15 -29 17 23 -1 0 -5 6 0 1 17 -7 0 0 -5 -40 1 0 -7 34 -19 -27 1zm-4 54l-4 -1 1 -7 15 3 -1 6c-3,1 -6,1 -7,3 -2,2 -4,4 -4,7 0,2 0,3 2,5 1,2 2,3 4,3 2,0 4,0 4,-1 2,-1 3,-4 5,-6l0 0 1 -5c2,-5 4,-7 6,-9 3,-1 5,-2 9,-1 3,0 6,1 8,5 3,2 4,5 3,10 0,2 -1,4 -2,6 -1,1 -2,3 -3,4l0 0 3 0 -1 7 -13 -2 0 -7c3,0 5,-1 6,-2 2,-1 3,-4 3,-5 1,-3 0,-5 -1,-6 -1,-1 -2,-2 -3,-2 -2,0 -3,0 -5,1 0,1 -1,1 -2,3l0 0 -2 6c-2,5 -5,8 -7,10 -2,2 -5,3 -9,2 -4,-1 -7,-3 -10,-5 -2,-3 -2,-7 -2,-11 0,-3 1,-4 2,-7 1,-2 3,-3 4,-4l0 0zm-9 39l6 2 -1 5 32 8 1 -4 6 1 -9 34 -12 -3 1 -7 6 2 5 -15 -11 -3 -4 12 -7 -2 4 -12 -14 -4 -5 13 8 3 -3 7 -12 -4 9 -33z"/>
   <path class="fil2" d="M349 781l1 -6 5 1 6 -31 -5 -1 1 -7 12 3 -6 38 5 1 -1 5 -18 -3zm55 -32c-2,0 -3,1 -5,2 -1,1 -2,3 -2,6 0,1 0,3 1,5 2,1 3,2 5,2 2,0 3,-1 4,-1 2,-2 3,-4 3,-5 0,-3 0,-5 -1,-6 -2,-1 -3,-2 -5,-3l0 0zm-8 26c0,2 0,4 1,5 1,1 3,1 4,1 3,0 5,0 5,-1 1,-1 2,-4 3,-8l0 0 0 -3c-2,0 -3,1 -4,1 -2,1 -3,1 -4,1 -4,0 -7,-2 -9,-5 -2,-3 -3,-6 -2,-10 0,-4 1,-8 4,-10 3,-3 7,-4 11,-4 5,1 8,3 10,5 2,4 3,8 2,14l0 0 0 13c-1,5 -3,9 -5,11 -3,2 -6,4 -11,3 -5,0 -8,-2 -10,-4 -2,-3 -3,-5 -2,-9l0 0 0 -1 7 1zm56 -1l7 0 1 11 -29 3 0 -6 12 -17c3,-2 4,-5 5,-7 1,-1 1,-3 1,-5 0,-1 0,-2 -2,-3 -1,-1 -3,-2 -4,-1 -3,0 -5,1 -5,3 -2,1 -2,4 -1,8l0 0 0 1 -8 1 0 -1 0 -1c-1,-6 0,-10 3,-13 1,-3 5,-5 10,-5 4,0 7,0 10,3 3,2 4,4 5,8 0,2 0,5 -2,7 0,3 -2,5 -6,9l0 0 -10 12 13 -1 0 -6zm27 -5l11 -2 -2 -11c-1,-2 -1,-3 -1,-4 0,-2 0,-4 0,-5l0 0 -8 22zm8 14l-1 -5 6 -1 -1 -5 -17 3 -2 -6 13 -31 7 -1 5 28 5 -1 1 5 -5 2 0 4 6 -1 1 6 -18 3z"/>
   <path class="fil1" d="M628 217c-55,-55 -128,-85 -205,-85 -78,0 -151,30 -206,85 -55,55 -85,128 -85,206 0,77 30,150 85,205 55,56 128,86 206,86 160,0 291,-131 291,-291 0,-78 -30,-151 -86,-206zm-408 396l0 -380c2,-3 4,-5 6,-7 22,-22 48,-40 75,-54l0 501c-27,-13 -53,-31 -75,-53 -2,-3 -4,-5 -6,-7zm163 86l0 -552c13,-2 26,-3 40,-3 14,0 27,1 41,3l0 551c-14,2 -27,3 -41,3 -14,0 -27,0 -40,-2zm163 -26l0 -500c27,13 52,31 74,53 2,3 4,5 7,8l0 378c-23,25 -51,46 -81,61z"/>
   <path class="fil2" d="M424 232c-33,4 -63,19 -90,41 -47,-13 -120,14 -139,121 -2,12 -5,32 -15,45 12,6 20,20 26,32 24,50 51,81 79,98 2,19 -3,41 -25,55 16,16 38,15 54,1 22,11 44,11 60,-8 -17,-2 -30,-16 -37,-28 47,8 91,5 133,-17 0,16 -5,33 -23,35 8,19 31,22 48,1 27,16 48,10 55,-20 -26,7 -37,-17 -37,-41 48,-27 114,-75 143,-71 -10,-12 -22,-20 -34,-20 3,-11 6,-22 11,-33 -39,20 -82,60 -124,91l0 0 0 -63c16,9 32,18 54,5 15,-9 25,-37 38,-89 3,-11 7,-26 17,-34 -10,-13 -17,-22 -18,-36 -10,-72 -34,-85 -64,-86 -27,-1 -38,11 -54,20 -14,-8 -26,-9 -40,-10 23,56 19,114 7,171 12,19 16,74 16,143 -42,24 -86,19 -136,6l0 0 0 -50c22,0 39,-9 51,-25 4,26 -1,48 -22,60 11,17 28,17 44,3 28,17 46,6 54,-10 -39,-6 -38,-54 -23,-125 -16,-51 -15,-106 -9,-162l0 0zm79 41c9,-38 43,-33 52,0 6,20 -3,45 -9,63 6,11 13,35 10,47 -8,32 -37,35 -52,1 -6,-14 3,-34 10,-48 -6,-17 -16,-43 -11,-63l0 0zm-198 31c-23,22 -21,50 -21,95 0,12 -5,19 -14,29 17,24 14,46 10,70 -20,-16 -23,-38 -19,-65 -25,-27 -19,-69 3,-103 7,-13 24,-27 41,-26l0 0zm22 148c-6,-56 -5,-106 12,-138 10,4 10,15 4,18 -14,9 -9,33 11,24 25,-12 14,-46 5,-63 4,-2 7,-6 11,-8 14,33 17,94 2,132 -9,22 -24,35 -45,35l0 0z"/>
   <path class="fil3" d="M488 223c0,0 -4,3 -6,4 -13,-6 -24,-8 -36,-9l-4 0 -3 4c12,30 17,59 17,88 0,29 -5,57 -10,81l-1 2 1 1c14,20 15,88 15,139 -38,22 -80,18 -129,6 0,-4 0,-40 0,-45 18,-1 34,-8 46,-21 0,3 1,5 1,8 0,19 -8,34 -22,43l-3 1 2 3c5,8 11,13 19,14 9,1 19,-2 28,-9 12,7 23,9 33,7 12,-3 19,-12 23,-19l-2 -5c-10,-1 -17,-6 -22,-13 -11,-17 -11,-50 2,-108l0 -1 0 -1c-18,-55 -15,-115 -10,-161l-3 -3c-31,4 -62,17 -91,41 -24,-7 -52,-2 -76,12 -23,15 -54,46 -66,111 0,0 0,1 0,1 -1,12 -4,31 -13,44l1 4c9,5 17,14 25,30 21,46 47,79 78,99 0,1 0,3 0,5 0,13 -4,32 -24,46l-1 4c16,16 39,17 57,3 25,11 47,8 62,-10l-2 -5c-15,-2 -25,-13 -31,-21 47,7 87,2 123,-16 -1,17 -7,26 -20,27l-2 5c4,9 12,15 22,17 10,1 21,-4 30,-14 14,8 27,10 37,6 10,-5 17,-14 20,-29l-4 -4c-8,2 -15,1 -21,-3 -7,-6 -12,-18 -12,-33 12,-7 25,-15 38,-23 38,-23 81,-50 102,-47l3 -4c-10,-13 -21,-20 -33,-22 3,-10 6,-20 10,-28l-4 -4c-27,13 -56,36 -84,58 -12,10 -24,20 -36,28 0,-9 0,-42 0,-50 15,8 32,14 52,2 17,-10 28,-41 40,-91 0,-1 0,-1 0,-1 3,-11 7,-24 16,-32l3 -1 -2 -3c-10,-12 -17,-21 -18,-35 -9,-71 -34,-87 -67,-88 -23,-1 -36,7 -48,15zm-4 11l8 -5c11,-8 23,-16 43,-14 25,0 52,7 62,82 1,14 8,24 17,36 -9,9 -13,22 -16,32l0 1 -1 0c-11,47 -21,78 -36,88 -19,11 -35,4 -50,-5l-5 2 0 63 5 2c14,-10 27,-21 41,-32 25,-20 51,-40 75,-54 -3,8 -5,16 -8,26l3 3c9,0 18,5 27,14 -24,2 -62,25 -98,48 -14,8 -27,17 -40,24l-1 1 0 1c0,18 5,32 15,40 5,4 12,6 21,5 -3,10 -9,17 -16,20 -8,4 -20,1 -33,-7l-3 -1 -1 2c-8,10 -17,14 -26,13 -6,0 -12,-4 -15,-9 10,-4 21,-13 21,-38l-5 -3c-38,20 -80,26 -130,17l-3 4c7,15 19,25 33,29 -18,17 -40,10 -53,3l-2 -1 -1 2c-15,13 -33,13 -47,1 19,-14 23,-34 23,-48 0,-3 0,-5 0,-7l0 -1 -1 -1c-31,-20 -56,-52 -78,-98 -7,-15 -16,-25 -24,-31 8,-13 11,-31 13,-43l0 -1c11,-63 40,-92 63,-106 22,-14 49,-19 72,-12l2 1 1 -1c27,-23 56,-36 85,-41 -2,19 -4,41 -4,63 0,31 3,64 13,96 -6,30 -9,54 -9,72 0,18 3,31 9,41 5,7 12,12 21,15 -3,5 -9,10 -16,12 -9,2 -20,-1 -31,-8l-2 -1 -2 1c-8,8 -16,11 -24,10 -5,-1 -10,-4 -13,-9 14,-10 22,-26 22,-46 0,-5 -1,-11 -2,-16l-5 -1c-13,16 -29,24 -49,24l-3 3 0 53 2 0c53,14 96,18 138,-7l2 -1 0 -1c0,-82 -5,-126 -16,-143 5,-25 10,-53 10,-82 0,-28 -4,-57 -15,-86 11,2 22,3 34,10l2 1 1 -1z"/>
   <path class="fil3" d="M528 243c-13,1 -24,11 -28,29 -1,5 -1,9 -1,14 0,18 7,37 12,50 -6,11 -12,25 -12,38 0,4 1,8 2,12 8,17 20,27 32,26 12,-2 22,-12 26,-28 1,-3 1,-5 1,-8 0,-13 -6,-31 -11,-40 6,-16 11,-32 11,-48 0,-5 -1,-11 -2,-16 -5,-17 -17,-29 -30,-29zm-21 140c-6,-13 4,-34 10,-45l1 -1 -1 -2c-6,-15 -16,-41 -10,-61l0 0c3,-15 11,-24 21,-24 9,-1 20,7 24,24 6,20 -3,45 -9,61l-1 2 1 1c6,11 13,34 10,44 -3,14 -11,22 -20,23 -10,1 -20,-7 -26,-22zm-7 -111c0,0 0,0 0,0l0 0z"/>
   <path class="fil3" d="M261 328c-13,21 -19,42 -19,61 0,17 5,33 16,45 -1,7 -1,13 -1,18 0,21 6,37 21,49l5 -2c2,-10 3,-20 3,-29 0,-14 -3,-28 -12,-42 8,-9 13,-17 13,-29l0 -9c0,-2 0,-5 0,-8 0,-35 1,-57 20,-75l-2 -6c-17,-1 -35,12 -44,27zm2 124c0,-5 0,-12 1,-18l1 -1 -1 -2c-12,-12 -16,-27 -16,-42 0,-20 8,-41 18,-58 7,-10 19,-21 32,-23 -16,19 -17,42 -17,74 0,3 0,6 0,8l0 9c0,11 -5,18 -13,26l-2 2 1 2c10,14 13,27 13,41 0,7 -1,14 -2,22 -10,-10 -15,-23 -15,-40z"/>
   <path class="fil3" d="M361 288l-6 4 1 3c4,6 14,29 8,45 -2,6 -5,10 -11,13 -7,3 -12,2 -14,-2 -2,-5 -1,-12 6,-16 3,-2 6,-6 5,-11 0,-6 -4,-11 -10,-13l-3 -1 -1 2c-15,29 -19,74 -12,140l0 3 3 0c21,0 38,-13 48,-36 16,-42 12,-104 -2,-135l-4 -2c-3,2 -6,4 -8,6zm4 5c1,-1 2,-2 4,-3 6,16 10,40 10,64 0,22 -3,44 -10,62 -8,20 -22,32 -39,33 -2,-20 -3,-38 -3,-54 0,-33 4,-58 13,-77 3,2 4,4 4,6 0,0 0,1 0,1 0,2 -1,4 -2,4 -7,4 -10,11 -10,17 0,3 0,6 2,8 3,6 10,10 21,5 8,-4 13,-9 15,-17 2,-4 2,-8 2,-12 0,-14 -6,-29 -9,-36 1,0 2,-1 2,-1z"/>
  </g>
 </g>
</svg>
