<?xml version="1.0" encoding="UTF-8"?>
<!DOCTYPE svg PUBLIC "-//W3C//DTD SVG 1.1//EN" "http://www.w3.org/Graphics/SVG/1.1/DTD/svg11.dtd">
<!-- Creator: CorelDRAW X8 -->
<svg xmlns="http://www.w3.org/2000/svg" xml:space="preserve" width="100%" height="100%" version="1.1" style="shape-rendering:geometricPrecision; text-rendering:geometricPrecision; image-rendering:optimizeQuality; fill-rule:evenodd; clip-rule:evenodd"
viewBox="0 0 847 847"
 xmlns:xlink="http://www.w3.org/1999/xlink">
 <defs>
  <style type="text/css">
   <![CDATA[
    .fil3 {fill:black}
    .fil2 {fill:#D92923}
    .fil0 {fill:black;fill-rule:nonzero}
    .fil1 {fill:#FEFEFE;fill-rule:nonzero}
   ]]>
  </style>
 </defs>
 <g id="Camada_x0020_1">
  <metadata id="CorelCorpID_0Corel-Layer"/>
  <polygon class="fil0" points="10,-2 847,-2 847,309 845,312 431,839 424,849 416,839 2,312 0,309 0,-2 10,-2 "/>
  <polygon class="fil1" points="827,17 20,17 20,303 424,817 827,303 "/>
  <path class="fil0" d="M786 63l-725 0 0 197 725 0 0 -197zm-730 -14l745 0 0 226 -755 0 0 -10 0 -207 0 -9 10 0z"/>
  <polygon class="fil2" points="51,306 402,306 402,757 51,306 "/>
  <polygon class="fil3" points="796,306 444,306 444,757 796,306 "/>
  <path class="fil3" d="M186 237l44 0 -51 -137 -47 0 -52 137 43 0 7 -23 49 0 7 23zm-47 -52l16 -49 15 49 -31 0zm99 52l41 0 0 -38 -41 0 0 38zm180 -36c-4,4 -10,6 -18,6 -4,0 -8,0 -11,-2 -4,-1 -7,-3 -9,-6 -2,-3 -4,-7 -5,-12 -1,-5 -2,-11 -2,-19 0,-12 2,-21 6,-27 3,-4 6,-6 9,-8 4,-2 9,-3 13,-3 2,0 5,0 6,0 2,1 4,2 6,2 2,1 3,2 5,4 1,1 2,2 4,4 0,1 1,2 2,3 1,2 1,4 2,6l38 -8c-3,-8 -6,-14 -10,-19 -3,-6 -8,-10 -13,-13 -5,-4 -11,-7 -17,-8 -7,-2 -15,-3 -24,-3 -11,0 -21,2 -29,5 -9,3 -16,7 -22,13 -6,6 -11,14 -14,22 -3,9 -5,19 -5,30 0,17 4,31 11,42 3,5 7,10 11,14 4,3 9,6 13,9 5,2 11,3 17,4 6,2 13,2 20,2 6,0 12,0 17,-1 5,-1 10,-2 14,-4 4,-2 8,-4 11,-7 3,-2 6,-5 9,-9 3,-3 5,-7 7,-12 2,-4 4,-9 5,-14l-38 -11c-1,4 -2,8 -3,11 -2,4 -4,6 -6,9zm65 36l41 0 0 -38 -41 0 0 38zm184 -50l0 13c-2,2 -5,3 -7,4 -3,1 -5,2 -7,3 -3,1 -5,1 -7,2 -2,0 -5,0 -7,0 -5,0 -10,-1 -13,-2 -4,-2 -8,-4 -11,-7 -2,-3 -4,-8 -6,-13 -1,-5 -2,-12 -2,-19 0,-7 1,-13 2,-18 1,-5 4,-9 6,-12 3,-3 6,-6 10,-8 4,-1 8,-2 13,-2 3,0 6,0 8,1 3,1 5,2 7,3 2,2 4,3 5,5 2,2 3,4 4,7l41 -7c-1,-5 -3,-9 -5,-12 -1,-4 -4,-7 -6,-10 -3,-3 -6,-5 -9,-8 -3,-2 -6,-3 -10,-5 -8,-3 -19,-4 -34,-4 -8,0 -15,1 -22,2 -6,1 -12,3 -16,5 -6,3 -11,6 -16,10 -5,4 -8,9 -12,15 -6,11 -9,24 -9,39 0,7 1,13 2,20 2,6 4,12 7,17 2,6 6,10 10,15 4,4 9,7 14,10 5,3 11,5 17,6 7,1 15,2 23,2 6,0 13,0 18,-1 6,-1 12,-2 16,-4 5,-1 11,-3 16,-6 6,-3 12,-7 18,-11l0 -58 -66 0 0 28 28 0zm51 50l41 0 0 -38 -41 0 0 38z"/>
 </g>
</svg>
