<?xml version="1.0" encoding="UTF-8"?>
<!DOCTYPE svg PUBLIC "-//W3C//DTD SVG 1.1//EN" "http://www.w3.org/Graphics/SVG/1.1/DTD/svg11.dtd">
<!-- Creator: CorelDRAW X8 -->
<svg xmlns="http://www.w3.org/2000/svg" xml:space="preserve" width="100%" height="100%" version="1.1" style="shape-rendering:geometricPrecision; text-rendering:geometricPrecision; image-rendering:optimizeQuality; fill-rule:evenodd; clip-rule:evenodd"
viewBox="0 0 847 847"
 xmlns:xlink="http://www.w3.org/1999/xlink">
 <defs>
  <style type="text/css">
   <![CDATA[
    .fil1 {fill:black}
    .fil0 {fill:white}
   ]]>
  </style>
 </defs>
 <g id="Camada_x0020_1">
  <metadata id="CorelCorpID_0Corel-Layer"/>
  <g id="_4374221696">
   <path class="fil0" d="M89 127c0,0 170,74 333,-103 0,0 125,155 337,106 0,0 39,198 -71,404 0,0 -21,105 -264,298 0,0 -192,-137 -262,-292 0,0 -92,-152 -78,-399l5 -14z"/>
   <path class="fil1" d="M423 -2c0,0 -123,185 -345,109 0,0 -95,425 345,742 441,-317 346,-742 346,-742 -222,76 -346,-109 -346,-109zm0 45c0,0 -112,145 -323,100 0,0 -72,382 323,673 396,-291 323,-673 323,-673 -211,45 -323,-100 -323,-100zm0 22c0,0 111,137 309,97 0,0 11,65 -5,161l-608 0c-15,-96 -4,-161 -4,-161 197,40 308,-97 308,-97zm300 280c-15,74 -45,162 -107,253l0 -253 107 0zm-132 287c-27,35 -58,69 -95,103l0 -390 95 0 0 287zm-120 125c-15,12 -31,25 -48,37 -16,-12 -32,-24 -47,-37l0 -412 95 0 0 412zm-120 -22c-37,-34 -68,-68 -95,-102l0 -288 95 0 0 390zm-120 -137c-62,-90 -93,-179 -108,-253l108 0 0 253zm308 -298l27 0 0 -83 23 83 22 0 23 -83 0 83 27 0 0 -110 -42 0 -19 74 -19 -74 -42 0 0 110zm-182 0l29 0 7 -20 38 0 7 20 30 0 -41 -110 -29 0 -41 110zm-97 -76c-3,-8 -14,-11 -23,-11 -19,0 -26,16 -26,32 0,17 7,33 26,33 11,0 21,-5 24,-14l24 15c-8,15 -27,23 -47,23 -33,0 -56,-25 -56,-57 0,-32 23,-57 56,-57 17,0 37,8 46,21l-24 15zm152 -3l13 38 -25 0 12 -38z"/>
  </g>
 </g>
</svg>
