<?xml version="1.0" encoding="UTF-8" standalone="no"?>
<!-- Created with Inkscape (http://www.inkscape.org/) -->

<svg
   xmlns:dc="http://purl.org/dc/elements/1.1/"
   xmlns:cc="http://creativecommons.org/ns#"
   xmlns:rdf="http://www.w3.org/1999/02/22-rdf-syntax-ns#"
   xmlns:svg="http://www.w3.org/2000/svg"
   xmlns="http://www.w3.org/2000/svg"
   xmlns:sodipodi="http://sodipodi.sourceforge.net/DTD/sodipodi-0.dtd"
   xmlns:inkscape="http://www.inkscape.org/namespaces/inkscape"
   version="1.1"
   id="svg3800"
   xml:space="preserve"
   width="100%"
   height="100%"
   viewBox="0 0 31.999733 31.999733"
   sodipodi:docname="bahia.svg"
   inkscape:version="0.92.1 r15371"><metadata
     id="metadata3806"><rdf:RDF><cc:Work
         rdf:about=""><dc:format>image/svg+xml</dc:format><dc:type
           rdf:resource="http://purl.org/dc/dcmitype/StillImage" /><dc:title></dc:title></cc:Work></rdf:RDF></metadata><defs
     id="defs3804"><radialGradient
       fx="0"
       fy="0"
       cx="0"
       cy="0"
       r="0.5"
       gradientUnits="userSpaceOnUse"
       gradientTransform="matrix(33.93935,0,0,33.93935,11.9999,11.9999)"
       spreadMethod="pad"
       id="radialGradient3828"><stop
         style="stop-opacity:1;stop-color:#009ae3"
         offset="0"
         id="stop3822" /><stop
         style="stop-opacity:1;stop-color:#0088d1"
         offset="0.42"
         id="stop3824" /><stop
         style="stop-opacity:1;stop-color:#40187a"
         offset="1"
         id="stop3826" /></radialGradient><radialGradient
       fx="0"
       fy="0"
       cx="0"
       cy="0"
       r="0.5"
       gradientUnits="userSpaceOnUse"
       gradientTransform="matrix(13.34173,0,0,13.34173,12.8479,12.0585)"
       spreadMethod="pad"
       id="radialGradient3916"><stop
         style="stop-opacity:1;stop-color:#d92819"
         offset="0"
         id="stop3910" /><stop
         style="stop-opacity:1;stop-color:#d92819"
         offset="0.59"
         id="stop3912" /><stop
         style="stop-opacity:1;stop-color:#a82d1a"
         offset="1"
         id="stop3914" /></radialGradient><radialGradient
       fx="0"
       fy="0"
       cx="0"
       cy="0"
       r="0.5"
       gradientUnits="userSpaceOnUse"
       gradientTransform="matrix(15.12231,0,0,15.12231,12.842,12.1145)"
       spreadMethod="pad"
       id="radialGradient3938"><stop
         style="stop-opacity:1;stop-color:#009ae3"
         offset="0"
         id="stop3932" /><stop
         style="stop-opacity:1;stop-color:#0088d1"
         offset="0.42"
         id="stop3934" /><stop
         style="stop-opacity:1;stop-color:#40187a"
         offset="1"
         id="stop3936" /></radialGradient><radialGradient
       fx="0"
       fy="0"
       cx="0"
       cy="0"
       r="0.5"
       gradientUnits="userSpaceOnUse"
       gradientTransform="matrix(12.60949,0,0,12.60949,7.7432,10.6689)"
       spreadMethod="pad"
       id="radialGradient3958"><stop
         style="stop-opacity:1;stop-color:#009ae3"
         offset="0"
         id="stop3952" /><stop
         style="stop-opacity:1;stop-color:#0088d1"
         offset="0.42"
         id="stop3954" /><stop
         style="stop-opacity:1;stop-color:#40187a"
         offset="1"
         id="stop3956" /></radialGradient><radialGradient
       fx="0"
       fy="0"
       cx="0"
       cy="0"
       r="0.5"
       gradientUnits="userSpaceOnUse"
       gradientTransform="matrix(8.96363,0,0,8.96363,13.3368,8.6846)"
       spreadMethod="pad"
       id="radialGradient3978"><stop
         style="stop-opacity:1;stop-color:#d92819"
         offset="0"
         id="stop3972" /><stop
         style="stop-opacity:1;stop-color:#d92819"
         offset="0.59"
         id="stop3974" /><stop
         style="stop-opacity:1;stop-color:#a82d1a"
         offset="1"
         id="stop3976" /></radialGradient><radialGradient
       fx="0"
       fy="0"
       cx="0"
       cy="0"
       r="0.5"
       gradientUnits="userSpaceOnUse"
       gradientTransform="matrix(2.73028,0,0,2.73028,10.4092,14.8811)"
       spreadMethod="pad"
       id="radialGradient4004"><stop
         style="stop-opacity:1;stop-color:#d92819"
         offset="0"
         id="stop3998" /><stop
         style="stop-opacity:1;stop-color:#d92819"
         offset="0.59"
         id="stop4000" /><stop
         style="stop-opacity:1;stop-color:#a82d1a"
         offset="1"
         id="stop4002" /></radialGradient><radialGradient
       fx="0"
       fy="0"
       cx="0"
       cy="0"
       r="0.5"
       gradientUnits="userSpaceOnUse"
       gradientTransform="matrix(3.0951,0,0,3.0951,10.408,14.8925)"
       spreadMethod="pad"
       id="radialGradient4026"><stop
         style="stop-opacity:1;stop-color:#009ae3"
         offset="0"
         id="stop4020" /><stop
         style="stop-opacity:1;stop-color:#0088d1"
         offset="0.42"
         id="stop4022" /><stop
         style="stop-opacity:1;stop-color:#40187a"
         offset="1"
         id="stop4024" /></radialGradient><radialGradient
       fx="0"
       fy="0"
       cx="0"
       cy="0"
       r="0.5"
       gradientUnits="userSpaceOnUse"
       gradientTransform="matrix(2.58067,0,0,2.58067,9.3645,14.5967)"
       spreadMethod="pad"
       id="radialGradient4046"><stop
         style="stop-opacity:1;stop-color:#009ae3"
         offset="0"
         id="stop4040" /><stop
         style="stop-opacity:1;stop-color:#0088d1"
         offset="0.42"
         id="stop4042" /><stop
         style="stop-opacity:1;stop-color:#40187a"
         offset="1"
         id="stop4044" /></radialGradient><radialGradient
       fx="0"
       fy="0"
       cx="0"
       cy="0"
       r="0.5"
       gradientUnits="userSpaceOnUse"
       gradientTransform="matrix(1.83458,0,0,1.83458,10.5093,14.1906)"
       spreadMethod="pad"
       id="radialGradient4066"><stop
         style="stop-opacity:1;stop-color:#d92819"
         offset="0"
         id="stop4060" /><stop
         style="stop-opacity:1;stop-color:#d92819"
         offset="0.59"
         id="stop4062" /><stop
         style="stop-opacity:1;stop-color:#a82d1a"
         offset="1"
         id="stop4064" /></radialGradient></defs><sodipodi:namedview
     pagecolor="#ffffff"
     bordercolor="#666666"
     borderopacity="1"
     objecttolerance="10"
     gridtolerance="10"
     guidetolerance="10"
     inkscape:pageopacity="0"
     inkscape:pageshadow="2"
     inkscape:window-width="1328"
     inkscape:window-height="780"
     id="namedview3802"
     showgrid="false"
     inkscape:zoom="0.87012445"
     inkscape:cx="-199.26273"
     inkscape:cy="60.079561"
     inkscape:window-x="294"
     inkscape:window-y="116"
     inkscape:window-maximized="0"
     inkscape:current-layer="g3808" /><g
     id="g3808"
     inkscape:groupmode="layer"
     inkscape:label="bahia"
     transform="matrix(1.3333333,0,0,-1.3333333,0,31.999733)"><g
       id="g3810"><g
         id="g3812"><g
           id="g3814"><g
             id="g3820"><path
               d="m 12.0084,-3e-4 0.6157,0.0156 0.6075,0.0465 0.5989,0.0765 0.5896,0.106 0.5794,0.1344 0.5684,0.1622 0.5567,0.1893 0.544,0.2154 0.5309,0.2407 0.517,0.2656 0.5021,0.2897 0.4864,0.313 0.4702,0.335 0.4533,0.3569 0.4354,0.3778 0.4167,0.398 0.3974,0.4173 0.3773,0.4357 0.3563,0.4538 0.3348,0.4708 0.3124,0.487 0.2894,0.5029 0.265,0.5173 0.2407,0.5318 0.2151,0.5445 0.1891,0.5573 0.1619,0.5692 0.134,0.58 0.1061,0.5902 0.0762,0.5995 0.0465,0.6083 0.0156,0.6163 -0.0156,0.6154 -0.0465,0.6074 -0.0762,0.599 -0.1061,0.5896 -0.134,0.5794 -0.1619,0.5683 -0.1891,0.557 -0.2151,0.5443 -0.2407,0.5309 -0.265,0.5171 -0.2894,0.5025 -0.3124,0.4868 -0.3348,0.4705 -0.3563,0.4536 -0.3773,0.4354 -0.3974,0.4172 -0.4167,0.3977 -0.4354,0.3776 -0.4533,0.3566 -0.4702,0.3353 -0.4864,0.3127 -0.5021,0.2894 -0.517,0.2656 -0.5309,0.241 -0.544,0.2151 -0.5567,0.1894 -0.5684,0.1621 -0.5794,0.1344 -0.5896,0.1057 -0.5989,0.0765 -0.6075,0.0465 -0.6157,0.0159 L 11.3922,23.9842 10.7836,23.9377 10.1837,23.8612 9.5936,23.7555 9.0133,23.6211 8.4444,23.459 7.8868,23.2696 7.342,23.0545 6.8105,22.8135 6.2929,22.5479 5.79,22.2585 5.3028,21.9458 4.8319,21.6105 4.3781,21.2539 3.9419,20.8763 3.5246,20.4786 3.1266,20.0614 2.7488,19.626 2.3919,19.1724 2.0565,18.7019 1.7436,18.2151 1.4539,17.7126 1.1883,17.1955 0.9473,16.6646 0.7319,16.1203 0.5426,15.5633 0.3804,14.995 0.246,14.4156 0.14,13.826 0.0635,13.227 0.017,12.6196 0.0014,12.0042 0.017,11.3879 0.0635,10.7796 0.14,10.1801 0.246,9.5899 0.3804,9.0099 0.5426,8.4407 0.7319,7.8834 0.9473,7.3389 1.1883,6.8071 1.4539,6.2898 1.7436,5.7869 2.0565,5.2999 2.3919,4.8291 2.7488,4.3753 3.1266,3.9396 3.5246,3.5223 3.9419,3.1243 4.3781,2.7465 4.8319,2.3896 5.3028,2.0546 5.79,1.7416 6.2929,1.4519 6.8105,1.1863 7.342,0.9456 7.8868,0.7302 8.4444,0.5409 9.0133,0.3787 9.5936,0.2443 10.1837,0.1383 10.7836,0.0618 11.3922,0.0153 Z"
               style="fill:url(#radialGradient3828);fill-rule:evenodd;stroke:none"
               id="path3830"
               inkscape:connector-curvature="0" /></g></g></g><g
         id="g3832"><path
           d="M 12.0339,5.1738 11.685,5.1829 11.3406,5.2089 11.0007,5.2523 10.6662,5.3121 10.3374,5.3884 10.0148,5.4802 9.699,5.5874 9.39,5.7093 9.0893,5.8456 8.7959,5.9961 8.5113,6.16 8.2355,6.3369 7.969,6.5265 7.7122,6.7283 7.4656,6.942 7.2295,7.1671 7.0047,7.403 6.791,7.6496 6.5889,7.9064 6.3992,8.1729 6.2223,8.4484 6.0585,8.733 5.908,9.0261 5.7716,9.3271 5.6494,9.6358 5.5423,9.9516 l -0.0918,0.3223 -0.076,0.3288 -0.0601,0.3345 -0.0434,0.3396 -0.0263,0.3447 -0.0088,0.3489 0.0088,0.3478 0.0263,0.3439 0.0434,0.339 0.0601,0.3339 0.076,0.3283 0.0921,0.3217 0.1071,0.3155 0.1219,0.3081 0.1367,0.3008 0.1502,0.2925 0.1641,0.2843 0.1769,0.2753 0.1896,0.2662 0.2019,0.2562 0.2137,0.2463 0.2251,0.2359 0.2361,0.2248 0.2466,0.2134 0.2568,0.2018 0.2665,0.1894 0.2758,0.1769 0.2846,0.1638 0.2928,0.1503 0.3013,0.1363 0.3087,0.1219 0.3158,0.1071 0.3226,0.0919 0.3288,0.076 0.3345,0.06 0.3396,0.0434 0.3447,0.0261 0.3489,0.0091 0.3475,-0.0091 0.343,-0.0264 0.3388,-0.0433 0.3336,-0.0598 0.3277,-0.076 0.3217,-0.0921 0.3152,-0.1072 0.3079,-0.1219 0.3007,-0.1363 0.2926,-0.1503 0.284,-0.1635 0.2755,-0.1769 0.2662,-0.1894 0.2566,-0.2018 0.2466,-0.2134 0.2358,-0.2248 0.2251,-0.2359 0.2137,-0.246 0.2021,-0.2565 0.1897,-0.2659 0.1771,-0.2753 0.1641,-0.2843 0.1509,-0.2925 0.1363,-0.3008 0.1225,-0.3081 0.1071,-0.3152 0.0924,-0.322 0.0763,-0.3283 0.0601,-0.3339 0.0433,-0.3393 0.0264,-0.3439 0.0088,-0.3478 L 18.8144,11.6215 18.788,11.2768 18.7447,10.9369 18.6846,10.6024 18.6083,10.2736 18.5162,9.9513 18.4088,9.6352 18.2866,9.3268 18.15,9.0258 17.9994,8.7327 17.8353,8.4481 17.6581,8.1726 17.4682,7.9061 17.2664,7.6496 17.0524,7.403 16.8276,7.1671 16.5915,6.942 16.3451,6.7286 16.0886,6.5265 15.8224,6.3371 15.5469,6.1603 15.2626,5.9961 14.97,5.8459 14.6693,5.7095 14.3614,5.5877 14.0462,5.4805 13.7245,5.3884 13.3968,5.3124 13.0632,5.2523 12.7244,5.2089 12.3812,5.1826 Z m 0,-0.5457 L 11.6575,4.6375 11.285,4.6661 10.9179,4.7129 10.5565,4.7775 10.201,4.8597 9.8524,4.9592 9.5108,5.0749 9.1772,5.2067 8.8517,5.3541 8.5351,5.5165 8.2276,5.6937 7.9296,5.8847 7.6419,6.0894 7.3647,6.3074 7.0985,6.5381 6.8434,6.781 6.6008,7.0359 6.3697,7.302 6.1517,7.5793 5.9471,7.867 5.7557,8.1646 5.5789,8.4722 5.4164,8.7888 5.2688,9.1142 5.1369,9.4479 5.021,9.7892 4.9218,10.1375 4.8396,10.493 l -0.0649,0.3614 -0.0468,0.3671 -0.0283,0.3722 -0.0097,0.3767 0.0097,0.3756 0.0283,0.3714 0.0468,0.3665 0.0649,0.3611 0.0825,0.3549 0.0992,0.3481 0.1159,0.3407 0.1318,0.3334 0.1477,0.3248 0.1624,0.3164 0.1772,0.307 0.1911,0.2973 0.2049,0.2875 0.218,0.2766 0.2305,0.2659 0.2432,0.2548 0.2548,0.2427 0.2662,0.2304 0.2772,0.2177 0.2877,0.2047 0.2979,0.1911 0.3076,0.1768 0.3163,0.1622 0.3257,0.1474 0.3337,0.1318 0.3413,0.1157 0.3486,0.0992 0.3555,0.0825 0.3617,0.0646 0.3668,0.0468 0.3722,0.0286 0.3767,0.0093 0.3753,-0.0093 0.3711,-0.0286 0.3659,-0.0468 0.3606,-0.0649 0.3546,-0.0822 0.3478,-0.0995 0.3405,-0.1157 0.333,-0.1318 0.3249,-0.1474 0.3161,-0.1621 0.3069,-0.1772 0.2974,-0.1908 0.2874,-0.2046 0.277,-0.2177 0.2662,-0.2305 0.2545,-0.2426 0.2429,-0.2543 0.2308,-0.2659 0.2182,-0.2767 0.2047,-0.2871 0.1916,-0.2976 0.1772,-0.307 0.1627,-0.3161 0.1477,-0.3249 0.1321,-0.333 0.1162,-0.341 0.0995,-0.3481 0.0825,-0.3549 0.0652,-0.3612 0.0467,-0.3668 0.0287,-0.3716 0.0096,-0.3756 L 19.3598,11.5937 19.3311,11.2215 19.2844,10.8541 19.2192,10.4924 19.1367,10.137 19.0372,9.7886 18.9213,9.447 18.7892,9.1134 18.6415,8.7883 18.4788,8.4716 18.3016,8.1641 18.1103,7.8664 17.9053,7.579 17.6871,7.3018 17.4563,7.0356 17.2137,6.781 16.9591,6.5384 16.6927,6.3077 16.4157,6.0897 16.1286,5.885 15.8309,5.694 15.5239,5.5168 15.2076,5.3544 14.8827,5.207 14.55,5.0751 14.2092,4.9595 13.8614,4.86 13.5068,4.7778 13.1462,4.7129 12.7803,4.6661 12.4089,4.6375 Z"
           style="fill:#ffffff;fill-opacity:1;fill-rule:evenodd;stroke:none"
           id="path3834"
           inkscape:connector-curvature="0" /><path
           d="m 12.0254,23.1437 c 6.1572,0 11.1507,-4.994 11.1507,-11.152 0,-6.1583 -4.9935,-11.1524 -11.1507,-11.1524 -6.1574,0 -11.1506,4.9941 -11.1506,11.1524 0,6.158 4.9932,11.152 11.1506,11.152 z m 0,-0.5456 c 5.8558,0 10.6047,-4.7498 10.6047,-10.6064 0,-5.857 -4.7489,-10.6067 -10.6047,-10.6067 -5.8561,0 -10.605,4.7497 -10.605,10.6067 0,5.8566 4.7489,10.6064 10.605,10.6064"
           style="fill:#ffffff;fill-opacity:1;fill-rule:evenodd;stroke:none"
           id="path3836"
           inkscape:connector-curvature="0" /></g><g
         id="g3838"><g
           id="g3840"><path
             d="m 21.9889,10.563 0.0678,0.4238 -1.2382,0.195 -0.8223,0.1273 -0.0511,0.0085 -0.0677,-0.4241 0.1188,-0.0167 0.8056,-0.1273 -0.1273,-0.8393 -0.6783,0.1103 -0.2461,0.0422 -0.0677,-0.4323 0.3138,-0.0507 0.8223,-0.1273 0.9754,-0.1525 0.0677,0.4238 -0.8308,0.1355 0.127,0.8311 z"
             style="fill:#ffffff;fill-opacity:1;fill-rule:evenodd;stroke:none"
             id="path3842"
             inkscape:connector-curvature="0" /><path
             d="m 19.9962,9.0709 -0.5174,0.1865 -0.1442,-0.4071 0.6616,-0.2287 0.8223,-0.288 0.5343,-0.1783 0.1443,0.407 -0.6786,0.2288 z"
             style="fill:#ffffff;fill-opacity:1;fill-rule:evenodd;stroke:none"
             id="path3844"
             inkscape:connector-curvature="0" /><path
             d="m 19.9962,13.6063 -0.1355,0.0425 0.0167,-0.4493 0.1188,-0.0425 0.3648,-0.1185 0.0337,-0.8563 -0.3985,-0.1695 -0.0763,-0.0341 0.017,-0.466 0.0593,0.0253 0.8223,0.3645 1.2212,0.534 -0.0168,0.4578 -1.2044,0.4241 z m 1.5346,-0.9493 -0.7123,-0.2883 -0.0678,-0.034 -0.0252,0.585 0.093,-0.034 z"
             style="fill:#ffffff;fill-opacity:1;fill-rule:evenodd;stroke:none"
             id="path3846"
             inkscape:connector-curvature="0" /><path
             d="M 19.3008,8.6386 19.0633,8.2485 19.3856,7.8503 18.9445,7.1209 18.436,7.206 18.1899,6.8074 19.9962,6.5106 20.4625,6.4429 20.7,6.8329 19.9962,7.7315 Z m 0.8564,-1.7464 -0.161,0.034 -0.6699,0.127 0.2968,0.5003 0.3731,-0.4578 z"
             style="fill:#ffffff;fill-opacity:1;fill-rule:evenodd;stroke:none"
             id="path3848"
             inkscape:connector-curvature="0" /><path
             d="m 18.8005,16.7941 -0.7971,0.8816 0.4326,0.3901 0.712,-0.7971 0.2716,0.2375 -0.7209,0.7968 0.3561,0.3223 0.7716,-0.8563 0.1698,0.1525 0.0932,0.0847 -0.0932,0.1103 -0.9667,1.0681 -1.2889,-1.1614 -0.2968,-0.2627 0.2968,-0.3305 0.7886,-0.8819 z"
             style="fill:#ffffff;fill-opacity:1;fill-rule:evenodd;stroke:none"
             id="path3850"
             inkscape:connector-curvature="0" /><path
             d="m 19.1228,15.446 0.2628,-0.6781 c 0.1017,-0.2542 0.1695,-0.4155 0.2035,-0.4833 0.0507,-0.1017 0.1188,-0.178 0.195,-0.2287 0.0596,-0.0425 0.1358,-0.0766 0.2121,-0.0848 0.017,-0.0085 0.0425,-0.0085 0.0592,-0.0085 0.1018,-0.0085 0.195,0 0.2886,0.0337 0.1185,0.0511 0.2035,0.1188 0.2627,0.2206 0.0593,0.0932 0.0848,0.212 0.0763,0.3475 0.0425,-0.0422 0.0847,-0.0762 0.1355,-0.1018 0.0425,-0.017 0.0765,-0.0337 0.1188,-0.0337 0.0935,-0.0255 0.1868,-0.017 0.28,0.0167 0.0848,0.0341 0.161,0.0848 0.2118,0.1528 0.051,0.0678 0.0935,0.144 0.1102,0.2203 0.017,0.0765 0.017,0.1528 0,0.2375 -0.0167,0.0848 -0.0507,0.2033 -0.1184,0.3561 l -0.3053,0.7968 -0.2971,-0.1103 -0.8223,-0.3135 z m 1.6957,0.195 0.1188,0.0425 0.0935,-0.229 c 0.0678,-0.195 0.11,-0.305 0.127,-0.3475 0.017,-0.0763 0.0085,-0.1355 -0.017,-0.1781 -0.0252,-0.0507 -0.0678,-0.0847 -0.1273,-0.1102 -0.0677,-0.0253 -0.127,-0.0253 -0.178,0 -0.0085,0 -0.0085,0 -0.017,0 -0.0422,0.0255 -0.0845,0.0765 -0.1185,0.1358 -0.017,0.034 -0.0595,0.1269 -0.1188,0.2882 l -0.1017,0.2628 z m -0.6698,-0.2628 0.1272,-0.322 c 0.0681,-0.1865 0.1018,-0.3053 0.1018,-0.373 0.0085,-0.0595 -0.0085,-0.1103 -0.0425,-0.161 -0.0252,-0.0425 -0.0763,-0.0766 -0.1355,-0.1018 -0.068,-0.0255 -0.1273,-0.0255 -0.1865,-0.0085 -0.0085,0 -0.0085,0.0085 -0.017,0.0085 -0.0511,0.0252 -0.0848,0.0593 -0.1188,0.11 -0.0252,0.034 -0.0593,0.1273 -0.1188,0.2716 l -0.144,0.3727 0.3816,0.1443 z"
             style="fill:#ffffff;fill-opacity:1;fill-rule:evenodd;stroke:none"
             id="path3852"
             inkscape:connector-curvature="0" /><path
             d="m 17.5456,18.5743 c 0.0593,0.1103 0.0848,0.2205 0.0763,0.3305 -0.017,0.1188 -0.0678,0.2206 -0.1613,0.3223 0.102,-0.0085 0.1953,0.0085 0.28,0.0425 l 0.0085,0.0083 c 0.0848,0.0425 0.161,0.1102 0.2118,0.195 0.0425,0.0762 0.068,0.1613 0.068,0.246 0,0.0848 -0.0085,0.161 -0.0425,0.2373 -0.034,0.0677 -0.0848,0.1358 -0.1525,0.1865 -0.0255,0.0255 -0.0595,0.051 -0.0933,0.0763 -0.0595,0.0425 -0.1272,0.0847 -0.2205,0.1442 l -0.356,0.2118 -0.3731,0.2205 -0.9669,-1.6109 -0.1355,-0.2203 0.1355,-0.0762 0.4918,-0.2968 c 0.2376,-0.1358 0.3901,-0.2205 0.4493,-0.2543 0.1106,-0.0425 0.2123,-0.068 0.3056,-0.0595 0.0337,0 0.0592,0.0085 0.0933,0.017 0.0592,0.017 0.1185,0.0425 0.178,0.0763 0.0847,0.051 0.1525,0.1272 0.2035,0.2035 z m -0.373,0.2543 c 0,-0.0083 0,-0.0083 -0.0085,-0.0168 -0.0341,-0.0595 -0.0851,-0.0932 -0.1358,-0.1102 -0.0595,-0.017 -0.1188,-0.017 -0.178,0.0085 -0.0426,0.0085 -0.1273,0.0592 -0.2631,0.1355 l -0.339,0.212 0.2968,0.4833 0.2968,-0.178 c 0.1695,-0.1018 0.2712,-0.1698 0.3138,-0.2205 0,-0.0085 0.0085,-0.0085 0.0085,-0.017 0.0337,-0.0423 0.0507,-0.0933 0.0507,-0.1355 0.0085,-0.0596 -0.0085,-0.1103 -0.0422,-0.1613 z m 0.0677,0.7205 c -0.017,0.0085 -0.0425,0.017 -0.0762,0.034 -0.0426,0.0341 -0.1103,0.0678 -0.1953,0.1188 l -0.2458,0.144 0.2545,0.4241 0.1866,-0.1103 0.0252,-0.017 c 0.1783,-0.1018 0.2798,-0.1695 0.3138,-0.195 0.0595,-0.0423 0.0932,-0.0933 0.1018,-0.144 0.0085,-0.0595 0,-0.1103 -0.0338,-0.1695 -0.0425,-0.0596 -0.0847,-0.0933 -0.1443,-0.1103 -0.0592,-0.017 -0.1187,-0.0085 -0.1865,0.0252"
             style="fill:#ffffff;fill-opacity:1;fill-rule:evenodd;stroke:none"
             id="path3854"
             inkscape:connector-curvature="0" /><path
             d="m 15.9514,21.1938 -0.1273,0.0425 -0.2798,0.0933 -0.39,-1.1106 c -0.051,-0.161 -0.1018,-0.2798 -0.1358,-0.3391 -0.0337,-0.0677 -0.093,-0.1102 -0.161,-0.1357 -0.0762,-0.0338 -0.1695,-0.0253 -0.2883,0.017 -0.1187,0.034 -0.195,0.0932 -0.246,0.1695 -0.0508,0.068 -0.0678,0.1528 -0.0508,0.2375 0,0.0593 0.0341,0.1695 0.0933,0.3475 l 0.3815,1.0937 -0.407,0.1355 -0.3645,-1.0766 c -0.0766,-0.2288 -0.1188,-0.3983 -0.1358,-0.5256 -0.0085,-0.0847 0,-0.1695 0.034,-0.2628 0.034,-0.0932 0.0932,-0.178 0.1695,-0.2542 0.0848,-0.0766 0.2205,-0.1528 0.4156,-0.2206 0.1613,-0.051 0.2967,-0.0762 0.4155,-0.0677 0.1103,0 0.2035,0.0337 0.2883,0.0762 0.0848,0.0508 0.1525,0.1188 0.212,0.2121 0.0593,0.0932 0.127,0.2627 0.2118,0.5085 l 0.2375,0.6866 z"
             style="fill:#ffffff;fill-opacity:1;fill-rule:evenodd;stroke:none"
             id="path3856"
             inkscape:connector-curvature="0" /><path
             d="m 7.4123,18.7693 -0.2968,0.5003 0.9159,0.5511 -0.1865,0.305 -0.9159,-0.5511 -0.2458,0.4071 0.9922,0.5933 -0.1865,0.3053 -1.1535,-0.6866 -0.2035,-0.1272 0.2035,-0.3391 0.8904,-1.4921 1.3907,0.8393 -0.178,0.305 z"
             style="fill:#ffffff;fill-opacity:1;fill-rule:evenodd;stroke:none"
             id="path3858"
             inkscape:connector-curvature="0" /><path
             d="m 10.8213,20.1849 c -0.0678,-0.0844 -0.161,-0.1355 -0.2713,-0.1525 -0.1528,-0.0252 -0.2886,0.0085 -0.4071,0.1103 -0.1102,0.0933 -0.1865,0.2798 -0.229,0.5426 -0.0422,0.2542 -0.0255,0.4407 0.0592,0.568 0.0766,0.127 0.1951,0.2036 0.3563,0.2288 0.1103,0.017 0.2121,0 0.2968,-0.0508 0.0933,-0.051 0.161,-0.1272 0.2036,-0.229 l 0.3985,0.1695 c -0.0677,0.1613 -0.1613,0.2713 -0.2713,0.3478 -0.1868,0.127 -0.407,0.1695 -0.6701,0.1355 -0.2968,-0.0507 -0.517,-0.1865 -0.6698,-0.4068 -0.144,-0.2205 -0.195,-0.5088 -0.1358,-0.8648 0.051,-0.3305 0.1783,-0.5763 0.3904,-0.7376 0.2117,-0.161 0.4577,-0.2202 0.7375,-0.178 0.2291,0.034 0.4071,0.1188 0.5344,0.2543 0.127,0.1358 0.2035,0.3223 0.2372,0.5595 L 10.94,20.5498 C 10.9315,20.3885 10.889,20.27 10.8213,20.1849"
             style="fill:#ffffff;fill-opacity:1;fill-rule:evenodd;stroke:none"
             id="path3860"
             inkscape:connector-curvature="0" /><path
             d="m 12.3559,21.9229 -0.4237,0.0085 -0.0766,-2.1107 1.501,-0.051 0.017,0.356 -1.0769,0.034 z"
             style="fill:#ffffff;fill-opacity:1;fill-rule:evenodd;stroke:none"
             id="path3862"
             inkscape:connector-curvature="0" /><path
             d="m 5.1823,18.7863 0.4071,0.4833 -0.2798,0.2373 -0.3138,-0.373 -0.7716,-0.9241 0.2713,-0.2373 0.407,0.483 0.0933,-0.0762 1.2719,-1.0596 0.0677,0.0847 0.2036,0.2458 -0.2036,0.1695 z"
             style="fill:#ffffff;fill-opacity:1;fill-rule:evenodd;stroke:none"
             id="path3864"
             inkscape:connector-curvature="0" /><path
             d="M 4.9958,16.7601 C 4.945,16.7516 4.894,16.7431 4.86,16.7346 4.7752,16.7094 4.682,16.6754 4.5887,16.6161 c 0.0678,0.178 0.0763,0.3305 0.034,0.466 -0.0425,0.1358 -0.1357,0.2376 -0.2797,0.3138 -0.1103,0.0678 -0.2206,0.0933 -0.3393,0.0848 -0.0426,0 -0.0848,-0.0085 -0.1273,-0.0255 C 3.8171,17.4382 3.7576,17.4044 3.7069,17.3619 3.6221,17.2942 3.5203,17.1587 3.4101,16.9551 L 2.9775,16.1583 3.8764,15.658 4.843,15.124 4.9958,15.4037 5.0465,15.5055 4.9958,15.531 4.2749,15.9378 4.3174,16.014 c 0.0423,0.0848 0.0848,0.1443 0.1188,0.1781 0.0423,0.034 0.0848,0.051 0.144,0.068 0.0593,0.0167 0.1865,0.0337 0.3816,0.0507 h 0.034 l 0.5258,0.0423 0.2543,0.4493 -0.4918,-0.0253 c -0.1188,0 -0.2121,-0.0085 -0.2883,-0.017 z M 4.2919,16.7346 c -0.0085,-0.0592 -0.0677,-0.178 -0.161,-0.356 l -0.1613,-0.2798 -0.0932,0.051 -0.3816,0.2118 0.1695,0.2968 c 0.0848,0.1527 0.1358,0.246 0.1528,0.2712 0.0255,0.0255 0.0423,0.0426 0.0593,0.0593 0.034,0.017 0.0595,0.034 0.0932,0.0425 0.0596,0.0085 0.1188,0 0.1866,-0.034 0.051,-0.0337 0.0932,-0.0678 0.1187,-0.1185 0.017,-0.0425 0.0255,-0.0933 0.017,-0.1443"
             style="fill:#ffffff;fill-opacity:1;fill-rule:evenodd;stroke:none"
             id="path3866"
             inkscape:connector-curvature="0" /><path
             d="M 4.928,8.5793 4.6142,8.3928 4.9958,7.757 5.233,7.3755 4.9958,7.2312 4.733,7.0702 4.1817,7.9943 3.8764,7.8077 H 3.8679 L 3.8764,7.7907 4.4192,6.8837 4.0207,6.6464 3.8764,6.8751 3.4271,7.6297 3.1133,7.4432 3.8764,6.1716 3.9274,6.0868 4.9958,6.7311 5.7589,7.1889 4.9958,8.4606 Z"
             style="fill:#ffffff;fill-opacity:1;fill-rule:evenodd;stroke:none"
             id="path3868"
             inkscape:connector-curvature="0" /><path
             d="m 3.8764,10.8003 0.3478,0.0255 -0.0255,0.4323 -0.3223,-0.0255 -0.4833,-0.0338 -0.017,0.2798 c -0.017,0.195 -0.0338,0.3475 -0.0593,0.4493 -0.0255,0.0678 -0.0677,0.144 -0.1188,0.212 -0.0592,0.0678 -0.1357,0.127 -0.2205,0.1695 -0.0762,0.0338 -0.161,0.0508 -0.2628,0.0508 -0.0255,0 -0.0507,0 -0.0762,-0.0085 C 2.4687,12.3432 2.3332,12.2924 2.2314,12.1992 2.1297,12.1144 2.0704,12.0042 2.0449,11.8854 2.0279,11.8006 2.0279,11.6311 2.0534,11.3683 l 0.0423,-0.6865 0.619,0.0422 z m -1.4499,0.3308 -0.0085,0.212 c -0.0171,0.1525 -0.0171,0.254 -0.0086,0.305 0.0086,0.0763 0.0341,0.1355 0.0763,0.1865 0.051,0.0423 0.1103,0.0763 0.1865,0.0763 0.017,0 0.034,0 0.0425,0 0.0508,0 0.0933,-0.017 0.1273,-0.034 0.0508,-0.0338 0.0933,-0.0763 0.1188,-0.127 C 2.986,11.6904 3.003,11.5804 3.02,11.4109 l 0.0085,-0.2376 -0.3138,-0.017 z"
             style="fill:#ffffff;fill-opacity:1;fill-rule:evenodd;stroke:none"
             id="path3870"
             inkscape:connector-curvature="0" /><path
             d="m 3.2913,8.4521 c 0.1613,0.0507 0.2798,0.161 0.3478,0.322 0.0508,0.1102 0.0678,0.2883 0.0508,0.5258 -0.0085,0.1865 -0.017,0.305 -0.017,0.356 0,0.0763 0.017,0.1355 0.0425,0.1781 0.0255,0.0337 0.0592,0.0677 0.1102,0.0762 0.017,0.0085 0.0338,0.017 0.0508,0.017 0.0595,0 0.1187,-0.017 0.1783,-0.0507 0.0762,-0.0511 0.1355,-0.1358 0.178,-0.2716 0.0422,-0.127 0.0422,-0.2372 0,-0.3305 C 4.1987,9.1811 4.1139,9.1049 3.9866,9.0371 l 0.1696,-0.39 C 4.3767,8.7489 4.521,8.8843 4.5972,9.0624 4.665,9.2404 4.665,9.4609 4.5802,9.7152 4.521,9.8932 4.4529,10.029 4.3597,10.1307 4.2749,10.2322 4.1647,10.3003 4.0459,10.334 3.9866,10.3425 3.9359,10.351 3.8764,10.351 3.8171,10.351 3.7491,10.3425 3.6899,10.3258 3.5626,10.2832 3.4611,10.2155 3.3931,10.1392 3.3168,10.0542 3.2743,9.9609 3.2576,9.8425 3.2406,9.7322 3.2406,9.5712 3.2576,9.3591 3.2743,9.1389 3.2658,9.0031 3.2406,8.9354 3.2236,8.8843 3.1895,8.8503 3.1388,8.8336 3.0878,8.8166 3.037,8.8251 2.9945,8.8588 2.9183,8.9099 2.8672,8.9946 2.825,9.1134 2.791,9.2319 2.7825,9.3254 2.808,9.3932 2.8335,9.4694 2.9013,9.5287 3.003,9.5797 L 2.8505,9.9865 C 2.7995,9.9694 2.7573,9.9442 2.7147,9.9272 2.6045,9.8592 2.5197,9.7577 2.4687,9.6389 2.3924,9.4694 2.4009,9.2659 2.4857,9.0031 2.5367,8.8503 2.6045,8.7233 2.6892,8.6301 2.6977,8.6216 2.7062,8.6046 2.7147,8.5963 2.791,8.5201 2.8757,8.4691 2.9775,8.4436 3.0793,8.418 3.1895,8.418 3.2913,8.4521"
             style="fill:#ffffff;fill-opacity:1;fill-rule:evenodd;stroke:none"
             id="path3872"
             inkscape:connector-curvature="0" /><path
             d="m 2.3839,13.5726 c 0.0596,-0.1103 0.1358,-0.1951 0.2206,-0.2713 0.034,-0.034 0.0762,-0.0593 0.1102,-0.0848 0.1103,-0.0677 0.2376,-0.1187 0.3901,-0.161 0.2968,-0.085 0.551,-0.085 0.7716,0.0082 0.0255,0.0171 0.051,0.0256 0.0762,0.0426 0.2376,0.1272 0.3986,0.339 0.4921,0.6443 0.0848,0.3053 0.0593,0.568 -0.0765,0.8053 -0.1018,0.178 -0.2628,0.3138 -0.4918,0.4156 C 3.8171,14.9967 3.7409,15.0222 3.6643,15.0477 3.3338,15.141 3.0455,15.124 2.808,14.9967 2.774,14.9797 2.7488,14.963 2.7147,14.946 2.5282,14.8102 2.3924,14.6154 2.3162,14.3524 2.2737,14.1829 2.2569,14.0304 2.2737,13.8861 2.2822,13.7846 2.3247,13.6743 2.3839,13.5726 Z m 0.2883,0.6865 c 0.017,0.0425 0.0255,0.0766 0.0425,0.1103 0.0593,0.1103 0.1443,0.195 0.2461,0.246 0.1525,0.0763 0.339,0.0763 0.5766,0.0083 0.1355,-0.0423 0.2542,-0.0933 0.339,-0.1611 0.068,-0.0422 0.1102,-0.0932 0.1528,-0.1525 C 4.1139,14.1659 4.1309,14.0134 4.0884,13.8523 4.0547,13.7251 3.9781,13.6233 3.8764,13.5471 3.8511,13.53 3.8256,13.5133 3.7916,13.4963 3.6391,13.4201 3.4441,13.4201 3.2151,13.4878 2.9775,13.5556 2.8165,13.6573 2.7317,13.7928 2.7232,13.8013 2.7232,13.8098 2.7147,13.8183 2.6385,13.9456 2.63,14.0981 2.6722,14.2591"
             style="fill:#ffffff;fill-opacity:1;fill-rule:evenodd;stroke:none"
             id="path3874"
             inkscape:connector-curvature="0" /></g><g
           id="g3876"><path
             d="M 14.3065,4.4507 13.9842,4.3656 c 0,-0.144 -0.0593,-0.271 -0.1528,-0.3982 C 13.7466,3.8486 13.6619,3.7638 13.5771,3.7046 13.5686,3.6961 13.5601,3.6876 13.5516,3.6876 l 0.0255,-0.1018 0.0678,-0.2627 c 0.1782,0.1187 0.3222,0.2627 0.424,0.4407 l 0.3986,-1.4918 0.39,0.1014 z"
             style="fill:#ffffff;fill-opacity:1;fill-rule:evenodd;stroke:none"
             id="path3878"
             inkscape:connector-curvature="0" /><path
             d="M 13.4753,3.001 C 13.3988,3.0858 13.2973,3.1365 13.17,3.162 13.3736,3.2808 13.4668,3.4333 13.4583,3.6198 13.4498,3.7553 13.3906,3.8741 13.2888,3.9674 13.1615,4.0946 12.992,4.1454 12.797,4.1369 12.6782,4.1284 12.5765,4.1031 12.4832,4.0521 12.39,4.0014 12.3137,3.9419 12.2712,3.8571 12.2204,3.7809 12.1864,3.6791 12.1694,3.5436 l 0.3731,-0.0425 c 0.0085,0.0932 0.034,0.1695 0.085,0.2205 0.0422,0.0507 0.1018,0.0763 0.1695,0.0763 0.0763,0.0085 0.1358,-0.0085 0.178,-0.0511 0.0425,-0.0422 0.0678,-0.1014 0.0763,-0.1695 0,-0.0847 -0.0255,-0.1525 -0.0848,-0.212 C 12.9158,3.3146 12.831,3.289 12.7208,3.2808 L 12.6952,2.95 c 0.0678,0.0255 0.1358,0.034 0.1866,0.0425 0.0762,0 0.144,-0.0255 0.2035,-0.0847 C 13.1445,2.8485 13.1786,2.772 13.1786,2.6702 13.1871,2.56 13.1615,2.4752 13.1108,2.4075 13.0513,2.3397 12.9835,2.3057 12.8985,2.2972 c -0.076,0 -0.144,0.017 -0.2033,0.068 C 12.6357,2.416 12.602,2.4922 12.585,2.594 L 12.1864,2.5262 c 0.034,-0.178 0.1103,-0.3223 0.2461,-0.424 0.1355,-0.1018 0.2968,-0.1525 0.4918,-0.144 0.2035,0.017 0.3645,0.0847 0.5003,0.2287 0.0677,0.0766 0.1185,0.1613 0.1525,0.2546 0.017,0.0762 0.0255,0.1525 0.0255,0.2287 0,0.0596 -0.0085,0.1103 -0.0255,0.1528 -0.0255,0.0678 -0.0592,0.127 -0.1018,0.178"
             style="fill:#ffffff;fill-opacity:1;fill-rule:evenodd;stroke:none"
             id="path3880"
             inkscape:connector-curvature="0" /><path
             d="m 11.3386,4.1454 c -0.017,0 -0.0255,0 -0.0425,0 -0.1781,0 -0.3308,-0.0593 -0.4578,-0.178 C 10.7025,3.8486 10.6262,3.6706 10.6177,3.4588 10.6092,3.2468 10.6603,3.0773 10.7702,2.9415 10.889,2.806 11.0333,2.7383 11.1943,2.7298 c 0.0425,-0.0085 0.0763,0 0.1018,0 0.1102,0.0167 0.212,0.0677 0.2968,0.1525 C 11.5588,2.645 11.5166,2.4837 11.4486,2.4075 11.4063,2.3567 11.3553,2.3227 11.2961,2.3057 c -0.017,0 -0.0423,0 -0.0678,0 -0.0595,0 -0.1188,0.0255 -0.1528,0.0677 -0.0422,0.0341 -0.0592,0.1018 -0.0677,0.1783 L 10.6092,2.5262 c 0.017,-0.178 0.0763,-0.3138 0.178,-0.407 0.0933,-0.0933 0.2291,-0.144 0.3986,-0.1525 0.034,0 0.0762,0 0.1103,0 0.1865,0.017 0.3393,0.0932 0.4663,0.2287 0.1527,0.1698 0.2375,0.4411 0.263,0.8312 0.017,0.3812 -0.034,0.661 -0.1698,0.839 -0.127,0.178 -0.2968,0.2713 -0.517,0.2798 z m 0.144,-1.0429 C 11.4318,3.0518 11.3723,3.0266 11.2961,3.0266 c 0,0 -0.0085,0 -0.017,0 -0.0763,0 -0.144,0.0337 -0.1951,0.1014 -0.0507,0.0681 -0.0762,0.1698 -0.0677,0.3053 0.0085,0.1355 0.0422,0.2373 0.0932,0.2968 0.0511,0.0508 0.1188,0.0763 0.1866,0.0763 0.0085,0 0.0085,0 0.0085,0 0.0762,-0.0085 0.144,-0.0426 0.2035,-0.1188 0.0507,-0.0763 0.0762,-0.178 0.0762,-0.3135 C 11.5758,3.2553 11.5421,3.162 11.4826,3.1025"
             style="fill:#ffffff;fill-opacity:1;fill-rule:evenodd;stroke:none"
             id="path3882"
             inkscape:connector-curvature="0" /><path
             d="M 9.8206,4.0521 C 9.6766,3.9929 9.5409,3.9589 9.4306,3.9504 L 9.3373,3.5943 c 0.2121,0.0085 0.4071,0.0596 0.5936,0.161 L 9.5238,2.2635 9.9224,2.1617 10.482,4.2301 10.1599,4.3149 C 10.0749,4.2049 9.9649,4.1117 9.8206,4.0521"
             style="fill:#ffffff;fill-opacity:1;fill-rule:evenodd;stroke:none"
             id="path3884"
             inkscape:connector-curvature="0" /></g><g
           id="g3886"><path
             d="m 17.0198,4.2894 c 0.3223,0 0.5851,0.2628 0.5851,0.5851 0,0.3223 -0.2628,0.585 -0.5851,0.585 -0.3138,0 -0.5766,-0.2627 -0.5766,-0.585 0,-0.3223 0.2628,-0.5851 0.5766,-0.5851"
             style="fill:#ffffff;fill-opacity:1;fill-rule:evenodd;stroke:none"
             id="path3888"
             inkscape:connector-curvature="0" /><path
             d="m 6.8953,4.0776 c 0.3135,0 0.5765,0.2628 0.5765,0.5848 0,0.3223 -0.263,0.5851 -0.5765,0.5851 -0.3223,0 -0.5851,-0.2628 -0.5851,-0.5851 0,-0.322 0.2628,-0.5848 0.5851,-0.5848"
             style="fill:#ffffff;fill-opacity:1;fill-rule:evenodd;stroke:none"
             id="path3890"
             inkscape:connector-curvature="0" /></g></g><path
         d="M 12.0339,5.7779 11.7156,5.7858 11.4018,5.8099 11.0923,5.8493 10.7875,5.904 10.4882,5.9732 10.1945,6.0568 9.9071,6.1543 9.6259,6.2654 9.3518,6.3896 9.0848,6.5265 8.8254,6.6759 8.574,6.8372 8.331,7.0101 8.0969,7.194 7.8721,7.3888 7.6567,7.5943 7.4517,7.8094 7.2567,8.0342 7.0727,8.2681 6.8998,8.511 6.7385,8.7622 6.5891,9.0215 6.4519,9.2886 6.3278,9.563 6.2167,9.8439 6.1191,10.1313 6.0355,10.425 5.9661,10.7243 5.9117,11.0288 5.872,11.3383 l -0.0238,0.3138 -0.0083,0.318 0.0083,0.3175 0.0238,0.313 0.0397,0.3089 0.0544,0.3039 0.0694,0.2985 0.0836,0.2931 0.0976,0.2872 0.1111,0.2806 0.1241,0.2735 0.1372,0.2668 0.1494,0.2588 0.1613,0.2511 0.1729,0.2424 0.184,0.2338 0.1947,0.2245 0.2053,0.2152 0.2154,0.2049 0.2248,0.1948 0.2341,0.184 0.243,0.1726 0.2514,0.1613 0.2594,0.1491 0.267,0.1369 0.2741,0.1241 0.2812,0.1112 0.2874,0.0975 0.2937,0.0836 0.2993,0.0692 0.3048,0.0547 0.3095,0.0394 0.3138,0.0238 0.3183,0.0082 0.3167,-0.0082 0.3126,-0.0238 0.3081,-0.0394 0.3036,-0.0547 0.2982,-0.0692 0.2929,-0.0836 0.2868,-0.0975 0.2806,-0.1112 0.2736,-0.1241 0.2667,-0.1369 0.2588,-0.1491 0.2512,-0.1613 0.2426,-0.1726 0.2342,-0.184 0.2248,-0.1948 0.2151,-0.2049 0.2052,-0.2152 0.1951,-0.2245 0.1842,-0.2338 0.1729,-0.2424 0.1616,-0.2511 0.1494,-0.2588 0.1372,-0.2668 0.1244,-0.2735 0.1114,-0.2806 0.0978,-0.2872 0.0836,-0.2931 0.0695,-0.2985 0.055,-0.3041 0.0394,-0.3087 0.0241,-0.313 0.0079,-0.3175 -0.0079,-0.318 -0.0241,-0.3138 -0.0394,-0.3095 -0.055,-0.3045 L 18.0232,10.425 17.9396,10.1313 17.8418,9.8439 17.7304,9.5627 17.606,9.2886 17.4688,9.0215 17.3194,8.7622 17.1578,8.511 16.9849,8.2681 16.8007,8.0342 16.6056,7.8094 16.4004,7.5943 16.1853,7.3888 15.9605,7.194 15.7263,7.0101 15.4837,6.8372 15.2325,6.6759 14.9737,6.5265 14.707,6.3896 14.4332,6.2654 14.1528,6.1543 13.866,6.0568 13.5734,5.9732 13.2749,5.904 12.9713,5.8493 12.6632,5.8099 12.3506,5.7858 Z"
         style="fill:#ffffff;fill-opacity:1;fill-rule:evenodd;stroke:none"
         id="path3892"
         inkscape:connector-curvature="0" /><g
         id="g3894"><path
           d="M 7.4217,17.2485 6.4454,17.1366 7.9478,4.0757 9.0411,4.2015 7.5385,17.2621 Z"
           style="fill:#ffffff;fill-opacity:1;fill-rule:evenodd;stroke:none"
           id="path3896"
           inkscape:connector-curvature="0" /><g
           id="g3898"><g
             id="g3900"><g
               id="g3902"><g
                 id="g3908"><path
                   d="m 7.5906,16.8024 c 2.3573,1.1106 3.4934,-0.0253 5.2149,-0.2118 1.5857,-0.5851 3.0864,0.0933 4.5281,0.305 -1.1364,-4.6032 0.4918,-6.6886 0.7716,-10.029 -3.1884,0.1528 -5.7578,2.2383 -9.5395,0.3986 0.4323,3.1876 0.0678,6.4091 -0.9751,9.5372"
                   style="fill:url(#radialGradient3916);fill-rule:evenodd;stroke:none"
                   id="path3918"
                   inkscape:connector-curvature="0" /></g></g></g><path
             d="m 12.6105,16.6584 v -2.2465 h 4.3755 l 0.3731,2.4925 c -1.8403,-0.4326 -3.3157,-0.7123 -4.7486,-0.246"
             style="fill:#ffffff;fill-opacity:1;fill-rule:evenodd;stroke:none"
             id="path3920"
             inkscape:connector-curvature="0" /><g
             id="g3922"><g
               id="g3924"><g
                 id="g3930"><path
                   d="m 18.1896,6.8737 c -0.0924,1.1047 -0.3347,2.0858 -0.5692,3.0345 -0.4731,1.916 -0.9623,3.8974 -0.2046,6.9673 l 0.0303,0.1225 -0.125,-0.0185 c -0.3793,-0.0555 -0.7821,-0.1451 -1.1597,-0.2316 -1.3305,-0.299 -2.0678,-0.2602 -3.3468,-0.0731 -0.5103,0.0553 -0.9774,0.1981 -1.429,0.3362 -1.059,0.3237 -2.154,0.6585 -3.8313,-0.1318 L 7.4863,16.8471 7.5101,16.7757 C 8.5762,13.5782 8.9031,10.3822 8.4815,7.2765 L 8.4603,7.1198 8.6029,7.1889 c 2.5032,1.2178 4.4229,0.7084 6.4553,0.1693 0.9734,-0.2583 1.98,-0.5253 3.043,-0.576 L 18.1976,6.7774 Z M 15.1019,7.522 c -1.9378,0.5142 -3.941,1.0417 -6.4372,-0.1188 0.1068,0.8348 0.1647,1.6753 0.1647,2.5212 0,0.0592 -0.0017,0.1187 -0.0023,0.178 -0.0054,0.6038 -0.0374,1.2095 -0.097,1.817 1.2413,0.4768 2.549,0.6494 3.9396,0.4065 l -0.0246,4.2007 c 1.4193,-0.2013 2.143,-0.2696 3.5665,0.0561 0.349,0.0799 0.6803,0.1528 1.0123,0.2072 -0.2651,-1.1137 -0.3714,-2.088 -0.3714,-2.9648 0,-0.6446 0.0556,-1.2384 0.1421,-1.8014 0.1133,-0.7359 0.2794,-1.4193 0.4458,-2.0928 0.0051,-0.021 0.0102,-0.0422 0.0153,-0.0632 0.2257,-0.9125 0.4556,-1.857 0.5531,-2.9067 -1.008,0.0616 -1.9735,0.3136 -2.9069,0.561"
                   style="fill:url(#radialGradient3938);fill-rule:evenodd;stroke:none"
                   id="path3940"
                   inkscape:connector-curvature="0" /></g></g></g><g
             id="g3942"><g
               id="g3944"><g
                 id="g3950"><path
                   d="M 6.5758,17.0328 8.0512,4.206 8.9104,4.305 7.435,17.1317 Z"
                   style="fill:url(#radialGradient3958);fill-rule:evenodd;stroke:none"
                   id="path3960"
                   inkscape:connector-curvature="0" /></g></g></g><g
             id="g3962"><g
               id="g3964"><g
                 id="g3970"><path
                   d="m 17.4404,9.9309 c -2.9905,-0.146 -5.5315,0.9473 -8.6133,0.1715 6e-4,-0.0593 0.0023,-0.1188 0.0023,-0.178 0,-0.8459 -0.0579,-1.6864 -0.1647,-2.5212 2.4962,1.1605 4.4994,0.633 6.4372,0.1188 0.9334,-0.2474 1.8989,-0.4994 2.9069,-0.561 -0.0975,1.0497 -0.3274,1.9942 -0.5531,2.9067 -0.0051,0.021 -0.0102,0.0422 -0.0153,0.0632"
                   style="fill:url(#radialGradient3978);fill-rule:evenodd;stroke:none"
                   id="path3980"
                   inkscape:connector-curvature="0" /></g></g></g><path
             d="m 17.4404,9.9309 c -0.1664,0.6735 -0.3325,1.3569 -0.4458,2.0928 -1.4653,-0.074 -4.3249,0.3022 -4.3249,0.3022 -1.3906,0.2429 -2.6983,0.0703 -3.9396,-0.4065 0.0596,-0.6075 0.0916,-1.2132 0.097,-1.817 3.0818,0.7758 5.6228,-0.3175 8.6133,-0.1715"
             style="fill:#ffffff;fill-opacity:1;fill-rule:evenodd;stroke:none"
             id="path3982"
             inkscape:connector-curvature="0" /><path
             d="m 10.2869,12.7587 c -0.8988,0 -1.6279,0.8731 -1.6279,1.9415 0,1.0766 0.7291,1.9497 1.6279,1.9497 0.8904,0 1.6282,-0.8731 1.6282,-1.9497 0,-1.0684 -0.7378,-1.9415 -1.6282,-1.9415"
             style="fill:#ffffff;fill-opacity:1;fill-rule:evenodd;stroke:none"
             id="path3984"
             inkscape:connector-curvature="0" /></g></g><g
         id="g3986"><g
           id="g3988"><g
             id="g3990"><g
               id="g3996"><path
                 d="m 9.3334,15.8519 c 0.4824,0.2273 0.7149,-0.0051 1.0672,-0.0434 0.3246,-0.1196 0.6316,0.0193 0.9266,0.0627 -0.2324,-0.9423 0.1007,-1.3692 0.1579,-2.0526 -0.6525,0.0312 -1.1783,0.4581 -1.9522,0.0814 0.0885,0.6525 0.0139,1.3118 -0.1995,1.9519"
                 style="fill:url(#radialGradient4004);fill-rule:evenodd;stroke:none"
                 id="path4006"
                 inkscape:connector-curvature="0" /></g></g></g><path
           d="m 10.3606,15.8224 v -0.4598 h 0.8955 l 0.0762,0.5103 C 10.9559,15.7842 10.654,15.7272 10.3606,15.8224"
           style="fill:#ffffff;fill-opacity:1;fill-rule:evenodd;stroke:none"
           id="path4008"
           inkscape:connector-curvature="0" /><g
           id="g4010"><g
             id="g4012"><g
               id="g4018"><path
                 d="m 11.5024,13.82 c -0.019,0.226 -0.0686,0.4269 -0.1165,0.6211 -0.0966,0.392 -0.197,0.7974 -0.0419,1.4258 l 0.0062,0.025 -0.0255,-0.0037 C 11.247,15.8769 11.1645,15.8584 11.0874,15.8409 10.815,15.7796 10.6642,15.7876 10.4023,15.8258 10.298,15.8372 10.2025,15.8664 10.11,15.8947 9.8932,15.9608 9.6693,16.0294 9.326,15.8678 L 9.3118,15.861 9.3169,15.8465 c 0.218,-0.6545 0.2849,-1.3085 0.1987,-1.944 l -0.0042,-0.0323 0.0292,0.0142 c 0.5122,0.2494 0.9051,0.1451 1.3209,0.0348 0.1993,-0.053 0.4054,-0.1077 0.6228,-0.1179 l 0.0198,-0.0011 z m -0.6318,0.1327 c -0.3966,0.1052 -0.8068,0.2132 -1.3176,-0.0244 0.0219,0.1709 0.0338,0.343 0.0338,0.5159 0,0.0122 -3e-4,0.0244 -3e-4,0.0366 -0.0011,0.1236 -0.0077,0.2475 -0.0199,0.3719 0.254,0.0975 0.5216,0.1327 0.8062,0.083 l -0.0051,0.8598 c 0.2906,-0.0411 0.4385,-0.0553 0.7299,0.0116 0.0715,0.0162 0.1392,0.0312 0.2073,0.0423 -0.0545,-0.228 -0.076,-0.4272 -0.076,-0.6067 0,-0.1321 0.0113,-0.2534 0.0289,-0.3687 0.0232,-0.1506 0.0573,-0.2906 0.0913,-0.4284 0.0011,-0.0042 0.0022,-0.0085 0.0031,-0.013 0.0462,-0.1865 0.0932,-0.3798 0.1134,-0.5947 -0.2064,0.0125 -0.404,0.0641 -0.595,0.1148"
                 style="fill:url(#radialGradient4026);fill-rule:evenodd;stroke:none"
                 id="path4028"
                 inkscape:connector-curvature="0" /></g></g></g><g
           id="g4030"><g
             id="g4032"><g
               id="g4038"><path
                 d="m 9.1256,15.8992 0.3019,-2.6251 0.176,0.0201 -0.3022,2.6252 z"
                 style="fill:url(#radialGradient4046);fill-rule:evenodd;stroke:none"
                 id="path4048"
                 inkscape:connector-curvature="0" /></g></g></g><g
           id="g4050"><g
             id="g4052"><g
               id="g4058"><path
                 d="m 11.3491,14.4456 c -0.612,-0.0297 -1.1319,0.1939 -1.7626,0.0352 0,-0.0122 3e-4,-0.0244 3e-4,-0.0366 0,-0.1729 -0.0119,-0.345 -0.0338,-0.5159 0.5108,0.2376 0.921,0.1296 1.3176,0.0244 0.191,-0.0507 0.3886,-0.1023 0.595,-0.1148 -0.0202,0.2149 -0.0672,0.4082 -0.1134,0.5947 -9e-4,0.0045 -0.002,0.0088 -0.0031,0.013"
                 style="fill:url(#radialGradient4066);fill-rule:evenodd;stroke:none"
                 id="path4068"
                 inkscape:connector-curvature="0" /></g></g></g><path
           d="m 11.3491,14.4456 c -0.034,0.1378 -0.0681,0.2778 -0.0913,0.4284 -0.2999,-0.0151 -0.885,0.0617 -0.885,0.0617 -0.2846,0.0497 -0.5522,0.0145 -0.8062,-0.083 0.0122,-0.1244 0.0188,-0.2483 0.0199,-0.3719 0.6307,0.1587 1.1506,-0.0649 1.7626,-0.0352"
           style="fill:#ffffff;fill-opacity:1;fill-rule:evenodd;stroke:none"
           id="path4070"
           inkscape:connector-curvature="0" /><path
           d="m 9.8853,15.0245 c -0.184,0 -0.3334,0.1786 -0.3334,0.3971 0,0.2205 0.1494,0.3991 0.3334,0.3991 0.1819,0 0.333,-0.1786 0.333,-0.3991 0,-0.2185 -0.1511,-0.3971 -0.333,-0.3971"
           style="fill:#ffffff;fill-opacity:1;fill-rule:evenodd;stroke:none"
           id="path4072"
           inkscape:connector-curvature="0" /></g></g></g></svg>