<?xml version="1.0" encoding="UTF-8"?>
<svg width="409px" height="451px" viewBox="0 0 409 451" version="1.1" xmlns="http://www.w3.org/2000/svg" xmlns:xlink="http://www.w3.org/1999/xlink">
    <!-- Generator: Sketch 43.2 (39069) - http://www.bohemiancoding.com/sketch -->
    <title>ceara</title>
    <desc>Created with Sketch.</desc>
    <defs></defs>
    <g id="Page-1" stroke="none" stroke-width="1" fill="none" fill-rule="evenodd">
        <g id="50" transform="translate(-343.000000, -171.000000)" fill-rule="nonzero">
            <g id="ceara" transform="translate(343.000000, 171.000000)">
                <path d="M60.8,373.3 C38.9,361.5 25.7,344.5 18.4,325.1 C11.3,306.4 9.8,285.9 11.2,266.3 C13,241.1 22.2,220.5 30.8,201 C46.1,166.6 59.5,136.4 8.6,89.4 L1.42108547e-14,81.5 L7.1,72.2 L40.6,28.3 L45.7,21.6 L53.9,23.7 C67.4,27.2 81,30.2 94.8,31.9 C107.8,33.5 120.8,33.9 133.7,32.4 C133.2,32.5 133.1,32.5 134.3,32.3 C134.5,32.3 134.7,32.2 135,32.2 C134.7,32.2 134.5,32.3 134.3,32.3 C134.1,32.3 133.9,32.3 133.8,32.4 C134.2,32.3 134.7,32.3 135.1,32.2 C135.8,32.1 135.6,32.1 135.1,32.2 C137.7,31.9 140.5,31.4 143.5,30.8 C146.3,30.3 149,29.6 151.6,28.9 C165,25.3 177.1,19.5 187.6,11.7 L188,11.4 L196.8,5.4 L204.1,0.4 L211.4,5.4 L220.2,11.4 L220.6,11.6 L220.7,11.6 C222.3,12.8 224.4,14.2 227.1,15.9 C229.7,17.6 231.9,18.9 233.7,19.8 C245.5,26.1 258.7,30.2 273.3,32 C286.7,33.7 300.1,33.3 313.5,31.6 C327.3,29.9 340.9,26.9 354.4,23.4 L362.6,21.3 L367.7,28 L401.2,71.9 L408.3,81.2 L399.7,89.1 C347.7,137.1 361.8,168 378,203.5 C386.5,222.2 395.6,242 398.6,265.8 C399.3,271.1 399.7,276.5 399.7,281.8 C399.8,287.2 399.5,292.6 398.9,298.2 C395.5,327.1 381.4,354.7 347.5,373 L210.4,446.9 L204.3,450.2 L198.2,446.9 L60.8,373.3 L60.8,373.3 Z M42.3,316 C47.6,330 57.1,342.3 72.9,350.8 L204,421.4 L335.1,350.8 C360.2,337.3 370.7,316.8 373.2,295.5 C373.7,291.3 373.9,286.9 373.8,282.4 C373.7,278 373.4,273.5 372.9,269.2 C370.4,249.1 362.2,231.2 354.5,214.4 C335.1,171.9 318,134.7 373.7,78.7 L352.2,50.5 C340.2,53.4 328.3,55.9 316.3,57.4 C301.2,59.3 285.7,59.7 269.8,57.7 C252.1,55.5 235.9,50.4 221.3,42.7 C218.451048,41.18723 215.649701,39.5864604 212.9,37.9 C210.8,36.6 208.3,34.8 205.4,32.7 L203.9,31.7 L202.4,32.7 C189.3,42.5 174.4,49.6 158,54 C154.8,54.9 151.5,55.6 148.2,56.3 C145.2,56.9 141.8,57.4 138.2,57.9 L138.1,57.9 C122.2,59.9 106.8,59.5 91.7,57.6 C79.7,56.1 67.8,53.7 55.8,50.7 L34.3,78.9 C88.7,133.8 72.5,170.3 54.1,211.6 C46.4,228.9 38.2,247.2 36.8,268.2 C35.6,284.6 36.7,301.4 42.3,316 L42.3,316 Z" id="Shape" fill="#1F211D"></path>
                <path d="M66.9,362.1 C29.2,341.8 21.4,303.4 24,267.2 C29,195.4 102.2,158.5 17.3,80 L50.8,36.1 C79,43.4 107.4,48.7 136.7,45 C159.2,42.2 178.9,34.4 195.4,22.1 L204.2,16.1 L213,22.1 C229.5,34.5 249.2,42.2 271.7,45 C301,48.7 329.3,43.4 357.6,36.1 L391.1,80 C306.1,158.4 377,196.1 385.9,267.7 C390.2,302.2 382.4,340 341.5,362.1 L204,436 L66.9,362.1 L66.9,362.1 Z" id="Shape" fill="#FFFFFF"></path>
                <path d="M345.9,51.7 L58.3,205.4 C64.5,193.6 68.8,180.2 70.2,166.2 C74.8,140.4 68.6,113.2 34.3,78.7 L55.6,50.8 C67.3,53.8 78.8,55.9 89.9,57.2 C90.5,57.3 91.1,57.4 91.7,57.4 C106.8,59.3 122.2,59.7 138.1,57.7 L138.2,57.7 C141.9,57.2 145.2,56.7 148.2,56.1 C151.5,55.5 154.7,54.7 158,53.8 C161.7,52.8 165.3,51.7 168.8,50.5 L168.7,50.5 C181.7,46.1 193.5,40.1 203.9,32.3 C227.6,50.1 256.7,59.2 290.7,59 C299.3,59 307.8,58.4 316.2,57.4 C325.7,56.2 335.1,54.4 344.6,52.3 L345.9,51.7 Z M95.3,233.5 L107.6,226.8 C108.7,228.7 109.5,230 109.8,230.6 C111.5,233.7 112.4,236.4 112.4,238.7 C112.5,241.2 111.2,243.7 108.6,246 C106,248.3 101,251.5 93.7,255.5 C86,259.7 80.4,262.5 77,264 C73.6,265.5 70.8,266.2 68.7,266.3 C66.8,266.3 65.1,265.9 63.7,265 C62.3,264.1 60.8,262.6 59.4,260.4 C58.2,258.7 56.3,255.4 53.7,250.6 C51.2,245.9 49.4,242.5 48.5,240.3 C47.6,238.1 47,236.3 46.9,234.9 C46.6,231.7 48,228.8 51,226.2 C54,223.6 60.7,219.4 71.2,213.8 C76.4,211 80.3,209 82.8,208 C85.3,207 87.4,206.4 89.2,206.3 C91.5,206.2 93.5,206.8 95.2,208.1 C96.9,209.4 98.6,211.7 100.4,215 L101.5,217 L89.2,223.7 C88.4,222.4 87.8,221.5 87.5,221.1 C87.1,220.7 86.7,220.5 86.2,220.3 C85.5,220.1 84.1,220.5 82.1,221.4 C80.1,222.2 77.1,223.7 73.2,225.9 C70.4871567,227.292521 67.8501161,228.828013 65.3,230.5 C63.9,231.5 63,232.4 62.7,233.2 C62.3,234.2 62.3,235.5 62.8,237 C63.3,238.6 64.4,240.9 66,243.9 C67.7,247 69,249 69.9,250.2 C70.8,251.3 71.8,251.9 72.9,252.1 C73.9,252.3 75.2,252 76.8,251.4 C82.8225355,248.595014 88.6668965,245.422361 94.3,241.9 C95.8,240.9 96.7,240 96.9,239.1 C97.1,237.9 96.6,236.1 95.3,233.5 L95.3,233.5 Z M100.6,198.5 L145.4,174.1 L150.6,183.6 L118,201.4 L121.2,207.2 L152.2,190.3 L157,199.2 L126,216.1 L129.5,222.6 L162.4,204.7 L167.7,214.4 L122.7,238.9 L100.6,198.5 L100.6,198.5 Z M217.4,187.3 L210.2,182.3 L183.5,196.8 L183.8,205.5 L169.7,213.2 L169.1,161.1 L188.2,150.7 L231.3,179.6 L217.4,187.3 L217.4,187.3 Z M201,175.9 L184.9,164.8 L182.4,166.1 L182.9,185.6 L201,175.9 Z M235.2,177.6 L213.2,137.2 L243,121 C250,117.2 254.2,115 255.7,114.4 C257.2,113.8 258.7,113.5 260.5,113.6 C262.5,113.7 264.3,114.4 265.8,115.7 C267.3,117 268.9,119.4 270.8,122.9 C272.4,125.8 273.4,128.1 273.8,129.7 C274.2,131.3 274.1,132.8 273.5,134.1 C272.9,135.6 271.6,137.1 269.6,138.6 C272.3,137.4 274.5,137.1 276.4,137.8 C277.5,138.2 278.4,138.9 279.2,139.9 C280,140.9 281.3,143.2 283.2,146.7 L285.2,150.5 L273.1,157.1 L271.9,154.9 C270.7,152.6 269.7,151.1 269,150.2 C268.3,149.3 267.6,148.8 266.9,148.5 C266.2,148.3 265.4,148.3 264.5,148.6 C263.6,148.9 261.9,149.8 259.4,151.1 L242,160.5 L247.6,170.8 L235.2,177.6 L235.2,177.6 Z M236.5,150.5 L253.8,141.1 C256.8,139.4 258.6,138.4 259.1,138 C259.6,137.6 260.1,137.2 260.3,136.7 C260.6,136.1 260.8,135.4 260.6,134.6 C260.4,133.8 260,132.8 259.3,131.4 C258.6,130.1 257.9,129.2 257.3,128.6 C256.7,128.1 256,127.8 255.2,127.9 C254.7,127.9 254.1,128.1 253.5,128.4 C252.9,128.7 251.1,129.6 248.3,131.1 L231,140.5 L236.5,150.5 L236.5,150.5 Z M335.8,122.9 L328.6,117.9 L301.9,132.4 L302.2,141.1 L288.1,148.8 L287.5,96.7 L306.6,86.3 L349.7,115.2 L335.8,122.9 L335.8,122.9 Z M319.4,111.5 L303.3,100.4 L300.8,101.7 L301.3,121.2 L319.4,111.5 Z M315.9,86.9 L318.8,74.3 L328.7,72.1 L318.3,89 L315.9,86.9 Z" id="Shape" fill="#1F211D"></path>
                <path d="M223.8,63.3 C224.7,64.9 225.5,66.5 226.4,68.1 C227.3,69.7 228.1,71.3 229,72.9 L245.8,72.9 C243.5,73.9 241.3,74.9 239,75.8 C236.7,76.8 234.5,77.8 232.2,78.7 C233.1,80.3 233.9,81.9 234.8,83.5 C235.7,85.1 236.5,86.7 237.4,88.3 C235.1,87.3 232.9,86.3 230.6,85.4 C228.3,84.4 226.1,83.4 223.8,82.5 C221.5,83.5 219.3,84.5 217,85.4 C214.7,86.4 212.5,87.4 210.2,88.3 C211.1,86.7 211.9,85.1 212.8,83.5 C213.7,81.9 214.5,80.3 215.4,78.7 C213.1,77.7 210.9,76.7 208.6,75.8 C206.3,74.8 204.1,73.8 201.8,72.9 L218.6,72.9 C219.5,71.3 220.3,69.7 221.2,68.1 C222.1,66.5 222.9,64.9 223.8,63.3 L223.8,63.3 Z M179.3,53.7 C180.4,55.4 181.5,57.2 182.6,58.9 C183.7,60.6 184.8,62.4 185.9,64.1 L207.4,64.1 C204.5,65.2 201.6,66.2 198.7,67.3 C195.8,68.4 192.9,69.4 190,70.5 C191.1,72.2 192.2,74 193.3,75.7 C194.4,77.4 195.5,79.2 196.6,80.9 C193.7,79.8 190.8,78.8 187.9,77.7 C185,76.6 182.1,75.6 179.2,74.5 C176.3,75.6 173.4,76.6 170.5,77.7 C167.6,78.8 164.7,79.8 161.8,80.9 C162.9,79.2 164,77.4 165.1,75.7 C166.2,74 167.3,72.2 168.4,70.5 C165.5,69.4 162.6,68.4 159.7,67.3 C156.8,66.2 153.9,65.2 151,64.1 L172.5,64.1 C173.6,62.4 174.7,60.6 175.8,58.9 C177.1,57.1 178.2,55.4 179.3,53.7 L179.3,53.7 Z" id="Shape" fill="#FFFFFF"></path>
                <path d="M126.6,62 C127.8,63.8 129,65.5 130.2,67.3 C131.4,69.1 132.6,70.8 133.8,72.6 L157.2,72.6 C154,73.7 150.9,74.8 147.7,75.9 C144.5,77 141.4,78.1 138.2,79.2 C139.4,81 140.6,82.7 141.8,84.5 C143,86.3 144.2,88 145.4,89.8 C142.2,88.7 139.1,87.6 135.9,86.5 C132.7,85.4 129.6,84.3 126.4,83.2 C123.2,84.3 120.1,85.4 116.9,86.5 C113.7,87.6 110.6,88.7 107.4,89.8 C108.6,88 109.8,86.3 111,84.5 C112.2,82.7 113.4,81 114.6,79.2 C111.4,78.1 108.3,77 105.1,75.9 C101.9,74.8 98.8,73.7 95.6,72.6 L119,72.6 C120.2,70.8 121.4,69.1 122.6,67.3 C123.8,65.5 125.4,63.8 126.6,62 Z M88.2,84.2 C89.4,86.3 90.7,88.5 91.9,90.6 C93.1,92.7 94.4,94.8 95.6,97 L119.7,97 C116.4,98.3 113.2,99.6 109.9,100.9 C106.6,102.2 103.4,103.5 100.1,104.8 C101.3,106.9 102.6,109.1 103.8,111.2 C105,113.3 106.3,115.4 107.5,117.6 C104.2,116.3 101,115 97.7,113.7 C94.4,112.4 91.2,111.1 87.9,109.8 C84.6,111.1 81.4,112.4 78.1,113.7 C74.8,115 71.6,116.3 68.3,117.6 C69.5,115.5 70.8,113.4 72,111.2 C73.2,109.1 74.5,107 75.7,104.8 C72.4,103.5 69.2,102.2 65.9,100.9 C62.6,99.6 59.4,98.3 56.1,97 L80.2,97 C81.4,94.9 82.7,92.8 83.9,90.6 C85.7,88.5 87,86.3 88.2,84.2 L88.2,84.2 Z" id="Shape" fill="#FFFFFF"></path>
                <path d="M124.7,378.3 L124.7,251.6 L37.6,297.7 C38.5,304.1 40.1,310.3 42.3,316.1 C47.6,330.1 57.1,342.4 72.9,350.9 L74.4,351.7 L73.4,351.2 L124.7,378.3 Z M204,420.2 L156,393.9 L156,235 L250.1,185.2 L250.1,394.3 L204,420.2 L204,420.2 Z M280.9,168.8 L337.1,139.3 C332.6,165.5 343,189.5 354.5,214.5 C359.2,224.8 364.1,235.6 367.8,247 C370,254.5 371.8,262.1 372.9,269.8 C373.4,274 373.7,278.3 373.8,282.6 C373.9,287 373.7,291.4 373.2,295.7 C371.3,311.6 365,327.1 351.4,339.5 C346.7,343.7 341.1,347.6 334.6,351.2 L325.1,356.4 L285.4,377.9 L325.1,356.4 L280.9,380 L280.9,168.8 L280.9,168.8 Z" id="Shape" fill="#1F211D"></path>
                <path d="M123.5,111.6 C125,114.2 126.5,116.7 128,119.3 C129.5,121.9 131,124.4 132.6,127 L162,127 C158,128.6 154.1,130.2 150.1,131.8 C146.1,133.4 142.2,135 138.2,136.6 C139.7,139.2 141.2,141.7 142.7,144.3 C144.2,146.9 145.7,149.4 147.3,152 C143.3,150.4 139.4,148.8 135.4,147.3 C131.4,145.7 127.5,144.1 123.5,142.5 C119.5,144.1 115.6,145.7 111.6,147.3 C107.6,148.9 103.7,150.5 99.7,152 C101.2,149.4 102.7,146.9 104.2,144.3 C105.7,141.7 107.2,139.2 108.8,136.6 C104.8,135 100.9,133.4 96.9,131.8 C92.9,130.2 89,128.6 85,127 L114.4,127 C115.9,124.4 117.4,121.9 118.9,119.3 C120.4,116.7 121.9,114.2 123.5,111.6 L123.5,111.6 Z M182,393.1 L182,375.4 L178.1,375.4 L179.8,372.1 L186,372.1 L186,393.1 L182,393.1 Z M207.6,393.1 L207.6,375.4 L203.7,375.4 L205.3,372.1 L211.6,372.1 L211.6,393.1 L207.6,393.1 Z M200.3,373.6 C199.0148,372.366734 197.279216,371.71589 195.5,371.8 C193.4,371.8 191.7,372.4 190.4,373.6 C189.1,374.8 188.5,376.5 188.5,378.5 C188.5,380.3 189,381.7 190.1,382.9 C191.167191,384.017437 192.655209,384.63442 194.2,384.6 C194.7,384.6 195.2,384.6 195.6,384.5 C196,384.4 196.4,384.3 196.8,384.1 L191.2,393.2 L195.9,393.2 C198.3,389.6 199.9,386.6 201.5,382.5 C202,381.1 202.3,379.8 202.3,378.6 C202.1,376.4 201.5,374.8 200.3,373.6 L200.3,373.6 Z M197.4,380.6 C196.9,381.2 196.2,381.5 195.3,381.5 C194.3,381.5 193.6,381.2 193,380.7 C192.5,380.1 192.2,379.4 192.2,378.4 C192.2,377.5 192.5,376.7 193,376.2 C193.6,375.6 194.3,375.3 195.2,375.3 C196.1,375.3 196.8,375.6 197.4,376.1 C197.9,376.7 198.2,377.4 198.2,378.4 C198.242256,379.21141 197.953584,380.005259 197.4,380.6 L197.4,380.6 Z M226.6,385 L226.6,371.7 L223,371.7 L213.5,386 L213.5,387.8 L223,387.8 L223,393 L226.6,393 L226.6,387.8 L228.7,387.8 L228.7,385 L226.6,385 Z M223,376.8 L223,385.1 L217.5,385.1 L221.7,378.6 C222,378.2 222.2,377.7 222.5,377.3 C222.7,376.8 222.9,376.4 223.1,375.9 C223.1,376.1 223.1,376.4 223,376.8 Z" id="Shape" fill="#FFFFFF"></path>
            </g>
        </g>
    </g>
</svg>