<?xml version="1.0" encoding="UTF-8"?>
<!DOCTYPE svg PUBLIC "-//W3C//DTD SVG 1.1//EN" "http://www.w3.org/Graphics/SVG/1.1/DTD/svg11.dtd">
<!-- Creator: CorelDRAW X8 -->
<svg xmlns="http://www.w3.org/2000/svg" xml:space="preserve" width="100%" height="100%" version="1.1" style="shape-rendering:geometricPrecision; text-rendering:geometricPrecision; image-rendering:optimizeQuality; fill-rule:evenodd; clip-rule:evenodd"
viewBox="0 0 847 847"
 xmlns:xlink="http://www.w3.org/1999/xlink">
 <defs>
  <style type="text/css">
   <![CDATA[
    .fil0 {fill:green;fill-rule:nonzero}
    .fil1 {fill:white;fill-rule:nonzero}
   ]]>
  </style>
 </defs>
 <g id="Camada_x0020_1">
  <metadata id="CorelCorpID_0Corel-Layer"/>
  <g id="_4374170816">
   <path class="fil0" d="M423 32c-233,0 -423,190 -423,423 0,133 60,255 166,336l30 23c0,0 -4,-69 -4,-87 0,0 0,0 0,0 63,53 143,85 231,85 86,0 165,-30 227,-81 0,19 0,84 0,84l28 -22c107,-81 169,-204 169,-338 0,-233 -190,-423 -424,-423z"/>
   <path class="fil1" d="M423 74c-209,0 -379,170 -379,379 0,118 54,228 149,301l7 5c0,0 -3,-58 -3,-65 1,0 8,-1 16,-3 58,51 133,80 210,80 77,0 150,-28 208,-78 7,2 12,3 14,3 0,6 0,65 0,65l6 -5c96,-73 151,-183 151,-303 0,-209 -170,-379 -379,-379z"/>
   <path class="fil0" d="M423 763c-73,0 -144,-26 -199,-74 18,-3 38,-7 38,-7l-8 -5c-71,-54 -111,-136 -111,-224 0,-155 126,-281 280,-281 155,0 281,126 281,281 0,88 -43,172 -114,225l-7 6c0,0 20,4 38,7 -56,46 -125,72 -198,72z"/>
   <path class="fil0" d="M653 744c0,-13 0,-55 0,-55 0,0 -39,-7 -51,-10 69,-54 110,-138 110,-226 0,-159 -130,-289 -289,-289 -159,0 -288,130 -288,289 0,88 39,169 108,224 -13,3 -55,11 -55,11 0,0 2,40 3,53 -88,-71 -139,-175 -139,-288 0,-205 167,-371 371,-371 205,0 371,166 371,371 0,114 -51,220 -141,291z"/>
   <path class="fil1" d="M164 453c0,143 116,259 259,259 143,0 260,-116 260,-259 0,-143 -117,-260 -260,-260 -143,0 -259,117 -259,260z"/>
   <path class="fil0" d="M172 453c0,-139 113,-251 251,-251 139,0 252,112 252,251 0,139 -113,251 -252,251 -138,0 -251,-112 -251,-251z"/>
   <path class="fil1" d="M163 671l0 -1 12 -18 9 10 -21 9zm29 -12l0 0 -12 -15 6 -10 -8 -9 -28 48 8 10 52 -20 -7 -8 -11 4z"/>
   <path class="fil1" d="M160 625c2,-2 6,-6 1,-14 -2,-4 -6,-9 -11,-6 -4,2 -3,6 -1,12l2 5c3,9 5,16 -5,22 -5,4 -15,6 -24,-8 -8,-14 -1,-23 4,-27l5 9c-1,2 -6,5 -1,14 2,3 6,7 10,4 4,-2 3,-5 2,-7l-4 -13c-2,-7 -3,-14 5,-19 14,-8 23,5 26,9 10,16 2,25 -4,28l-5 -9z"/>
   <path class="fil1" d="M137 585c3,-2 8,-5 4,-14 -2,-5 -5,-10 -11,-7 -3,1 -3,5 -2,11l1 6c2,8 3,16 -8,21 -5,2 -16,3 -22,-12 -7,-15 1,-23 7,-26l4 10c-2,1 -6,4 -3,13 2,4 5,8 10,6 3,-2 3,-5 2,-7l-2 -13c-1,-8 -1,-15 8,-19 15,-6 22,9 24,13 7,17 -2,25 -8,27l-4 -9z"/>
   <path class="fil1" d="M111 543c-14,3 -20,-4 -21,-10 -2,-5 0,-14 14,-18 15,-3 20,4 21,10 2,6 0,15 -14,18zm3 11l0 0c24,-6 22,-25 21,-31 -2,-7 -9,-24 -33,-18 -24,5 -23,24 -21,31 1,6 9,23 33,18z"/>
   <path class="fil1" d="M90 464c-4,1 -9,3 -9,12 1,5 5,13 19,12 10,-1 18,-5 17,-14 0,-6 -4,-10 -10,-11l-1 -11c12,1 20,8 21,21 1,14 -8,25 -26,26 -18,1 -28,-9 -29,-22 -1,-16 9,-23 17,-24l1 11z"/>
   <polygon class="fil1" points="125,436 125,447 72,445 73,434 "/>
   <path class="fil1" d="M88 404l0 -1 21 -3 -2 13 -19 -9zm28 13l0 0 3 -19 11 -1 2 -12 -55 10 -2 13 49 26 2 -11 -10 -6z"/>
   <path class="fil1" d="M108 343c-3,0 -10,0 -12,9 -2,5 -1,13 13,18 10,2 19,1 21,-8 2,-5 0,-11 -6,-14l4 -10c10,5 15,15 11,27 -4,14 -16,20 -33,15 -17,-5 -23,-18 -19,-31 4,-15 16,-18 24,-16l-3 10z"/>
   <path class="fil1" d="M119 304l0 -1 22 4 -6 12 -16 -15zm22 21l0 0 9 -17 11 2 5 -11 -55 -7 -5 12 38 40 6 -11 -9 -8zm-42 -41l0 0c1,1 2,2 1,4 -1,1 -1,2 -3,4 -2,1 -3,2 -4,4 -1,3 -1,5 0,7 1,2 3,4 4,5l2 -5c0,0 -2,-2 -1,-4 1,-1 2,-2 4,-4 1,-1 3,-3 3,-4 3,-6 -2,-10 -4,-11l-2 4z"/>
   <path class="fil1" d="M151 275c-12,-8 -10,-17 -6,-22 3,-5 11,-10 23,-1 12,9 10,18 7,22 -4,5 -12,10 -24,1zm-6 9l0 0c20,14 33,1 37,-4 4,-6 12,-22 -8,-37 -20,-14 -33,-1 -37,4 -4,6 -12,23 8,37z"/>
   <path class="fil1" d="M211 195c-2,-2 -8,-5 -14,1 -4,3 -8,11 2,22 6,7 15,11 22,5 4,-4 5,-9 2,-15l8 -7c6,10 6,21 -4,29 -11,10 -24,9 -36,-4 -13,-14 -11,-28 -1,-37 12,-11 24,-7 29,-1l-8 7z"/>
   <polygon class="fil1" points="242,187 255,207 245,213 217,168 226,162 237,179 254,168 244,151 253,145 281,190 272,196 259,176 "/>
   <path class="fil1" d="M289 142l0 -1 14 17 -12 5 -2 -21zm3 31l0 0 18 -8 7 9 11 -5 -38 -41 -11 5 3 56 11 -5 -1 -11z"/>
   <path class="fil1" d="M334 139l-4 -15 8 -2c7,-2 10,-1 12,4 0,3 2,8 -6,10l-10 3zm2 9l0 0 12 -4c14,-3 14,-15 12,-20 -2,-10 -10,-15 -20,-12l-23 6 13 51 11 -3 -5 -18z"/>
   <polygon class="fil1" points="407,111 379,114 380,125 406,122 407,132 381,134 383,148 411,145 412,154 373,158 367,106 406,102 "/>
   <path class="fil1" d="M452 120c-1,-3 -2,-9 -11,-9 -5,-1 -13,2 -14,17 0,10 3,18 12,19 6,0 11,-3 12,-10l11 1c-2,11 -10,19 -23,18 -14,0 -24,-10 -23,-28 1,-19 12,-28 25,-27 16,1 22,12 22,20l-11 -1z"/>
   <path class="fil1" d="M479 133c3,-15 12,-17 17,-15 6,1 14,6 10,21 -3,14 -12,16 -17,15 -6,-2 -13,-7 -10,-21zm-11 -3l0 0c-5,24 12,31 19,33 6,1 25,2 30,-22 5,-24 -12,-31 -19,-32 -6,-2 -25,-3 -30,21z"/>
   <polygon class="fil1" points="567,142 541,132 537,142 561,152 557,160 533,151 528,164 555,174 552,183 515,168 534,119 570,134 "/>
   <polygon class="fil1" points="610,156 619,161 592,206 583,200 583,157 583,157 564,190 555,184 582,139 592,145 591,187 591,187 "/>
   <path class="fil1" d="M613 202c-2,2 -4,7 3,13 4,4 9,6 13,2 2,-3 0,-7 -3,-11l-4 -5c-5,-7 -10,-13 -3,-22 4,-5 12,-11 26,0 12,10 9,21 5,26l-8 -7c1,-2 4,-6 -4,-12 -3,-3 -8,-5 -11,-1 -2,3 0,6 1,7l8 11c5,6 8,12 2,20 -10,12 -23,3 -27,0 -15,-12 -10,-23 -6,-28l8 7z"/>
   <polygon class="fil1" points="688,237 669,216 661,223 679,242 672,249 654,230 644,239 664,260 657,267 630,237 669,202 695,230 "/>
   <path class="fil1" d="M712 270l6 9c2,4 5,11 -8,19 -8,5 -17,7 -22,-1l-5 -9 29 -18zm-42 13l0 0 11 20c9,15 25,10 35,5 9,-6 20,-16 11,-32l-12 -20 -45 27z"/>
   <polygon class="fil1" points="748,344 738,319 727,323 737,346 728,350 719,326 706,331 717,358 708,362 693,325 742,305 757,341 "/>
   <polygon class="fil1" points="716,392 714,382 765,372 772,409 763,410 758,385 747,387 751,409 742,411 737,388 "/>
   <path class="fil1" d="M741 462c-14,1 -20,-7 -21,-21 0,-5 1,-12 6,-17 3,-3 7,-4 12,-4l35 -1 1 11 -34 1c-8,0 -11,5 -11,10 1,7 5,10 11,10l34 -1 1 11 -34 1z"/>
   <polygon class="fil1" points="719,491 721,480 764,485 765,469 775,470 770,512 761,511 762,496 "/>
   <polygon class="fil1" points="750,556 756,529 746,527 739,551 730,549 737,524 724,521 716,549 707,547 717,508 768,521 759,559 "/>
   <path class="fil1" d="M723 569l-5 13c-2,4 -5,7 -9,5 -5,-2 -6,-6 -4,-11l5 -12 13 5zm-17 -18l0 0 -9 20c-4,10 -3,13 -2,17 2,4 5,7 8,9 5,2 11,2 15,-3 0,3 1,7 8,10 5,2 13,3 18,-9l10 -24 -48 -20zm36 26l0 0 -5 12c-2,5 -4,7 -8,5 -4,-1 -4,-5 -3,-9l5 -12 11 4z"/>
   <path class="fil1" d="M705 616c12,8 10,17 7,22 -3,5 -10,10 -23,2 -12,-8 -11,-17 -8,-22 4,-5 11,-10 24,-2zm5 -9l0 0c-20,-14 -33,0 -36,6 -4,6 -12,23 9,36 21,13 33,0 37,-6 4,-6 11,-23 -10,-36z"/>
   <polygon class="fil1" points="658,652 641,672 634,665 658,638 698,672 690,680 "/>
   <path class="fil1" d="M292 700c1,-2 2,-6 -3,-8 -3,-2 -8,-3 -13,5 -3,6 -3,11 2,14 3,2 6,1 9,-2l6 4c-5,5 -11,7 -18,3 -8,-4 -10,-12 -5,-22 6,-10 15,-12 22,-8 8,5 8,13 6,17l-6 -3z"/>
   <polygon class="fil1" points="306,715 300,728 294,725 306,696 313,698 308,710 319,715 324,703 331,706 318,736 311,733 317,720 "/>
   <path class="fil1" d="M345 718l0 0 0 14 -7 -3 7 -11zm-11 16l0 0 12 4 0 7 7 2 -2 -35 -7 -2 -21 28 7 2 4 -6z"/>
   <path class="fil1" d="M369 732l1 -9 6 1c4,0 5,2 5,5 -1,2 -1,5 -6,4l-6 -1zm-1 6l0 0 7 1c9,2 12,-5 12,-8 1,-7 -2,-11 -8,-12l-14 -3 -6 32 7 1 2 -11z"/>
   <polygon class="fil1" points="416,728 399,727 398,734 414,735 414,741 398,740 397,748 415,749 415,755 390,753 393,721 416,722 "/>
   <path class="fil1" d="M442 732c-1,-2 -2,-5 -7,-5 -4,0 -8,3 -8,12 0,6 3,11 9,11 3,-1 6,-3 7,-7l6 0c-1,7 -5,12 -13,12 -9,1 -15,-5 -16,-16 0,-11 6,-17 14,-18 10,0 14,6 15,11l-7 0z"/>
   <path class="fil1" d="M459 736c-1,-9 4,-12 7,-12 4,-1 9,1 11,10 1,9 -3,12 -7,12 -4,1 -9,-1 -11,-10zm-6 1l0 0c2,16 14,16 18,15 4,-1 15,-4 13,-19 -3,-16 -14,-16 -19,-15 -4,1 -15,4 -12,19z"/>
   <path class="fil1" d="M531 724c0,2 3,5 8,2 3,-1 6,-3 5,-6 -1,-3 -4,-2 -7,-2l-4 1c-5,1 -10,2 -13,-5 -2,-3 -2,-10 7,-14 10,-4 15,1 16,5l-6 2c0,-1 -2,-4 -8,-2 -2,1 -5,4 -3,6 1,3 3,2 4,2l8 -1c5,-1 9,-1 11,4 4,9 -5,14 -7,15 -11,5 -16,-1 -17,-4l6 -3z"/>
   <path class="fil1" d="M567 693c-2,-1 -5,-4 -9,-1 -3,1 -6,6 -2,14 3,5 8,8 13,5 3,-2 4,-5 3,-9l6 -3c2,7 1,13 -7,17 -7,5 -15,3 -21,-7 -6,-10 -3,-18 5,-22 8,-5 15,-1 17,3l-5 3z"/>
   <path class="fil1" d="M418 533c-5,0 -18,-36 -25,-42 -6,-6 -4,-13 -4,-16 0,-2 7,-5 5,-13 -1,-8 -12,-5 -16,-14 -4,-8 -13,-13 -18,-22 -5,-8 -5,-22 -9,-30 -4,-7 -11,-16 -11,-24 0,-8 3,-12 8,-14 4,-3 8,-2 8,-7 0,-5 -7,-9 -12,-9 -5,0 -6,4 -11,4 -5,0 -4,-6 -18,-6 -6,0 -17,12 -22,12 -5,0 -16,-3 -17,1 -1,5 7,2 7,8 0,7 -4,16 -10,26 -5,9 -2,25 -5,28 -3,3 -7,7 -8,11 -1,5 -2,13 -4,16 -3,2 -7,4 -8,9 -1,4 2,9 0,14 -1,6 -1,12 -4,14 -2,3 -7,7 -7,10 0,4 0,14 -2,18 -1,5 -8,16 -12,22 -5,7 -8,10 -11,10 -3,0 -12,10 -3,10 10,0 49,0 54,0 5,0 11,-10 4,-10 -7,0 -13,-4 -16,-9 -2,-4 4,-8 4,-10 0,-3 1,-12 5,-14 0,0 74,0 80,0 6,0 11,4 12,8 1,4 1,9 1,13 0,4 -4,4 -7,7 -3,3 -14,11 0,11 15,0 38,0 41,0 3,0 7,-4 12,-4 5,0 8,4 15,4 7,0 16,0 17,-8 1,-5 -8,-4 -13,-4zm-157 -74l0 0c-4,0 -4,-5 -4,-6 0,-1 1,-4 4,-4 3,0 4,-5 6,-5 2,0 0,4 2,6 2,1 1,4 -1,5 -3,0 -2,4 -7,4zm74 28l0 0 -66 0c-3,0 2,-12 2,-15 0,-3 3,-10 7,-14 5,-5 2,-12 4,-17 1,-5 3,-10 5,-12 3,-2 4,-15 8,-24 3,-8 13,-9 13,-3 0,6 12,29 14,35 2,6 0,19 2,26 3,6 6,8 11,14 6,5 0,10 0,10zm23 -26l0 0c-2,0 -4,3 -8,2 -4,-1 -3,-5 -3,-7 0,-3 -2,-5 0,-9 2,-5 5,-1 7,1 3,2 3,0 5,2 2,0 1,2 2,4 0,1 2,3 2,4 0,3 -4,3 -5,3z"/>
   <path class="fil1" d="M640 368c0,-9 2,-12 3,-17 1,-5 -5,-7 -6,-3 -2,4 -6,6 -9,6 -3,0 -3,-2 -10,-2 -7,0 -7,-8 -27,-8 -21,0 -17,8 -27,8 -9,0 -11,-7 -19,-7 -9,0 -10,6 -18,6 -9,0 -9,-6 -13,-6 -4,0 -3,3 -9,5 -7,1 -8,6 -6,8 3,3 9,6 9,15 0,10 4,27 4,34 0,8 -2,13 -2,22 0,8 -6,13 -6,18 0,5 6,9 6,14 0,4 -1,48 -1,53 0,7 -1,10 -4,13 -1,3 1,4 -4,8 -4,5 -7,2 -10,5 -4,3 4,5 5,6 2,1 0,4 7,4 6,0 15,-8 21,-8 5,0 6,6 13,6 6,0 5,-3 17,-3 12,0 17,6 23,6 6,0 9,-1 14,-10 5,-9 -3,-9 -4,-5 -1,4 -6,3 -9,3 -4,0 -9,-1 -10,-1 -1,0 -6,-3 -6,-5 0,-3 -3,-7 -6,-9 -2,-3 -2,-8 -2,-16 0,-8 -2,-11 -2,-16 0,-4 2,-8 2,-14 0,-7 -1,-12 2,-15 3,-3 4,-7 7,-7 4,0 7,3 9,5 2,2 6,3 9,6 3,2 -3,4 2,12 4,9 9,3 9,-2 0,-4 3,-6 3,-9 0,-3 -2,-3 -2,-10 0,-7 4,-8 4,-13 0,-4 -4,-5 -4,-9 0,-4 0,-2 0,-9 0,-7 -1,-12 -4,-15 -3,-4 -9,-4 -9,1 0,6 1,10 1,13 0,3 -1,7 -7,10 -5,2 -3,5 -10,5 -7,0 -8,-1 -9,-6 -2,-5 -1,-17 -1,-33 0,-15 2,-21 2,-27 0,-5 4,-7 10,-9 6,-1 7,-6 14,-6 7,0 12,2 17,4 6,2 12,6 12,6 0,0 0,0 1,1 2,2 7,7 7,12 0,4 3,9 5,17 2,8 -2,9 -8,14 -5,6 -1,9 3,9 3,0 0,3 11,-3 12,-7 17,-19 17,-28 0,-10 -5,-15 -5,-24zm-106 82l0 0c-2,0 -5,0 -5,-3 -1,-2 -3,-2 -3,-7 0,-3 1,-4 2,-6 1,-2 1,-5 3,-5 1,0 2,2 4,4 1,1 3,2 3,4 0,6 2,5 3,8 3,4 -5,5 -7,5z"/>
   <path class="fil1" d="M484 548c-1,-1 -2,-3 -2,-5 0,0 0,-1 0,-2l0 0c-1,-2 -1,-5 1,-10 1,-4 -6,-6 -6,-8 0,-3 -3,-12 -9,-18 -7,-7 -4,-7 -7,-10 -3,-3 -14,-3 -7,5 8,7 2,9 6,12 3,4 4,8 4,13 0,5 2,6 2,14 0,9 -2,14 -4,19 -3,5 -6,14 -9,14 -4,0 -5,5 -15,5 -9,0 -14,-2 -20,-10 -4,-6 -14,-10 -18,-18 0,0 -1,0 -1,0 -1,0 -2,1 -3,2l-9 3 -24 0c-1,0 -1,1 -2,2 -2,2 -6,5 -6,9 0,4 6,5 7,10 2,4 19,27 27,29 7,2 4,6 25,6 20,0 25,-7 34,-7 10,0 15,-1 16,3 1,4 6,6 6,9 0,3 2,10 7,5 5,-5 6,-10 10,-14 3,-4 2,-38 3,-45 2,-8 -3,-8 -6,-13z"/>
   <path class="fil1" d="M483 309c0,-7 -5,-12 -7,-17 -2,-5 2,-21 -1,-23 -2,-3 -6,-6 -6,-9 0,-4 -9,-11 -11,3 -3,13 1,9 -4,11 -5,2 -6,8 -11,8 -5,0 -9,-2 -16,0 -6,2 -13,5 -20,5 -7,0 -20,4 -26,10 -5,5 -5,13 -10,17 -4,4 -5,7 -6,8 -1,2 -4,3 -4,8 0,2 -1,6 -1,11 3,2 4,6 4,10 0,9 -7,12 -10,13l-2 1c-2,1 -4,1 -4,7 0,4 4,10 7,15l3 6c3,4 4,10 5,15 1,6 2,11 4,14 2,3 5,6 8,9 3,4 7,8 10,13 6,-1 11,-4 13,-7 2,-5 5,-8 5,-11 0,-4 -6,-10 -8,-16 -2,-5 -3,-24 -3,-41 0,-17 4,-35 6,-40 2,-6 18,-28 33,-28 15,0 13,9 18,12 6,3 14,9 14,20 0,11 -6,28 -16,31 -10,4 -13,11 -1,13 13,1 18,-9 26,-15 8,-5 5,-12 7,-15 3,-2 4,-8 4,-13 0,-4 -4,-8 -4,-12 0,-4 4,-7 4,-13z"/>
  </g>
 </g>
</svg>
