<?xml version="1.0" encoding="UTF-8"?>
<!DOCTYPE svg PUBLIC "-//W3C//DTD SVG 1.1//EN" "http://www.w3.org/Graphics/SVG/1.1/DTD/svg11.dtd">
<!-- Creator: CorelDRAW X8 -->
<svg xmlns="http://www.w3.org/2000/svg" xml:space="preserve" width="100%" height="100%" version="1.1" style="shape-rendering:geometricPrecision; text-rendering:geometricPrecision; image-rendering:optimizeQuality; fill-rule:evenodd; clip-rule:evenodd"
viewBox="0 0 847 847"
 xmlns:xlink="http://www.w3.org/1999/xlink">
 <defs>
  <style type="text/css">
   <![CDATA[
    .fil1 {fill:#005951}
    .fil0 {fill:white}
   ]]>
  </style>
 </defs>
 <g id="Camada_x0020_1">
  <metadata id="CorelCorpID_0Corel-Layer"/>
  <g id="_4374192064">
   <path class="fil0" d="M423 842c232,0 419,-187 419,-419 0,-231 -187,-418 -419,-418 -231,0 -418,187 -418,418 0,232 187,419 418,419z"/>
   <path class="fil1" d="M423 815c216,0 392,-175 392,-392 0,-216 -176,-392 -392,-392 -216,0 -391,176 -391,392 0,217 175,392 391,392zm-324 -331c14,-1 25,4 29,19 6,19 -11,32 -28,37 -17,5 -36,1 -41,-19 -4,-13 3,-24 15,-30l3 8c-8,4 -14,11 -11,21 4,14 21,14 33,11 5,-2 11,-5 16,-8 5,-5 8,-11 6,-18 -3,-11 -12,-13 -21,-13l-1 -8zm-14 -11c-18,1 -37,-7 -39,-27 -1,-20 17,-30 34,-31 17,-1 37,7 38,27 2,20 -16,30 -33,31zm-4 -49c-6,1 -14,2 -19,6 -5,3 -9,9 -8,15 1,16 18,19 30,18 12,0 28,-6 27,-21 -1,-15 -18,-18 -30,-18zm42 -64l-32 9 -3 19 30 4 -1 9 -70 -10 4 -26c1,-6 2,-11 7,-15 4,-4 10,-6 16,-5 8,1 15,7 16,15l34 -9 -1 9zm-40 11c1,-5 1,-9 -2,-13 -2,-3 -5,-4 -9,-5 -4,0 -7,1 -10,4 -2,2 -3,5 -4,9l-2 17 25 4 2 -16zm45 -32l-67 -20 3 -8 67 20 -3 8zm13 -36l-57 -26 -8 19 -7 -4 20 -44 7 3 -9 18 58 26 -4 8zm17 -35l-60 -36 5 -8 60 37 -5 7zm13 -22l-54 -44 17 -21c3,-4 6,-7 12,-9 5,-2 10,-1 15,3 6,5 8,13 4,20l0 0c7,-6 16,-6 23,0 5,4 8,9 8,14 -1,7 -4,12 -8,17l-17 20zm11 -25c2,-3 5,-6 5,-10 0,-4 -2,-7 -5,-10 -3,-2 -7,-3 -11,-3 -4,1 -7,5 -10,8l-10 12 20 17 11 -14zm-27 -18c2,-3 5,-7 6,-11 0,-4 -2,-7 -5,-9 -3,-3 -6,-4 -10,-2 -4,1 -6,3 -8,6l-10 12 18 15 9 -11zm87 -29l-18 -11 -20 16 8 20 -6 5 -27 -69 8 -6 62 39 -7 6zm-54 -34l13 33 17 -14 -30 -19zm95 9l-29 -64 39 -18 4 7 -32 14 10 21 25 -12 3 7 -26 11 14 31 -8 3zm32 -52c-4,-17 0,-37 20,-42 19,-5 32,11 36,28 4,16 0,38 -19,42 -20,5 -33,-11 -37,-28zm47 -12c-1,-6 -4,-13 -8,-17 -5,-5 -11,-8 -17,-6 -16,4 -16,21 -13,33 3,12 11,27 26,23 14,-3 15,-21 12,-33zm25 -3c-1,-18 7,-37 28,-37 19,-1 29,17 29,34 1,17 -8,37 -28,38 -20,0 -29,-18 -29,-35zm48 -2c0,-6 -1,-14 -5,-19 -3,-6 -8,-9 -15,-9 -16,0 -19,17 -19,30 0,12 5,28 20,28 15,-1 19,-18 19,-30zm35 39l10 -61 -20 -4 2 -7 48 8 -2 7 -19 -3 -11 62 -8 -2zm65 17l31 -63 24 11c5,3 8,5 11,10 3,5 3,10 1,15 -4,7 -10,11 -18,9l0 0c7,6 9,14 5,23 -2,5 -7,9 -12,10 -7,1 -12,-1 -18,-4l-24 -11zm27 5c4,1 8,3 11,2 4,-1 7,-3 8,-7 2,-3 2,-8 1,-12 -2,-4 -6,-5 -10,-7l-14 -7 -11 23 15 8zm11 -31c4,2 8,4 13,3 3,-1 6,-3 8,-7 1,-3 1,-7 -1,-10 -2,-3 -5,-4 -8,-6l-14 -7 -10 21 12 6zm49 78l7 -20 -21 -16 -17 13 -6 -5 60 -42 8 6 -24 70 -7 -6zm21 -60l-29 20 17 13 12 -33zm20 102l-28 -30 51 -48 6 6 -46 43 23 24 -6 5zm28 42l-23 -35 58 -39 5 7 -52 35 19 27 -7 5zm53 77c-13,1 -25,-4 -29,-18 -7,-19 10,-33 26,-38 17,-6 36,-3 43,17 4,13 -3,24 -14,31l-4 -8c8,-5 14,-11 10,-21 -4,-15 -21,-14 -33,-10 -5,2 -11,5 -15,8 -6,5 -9,12 -6,19 3,10 12,12 21,12l1 8zm-14 60l-5 -42 70 -8 1 8 -62 8 4 33 -8 1zm67 60l-44 -2c-7,-1 -13,-2 -18,-7 -6,-5 -8,-12 -7,-19 0,-7 2,-14 8,-18 6,-5 13,-5 20,-5l44 3 0 9 -44 -3c-5,0 -10,0 -14,2 -5,3 -6,8 -6,13 -1,5 0,10 4,13 4,4 9,4 14,4l44 3 -1 7zm-72 11l68 19 -7 25c-2,6 -3,10 -7,13 -5,4 -10,5 -15,4 -8,-2 -13,-8 -12,-16l-1 0c-4,8 -12,12 -21,9 -5,-1 -10,-5 -12,-10 -3,-6 -2,-12 0,-18l7 -26zm0 27c-1,4 -1,8 0,12 2,4 4,6 8,7 4,1 9,0 12,-2 3,-3 5,-7 6,-11l4 -15 -25 -7 -5 16zm33 6c-1,4 -3,8 -1,13 1,3 4,5 8,6 4,1 7,1 10,-2 3,-3 3,-6 4,-9l4 -16 -22 -6 -3 14zm-531 234l33 -62 21 11c5,3 10,6 13,12 2,6 1,13 -2,18 -2,5 -7,9 -12,10 -6,2 -12,0 -18,-3l-14 -7 -13 25 -8 -4zm38 -20c4,2 7,3 11,2 4,-1 7,-4 8,-7 2,-4 3,-8 1,-12 -1,-4 -4,-5 -7,-7l-14 -7 -12 24 13 7zm55 60l0 -21 -25 -9 -12 18 -7 -3 44 -59 9 3 -1 74 -8 -3zm1 -63l-21 28 20 7 1 -35zm68 76l-9 -32 -19 -2 -4 30 -9 -1 10 -70 26 4c6,0 11,2 15,6 4,4 6,10 5,16 -1,8 -7,15 -15,16l9 34 -9 -1zm-11 -39c5,0 9,1 13,-2 3,-3 4,-6 5,-9 0,-4 -1,-8 -4,-10 -3,-3 -5,-3 -9,-4l-17 -2 -4 25 16 2zm84 39l-8 -20 -26 1 -5 21 -7 0 19 -71 10 -1 26 69 -9 1zm-23 -60l-9 34 22 -1 -13 -33zm94 45l-49 -50 15 59 -7 2 -17 -68 10 -3 46 47 -14 -55 8 -2 17 68 -9 2zm49 -91l-4 -3 14 -20 6 5 -16 18zm21 62l-15 -15 -23 11 3 21 -7 3 -10 -73 10 -4 50 53 -8 4zm-44 -46l5 35 19 -9 -24 -26zm-401 -60c7,0 13,-6 13,-13 0,-7 -6,-13 -13,-13 -8,0 -13,6 -13,13 0,7 5,13 13,13zm524 0c7,0 13,-6 13,-13 0,-7 -6,-13 -13,-13 -7,0 -13,6 -13,13 0,7 6,13 13,13zm-259 62c160,0 289,-129 289,-289 0,-159 -129,-288 -289,-288 -159,0 -288,129 -288,288 0,160 129,289 288,289z"/>
   <path class="fil1" d="M423 849c235,0 426,-191 426,-426 0,-235 -191,-425 -426,-425 -235,0 -425,190 -425,425 0,235 190,426 425,426zm0 -18c225,0 408,-182 408,-408 0,-225 -183,-408 -408,-408 -225,0 -407,183 -407,408 0,226 182,408 407,408z"/>
   <path class="fil1" d="M423 698c152,0 274,-123 274,-275 0,-151 -122,-274 -274,-274 -151,0 -273,123 -273,274 0,152 122,275 273,275zm180 -294c-1,-27 -11,-41 -28,-41 -20,0 -30,21 -30,62 0,19 1,40 12,51 5,5 12,7 19,7 16,0 27,-13 29,-36l28 2c-4,39 -25,62 -58,62 -16,0 -29,-6 -39,-16 -15,-15 -24,-41 -24,-72 0,-30 9,-56 24,-71 10,-10 24,-16 40,-16 34,0 53,22 57,65l-30 3zm-187 -20l0 26 37 0 0 22 -37 0 0 44 -23 0 0 -114 69 0 0 22 -46 0zm-112 20c0,-27 -10,-41 -28,-41 -20,0 -30,21 -30,62 0,19 2,40 13,51 5,5 11,7 19,7 16,0 26,-13 29,-36l28 2c-4,39 -26,62 -59,62 -15,0 -28,-6 -38,-16 -16,-15 -24,-41 -24,-72 0,-30 8,-56 24,-71 10,-10 24,-16 39,-16 34,0 54,22 58,65l-31 3zm62 -223c-46,27 -92,105 -97,112 -4,8 -46,-30 -41,-38 20,-31 61,-61 96,-73 31,-11 53,-9 42,-1zm22 15c-28,37 -48,117 -50,126 -3,9 -58,-12 -54,-22 3,-9 16,-33 36,-60 12,-16 36,-44 55,-54 10,-4 22,-3 13,10zm30 135c0,11 -68,4 -66,-7 2,-12 19,-93 49,-129 1,-3 2,-4 5,-6 4,-3 11,0 11,6 1,47 1,126 1,136zm-52 333c-46,-27 -92,-105 -97,-113 -4,-8 -46,31 -41,39 20,30 61,60 96,72 31,12 53,10 42,2zm22 -15c-28,-38 -48,-118 -50,-127 -3,-9 -58,12 -54,22 3,10 16,34 36,61 12,16 36,44 55,53 10,5 22,4 13,-9zm30 -136c0,-10 -68,-4 -66,7 2,12 19,94 49,130 1,2 2,3 5,5 4,3 11,1 11,-3 1,-47 1,-129 1,-139zm63 151c46,-27 92,-105 97,-113 5,-8 46,31 41,39 -20,30 -61,60 -95,72 -32,12 -54,10 -43,2zm-21 -15c27,-38 47,-118 50,-127 2,-9 57,12 53,22 -3,10 -16,34 -36,61 -12,16 -36,44 -55,53 -10,5 -22,4 -12,-9zm-31 -136c0,-10 68,-4 67,7 -2,12 -20,94 -49,130 -2,2 -3,3 -5,5 -5,3 -11,1 -11,-3 -1,-47 -2,-129 -2,-139zm51 -332c46,27 92,105 97,112 5,8 46,-30 41,-38 -20,-31 -61,-61 -96,-73 -31,-11 -53,-9 -42,-1zm-22 15c28,37 48,117 51,126 2,9 57,-12 53,-22 -3,-9 -16,-33 -36,-60 -12,-16 -36,-44 -55,-54 -10,-4 -22,-3 -13,10zm-30 135c0,11 68,4 66,-7 -1,-12 -19,-93 -48,-129 -2,-3 -3,-4 -6,-6 -4,-3 -10,0 -10,6 -2,47 -2,126 -2,136z"/>
  </g>
 </g>
</svg>
