<?xml version="1.0" encoding="UTF-8"?>
<!DOCTYPE svg PUBLIC "-//W3C//DTD SVG 1.1//EN" "http://www.w3.org/Graphics/SVG/1.1/DTD/svg11.dtd">
<!-- Creator: CorelDRAW X8 -->
<svg xmlns="http://www.w3.org/2000/svg" xml:space="preserve" width="100%" height="100%" version="1.1" style="shape-rendering:geometricPrecision; text-rendering:geometricPrecision; image-rendering:optimizeQuality; fill-rule:evenodd; clip-rule:evenodd"
viewBox="0 0 847 847"
 xmlns:xlink="http://www.w3.org/1999/xlink">
 <defs>
  <style type="text/css">
   <![CDATA[
    .str0 {stroke:black;stroke-width:7.62}
    .fil5 {fill:none;fill-rule:nonzero}
    .fil6 {fill:black}
    .fil8 {fill:#3E9BD7}
    .fil1 {fill:#D93F16}
    .fil7 {fill:#EED97A}
    .fil2 {fill:white}
    .fil3 {fill:#FEFEFE;fill-rule:nonzero}
    .fil0 {fill:#D93F16;fill-rule:nonzero}
    .fil4 {fill:black;fill-rule:nonzero}
   ]]>
  </style>
 </defs>
 <g id="Camada_x0020_1">
  <metadata id="CorelCorpID_0Corel-Layer"/>
  <g id="_4374187584">
   <g>
    <polygon class="fil0" points="705,750 127,173 175,124 753,702 "/>
   </g>
   <path class="fil1" d="M145 60l104 102c0,0 10,22 -17,68 -46,27 -68,17 -68,17l-103 -104 84 -83z"/>
   <path class="fil2" d="M79 151l85 88c0,0 15,12 32,0 0,0 -16,2 -25,-4l-92 -84z"/>
   <polygon class="fil2" points="227,225 215,221 205,223 205,210 174,170 214,204 227,203 224,213 "/>
   <g>
    <polygon class="fil0" points="94,702 672,124 720,173 142,750 "/>
   </g>
   <path class="fil1" d="M702 60l-104 102c0,0 -11,22 17,68 45,27 67,17 67,17l103 -104 -83 -83z"/>
   <path class="fil2" d="M768 151l-86 88c0,0 -14,12 -31,0 0,0 15,2 25,-4l92 -84z"/>
   <polygon class="fil2" points="619,225 632,221 642,223 641,210 672,170 633,204 619,203 623,213 "/>
   <polygon class="fil1" points="454,185 507,163 507,116 423,88 340,116 340,163 392,185 "/>
   <g>
    <path class="fil3" d="M508 165l-53 23 -2 -6 52 -22 5 3 -2 2zm2 -2l0 2 -2 0 2 -2zm0 -47l0 47 -6 0 0 -47 4 -3 2 3zm-2 -3l2 1 0 2 -2 -3zm-84 -28l84 28 -2 6 -84 -28 0 -6 2 0zm-2 0l1 0 1 0 -2 0zm-83 28l83 -28 2 6 -83 28 -4 -3 2 -3zm-2 3l0 -2 2 -1 -2 3zm0 47l0 -47 6 0 0 47 -5 2 -1 -2zm1 2l-1 0 0 -2 1 2zm53 23l-53 -23 3 -5 52 22 -1 6 -1 0zm1 0l-1 0 0 0 1 0zm62 0l-62 0 0 -6 62 0 1 6 -1 0zm1 0l0 0 -1 0 1 0z"/>
   </g>
   <g>
    <polygon class="fil3" points="468,123 468,117 470,117 471,117 473,117 474,117 476,118 477,118 478,118 479,118 481,119 482,119 483,119 484,120 485,120 486,120 487,121 487,121 488,122 489,122 490,123 490,123 491,123 491,124 492,124 492,124 493,125 493,125 493,125 494,125 494,126 494,126 494,126 494,126 490,130 490,130 490,130 490,130 490,130 490,130 489,130 489,129 489,129 488,129 488,129 488,128 487,128 487,128 486,127 485,127 485,127 484,126 483,126 483,126 482,125 481,125 480,125 479,124 478,124 477,124 476,124 475,123 473,123 472,123 471,123 470,123 "/>
   </g>
   <g>
    <polygon class="fil3" points="378,117 468,117 468,123 378,123 "/>
   </g>
   <g>
    <polygon class="fil3" points="356,130 352,126 352,126 352,126 352,126 353,125 353,125 353,125 353,125 354,124 354,124 355,124 355,123 356,123 357,123 357,122 358,122 359,121 360,121 361,120 361,120 362,120 363,119 365,119 366,119 367,118 368,118 369,118 371,118 372,117 374,117 375,117 376,117 378,117 378,123 377,123 375,123 374,123 373,123 372,123 370,124 369,124 368,124 367,124 366,125 365,125 365,125 364,126 363,126 362,126 361,127 361,127 360,127 360,128 359,128 359,128 358,129 358,129 357,129 357,129 357,130 357,130 356,130 356,130 356,130 356,130 "/>
   </g>
   <g>
    <polygon class="fil3" points="468,162 468,156 470,156 471,156 472,156 473,156 475,155 476,155 477,155 478,155 479,154 480,154 481,154 482,154 483,153 483,153 484,153 485,152 485,152 486,152 487,151 487,151 488,151 488,150 488,150 489,150 489,150 489,149 490,149 490,149 490,149 490,149 490,149 490,149 494,153 494,153 494,153 494,153 494,154 493,154 493,154 493,154 492,155 492,155 491,155 491,156 490,156 490,156 489,157 488,157 487,158 487,158 486,158 485,159 484,159 483,160 482,160 481,160 479,161 478,161 477,161 476,161 474,161 473,162 471,162 470,162 "/>
   </g>
   <g>
    <polygon class="fil3" points="378,156 468,156 468,162 378,162 "/>
   </g>
   <g>
    <polygon class="fil3" points="352,153 356,149 356,149 356,149 356,149 356,149 357,149 357,149 357,150 357,150 358,150 358,150 359,151 359,151 360,151 360,152 361,152 361,152 362,153 363,153 364,153 365,154 365,154 366,154 367,154 368,155 369,155 370,155 372,155 373,156 374,156 375,156 377,156 378,156 378,162 376,162 375,162 374,162 372,161 371,161 369,161 368,161 367,161 366,160 365,160 363,160 362,159 361,159 361,158 360,158 359,158 358,157 357,157 357,156 356,156 355,156 355,155 354,155 354,155 353,154 353,154 353,154 353,154 352,153 352,153 352,153 "/>
   </g>
   <path class="fil1" d="M476 51c0,30 -24,53 -53,53 -29,0 -53,-23 -53,-53 0,-29 24,-53 53,-53 29,0 53,24 53,53zm-53 -26c-15,0 -27,11 -27,26 0,15 12,27 27,27 15,0 27,-12 27,-27 0,-15 -12,-26 -27,-26z"/>
   <path class="fil1" d="M423 672l55 44c155,-7 206,-122 206,-122 5,-20 -8,-29 -8,-29l63 -77 3 107c0,0 -18,-9 -31,20 0,0 -33,121 -219,179 0,0 -46,13 -69,55 -24,-42 -70,-55 -70,-55 -185,-58 -219,-179 -219,-179 -13,-29 -31,-20 -31,-20l3 -107 64 77c0,0 -14,9 -9,29 0,0 52,115 207,122l55 -44z"/>
   <path class="fil2" d="M423 714l0 112c0,0 -7,-46 -39,-51 0,0 -184,-27 -245,-187 0,0 87,171 270,171l14 -45z"/>
   <polygon class="fil2" points="111,506 123,562 114,580 128,572 137,581 135,567 153,562 132,558 "/>
   <polygon class="fil2" points="734,506 722,562 731,580 717,572 708,581 710,567 692,562 713,558 "/>
   <path class="fil2" d="M437 759c182,0 269,-171 269,-171 -76,178 -269,191 -269,191l0 -20z"/>
   <g>
    <path class="fil4" d="M423 695l0 -28 0 0 12 0 12 -1 12 -2 11 -2 12 -3 11 -3 11 -3 10 -5 11 -4 10 -5 10 -6 9 -6 10 -7 8 -7 9 -7 8 -8 8 -8 7 -9 7 -9 7 -9 6 -9 6 -10 5 -10 5 -11 4 -10 3 -11 4 -11 2 -12 2 -11 2 -12 1 -12 0 -12 28 0 0 13 -1 14 -2 13 -2 13 -3 13 -4 12 -4 12 -5 12 -5 12 -6 11 -6 11 -7 11 -7 10 -8 10 -8 10 -9 9 -9 8 -10 9 -10 8 -10 7 -11 7 -11 6 -11 6 -12 5 -12 5 -12 4 -12 3 -13 3 -13 3 -13 1 -13 1 -14 1 0 0zm-263 -263l28 0 0 0 0 12 1 12 2 12 2 11 2 12 4 11 3 11 4 10 5 11 5 10 6 10 6 9 7 9 7 9 7 9 8 8 8 8 8 7 9 7 10 7 9 6 10 6 10 5 11 4 10 5 11 3 11 3 12 3 11 2 12 2 12 1 12 0 0 28 -14 -1 -13 -1 -13 -1 -13 -3 -13 -3 -12 -3 -12 -4 -12 -5 -12 -5 -11 -6 -11 -6 -11 -7 -10 -7 -10 -8 -10 -9 -9 -8 -9 -9 -8 -10 -8 -10 -7 -10 -7 -11 -6 -11 -6 -11 -5 -12 -5 -12 -4 -12 -4 -12 -3 -13 -2 -13 -2 -13 -1 -14 0 -13 0 0zm263 -263l0 28 0 0 -12 0 -12 1 -12 2 -11 2 -12 2 -11 3 -11 4 -10 4 -11 5 -10 5 -10 6 -9 6 -10 7 -8 7 -9 7 -8 8 -8 8 -7 8 -7 9 -7 9 -6 10 -6 10 -5 10 -5 10 -4 11 -3 11 -4 11 -2 11 -2 12 -2 12 -1 12 0 12 -28 0 0 -14 1 -13 2 -13 2 -13 3 -13 4 -12 4 -13 5 -11 5 -12 6 -11 6 -11 7 -11 7 -10 8 -10 8 -10 9 -9 9 -9 10 -8 10 -8 10 -7 11 -7 11 -6 11 -6 12 -5 12 -5 12 -4 12 -4 13 -3 13 -2 13 -2 13 -1 14 0 0 0zm263 263l-28 0 0 0 0 -12 -1 -12 -2 -12 -2 -12 -2 -11 -4 -11 -3 -11 -4 -11 -5 -10 -5 -10 -6 -10 -6 -10 -7 -9 -7 -9 -7 -8 -8 -8 -8 -8 -9 -7 -8 -7 -10 -7 -9 -6 -10 -6 -10 -5 -11 -5 -10 -4 -11 -4 -11 -3 -12 -2 -11 -2 -12 -2 -12 -1 -12 0 0 -28 14 0 13 1 13 2 13 2 13 3 12 4 12 4 12 5 12 5 11 6 11 6 11 7 10 7 10 8 10 8 9 9 9 9 8 10 8 10 7 10 7 11 6 11 6 11 5 12 5 11 4 13 4 12 3 13 2 13 2 13 1 13 0 14 0 0z"/>
   </g>
   <path class="fil2" d="M647 512c0,0 9,-24 9,-35 0,0 10,7 17,25 0,0 0,12 -13,37 0,0 -3,-17 -13,-27z"/>
   <g>
    <path class="fil5 str0" d="M647 512c0,0 9,-24 9,-35 0,0 10,7 17,25 0,0 0,12 -13,37 0,0 -3,-17 -13,-27z"/>
   </g>
   <path class="fil2" d="M629 550c0,0 14,-22 16,-33 0,0 8,8 12,27 0,0 -3,12 -19,34 0,0 -1,-17 -9,-28z"/>
   <g>
    <path class="fil5 str0" d="M629 550c0,0 14,-22 16,-33 0,0 8,8 12,27 0,0 -3,12 -19,34 0,0 -1,-17 -9,-28z"/>
   </g>
   <path class="fil2" d="M606 584c0,0 17,-20 21,-30 0,0 7,10 7,29 0,0 -5,11 -25,30 0,0 3,-17 -3,-29z"/>
   <g>
    <path class="fil5 str0" d="M606 584c0,0 17,-20 21,-30 0,0 7,10 7,29 0,0 -5,11 -25,30 0,0 3,-17 -3,-29z"/>
   </g>
   <path class="fil2" d="M657 472c0,0 5,-25 3,-36 0,0 11,5 21,21 0,0 2,13 -6,39 0,0 -6,-16 -18,-24z"/>
   <g>
    <path class="fil5 str0" d="M657 472c0,0 5,-25 3,-36 0,0 11,5 21,21 0,0 2,13 -6,39 0,0 -6,-16 -18,-24z"/>
   </g>
   <path class="fil2" d="M577 613c0,0 20,-16 25,-26 0,0 6,11 2,30 0,0 -6,11 -29,26 0,0 5,-16 2,-30z"/>
   <g>
    <path class="fil5 str0" d="M577 613c0,0 20,-16 25,-26 0,0 6,11 2,30 0,0 -6,11 -29,26 0,0 5,-16 2,-30z"/>
   </g>
   <path class="fil2" d="M543 637c0,0 22,-12 30,-21 0,0 3,12 -4,30 0,0 -8,9 -33,20 0,0 8,-15 7,-29z"/>
   <g>
    <path class="fil5 str0" d="M543 637c0,0 22,-12 30,-21 0,0 3,12 -4,30 0,0 -8,9 -33,20 0,0 8,-15 7,-29z"/>
   </g>
   <path class="fil2" d="M505 655c0,0 25,-9 33,-16 0,0 2,12 -8,29 0,0 -10,8 -36,14 0,0 10,-13 11,-27z"/>
   <g>
    <path class="fil5 str0" d="M505 655c0,0 25,-9 33,-16 0,0 2,12 -8,29 0,0 -10,8 -36,14 0,0 10,-13 11,-27z"/>
   </g>
   <path class="fil2" d="M465 666c0,0 26,-4 36,-10 0,0 -1,12 -13,27 0,0 -11,6 -39,7 0,0 13,-11 16,-24z"/>
   <g>
    <path class="fil5 str0" d="M465 666c0,0 26,-4 36,-10 0,0 -1,12 -13,27 0,0 -11,6 -39,7 0,0 13,-11 16,-24z"/>
   </g>
   <path class="fil2" d="M424 669c0,0 26,1 36,-3 0,0 -2,12 -17,24 0,0 -12,4 -39,1 0,0 14,-9 20,-22z"/>
   <g>
    <path class="fil5 str0" d="M424 669c0,0 26,1 36,-3 0,0 -2,12 -17,24 0,0 -12,4 -39,1 0,0 14,-9 20,-22z"/>
   </g>
   <path class="fil2" d="M629 550c0,0 14,-22 16,-33 0,0 8,8 12,27 0,0 -3,12 -19,34 0,0 -1,-17 -9,-28z"/>
   <g>
    <path class="fil5 str0" d="M629 550c0,0 14,-22 16,-33 0,0 8,8 12,27 0,0 -3,12 -19,34 0,0 -1,-17 -9,-28z"/>
   </g>
   <path class="fil2" d="M503 208c0,0 -23,-10 -35,-10 0,0 7,-9 25,-16 0,0 12,0 37,12 0,0 -17,4 -27,14z"/>
   <g>
    <path class="fil5 str0" d="M503 208c0,0 -23,-10 -35,-10 0,0 7,-9 25,-16 0,0 12,0 37,12 0,0 -17,4 -27,14z"/>
   </g>
   <path class="fil2" d="M541 225c0,0 -22,-13 -33,-15 0,0 8,-9 27,-12 0,0 12,2 34,19 0,0 -16,0 -28,8z"/>
   <g>
    <path class="fil5 str0" d="M541 225c0,0 -22,-13 -33,-15 0,0 8,-9 27,-12 0,0 12,2 34,19 0,0 -16,0 -28,8z"/>
   </g>
   <path class="fil2" d="M575 249c0,0 -19,-17 -30,-21 0,0 10,-7 29,-7 0,0 12,4 31,24 0,0 -17,-2 -30,4z"/>
   <g>
    <path class="fil5 str0" d="M575 249c0,0 -19,-17 -30,-21 0,0 10,-7 29,-7 0,0 12,4 31,24 0,0 -17,-2 -30,4z"/>
   </g>
   <path class="fil2" d="M463 197c0,0 -25,-5 -36,-3 0,0 5,-11 21,-20 0,0 13,-3 39,6 0,0 -16,6 -24,17z"/>
   <g>
    <path class="fil5 str0" d="M463 197c0,0 -25,-5 -36,-3 0,0 5,-11 21,-20 0,0 13,-3 39,6 0,0 -16,6 -24,17z"/>
   </g>
   <path class="fil2" d="M604 278c0,0 -16,-20 -25,-26 0,0 10,-5 29,-2 0,0 11,6 26,30 0,0 -16,-6 -30,-2z"/>
   <g>
    <path class="fil5 str0" d="M604 278c0,0 -16,-20 -25,-26 0,0 10,-5 29,-2 0,0 11,6 26,30 0,0 -16,-6 -30,-2z"/>
   </g>
   <path class="fil2" d="M628 312c0,0 -12,-23 -21,-30 0,0 12,-3 30,3 0,0 9,8 20,34 0,0 -15,-9 -29,-7z"/>
   <g>
    <path class="fil5 str0" d="M628 312c0,0 -12,-23 -21,-30 0,0 12,-3 30,3 0,0 9,8 20,34 0,0 -15,-9 -29,-7z"/>
   </g>
   <path class="fil2" d="M646 349c0,0 -8,-24 -15,-33 0,0 11,-1 28,8 0,0 8,10 14,37 0,0 -13,-11 -27,-12z"/>
   <g>
    <path class="fil5 str0" d="M646 349c0,0 -8,-24 -15,-33 0,0 11,-1 28,8 0,0 8,10 14,37 0,0 -13,-11 -27,-12z"/>
   </g>
   <path class="fil2" d="M657 389c0,0 -4,-25 -10,-35 0,0 12,1 27,13 0,0 6,11 8,38 0,0 -12,-12 -25,-16z"/>
   <g>
    <path class="fil5 str0" d="M657 389c0,0 -4,-25 -10,-35 0,0 12,1 27,13 0,0 6,11 8,38 0,0 -12,-12 -25,-16z"/>
   </g>
   <path class="fil2" d="M661 430c0,0 0,-25 -4,-36 0,0 12,3 24,17 0,0 5,12 1,40 0,0 -9,-15 -21,-21z"/>
   <g>
    <path class="fil5 str0" d="M661 430c0,0 0,-25 -4,-36 0,0 12,3 24,17 0,0 5,12 1,40 0,0 -9,-15 -21,-21z"/>
   </g>
   <path class="fil2" d="M541 225c0,0 -22,-13 -33,-15 0,0 8,-9 27,-12 0,0 12,2 34,19 0,0 -16,0 -28,8z"/>
   <g>
    <path class="fil5 str0" d="M541 225c0,0 -22,-13 -33,-15 0,0 8,-9 27,-12 0,0 12,2 34,19 0,0 -16,0 -28,8z"/>
   </g>
   <path class="fil2" d="M199 351c0,0 -9,24 -9,35 0,0 -10,-6 -17,-24 0,0 0,-13 13,-38 0,0 3,17 13,27z"/>
   <g>
    <path class="fil5 str0" d="M199 351c0,0 -9,24 -9,35 0,0 -10,-6 -17,-24 0,0 0,-13 13,-38 0,0 3,17 13,27z"/>
   </g>
   <path class="fil2" d="M217 313c0,0 -14,22 -16,33 0,0 -8,-8 -12,-27 0,0 2,-12 19,-34 0,0 1,17 9,28z"/>
   <g>
    <path class="fil5 str0" d="M217 313c0,0 -14,22 -16,33 0,0 -8,-8 -12,-27 0,0 2,-12 19,-34 0,0 1,17 9,28z"/>
   </g>
   <path class="fil2" d="M240 279c0,0 -17,20 -21,30 0,0 -7,-9 -7,-28 0,0 5,-12 25,-31 0,0 -3,17 3,29z"/>
   <g>
    <path class="fil5 str0" d="M240 279c0,0 -17,20 -21,30 0,0 -7,-9 -7,-28 0,0 5,-12 25,-31 0,0 -3,17 3,29z"/>
   </g>
   <path class="fil2" d="M189 391c0,0 -5,25 -3,36 0,0 -11,-5 -21,-21 0,0 -2,-12 6,-39 0,0 6,16 18,24z"/>
   <g>
    <path class="fil5 str0" d="M189 391c0,0 -5,25 -3,36 0,0 -11,-5 -21,-21 0,0 -2,-12 6,-39 0,0 6,16 18,24z"/>
   </g>
   <path class="fil2" d="M269 250c0,0 -20,16 -25,26 0,0 -6,-11 -2,-30 0,0 6,-11 29,-26 0,0 -5,16 -2,30z"/>
   <g>
    <path class="fil5 str0" d="M269 250c0,0 -20,16 -25,26 0,0 -6,-11 -2,-30 0,0 6,-11 29,-26 0,0 -5,16 -2,30z"/>
   </g>
   <path class="fil2" d="M303 226c0,0 -22,12 -30,21 0,0 -3,-11 4,-29 0,0 8,-10 33,-21 0,0 -8,15 -7,29z"/>
   <g>
    <path class="fil5 str0" d="M303 226c0,0 -22,12 -30,21 0,0 -3,-11 4,-29 0,0 8,-10 33,-21 0,0 -8,15 -7,29z"/>
   </g>
   <path class="fil2" d="M341 208c0,0 -25,9 -33,16 0,0 -2,-12 8,-29 0,0 10,-8 36,-14 0,0 -10,13 -11,27z"/>
   <g>
    <path class="fil5 str0" d="M341 208c0,0 -25,9 -33,16 0,0 -2,-12 8,-29 0,0 10,-8 36,-14 0,0 -10,13 -11,27z"/>
   </g>
   <path class="fil2" d="M381 198c0,0 -26,3 -36,9 0,0 1,-12 13,-27 0,0 11,-6 39,-7 0,0 -13,11 -16,25z"/>
   <g>
    <path class="fil5 str0" d="M381 198c0,0 -26,3 -36,9 0,0 1,-12 13,-27 0,0 11,-6 39,-7 0,0 -13,11 -16,25z"/>
   </g>
   <path class="fil2" d="M422 194c0,0 -26,-1 -36,3 0,0 2,-12 17,-24 0,0 12,-4 39,-1 0,0 -14,9 -20,22z"/>
   <g>
    <path class="fil5 str0" d="M422 194c0,0 -26,-1 -36,3 0,0 2,-12 17,-24 0,0 12,-4 39,-1 0,0 -14,9 -20,22z"/>
   </g>
   <path class="fil2" d="M217 313c0,0 -14,22 -16,33 0,0 -8,-8 -12,-27 0,0 2,-12 19,-34 0,0 1,17 9,28z"/>
   <g>
    <path class="fil5 str0" d="M217 313c0,0 -14,22 -16,33 0,0 -8,-8 -12,-27 0,0 2,-12 19,-34 0,0 1,17 9,28z"/>
   </g>
   <path class="fil2" d="M343 655c0,0 23,10 35,10 0,0 -7,10 -25,16 0,0 -12,0 -37,-12 0,0 17,-4 27,-14z"/>
   <g>
    <path class="fil5 str0" d="M343 655c0,0 23,10 35,10 0,0 -7,10 -25,16 0,0 -12,0 -37,-12 0,0 17,-4 27,-14z"/>
   </g>
   <path class="fil2" d="M305 638c0,0 22,13 33,15 0,0 -8,9 -27,12 0,0 -12,-2 -34,-18 0,0 16,-1 28,-9z"/>
   <g>
    <path class="fil5 str0" d="M305 638c0,0 22,13 33,15 0,0 -8,9 -27,12 0,0 -12,-2 -34,-18 0,0 16,-1 28,-9z"/>
   </g>
   <path class="fil2" d="M271 614c0,0 19,17 30,21 0,0 -10,7 -29,7 0,0 -12,-4 -31,-24 0,0 17,2 30,-4z"/>
   <g>
    <path class="fil5 str0" d="M271 614c0,0 19,17 30,21 0,0 -10,7 -29,7 0,0 -12,-4 -31,-24 0,0 17,2 30,-4z"/>
   </g>
   <path class="fil2" d="M383 666c0,0 25,5 36,3 0,0 -5,11 -21,21 0,0 -13,2 -39,-6 0,0 16,-7 24,-18z"/>
   <g>
    <path class="fil5 str0" d="M383 666c0,0 25,5 36,3 0,0 -5,11 -21,21 0,0 -13,2 -39,-6 0,0 16,-7 24,-18z"/>
   </g>
   <path class="fil2" d="M242 585c0,0 16,20 25,26 0,0 -10,5 -29,2 0,0 -11,-6 -26,-29 0,0 16,5 30,1z"/>
   <g>
    <path class="fil5 str0" d="M242 585c0,0 16,20 25,26 0,0 -10,5 -29,2 0,0 -11,-6 -26,-29 0,0 16,5 30,1z"/>
   </g>
   <path class="fil2" d="M218 552c0,0 12,22 21,29 0,0 -12,4 -30,-3 0,0 -9,-8 -20,-33 0,0 15,8 29,7z"/>
   <g>
    <path class="fil5 str0" d="M218 552c0,0 12,22 21,29 0,0 -12,4 -30,-3 0,0 -9,-8 -20,-33 0,0 15,8 29,7z"/>
   </g>
   <path class="fil2" d="M200 514c0,0 8,24 15,33 0,0 -11,1 -28,-8 0,0 -8,-10 -14,-37 0,0 13,11 27,12z"/>
   <g>
    <path class="fil5 str0" d="M200 514c0,0 8,24 15,33 0,0 -11,1 -28,-8 0,0 -8,-10 -14,-37 0,0 13,11 27,12z"/>
   </g>
   <path class="fil2" d="M189 474c0,0 4,25 10,35 0,0 -12,-1 -27,-13 0,0 -6,-11 -8,-38 0,0 12,12 25,16z"/>
   <g>
    <path class="fil5 str0" d="M189 474c0,0 4,25 10,35 0,0 -12,-1 -27,-13 0,0 -6,-11 -8,-38 0,0 12,12 25,16z"/>
   </g>
   <path class="fil2" d="M185 433c0,0 0,26 4,36 0,0 -12,-3 -24,-17 0,0 -5,-12 -1,-39 0,0 9,14 21,20z"/>
   <g>
    <path class="fil5 str0" d="M185 433c0,0 0,26 4,36 0,0 -12,-3 -24,-17 0,0 -5,-12 -1,-39 0,0 9,14 21,20z"/>
   </g>
   <path class="fil2" d="M305 638c0,0 22,13 33,15 0,0 -8,9 -27,12 0,0 -12,-2 -34,-18 0,0 16,-1 28,-9z"/>
   <g>
    <path class="fil5 str0" d="M305 638c0,0 22,13 33,15 0,0 -8,9 -27,12 0,0 -12,-2 -34,-18 0,0 16,-1 28,-9z"/>
   </g>
   <g>
    <path class="fil4" d="M414 663c0,-5 4,-9 9,-9 5,0 9,4 9,9l-18 0zm0 40l0 -40 18 0 0 40 -18 0zm18 0c0,4 -4,8 -9,8 -5,0 -9,-4 -9,-8l18 0z"/>
   </g>
   <g>
    <path class="fil4" d="M430 663c0,-5 4,-9 9,-9 5,0 9,4 9,9l-18 0zm0 40l0 -40 18 0 0 40 -18 0zm18 0c0,4 -4,8 -9,8 -5,0 -9,-4 -9,-8l18 0z"/>
   </g>
   <g>
    <path class="fil4" d="M398 663c0,-5 4,-9 9,-9 5,0 9,4 9,9l-18 0zm0 40l0 -40 18 0 0 40 -18 0zm18 0c0,4 -4,8 -9,8 -5,0 -9,-4 -9,-8l18 0z"/>
   </g>
   <g>
    <path class="fil4" d="M414 161c0,-5 4,-9 9,-9 5,0 9,4 9,9l-18 0zm0 40l0 -40 18 0 0 40 -18 0zm18 0c0,5 -4,9 -9,9 -5,0 -9,-4 -9,-9l18 0z"/>
   </g>
   <g>
    <path class="fil4" d="M430 161c0,-5 4,-9 9,-9 5,0 9,4 9,9l-18 0zm0 40l0 -40 18 0 0 40 -18 0zm18 0c0,5 -4,9 -9,9 -5,0 -9,-4 -9,-9l18 0z"/>
   </g>
   <g>
    <path class="fil4" d="M398 161c0,-5 4,-9 9,-9 5,0 9,4 9,9l-18 0zm0 40l0 -40 18 0 0 40 -18 0zm18 0c0,5 -4,9 -9,9 -5,0 -9,-4 -9,-9l18 0z"/>
   </g>
   <g>
    <path class="fil4" d="M654 441c-5,0 -9,-4 -9,-9 0,-5 4,-9 9,-9l0 18zm40 0l-40 0 0 -18 40 0 0 18zm0 -18c5,0 9,4 9,9 0,5 -4,9 -9,9l0 -18z"/>
   </g>
   <g>
    <path class="fil4" d="M654 425c-5,0 -9,-4 -9,-9 0,-5 4,-9 9,-9l0 18zm40 0l-40 0 0 -18 40 0 0 18zm0 -18c5,0 9,4 9,9 0,5 -4,9 -9,9l0 -18z"/>
   </g>
   <g>
    <path class="fil4" d="M654 457c-5,0 -9,-4 -9,-9 0,-5 4,-9 9,-9l0 18zm40 0l-40 0 0 -18 40 0 0 18zm0 -18c5,0 9,4 9,9 0,5 -4,9 -9,9l0 -18z"/>
   </g>
   <g>
    <path class="fil4" d="M152 441c-5,0 -9,-4 -9,-9 0,-5 4,-9 9,-9l0 18zm40 0l-40 0 0 -18 40 0 0 18zm0 -18c5,0 9,4 9,9 0,5 -4,9 -9,9l0 -18z"/>
   </g>
   <g>
    <path class="fil4" d="M152 425c-5,0 -9,-4 -9,-9 0,-5 4,-9 9,-9l0 18zm40 0l-40 0 0 -18 40 0 0 18zm0 -18c5,0 9,4 9,9 0,5 -4,9 -9,9l0 -18z"/>
   </g>
   <g>
    <path class="fil4" d="M152 457c-5,0 -9,-4 -9,-9 0,-5 4,-9 9,-9l0 18zm40 0l-40 0 0 -18 40 0 0 18zm0 -18c5,0 9,4 9,9 0,5 -4,9 -9,9l0 -18z"/>
   </g>
   <g>
    <path class="fil3" d="M417 663c0,-4 3,-6 6,-6 3,0 6,2 6,6l-12 0zm0 40l0 -40 12 0 0 40 -12 0zm12 0c0,3 -3,5 -6,5 -3,0 -6,-2 -6,-5l12 0z"/>
   </g>
   <g>
    <path class="fil3" d="M433 663c0,-4 3,-6 6,-6 3,0 6,2 6,6l-12 0zm0 40l0 -40 12 0 0 40 -12 0zm12 0c0,3 -3,5 -6,5 -3,0 -6,-2 -6,-5l12 0z"/>
   </g>
   <g>
    <path class="fil3" d="M401 663c0,-4 3,-6 6,-6 3,0 6,2 6,6l-12 0zm0 40l0 -40 12 0 0 40 -12 0zm12 0c0,3 -3,5 -6,5 -3,0 -6,-2 -6,-5l12 0z"/>
   </g>
   <g>
    <path class="fil3" d="M417 161c0,-3 3,-6 6,-6 3,0 6,3 6,6l-12 0zm0 40l0 -40 12 0 0 40 -12 0zm12 0c0,3 -3,6 -6,6 -3,0 -6,-3 -6,-6l12 0z"/>
   </g>
   <g>
    <path class="fil3" d="M433 161c0,-3 3,-6 6,-6 3,0 6,3 6,6l-12 0zm0 40l0 -40 12 0 0 40 -12 0zm12 0c0,3 -3,6 -6,6 -3,0 -6,-3 -6,-6l12 0z"/>
   </g>
   <g>
    <path class="fil3" d="M401 161c0,-3 3,-6 6,-6 3,0 6,3 6,6l-12 0zm0 40l0 -40 12 0 0 40 -12 0zm12 0c0,3 -3,6 -6,6 -3,0 -6,-3 -6,-6l12 0z"/>
   </g>
   <g>
    <path class="fil3" d="M654 438c-3,0 -6,-3 -6,-6 0,-3 3,-6 6,-6l0 12zm40 0l-40 0 0 -12 40 0 0 12zm0 -12c3,0 6,3 6,6 0,3 -3,6 -6,6l0 -12z"/>
   </g>
   <g>
    <path class="fil3" d="M654 422c-3,0 -6,-3 -6,-6 0,-3 3,-6 6,-6l0 12zm40 0l-40 0 0 -12 40 0 0 12zm0 -12c3,0 6,3 6,6 0,3 -3,6 -6,6l0 -12z"/>
   </g>
   <g>
    <path class="fil3" d="M654 454c-3,0 -6,-3 -6,-6 0,-4 3,-6 6,-6l0 12zm40 0l-40 0 0 -12 40 0 0 12zm0 -12c3,0 6,2 6,6 0,3 -3,6 -6,6l0 -12z"/>
   </g>
   <g>
    <path class="fil3" d="M152 438c-3,0 -6,-3 -6,-6 0,-3 3,-6 6,-6l0 12zm40 0l-40 0 0 -12 40 0 0 12zm0 -12c3,0 6,3 6,6 0,3 -3,6 -6,6l0 -12z"/>
   </g>
   <g>
    <path class="fil3" d="M152 422c-3,0 -6,-3 -6,-6 0,-3 3,-6 6,-6l0 12zm40 0l-40 0 0 -12 40 0 0 12zm0 -12c3,0 6,3 6,6 0,3 -3,6 -6,6l0 -12z"/>
   </g>
   <g>
    <path class="fil3" d="M152 454c-3,0 -6,-3 -6,-6 0,-4 3,-6 6,-6l0 12zm40 0l-40 0 0 -12 40 0 0 12zm0 -12c3,0 6,2 6,6 0,3 -3,6 -6,6l0 -12z"/>
   </g>
   <path class="fil2" d="M428 625c105,0 191,-86 191,-191 0,-106 -86,-191 -191,-191 -106,0 -191,85 -191,191 0,105 85,191 191,191z"/>
   <path class="fil6" d="M525 301l-54 29 0 -15c0,0 0,-1 0,-1 0,-8 -8,-9 -13,-9 -3,0 -5,0 -7,1 0,0 0,0 0,0l0 0c-74,8 -141,56 -141,56l68 169c20,-15 33,-21 33,-21 10,-5 23,-11 23,-11 0,0 0,28 0,30 0,37 21,25 36,18 2,-1 104,-54 104,-54l-49 -192z"/>
   <g>
    <polygon class="fil4" points="529,310 576,493 573,493 526,311 "/>
   </g>
   <path class="fil2" d="M471 398c-1,-4 -5,-6 -10,-6 -7,0 -17,1 -17,1 -22,4 -57,12 -104,39l8 19c0,0 77,-46 116,-43 4,1 6,2 7,4 0,0 0,-14 0,-14z"/>
   <path class="fil2" d="M457 492c-1,0 -1,0 -1,0 -1,1 -2,1 -3,1 -16,6 -18,9 -18,11 0,2 0,12 0,15 1,-5 8,-7 15,-10 20,-8 19,-8 19,-14 -2,-3 -6,-4 -12,-3z"/>
   <path class="fil2" d="M570 476l-5 -18 -94 49 0 3c0,3 0,5 -6,9 -21,9 -27,10 -28,13 3,4 7,6 14,4 5,0 119,-60 119,-60z"/>
   <path class="fil2" d="M471 363c0,-4 -6,-5 -11,-5 -11,1 -28,3 -37,10l0 17c8,-5 21,-8 32,-9l0 0c0,0 0,0 0,0 1,0 3,0 4,0 4,0 11,0 11,6 0,0 1,-19 1,-19z"/>
   <path class="fil2" d="M471 331c0,0 0,0 0,0 0,-5 -7,-7 -12,-7 -10,1 -24,3 -36,7l0 18c10,-4 20,-6 28,-7l0 0c0,0 20,-4 20,7 0,1 0,-18 0,-18z"/>
   <polygon class="fil2" points="471,345 529,315 534,333 471,366 "/>
   <path class="fil2" d="M471 387l68 -35 5 19c-53,25 -73,37 -73,37l0 -21z"/>
   <path class="fil2" d="M561 440l-4 -17c-42,19 -86,45 -87,45 0,-2 0,-3 0,-3 0,-1 0,-2 -1,-2 -6,-2 -33,-6 -104,36l7 18c0,0 73,-48 96,-37 1,1 2,2 2,4 0,0 0,0 0,-1l0 1 0 0c0,1 0,1 0,1l1 3c19,-13 90,-48 90,-48z"/>
   <path class="fil2" d="M471 450c0,0 0,0 0,0 0,0 0,0 0,0z"/>
   <path class="fil2" d="M548 387c-77,37 -77,43 -77,43l0 20c23,-18 81,-45 81,-45l-4 -18z"/>
   <path class="fil2" d="M468 429c-9,-3 -39,-5 -115,39l6 17c0,0 84,-49 109,-38 1,0 2,1 3,3 -1,-2 0,-17 -1,-18 0,-2 -2,-3 -2,-3z"/>
   <path class="fil1" d="M423 310c-62,15 -113,52 -113,52l30 74c0,0 59,-36 105,-43l-22 -83z"/>
   <path class="fil7" d="M417 367c0,20 -16,36 -36,36 -20,0 -37,-16 -37,-36 0,-20 17,-37 37,-37 20,0 36,17 36,37z"/>
   <path class="fil8" d="M373 345c0,0 0,1 0,1l1 0c0,0 0,0 0,0 0,1 0,0 0,0 0,1 0,1 0,1 0,0 0,0 0,0 0,0 -1,1 0,1 0,0 0,1 0,1 0,1 1,1 1,1 0,0 0,-1 0,-1l1 0c0,0 0,0 0,0l0 0c0,0 1,0 1,0l0 0c0,0 1,0 1,0 0,0 0,0 0,0 0,0 0,-1 0,-1 0,0 0,0 0,0 1,0 1,0 1,0 0,0 0,0 0,0 1,0 1,0 1,0 0,0 0,0 0,0 0,0 1,0 1,0 0,0 0,0 0,0 0,0 1,-1 1,0 0,0 0,0 0,0 0,-1 1,-1 1,-1 0,0 0,0 0,-1 0,0 0,0 0,0 0,-1 0,-1 0,-1 1,0 1,0 1,1 0,0 0,0 0,0l0 0c0,0 0,0 0,1 1,0 1,0 1,1 0,0 0,1 1,0 0,0 0,1 0,1 0,0 -1,0 -1,0l0 0c0,1 0,1 -1,1 0,1 0,1 0,1 0,0 0,1 -1,1 0,0 0,0 0,0l0 0c0,0 0,1 -1,1 0,0 -1,0 -1,1 0,0 -1,0 -1,0 0,0 0,-1 0,-1 0,0 0,1 0,1l0 0c0,0 -1,0 -1,0l1 0c-1,0 0,1 -1,1 1,0 0,1 0,1 0,0 0,0 -1,0 0,0 0,1 0,1 0,-1 1,0 1,-1 1,0 0,0 1,-1 0,0 0,-1 0,-1 0,0 0,0 1,0 0,0 0,-1 1,-1 0,0 0,0 0,0 1,0 1,0 1,0 0,0 0,0 0,1 1,0 0,0 1,1l0 0c-1,0 -1,-1 -1,0 0,0 0,0 0,0 0,0 0,0 0,0 0,0 1,0 1,0 0,0 -1,-1 0,-1 0,-1 -1,-1 -1,-1 1,0 1,-1 2,-1 0,0 -1,0 0,0l0 -1c0,0 -1,0 0,0 0,0 0,0 0,0 0,0 0,0 0,0 1,0 1,0 2,0 0,0 1,0 1,0 0,0 -1,0 0,1 -1,0 -1,1 -1,0 -1,1 -1,0 -1,1 0,0 0,-1 0,-1l0 1c0,0 -1,0 -1,-1l0 0c0,1 0,1 0,1 0,0 0,0 0,0 1,0 1,0 1,0 0,0 0,0 1,0l0 0c0,0 -1,0 -1,1 0,0 0,1 0,1 0,0 1,0 1,0 -1,0 0,-1 -1,-1 1,0 1,-1 1,-1l0 0c0,0 0,0 0,-1 1,0 1,1 1,0 0,0 0,0 0,0l0 0c0,0 0,-1 0,-1 0,1 0,0 1,0l0 0c0,0 0,1 0,0 0,0 0,0 0,0 0,0 0,0 0,0 0,0 1,0 1,0 0,1 0,0 0,0 0,0 0,1 0,1l1 -1c0,0 -1,1 0,1l0 0 0 0 0 0c0,0 1,0 1,1 0,-1 0,-1 0,-1 0,0 0,0 1,0l-1 0 1 0c0,1 0,1 -1,1 0,0 1,0 1,1 -1,0 -1,0 -1,0 0,0 1,1 1,0 0,0 1,0 1,-1 0,0 0,0 0,0l0 0c0,0 1,0 1,0 0,0 0,0 0,1 1,-1 1,0 1,0l0 -1c0,1 1,1 1,1 1,-1 1,-1 1,-1 0,0 0,0 0,0 1,0 1,1 2,1 0,0 0,0 0,0 0,0 1,0 1,1 0,0 0,0 0,0 1,0 2,2 3,1l0 0c1,1 1,1 1,2 0,0 0,0 0,1 0,0 0,0 0,0 0,0 0,0 0,1 0,0 0,0 0,0 -1,0 0,1 0,1 -1,1 -1,1 -1,1 0,0 0,0 0,0 0,0 0,0 0,0 -1,0 0,0 0,1 -1,0 -1,1 -1,0 0,0 -1,1 -1,1 0,0 0,0 0,0 0,0 0,0 0,0 0,0 0,0 0,0 0,1 -1,1 -1,2 0,0 0,0 -1,0l0 0c0,0 0,0 0,0 0,-1 0,-1 0,-1 0,1 0,1 0,1 -1,0 -1,0 0,0l0 0c0,0 0,0 0,1 0,0 0,0 0,0 0,0 0,0 0,0 0,0 0,0 0,0 0,1 0,1 0,2l0 1c0,0 -1,1 0,1 -1,0 0,1 -1,1 0,0 0,0 0,0 0,0 0,1 0,1l0 2c-1,-1 -1,0 -1,0 0,1 0,1 -1,1 0,0 0,0 0,0 0,1 0,1 0,2 0,0 -1,-1 -1,0 0,0 0,1 0,1 0,0 0,-1 0,-1 -1,1 -1,0 -1,1 -1,-1 0,-1 -1,-1 0,0 0,0 0,1l0 0 0 -1c0,0 -1,1 -1,0 0,0 0,1 0,1 0,0 0,0 0,0 0,0 0,0 -1,0 0,0 0,0 0,0 0,0 0,1 0,1l-1 -1c0,1 -1,1 -1,2 -1,-1 0,0 -1,0 0,1 0,0 -1,1 1,0 0,0 0,0 0,0 0,0 0,1 0,0 0,0 0,0 0,0 0,0 0,0 0,0 0,0 1,0 -1,0 -1,1 0,1 -1,0 -1,0 -1,1 1,0 0,0 0,0l0 0c0,0 0,0 0,1l-1 1c0,1 0,1 -1,2 0,0 0,0 0,0 0,0 -1,1 -1,1l0 0 0 0c0,0 0,-1 0,-1 0,0 1,0 1,0 -1,0 0,0 0,-1 1,0 0,0 0,0l0 0c0,0 0,0 0,0 0,0 0,0 0,0 0,0 1,0 0,-1l0 1c0,0 0,-1 0,-1 0,0 -1,0 -1,0 0,1 1,1 0,1 0,0 1,1 0,1 0,0 0,0 0,0 0,1 0,1 0,1 0,1 -1,1 -1,2l-1 0c1,0 0,-1 1,-1 0,0 0,0 0,-1 0,0 0,0 0,0 0,0 0,1 0,1 -1,-1 -1,-1 -1,-1 0,0 0,0 0,0 0,0 0,-1 -1,-1 0,1 0,0 0,0 0,0 -1,0 -1,-1 0,0 0,1 0,1 0,0 0,0 0,0l0 0c0,0 0,0 0,-1 0,0 -1,0 -1,0l-1 0c0,0 0,0 0,0l0 0c0,0 0,-1 0,-1 0,0 1,0 1,-1 0,0 0,0 0,0 0,0 1,0 1,0 0,0 0,0 0,0 0,-1 0,-1 0,-1 0,0 1,-1 1,-1 1,0 1,0 1,0 0,0 0,0 0,0 0,-1 -1,-1 0,-2 0,0 -1,0 -1,0 0,0 0,0 0,0 0,0 0,0 0,0 0,0 0,-1 0,-1 0,0 0,0 0,-1 0,-1 -1,1 -1,0 -1,0 -1,-1 -1,-1l1 0c-1,0 0,-1 -1,-1 0,0 -1,0 -1,0 0,0 -1,0 -1,0 0,0 0,0 0,0l0 0 0 0 0 -1 0 0c0,0 0,0 0,0 0,-1 0,-1 -1,-1l1 -1 0 0c0,0 0,-1 0,-1 0,0 0,-1 0,-1 0,0 0,-1 0,-1 -1,1 -1,0 -1,-1 0,0 0,0 0,0 0,0 0,0 0,0 -1,0 -2,0 -2,0 0,-1 -1,-1 -1,-2l0 0c1,0 0,0 0,-1 0,0 0,0 0,0 -1,-1 -1,0 -1,0l0 0c-1,0 0,-1 -1,0 0,0 0,-1 -1,-1 0,0 0,0 0,0 0,0 -1,-1 -1,0 0,0 -1,0 -1,-1 0,0 0,1 0,1 0,-1 -1,-1 0,-1l-1 0c1,0 0,0 0,0l0 -1 0 0c0,0 0,0 0,-1 0,0 0,0 0,0l0 0c0,0 0,0 -1,0 0,0 0,0 0,0 0,0 -1,0 -1,0 0,1 0,1 0,1 0,-1 -1,0 -1,0 0,0 0,0 0,0 0,0 0,0 0,0l-1 1c0,-1 -1,0 -1,0 0,0 -1,-1 -1,0 0,0 0,0 0,0 -1,-1 0,-1 0,-2 0,0 -1,0 0,0l0 0c-1,0 0,0 -1,0 0,1 -1,0 -1,1 0,-1 0,-1 -1,-1l-1 0c0,0 1,0 1,0 -1,-1 -1,-1 -1,-1 0,0 0,0 0,0l0 0c0,0 0,0 -1,-1l0 0c0,0 1,0 1,0 -1,0 -1,0 -1,0 0,0 0,0 0,0 0,-1 1,-1 1,-1 0,0 0,0 0,-1 0,0 0,0 0,0 0,-1 0,-1 0,-1 1,0 1,-1 1,-1 0,0 1,0 1,0 0,0 1,0 1,-1l0 0c0,0 1,0 1,1 0,-2 0,-3 0,-4 1,0 0,0 0,-1 0,0 0,0 0,0 0,0 0,0 0,0 0,0 -1,0 -1,0 0,-1 0,-2 1,-2 0,0 0,0 0,1 0,0 1,-1 0,-1 0,0 0,0 0,0l0 0c0,0 -1,-1 0,-1 0,0 1,0 1,-1 1,0 1,1 1,1 0,0 0,-1 0,-1 1,0 1,1 1,1l0 1c1,-1 1,1 1,0l1 0c0,0 0,0 0,0 0,-1 1,0 1,-1 0,0 0,0 0,0 1,0 0,-1 1,-1 0,0 0,0 0,0 0,0 0,0 0,0 0,0 0,0 -1,0 0,0 0,-1 0,-1 0,0 1,0 1,-1 -1,0 -1,0 -1,0l-1 0c1,0 1,0 1,0 0,-1 1,0 1,0 0,0 0,0 0,0 0,0 0,0 0,0 1,0 1,1 1,0 0,0 0,0 0,0 0,0 1,0 1,0 0,-1 0,0 1,0 -1,-1 0,-1 0,-1 0,0 0,0 0,0 0,0 0,0 0,0l0 0c0,-1 0,-1 0,-1 1,0 1,0 1,0z"/>
   <polygon class="fil6" points="404,592 311,361 311,352 294,334 294,358 301,366 391,594 "/>
   <polygon class="fil2" points="337,428 326,428 315,400 326,400 "/>
   <polygon class="fil2" points="355,474 344,474 333,446 344,446 "/>
   <polygon class="fil2" points="374,520 363,520 352,493 363,493 "/>
   <polygon class="fil2" points="392,566 382,566 371,539 381,539 "/>
   <polygon class="fil2" points="319,382 308,382 302,366 312,366 "/>
   <path class="fil8" d="M386 349c0,1 0,1 0,1 0,0 0,-1 0,-1 0,0 0,0 0,0z"/>
   <path class="fil8" d="M385 350c0,0 0,0 0,0l0 0 0 0 0 0z"/>
   <path class="fil8" d="M386 350c0,1 0,1 -1,1 0,-1 1,-1 1,-1 0,0 0,0 0,0z"/>
   <path class="fil8" d="M387 350c0,1 -1,1 -1,1 0,0 0,0 0,0 0,0 0,-1 1,-1z"/>
   <path class="fil8" d="M385 350c0,1 0,1 0,1 0,0 0,-1 0,-1z"/>
   <path class="fil8" d="M385 351c0,0 -1,0 -1,0l0 0c0,0 0,0 0,0 1,0 1,0 1,0z"/>
   <path class="fil8" d="M385 352c0,0 0,0 0,0 0,0 0,0 0,-1l0 0c0,0 0,1 0,1z"/>
   <path class="fil8" d="M384 351c1,1 0,1 0,2 -1,-1 0,-1 0,-1 0,0 0,-1 0,-1z"/>
   <path class="fil8" d="M393 353c0,0 0,0 0,0 0,0 0,0 0,0 0,0 0,0 0,0z"/>
   <path class="fil8" d="M385 353c0,0 -1,0 0,0l0 0 0 0z"/>
   <path class="fil8" d="M393 353c0,0 0,1 0,1l0 0c0,-1 0,-1 0,-1z"/>
   <path class="fil8" d="M394 379l0 0c-1,0 -1,0 -1,0 0,0 1,0 1,0z"/>
   <path class="fil8" d="M389 385c0,0 0,0 0,0 -1,0 -1,-1 0,-1 0,0 0,0 0,1z"/>
   <path class="fil8" d="M385 391c-1,0 -1,0 -1,1 0,-1 0,-1 1,-1z"/>
   <g>
    <path class="fil4" d="M423 652l0 -60 0 0 9 0 8 -1 8 -1 8 -1 7 -2 8 -2 7 -2 8 -3 7 -4 7 -3 6 -4 7 -4 6 -5 6 -4 6 -5 6 -6 5 -5 5 -6 5 -6 4 -6 5 -7 3 -7 4 -7 3 -7 3 -7 3 -7 2 -8 1 -8 2 -8 1 -8 1 -8 0 -8 59 0 0 11 -1 11 -1 11 -2 11 -3 11 -2 10 -4 11 -4 10 -4 9 -5 10 -5 9 -6 9 -6 9 -7 8 -7 8 -7 7 -8 8 -8 7 -8 6 -9 6 -9 6 -9 5 -9 5 -10 5 -10 4 -10 3 -11 3 -10 2 -11 2 -11 2 -11 1 -12 0 0 0zm-220 -220l60 0 0 0 0 8 1 8 1 8 1 8 2 8 2 8 3 7 3 7 3 7 3 7 4 7 4 7 5 6 5 6 5 6 5 5 6 6 5 5 6 4 7 5 6 4 7 4 7 3 7 4 7 3 8 2 7 2 8 2 8 1 8 1 8 1 8 0 0 60 -11 0 -11 -1 -11 -2 -11 -2 -11 -2 -10 -3 -10 -3 -10 -4 -10 -5 -10 -5 -9 -5 -9 -6 -8 -6 -9 -6 -8 -7 -7 -8 -8 -7 -6 -8 -7 -8 -6 -9 -6 -9 -5 -9 -5 -10 -4 -9 -4 -10 -4 -11 -3 -10 -2 -11 -2 -11 -2 -11 0 -11 -1 -11 0 0zm220 -220l0 59 0 0 -8 1 -8 0 -8 1 -8 2 -8 2 -7 2 -8 2 -7 3 -7 3 -7 4 -7 4 -6 4 -7 4 -6 5 -5 5 -6 5 -5 6 -5 6 -5 6 -5 6 -4 7 -4 6 -3 7 -3 7 -3 8 -3 7 -2 8 -2 8 -1 7 -1 8 -1 9 0 8 -60 0 1 -11 0 -12 2 -11 2 -10 2 -11 3 -11 4 -10 4 -10 4 -10 5 -9 5 -9 6 -9 6 -9 7 -8 6 -8 8 -8 7 -7 8 -7 9 -6 8 -7 9 -5 9 -6 10 -4 10 -5 10 -4 10 -3 10 -3 11 -3 11 -2 11 -1 11 -1 11 0 0 0zm220 220l-59 0 0 0 0 -8 -1 -9 -1 -8 -2 -7 -1 -8 -2 -8 -3 -7 -3 -8 -3 -7 -4 -7 -3 -6 -5 -7 -4 -6 -5 -6 -5 -6 -5 -6 -6 -5 -6 -5 -6 -5 -6 -4 -7 -4 -6 -4 -7 -4 -7 -3 -8 -3 -7 -2 -8 -2 -7 -2 -8 -2 -8 -1 -8 0 -9 -1 0 -59 12 0 11 1 11 1 11 2 10 3 11 3 10 3 10 4 10 5 9 4 9 6 9 5 9 7 8 6 8 7 8 7 7 8 7 8 7 8 6 9 6 9 5 9 5 9 4 10 4 10 4 10 2 11 3 11 2 10 1 11 1 12 0 11 0 0z"/>
   </g>
   <path class="fil2" d="M291 578c0,0 -1,0 -1,0 0,0 0,0 0,0 -1,1 0,3 1,5 2,3 4,5 6,7 2,1 4,2 6,3 2,0 3,0 4,-1 1,-1 -1,-4 -5,-8 -1,-1 -2,-1 -2,-2 -4,-4 -7,-7 -8,-10 -1,-3 0,-6 3,-9 2,-3 5,-5 10,-5 4,1 8,2 12,6 5,4 9,8 12,13 0,1 0,1 0,1 1,0 1,0 1,0 0,0 1,0 1,0l1 1 -12 6 0 -1c0,0 0,0 0,0 0,0 0,0 1,0 0,-1 0,-4 -1,-6 -2,-3 -4,-6 -7,-8 -2,-2 -4,-3 -6,-3 -2,-1 -3,0 -4,1 -2,2 0,5 5,10 0,0 0,0 0,0 5,4 7,7 8,10 1,4 1,7 -2,9 -2,3 -5,4 -9,4 -4,0 -8,-2 -12,-5 -2,-2 -5,-5 -7,-8 -2,-3 -3,-4 -3,-4 -1,-1 -1,-1 -1,-1 0,0 -1,0 -1,0l-1 -1 10 -5 1 1z"/>
   <path class="fil2" d="M296 552c-1,1 -3,1 -4,1 -2,0 -3,0 -4,-1 -1,-2 -1,-3 -1,-4 0,-2 1,-3 2,-4 1,-1 2,-2 4,-2 1,0 3,1 4,2 1,1 1,2 1,4 0,1 -1,3 -2,4z"/>
   <path class="fil2" d="M249 521c0,0 0,0 0,0 0,0 0,0 0,0 -1,1 -1,2 -1,5 0,2 1,5 3,7 2,3 4,5 7,6 3,1 5,1 8,-1 3,-1 4,-4 5,-6 0,-3 -1,-6 -3,-10 -1,-1 -2,-3 -3,-4 -1,-1 -3,-2 -4,-3 -1,0 -1,0 -1,0 -1,0 -1,0 -1,0 0,0 0,0 0,0 -1,0 -1,0 -1,1l-1 -1 7 -12 1 1c0,0 0,0 0,1 0,0 0,0 0,0 0,0 0,1 1,1 5,3 8,7 11,11 4,6 5,12 4,17 -1,6 -4,10 -9,13 -5,3 -11,4 -16,3 -5,-2 -10,-6 -13,-11 -2,-3 -3,-6 -4,-10 -1,-3 -1,-5 -1,-5 0,-1 -1,-1 -1,-1 0,0 -1,0 -1,0l0 -1 13 -2 0 1z"/>
   <path class="fil2" d="M262 500c-1,1 -3,1 -4,0 -2,0 -3,-1 -3,-2 -1,-2 -1,-3 0,-4 1,-2 2,-3 3,-3 2,-1 3,-1 5,0 1,0 2,1 3,2 0,2 0,3 -1,4 0,2 -1,3 -3,3z"/>
   <path class="fil2" d="M229 456c0,0 0,0 0,0 0,0 0,0 0,0 -1,0 -2,1 -3,4 0,2 0,5 0,7 1,4 3,7 5,9 2,2 5,2 8,2 3,-1 5,-3 7,-5 1,-3 1,-6 1,-9 -1,-3 -1,-4 -2,-6 -1,-1 -2,-3 -3,-4 0,0 -1,-1 -1,-1 0,0 0,0 -1,0 0,0 0,0 0,0 0,0 0,0 -1,1l0 -1 10 -9 1 1c0,0 -1,0 -1,1 0,0 0,0 0,0 0,0 1,1 1,2 3,4 6,8 7,13 1,7 0,13 -3,18 -2,5 -7,8 -13,9 -6,1 -11,0 -15,-3 -5,-4 -8,-8 -9,-15 -1,-3 -1,-7 0,-10 0,-4 1,-6 0,-6 0,0 0,-1 0,-1 0,0 -1,0 -1,0l0 -1 13 3 0 1z"/>
   <path class="fil2" d="M226 429c-2,-2 -3,-5 -3,-8 0,-3 1,-5 4,-7 2,-2 4,-3 8,-3 3,0 6,1 8,4 2,2 2,4 2,7 0,4 -1,6 -3,8 -2,2 -5,3 -8,2 -4,0 -6,-1 -8,-3zm23 -21c-3,-5 -8,-7 -14,-7 -6,0 -10,1 -15,5 -4,4 -6,9 -6,15 0,6 1,11 5,15 4,4 8,6 14,7 6,0 11,-2 15,-6 4,-3 6,-8 6,-14 1,-6 -1,-11 -5,-15z"/>
   <path class="fil2" d="M232 369c1,-3 2,-5 3,-5 1,-1 2,-2 4,-1 1,0 2,1 3,3 0,1 0,3 -1,6l-3 8 -8 -3 2 -8zm28 16l-1 0c0,0 -1,1 -1,1 0,0 -1,0 -2,0l-10 -4 2 -6 11 -3c0,0 1,0 1,0 1,0 1,0 2,0 0,0 0,0 0,0 0,1 0,1 0,1l1 1 5 -14 -1 0c-1,0 -1,1 -2,1 -1,1 -2,1 -4,1l-10 2c0,-3 -1,-5 -2,-7 -2,-3 -4,-4 -7,-5 -3,-1 -7,-1 -10,1 -2,1 -4,4 -6,9l-7 23 1 0c0,0 0,-1 1,-1 0,0 0,0 1,0l31 10c1,1 1,1 2,1 0,0 0,1 0,2l1 0 4 -13z"/>
   <path class="fil2" d="M271 356l-1 -1c1,0 1,-1 1,-1 -1,0 -1,-1 -2,-1l-28 -16c-1,0 -1,-1 -2,0 0,0 0,0 -1,0l-1 0 7 -12 1 1c-1,0 -1,1 -1,1 1,1 1,1 2,1l28 16c1,0 1,1 2,0 0,0 0,0 1,0l1 0 -7 12z"/>
   <path class="fil2" d="M285 328c0,0 1,0 1,0 1,0 1,0 2,0l0 0 -7 9 -1 0c0,-1 0,-1 0,-2 0,0 0,0 -1,-1l-25 -21c0,0 -1,-1 -1,-1 0,0 -1,0 -1,1l-1 -1 10 -12 1 1c0,0 0,1 0,1 0,0 0,1 0,1 0,0 1,0 1,0 1,0 1,0 1,0l23 1 -14 -13c-1,0 -1,0 -1,0 -1,0 -1,0 -2,0l-1 0 8 -10 1 1c0,1 0,1 0,1 0,1 0,1 1,2l24 21c1,0 1,1 2,1 0,0 1,-1 1,-1l1 1 -8 9 -1 0c0,-1 0,-1 0,-1 0,-1 0,-1 0,-1 0,0 -1,0 -2,0 0,0 0,0 0,0l-28 -1 17 15z"/>
   <path class="fil2" d="M313 266l15 21c1,1 1,1 1,1 1,1 1,0 2,0l0 1 -11 8 0 -1c0,-1 1,-1 0,-1 0,-1 0,-1 0,-2l-15 -21 -9 6c0,0 -1,0 -1,1 0,0 0,1 1,1l-1 1 -8 -11 1 0c1,0 1,0 1,0 1,0 1,0 2,0l25 -18c1,0 1,-1 1,-1 0,0 0,-1 0,-2l1 0 7 11 -1 0c0,0 -1,-1 -1,-1 0,0 -1,0 -1,1l-9 6z"/>
   <path class="fil2" d="M345 280l0 -1c1,-1 1,-1 1,-1 0,-1 0,-1 0,-2l-12 -30c0,-1 0,-2 0,-2 -1,0 -1,0 -2,0l0 -1 12 -4 1 0c-1,1 -1,1 -1,2 0,0 0,0 0,1l4 10 16 -6 -4 -10c0,-1 0,-1 0,-1 -1,0 -1,0 -2,0l0 -1 12 -5 1 1c-1,0 -1,1 -1,1 -1,0 0,1 0,2l11 30c0,1 1,1 1,2 0,0 1,0 1,0l1 1 -13 4 0 -1c0,0 1,0 1,-1 0,0 0,-1 0,-1l-5 -12 -16 6 4 12c0,0 1,1 1,1 0,0 1,0 2,0l0 1 -13 5z"/>
   <path class="fil2" d="M391 265l-1 -1c1,0 1,0 2,0 0,-1 0,-1 0,-2l-5 -32c0,-1 -1,-2 -1,-2 0,0 -1,0 -1,0l0 -1 13 -2 0 1c-1,0 -1,0 -1,1 0,0 0,0 0,1l5 32c0,1 0,2 0,2 0,0 1,0 2,0l0 1 -13 2z"/>
   <path class="fil2" d="M428 230l6 18 -12 -1 6 -17zm21 33l0 -1c-1,0 -1,-1 -2,-2 0,0 0,0 0,0l-10 -32c0,0 0,-1 0,-1 0,-1 0,-1 0,-1 0,-1 0,-1 0,-1 0,0 0,0 1,0l0 -1 -18 -1 0 1c0,0 1,0 1,0 0,1 0,1 0,1 0,1 0,1 0,1 0,1 -1,1 -1,2l-10 28c0,0 0,0 0,0 -1,3 -2,4 -3,5l0 1 12 0 0 -1c-1,0 -1,0 -1,-1 0,0 -1,0 -1,-1 0,0 0,0 1,0 0,0 0,-1 0,-1l1 -4 17 0 1 5c0,0 0,0 0,1 0,0 0,0 0,0 0,1 0,1 0,1 0,0 0,1 -1,1l0 1 13 0z"/>
   <path class="fil2" d="M462 263c0,1 0,2 0,2 0,0 0,1 1,1l0 1 -12 -4 1 0c0,0 1,-1 1,-1 0,0 0,0 1,-1l9 -32c0,0 0,-1 0,-1 0,0 0,-1 -1,-1l0 -1 15 4 0 1c-1,0 -1,0 -1,1 -1,0 -1,0 -1,0 0,0 0,1 1,2 0,0 0,0 0,0l9 22 5 -19c0,0 0,-1 0,-1 0,0 0,-1 -1,-1l0 -1 12 3 0 1c-1,0 -1,0 -2,1 0,0 0,0 0,1l-10 31c0,1 0,1 0,2 0,0 1,1 1,1l0 1 -12 -4 0 -1c1,0 1,0 1,0 0,0 1,0 1,-1 0,0 0,0 -1,-1 0,0 0,0 0,-1l-11 -25 -6 21z"/>
   <path class="fil2" d="M535 270c0,0 0,-1 0,-1 0,0 0,0 0,0 1,-1 0,-3 -1,-5 -2,-2 -5,-4 -7,-5 -3,-2 -5,-2 -6,-3 -2,0 -3,1 -4,2 -1,1 1,4 6,7 1,1 2,1 2,1 5,4 8,7 9,10 1,3 1,6 -1,9 -2,3 -5,5 -9,6 -5,0 -9,-1 -14,-4 -5,-3 -10,-7 -13,-11 0,-1 -1,-1 -1,-1 0,0 0,0 0,0 0,0 -1,0 -1,0l-1 -1 10 -8 1 1c0,0 0,0 0,1 0,0 -1,0 -1,0 0,1 0,3 2,6 2,2 5,5 8,7 2,1 4,2 6,2 2,0 3,-1 4,-2 2,-2 -1,-5 -6,-9 0,0 -1,0 -1,-1 -5,-3 -8,-6 -9,-8 -1,-3 -1,-6 1,-9 2,-4 4,-5 8,-6 4,0 8,1 13,4 3,2 5,4 8,7 2,2 4,4 4,4 0,0 1,0 1,0 0,0 0,0 1,0l0 1 -9 6 0 0z"/>
   <path class="fil2" d="M580 307c2,2 3,4 3,5 0,2 0,3 -1,4 -2,1 -3,1 -4,1 -1,-1 -3,-2 -5,-4l-5 -6 7 -6 5 6zm-28 15l1 0c0,-1 0,-2 0,-2 0,0 0,-1 1,-1l8 -7 6 6c2,3 3,5 5,6 1,1 2,1 4,2 2,0 3,0 5,0 2,-1 4,-1 6,-3 3,-2 4,-5 4,-8 0,-4 -1,-7 -4,-10l-14 -18 -1 1c1,0 1,1 1,1 0,1 -1,1 -1,1l-26 21c0,0 -1,1 -1,1 0,0 -1,0 -1,-1l-1 1 8 10z"/>
   <path class="fil2" d="M603 341l-13 13 -5 -10 18 -3zm-19 34l1 0c0,-1 0,-2 1,-3 0,0 0,0 0,0l23 -24c1,0 1,-1 1,-1 1,0 1,-1 1,-1 0,0 1,0 1,0 0,0 0,0 1,1l0 -1 -7 -15 -1 0c0,0 0,1 0,1 0,0 -1,0 -1,0 0,1 0,1 -1,1 0,0 -1,0 -1,0l-30 4c0,0 0,0 0,0 -3,1 -5,0 -6,0l-1 0 6 11 1 0c-1,-1 -1,-1 0,-2 0,0 0,0 0,-1 1,0 1,0 1,0 0,0 0,0 1,0l4 0 8 14 -4 3c0,1 0,1 0,1 -1,0 -1,1 -1,1 0,0 -1,0 -1,0 0,0 0,-1 -1,-1l-1 1 6 11z"/>
   <path class="fil2" d="M626 397c0,0 1,0 1,0 0,-1 0,-1 0,-2l1 0 3 13 -1 0c0,0 0,-1 -1,-1 0,0 -1,0 -1,0l-19 4c-6,1 -10,1 -14,-2 -3,-2 -6,-6 -7,-12 -1,-6 -1,-11 2,-15 2,-3 6,-6 12,-7l18 -4c1,0 1,0 2,0 0,-1 0,-1 0,-2l1 0 3 13 -1 0c-1,0 -1,-1 -1,-1 -1,0 -1,0 -2,0l-16 4c-4,0 -6,1 -7,3 -1,1 -2,4 -1,7 1,3 2,5 3,5 2,1 4,2 8,1l17 -4z"/>
   <path class="fil2" d="M601 457c0,0 0,1 0,1 0,0 1,0 2,1l-1 1 -12 -1 0 -1c0,0 1,0 1,0 0,-1 1,-1 1,-2l1 -33 1 0c0,0 0,1 1,1 0,0 0,0 1,1l33 1c1,0 1,0 1,0 1,0 1,-1 1,-1l1 0 0 13 -1 0c-1,-1 -1,-1 -1,-1 0,-1 -1,-1 -2,-1l-26 -1 -1 22z"/>
   <path class="fil2" d="M590 464l1 1c0,0 0,1 0,1 0,0 1,0 1,1l32 7c1,0 1,0 2,0 0,0 0,0 1,-1l1 0 -4 13 0 0c-1,-1 -1,-1 -1,-1 0,-1 -1,-1 -1,-1l-32 -8c-1,0 -1,0 -2,0 0,1 0,1 -1,2l-1 -1 4 -13z"/>
   <path class="fil2" d="M598 522c0,0 0,0 1,1 0,0 0,0 0,0 1,0 2,-1 4,-3 2,-2 4,-4 5,-7 1,-3 2,-5 1,-6 0,-2 0,-3 -1,-4 -2,-1 -4,2 -7,7 0,1 -1,2 -1,2 -3,5 -5,9 -8,10 -3,2 -6,2 -9,0 -4,-1 -6,-4 -7,-8 -1,-4 -1,-9 2,-14 2,-6 5,-10 9,-14 1,-1 1,-1 1,-1 0,0 0,-1 0,-1 0,0 0,0 0,-1l0 -1 9 10 0 0c0,0 -1,0 -1,0 0,0 0,0 0,0 -1,-1 -3,0 -6,2 -2,3 -4,6 -6,9 -1,3 -1,5 -1,7 0,1 1,3 2,3 3,1 6,-1 8,-7 1,0 1,-1 1,-1 2,-5 5,-8 8,-10 3,-2 6,-2 9,-1 3,2 5,5 6,8 1,4 0,8 -2,13 -1,3 -3,6 -6,9 -2,3 -3,4 -3,5 -1,0 -1,0 -1,1 0,0 1,0 1,0l-1 1 -8 -8 1 -1z"/>
   <path class="fil2" d="M578 556l-21 -16c0,0 -1,0 -1,0 0,0 -1,0 -1,0l-1 0 8 -11 1 1c-1,0 -1,1 0,1 0,1 0,1 0,1l21 16 7 -8c0,-1 0,-1 0,-1 0,-1 0,-1 0,-2l0 0 11 8 -1 0c-1,0 -1,0 -1,0 -1,0 -1,0 -2,1l-18 25c-1,0 -1,1 -1,1 0,0 0,1 1,1l-1 1 -10 -8 0 -1c1,1 1,1 2,1 0,0 1,-1 1,-1l6 -9z"/>
   <path class="fil2" d="M553 586l-16 -9 9 -8 7 17zm-38 -10l1 0c1,0 2,0 3,1 0,0 0,0 0,0l28 17c1,0 1,0 2,1 0,0 0,0 0,0 1,0 1,1 1,1 0,0 0,0 -1,1l1 1 14 -12 -1 -1c0,1 -1,1 -1,1 0,0 0,-1 -1,-1 0,0 0,0 0,-1 0,0 0,0 -1,-1l-10 -28c-1,0 -1,0 -1,0 -1,-3 -1,-4 -1,-6l0 -1 -9 8 0 1c1,0 1,0 1,0 1,0 1,0 1,0 1,1 1,1 1,1 0,0 0,0 0,1l2 4 -13 10 -4 -2c0,0 -1,0 -1,-1 0,0 0,0 0,0 0,0 -1,-1 -1,-1 0,0 1,-1 1,-1l-1 -1 -10 9z"/>
   <path class="fil2" d="M361 633l1 -1c0,0 1,-1 1,-1 1,0 1,0 1,-1l6 -22 -3 0c-1,0 -2,0 -2,1 0,0 -1,0 -1,1l-1 0 3 -12 1 1c0,0 0,1 0,1 0,0 1,0 1,1 0,0 0,0 0,0 1,0 1,0 1,0l3 -1 1 -1c0,-1 0,-1 0,-2 0,0 -1,0 -1,-1l0 -1 13 4 -1 1c0,0 -1,0 -1,0 0,0 -1,1 -1,1l-8 32c-1,0 -1,1 -1,1 1,0 1,1 2,1l-1 1 -13 -3z"/>
   <path class="fil2" d="M411 620c-1,0 -3,1 -5,1 -3,-1 -4,-1 -6,-2 -1,-1 -1,-3 -1,-4 0,-2 1,-3 2,-4 1,-1 3,-2 5,-1 3,0 5,1 6,2 1,1 2,2 2,4 0,1 -1,3 -3,4zm-23 19c1,-1 1,-1 1,-1 0,0 1,0 1,0 0,0 1,0 4,2 3,1 6,1 8,2 6,0 12,-1 16,-5 4,-3 6,-8 7,-15 0,-5 -1,-10 -4,-14 -3,-4 -8,-6 -13,-6 -5,-1 -10,0 -13,2 -3,3 -5,6 -5,10 -1,4 1,7 3,9 2,3 6,5 10,5 2,0 4,0 6,-1 2,0 4,-2 6,-3 0,3 -1,6 -4,8 -2,2 -5,2 -8,2 -3,0 -5,-1 -7,-2 0,0 0,0 -1,0 0,-1 -1,-1 -1,-1 0,0 0,-1 0,-1 0,0 0,0 0,-1 0,0 0,0 0,0l0 -1 -7 10 1 1z"/>
   <path class="fil2" d="M439 641l0 -1c1,0 1,0 2,-1 0,0 0,-1 0,-1l-3 -23 -3 2c0,0 -1,0 -1,1 0,0 0,0 0,1l-1 0 -2 -12 1 0c1,1 1,1 1,2 0,0 0,0 1,0 0,0 0,0 0,0 0,0 0,0 1,0l3 -2 -1 -1c0,-1 0,-2 0,-2 0,0 -1,0 -2,0l0 -1 14 -2 0 1c-1,0 -1,1 -2,1 0,0 0,1 0,2l4 32c0,0 0,1 0,1 0,0 1,1 2,1l0 1 -14 1z"/>
   <path class="fil2" d="M469 608c1,-2 3,-4 5,-5 3,0 5,0 7,2 2,1 4,4 5,7 1,3 1,6 0,8 -1,3 -3,4 -5,5 -3,1 -5,0 -7,-1 -2,-2 -4,-4 -5,-7 0,-4 -1,-6 0,-9zm0 24c4,3 9,3 14,1 6,-1 9,-4 12,-9 2,-4 2,-9 0,-15 -1,-6 -4,-10 -9,-12 -4,-3 -9,-3 -14,-2 -6,2 -9,5 -11,9 -3,5 -3,10 -1,16 2,5 5,10 9,12z"/>
   <polygon class="fil2" points="333,594 340,598 346,592 345,600 353,604 344,606 343,614 339,607 330,608 337,602 "/>
   <polygon class="fil2" points="522,590 514,594 508,588 509,596 502,600 510,602 511,610 515,603 524,604 518,598 "/>
  </g>
 </g>
</svg>
