<?xml version="1.0" encoding="UTF-8" standalone="no"?>
<!-- Created with Inkscape (http://www.inkscape.org/) -->

<svg
   xmlns:dc="http://purl.org/dc/elements/1.1/"
   xmlns:cc="http://creativecommons.org/ns#"
   xmlns:rdf="http://www.w3.org/1999/02/22-rdf-syntax-ns#"
   xmlns:svg="http://www.w3.org/2000/svg"
   xmlns="http://www.w3.org/2000/svg"
   xmlns:sodipodi="http://sodipodi.sourceforge.net/DTD/sodipodi-0.dtd"
   xmlns:inkscape="http://www.inkscape.org/namespaces/inkscape"
   version="1.1"
   id="svg4082"
   xml:space="preserve"
   width="100%"
   height="100%"
   viewBox="0 0 31.999733 31.999733"
   sodipodi:docname="cruzeiro.svg"
   inkscape:version="0.92.1 r15371"><metadata
     id="metadata4088"><rdf:RDF><cc:Work
         rdf:about=""><dc:format>image/svg+xml</dc:format><dc:type
           rdf:resource="http://purl.org/dc/dcmitype/StillImage" /><dc:title></dc:title></cc:Work></rdf:RDF></metadata><defs
     id="defs4086"><radialGradient
       fx="0"
       fy="0"
       cx="0"
       cy="0"
       r="0.5"
       gradientUnits="userSpaceOnUse"
       gradientTransform="matrix(14.43458,0,0,14.43458,10.4114,15.234)"
       spreadMethod="pad"
       id="radialGradient4110"><stop
         style="stop-opacity:1;stop-color:#009ae3"
         offset="0"
         id="stop4106" /><stop
         style="stop-opacity:1;stop-color:#1d57a1"
         offset="1"
         id="stop4108" /></radialGradient></defs><sodipodi:namedview
     pagecolor="#ffffff"
     bordercolor="#666666"
     borderopacity="1"
     objecttolerance="10"
     gridtolerance="10"
     guidetolerance="10"
     inkscape:pageopacity="0"
     inkscape:pageshadow="2"
     inkscape:window-width="640"
     inkscape:window-height="480"
     id="namedview4084"
     showgrid="false"
     inkscape:zoom="27.843982"
     inkscape:cx="15.999866"
     inkscape:cy="15.999866"
     inkscape:window-x="0"
     inkscape:window-y="0"
     inkscape:window-maximized="1"
     inkscape:current-layer="g4090" /><g
     id="g4090"
     inkscape:groupmode="layer"
     inkscape:label="cruzeiro"
     transform="matrix(1.3333333,0,0,-1.3333333,0,31.999733)"><g
       id="g4092"><path
         d="m 11.9625,23.5346 c 6.3071,0 11.4219,-5.1341 11.4219,-11.465 0,-6.3309 -5.1148,-11.465 -11.4219,-11.465 -6.3068,0 -11.4216,5.1341 -11.4216,11.465 0,6.3309 5.1148,11.465 11.4216,11.465"
         style="fill:#ffffff;fill-opacity:1;fill-rule:evenodd;stroke:none"
         id="path4094"
         inkscape:connector-curvature="0" /><g
         id="g4096"><g
           id="g4098"><g
             id="g4104"><path
               d="m 12.0342,20.1444 c 4.4688,0 8.1136,-3.6762 8.1136,-8.1842 0,-4.5076 -3.6448,-8.1842 -8.1136,-8.1842 -4.4688,0 -8.1139,3.6766 -8.1139,8.1842 0,4.508 3.6451,8.1842 8.1139,8.1842"
               style="fill:url(#radialGradient4110);fill-rule:evenodd;stroke:none"
               id="path4112"
               inkscape:connector-curvature="0" /></g></g></g><path
         d="m 11.9999,23.654 v 0 c 3.2091,0 6.1226,-1.3088 8.2338,-3.4197 2.1118,-2.1116 3.4209,-5.025 3.4209,-8.2341 v -3e-4 c 0,-3.2091 -1.3091,-6.1228 -3.4209,-8.2341 C 18.1225,1.6549 15.209,0.3461 12.0002,0.3461 h -6e-4 C 8.7905,0.3461 5.8771,1.6549 3.7658,3.7658 1.6543,5.8774 0.345,8.7908 0.345,11.9999 v 3e-4 c 0,3.2091 1.3093,6.1225 3.4208,8.2341 2.1113,2.1109 5.0247,3.4197 8.2338,3.4197 z m 0,-0.3444 h -3e-4 c -3.1155,0 -5.9434,-1.2702 -7.9925,-3.3191 C 1.9585,17.9422 0.6883,15.1149 0.6883,12.0002 v -3e-4 c 0,-3.1147 1.2702,-5.942 3.3188,-7.9903 2.0491,-2.0489 4.877,-3.3191 7.9925,-3.3191 h 6e-4 c 3.1153,0 5.9434,1.2702 7.9923,3.3188 2.0486,2.0486 3.3188,4.8759 3.3188,7.9906 v 3e-4 c 0,3.1147 -1.2702,5.942 -3.3188,7.9903 -2.0489,2.0489 -4.877,3.3191 -7.9926,3.3191"
         style="fill:#1d57a1;fill-opacity:1;fill-rule:nonzero;stroke:none"
         id="path4114"
         inkscape:connector-curvature="0" /><path
         d="m 4.5802,17.8407 0.5162,0.4059 C 5.2163,18.1103 5.2982,17.9711 5.3427,17.8285 5.3872,17.6859 5.3952,17.5416 5.3668,17.3968 5.3391,17.2517 5.2648,17.094 5.1457,16.9237 5.0009,16.7168 4.8521,16.5688 4.701,16.4801 4.549,16.3913 4.3642,16.3522 4.1465,16.3636 c -0.2174,0.0119 -0.4439,0.1 -0.6792,0.2661 -0.314,0.2214 -0.4966,0.4757 -0.5476,0.762 -0.0513,0.2866 0.0303,0.5831 0.2449,0.8892 0.1678,0.2398 0.3481,0.394 0.5408,0.4632 0.1931,0.0692 0.4128,0.0663 0.6591,-0.0082 L 4.1162,18.1352 C 4.0456,18.1579 3.9898,18.1687 3.9489,18.1678 3.8812,18.1664 3.8186,18.1505 3.761,18.1202 3.7035,18.0896 3.6541,18.0448 3.613,17.9858 3.5198,17.8529 3.5014,17.7129 3.5586,17.5663 c 0.042,-0.1097 0.1474,-0.2245 0.3175,-0.3444 0.2106,-0.1485 0.3773,-0.2177 0.5,-0.2092 0.123,0.0091 0.2251,0.0717 0.3062,0.1874 0.0788,0.1125 0.1068,0.2196 0.0842,0.3217 -0.0224,0.102 -0.0845,0.2081 -0.1863,0.3189 z m 1.3884,0.1834 -1.3586,1.885 0.9672,0.7025 c 0.1791,0.1301 0.3277,0.2145 0.4444,0.252 0.1171,0.0382 0.2347,0.0368 0.3532,-0.0049 C 6.493,20.8176 6.5954,20.7369 6.6818,20.6169 6.7572,20.5121 6.7997,20.4058 6.8105,20.2978 6.8204,20.1895 6.8037,20.0835 6.7603,19.98 6.732,19.914 6.6824,19.8397 6.6101,19.7578 6.696,19.7847 6.7632,19.798 6.8117,19.798 6.844,19.7977 6.8987,19.7875 6.9758,19.7666 7.0529,19.745 7.1079,19.7263 7.1413,19.7084 L 7.816,19.366 7.16,18.8895 6.4349,19.2407 C 6.342,19.2861 6.2719,19.3096 6.2246,19.3093 6.1622,19.3082 6.1041,19.2881 6.0514,19.2495 L 6.0001,19.2124 6.5517,18.4476 Z m -0.2253,1.5446 0.2449,0.178 c 0.0261,0.019 0.0711,0.0644 0.1349,0.1369 0.0329,0.0357 0.0502,0.0785 0.0519,0.1279 0.0011,0.049 -0.0128,0.0944 -0.0425,0.1355 -0.044,0.0609 -0.0967,0.0935 -0.1588,0.098 -0.062,0.0051 -0.146,-0.0311 -0.2517,-0.108 L 5.4672,19.9519 Z m 2.8465,2.7119 0.6727,0.2443 0.47,-1.3047 C 9.7792,21.0909 9.8028,20.9616 9.8042,20.8321 9.8053,20.7028 9.779,20.5792 9.724,20.4619 9.6693,20.3448 9.6012,20.2518 9.5193,20.1827 9.4059,20.0866 9.258,20.0052 9.0743,19.9383 8.9683,19.9001 8.85,19.8649 8.7191,19.8349 8.5884,19.804 8.4733,19.7957 8.373,19.8094 8.2726,19.823 8.1729,19.8584 8.0734,19.9142 7.9741,19.9704 7.8962,20.037 7.8389,20.1144 7.7474,20.2382 7.6819,20.3542 7.6433,20.4616 l -0.4702,1.3045 0.6723,0.2441 0.4817,-1.3357 c 0.043,-0.1196 0.1097,-0.2007 0.1989,-0.2438 0.0905,-0.0434 0.1939,-0.0436 0.311,-0.0011 0.1157,0.0419 0.195,0.1083 0.2373,0.1984 0.0416,0.0896 0.0408,0.1959 -0.0029,0.3169 z m 1.7844,0.4711 2.0245,0.1023 0.0233,-0.464 -1.2294,-1.4258 1.3453,0.068 0.025,-0.4992 -2.1963,-0.1114 -0.0241,0.4822 1.2155,1.4105 -1.1588,-0.0589 z m 2.9676,-0.0042 1.8831,-0.3714 -0.0955,-0.4872 -1.1787,0.2321 -0.0711,-0.3628 1.0936,-0.2157 -0.091,-0.4658 -1.0936,0.2157 -0.0879,-0.4495 1.2132,-0.2393 -0.1015,-0.5173 -1.9173,0.3781 z m 2.8205,-0.7665 0.65,-0.3056 -0.9836,-2.1067 -0.65,0.3056 z m 0.1372,-2.647 1.366,1.8796 0.9644,-0.7061 c 0.1788,-0.1309 0.3047,-0.2463 0.3761,-0.3464 0.0726,-0.1 0.1074,-0.2126 0.1046,-0.3387 -0.0025,-0.1256 -0.0473,-0.2483 -0.1343,-0.3677 -0.076,-0.1046 -0.1633,-0.178 -0.2625,-0.2216 -0.0995,-0.0431 -0.205,-0.0596 -0.3167,-0.0505 -0.0711,0.0068 -0.157,0.0312 -0.2568,0.0748 0.0522,-0.0737 0.0853,-0.1335 0.1004,-0.18 0.0096,-0.0306 0.0167,-0.0861 0.0209,-0.1661 0.0034,-0.0805 0.0026,-0.1389 -0.0039,-0.1763 l -0.116,-0.7497 -0.6542,0.479 0.1086,0.8008 c 0.0147,0.1026 0.015,0.1769 2e-4,0.222 -0.0204,0.0592 -0.0575,0.1082 -0.1102,0.1468 l -0.051,0.0374 -0.5545,-0.7628 z m 1.3938,0.6928 0.2441,-0.1789 c 0.0263,-0.0193 0.0833,-0.0482 0.1715,-0.0867 0.0442,-0.0202 0.0898,-0.0236 0.1371,-0.0097 0.0471,0.0139 0.0857,0.0411 0.1154,0.0825 0.0442,0.0607 0.0587,0.1211 0.044,0.1817 -0.0145,0.0607 -0.0746,0.1296 -0.1803,0.2069 l -0.254,0.186 z m 1.4468,-1.4837 c 0.3101,0.2172 0.6126,0.2994 0.9054,0.2469 0.2939,-0.0527 0.5482,-0.2341 0.7634,-0.5437 0.2205,-0.3177 0.3055,-0.6219 0.2551,-0.913 -0.0505,-0.2903 -0.2288,-0.5431 -0.5344,-0.7571 -0.2222,-0.1557 -0.4308,-0.2455 -0.6253,-0.2699 -0.1942,-0.0244 -0.3801,0.0065 -0.5578,0.093 -0.1781,0.0867 -0.3399,0.2355 -0.4873,0.4473 -0.1494,0.2151 -0.239,0.4172 -0.269,0.6063 -0.0292,0.1888 -6e-4,0.3784 0.0861,0.5701 0.0871,0.191 0.2416,0.3645 0.4638,0.5201 z m 0.4073,-0.5921 c -0.1922,-0.1344 -0.3053,-0.2662 -0.3396,-0.3966 -0.034,-0.1304 -0.0082,-0.2574 0.0774,-0.3804 0.0879,-0.1267 0.1973,-0.1962 0.3274,-0.2081 0.1304,-0.0116 0.3025,0.0564 0.5148,0.2052 0.1792,0.1253 0.2846,0.2532 0.3172,0.3836 0.0317,0.1301 0.0048,0.2571 -0.0816,0.3815 -0.0825,0.1188 -0.1905,0.1851 -0.3246,0.1982 -0.1335,0.0133 -0.2976,-0.0479 -0.491,-0.1834"
         style="fill:#1d57a1;fill-opacity:1;fill-rule:evenodd;stroke:none"
         id="path4116"
         inkscape:connector-curvature="0" /><path
         d="M 3.5036,13.6933 3.5331,11.7122 3.024,11.7048 3.0059,12.9447 2.6266,12.939 2.6436,11.7887 2.1574,11.7816 2.1404,12.9319 1.671,12.9249 1.69,11.6487 1.15,11.6408 1.1203,13.6579 Z M 1.9035,10.9267 2.1254,10.258 C 2.0194,10.2141 1.9437,10.1616 1.8978,10.101 1.8235,10.0029 1.8054,9.885 1.8417,9.7483 1.8683,9.6466 1.9128,9.5743 1.9752,9.5315 2.0375,9.4893 2.0999,9.4765 2.1628,9.4932 c 0.0596,0.0159 0.1063,0.0559 0.1395,0.1214 0.0334,0.0651 0.0456,0.1987 0.0368,0.4016 -0.0124,0.3322 0.0213,0.5803 0.1027,0.745 0.0808,0.1655 0.2111,0.2724 0.3914,0.3203 0.1185,0.0314 0.2396,0.0269 0.3631,-0.0142 C 3.3197,11.0265 3.4296,10.9451 3.5266,10.8227 3.6232,10.7002 3.7035,10.5188 3.767,10.2781 3.8452,9.9825 3.85,9.7421 3.7814,9.5579 3.7131,9.3736 3.5629,9.2353 3.3321,9.142 L 3.115,9.8053 c 0.0989,0.0454 0.1644,0.1032 0.1964,0.1735 0.0318,0.0695 0.0343,0.1548 0.008,0.2557 C 3.2973,10.3178 3.2635,10.3757 3.217,10.4083 3.1711,10.4411 3.1226,10.4508 3.0722,10.4372 3.0356,10.4275 3.0076,10.4014 2.9871,10.3592 2.9653,10.3173 2.9585,10.23 2.9659,10.0964 2.9812,9.7665 2.9721,9.5247 2.939,9.3713 2.9061,9.2177 2.8474,9.0967 2.7618,9.0082 2.6765,8.9198 2.571,8.8583 2.4449,8.8248 2.2975,8.7854 2.1501,8.7908 2.0041,8.8393 1.8575,8.888 1.7328,8.9776 1.6294,9.108 1.5262,9.2378 1.4448,9.415 1.3859,9.6392 c -0.1041,0.3932 -0.101,0.6854 0.0104,0.8771 0.1106,0.1921 0.2795,0.3285 0.5072,0.4104 z M 3.9662,8.8036 4.6123,7.7596 C 4.7529,7.5325 4.8047,7.3284 4.7667,7.1481 4.729,6.9678 4.6106,6.8153 4.4121,6.6915 4.2075,6.5639 4.0096,6.5259 3.818,6.5775 3.6266,6.6294 3.4526,6.7819 3.2958,7.035 L 3.0832,7.3786 2.3318,6.91 1.9412,7.5407 Z M 3.4934,7.6346 3.5887,7.4806 C 3.6635,7.3593 3.7366,7.2876 3.8092,7.2646 3.8812,7.242 3.9504,7.251 4.0153,7.2916 4.0791,7.3312 4.1199,7.3862 4.1374,7.4563 4.1559,7.526 4.1284,7.6198 4.0558,7.7372 L 3.945,7.916 Z M 4.2395,5.9068 C 4.5105,6.1872 4.7996,6.3295 5.1058,6.334 5.4125,6.3386 5.7047,6.2053 5.9822,5.9349 6.2668,5.6574 6.412,5.3668 6.4179,5.063 6.4233,4.7602 6.2926,4.47 6.0256,4.1936 5.8314,3.9929 5.6384,3.8614 5.4468,3.7984 5.2554,3.7358 5.0615,3.7304 4.8654,3.7828 4.6687,3.8353 4.4762,3.9538 4.2863,4.1389 4.0935,4.3268 3.9637,4.5133 3.8965,4.6981 3.8302,4.8832 3.8222,5.0805 3.8724,5.2909 3.9231,5.5006 4.0453,5.7061 4.2395,5.9068 Z M 4.7659,5.3892 C 4.5981,5.2157 4.5099,5.0604 4.5006,4.9218 4.4915,4.7837 4.5425,4.6604 4.6528,4.553 4.7662,4.4425 4.89,4.3937 5.0238,4.4073 5.1579,4.4209 5.3181,4.5235 5.5037,4.7154 5.6602,4.8773 5.7416,5.027 5.7489,5.165 5.756,5.3028 5.7039,5.4255 5.5925,5.5344 5.4862,5.6378 5.3643,5.6837 5.2262,5.6707 5.0885,5.658 4.9348,5.5638 4.7659,5.3892 Z M 6.0375,2.7626 7.1623,4.8725 8.2449,4.2911 C 8.4455,4.1834 8.5898,4.0836 8.6771,3.9917 8.765,3.9005 8.8166,3.7905 8.8316,3.6618 8.8469,3.5334 8.8186,3.4021 8.7471,3.2681 8.6845,3.1507 8.6057,3.0634 8.511,3.005 8.4158,2.9469 8.3106,2.9149 8.1958,2.9083 8.1221,2.9049 8.0314,2.9177 7.9234,2.9477 7.9869,2.8803 8.0291,2.8239 8.0512,2.7788 8.0654,2.7488 8.0804,2.6935 8.096,2.6124 8.1111,2.5311 8.1184,2.4715 8.117,2.4324 L 8.1051,1.652 7.3712,2.0463 7.3681,2.8777 C 7.3681,2.9843 7.3582,3.06 7.3366,3.1037 7.3074,3.1609 7.2629,3.206 7.2037,3.2377 L 7.1464,3.2683 6.69,2.4123 Z M 7.359,3.6675 7.6331,3.5201 C 7.6623,3.5045 7.7247,3.4829 7.8199,3.4563 7.8678,3.4421 7.9149,3.4452 7.9611,3.4659 8.0067,3.4869 8.0422,3.5203 8.0668,3.5663 8.1034,3.6346 8.1096,3.6984 8.0858,3.7579 8.0623,3.8177 7.9914,3.8792 7.8729,3.943 L 7.5875,4.0961 Z m 1.9831,0.098 2.1711,-0.5493 -0.144,-0.5735 -0.7288,0.1846 -0.4388,-1.747 -0.714,0.1806 0.4388,1.7472 -0.7283,0.1843 z m 2.4438,-0.4558 1.9712,0.0984 0.0255,-0.5102 -1.2342,-0.0616 0.019,-0.3801 1.1446,0.0573 0.0244,-0.4876 -1.1449,-0.0572 0.0235,-0.4706 1.2699,0.0632 0.027,-0.5414 -2.0075,-0.1001 z"
         style="fill:#1d57a1;fill-opacity:1;fill-rule:evenodd;stroke:none"
         id="path4118"
         inkscape:connector-curvature="0" /><path
         d="m 17.1561,3.4364 0.654,0.165 C 17.8662,3.4234 17.8852,3.2581 17.8676,3.1054 17.8503,2.9526 17.7979,2.814 17.7109,2.6895 17.6244,2.5645 17.4892,2.4474 17.3064,2.3374 17.0841,2.2037 16.8829,2.1268 16.7037,2.1067 16.524,2.0871 16.3341,2.128 16.1342,2.2297 15.9347,2.3318 15.7584,2.5098 15.6064,2.7643 15.4035,3.1042 15.3374,3.4197 15.4086,3.71 c 0.0708,0.2908 0.2712,0.5354 0.6001,0.7333 0.2576,0.1551 0.4909,0.2248 0.701,0.2089 0.21,-0.0159 0.4155,-0.1105 0.6162,-0.284 L 16.8423,3.9076 C 16.7856,3.9586 16.7374,3.992 16.6989,4.0085 16.6348,4.0354 16.5691,4.0467 16.5025,4.0422 16.4356,4.0377 16.3706,4.0161 16.3071,3.9781 16.1646,3.892 16.0892,3.7681 16.0818,3.6065 16.0756,3.486 16.1271,3.3338 16.2369,3.1499 16.3732,2.9217 16.501,2.787 16.6198,2.7437 c 0.1196,-0.0431 0.2415,-0.027 0.3657,0.0479 0.121,0.0725 0.1922,0.1615 0.2131,0.267 0.0213,0.1051 0.0071,0.231 -0.0425,0.3778 z m 0.1627,1.8153 0.5035,0.5406 1.3127,-1.2314 0.7846,0.8431 0.4292,-0.4023 -1.2881,-1.3838 z m 2.2595,2.9149 0.3575,0.6452 1.2424,-0.6931 C 21.3015,8.0501 21.4067,7.9659 21.4948,7.8661 21.5827,7.7669 21.6454,7.653 21.6819,7.5249 21.7182,7.3967 21.7278,7.2788 21.7111,7.1694 21.6876,7.018 21.6278,6.8547 21.53,6.6784 21.4739,6.5767 21.4055,6.4692 21.3245,6.357 21.2437,6.2447 21.1601,6.16 21.073,6.1027 20.986,6.0454 20.8851,6.0049 20.77,5.9811 20.6552,5.957 20.55,5.9562 20.4537,5.9771 20.2992,6.0111 20.1708,6.0565 20.0682,6.1138 l -1.2425,0.693 0.3572,0.6452 1.2722,-0.7095 c 0.1139,-0.0635 0.2202,-0.0814 0.3186,-0.0542 0.0992,0.0278 0.1797,0.0976 0.2418,0.2101 0.0615,0.1108 0.0785,0.2163 0.0505,0.3146 -0.0278,0.0978 -0.1001,0.1795 -0.2155,0.2438 z m 0.5267,1.0236 0.3118,1.3487 c 0.0519,0.2248 0.1474,0.3844 0.286,0.4785 0.1386,0.0947 0.29,0.1228 0.4533,0.0848 0.1372,-0.0318 0.2452,-0.1021 0.3237,-0.2109 0.0522,-0.0729 0.0848,-0.1684 0.0972,-0.2875 0.0786,0.1579 0.1764,0.2651 0.292,0.3215 0.1159,0.0561 0.248,0.0672 0.3954,0.0326 0.1208,-0.0281 0.2223,-0.0814 0.3056,-0.1596 0.0831,-0.0788 0.1412,-0.1732 0.1749,-0.284 0.0207,-0.0681 0.025,-0.1653 0.0125,-0.2912 C 22.7409,10.0562 22.7271,9.9462 22.7146,9.8929 L 22.4274,8.6496 Z m 1.0792,0.5145 0.0722,0.3132 c 0.0261,0.1123 0.0247,0.195 -0.0036,0.2486 -0.0287,0.053 -0.0794,0.0876 -0.1517,0.1046 -0.0677,0.0156 -0.1256,0.0063 -0.1738,-0.0289 -0.0487,-0.0354 -0.0853,-0.1077 -0.1105,-0.2168 L 20.7434,9.8076 Z m 0.9121,-0.2123 0.0848,0.3673 c 0.0286,0.1245 0.0272,0.2169 -0.0048,0.2776 -0.032,0.0612 -0.0851,0.1003 -0.159,0.1176 -0.0689,0.0162 -0.1296,0.004 -0.1832,-0.0369 -0.0532,-0.0408 -0.0946,-0.1238 -0.1238,-0.2503 L 21.6258,9.6021 Z m -1.5358,2.2442 -0.1014,1.9785 0.5085,0.0261 0.0632,-1.2384 0.3787,0.0195 -0.0589,1.1489 0.4855,0.025 0.059,-1.1489 0.4688,0.0241 -0.0652,1.2747 0.5395,0.0278 0.1029,-2.0146 z"
         style="fill:#1d57a1;fill-opacity:1;fill-rule:evenodd;stroke:none"
         id="path4120"
         inkscape:connector-curvature="0" /><path
         d="m 12.2329,7.8659 0.3178,-0.9817 h 1.0284 l -0.832,-0.6069 0.3178,-0.9816 -0.832,0.6069 -0.832,-0.6069 0.3178,0.9816 v 0 0 L 10.887,6.8842 h 1.0281 v 0 z"
         style="fill:#ffffff;fill-opacity:1;fill-rule:evenodd;stroke:none"
         id="path4122"
         inkscape:connector-curvature="0" /><path
         d="m 16.6136,14.6942 0.3177,-0.9816 v 0 h 1.0282 l -0.8317,-0.6066 0.3177,-0.9817 -0.8319,0.6069 -0.832,-0.6069 0.3178,0.9817 v 0 0 l -0.8317,0.6066 h 1.0281 v 0 z"
         style="fill:#ffffff;fill-opacity:1;fill-rule:evenodd;stroke:none"
         id="path4124"
         inkscape:connector-curvature="0" /><path
         d="m 13.3605,12.7372 0.2364,-0.7305 h 0.7651 l -0.6191,-0.4513 0.2364,-0.7305 -0.6188,0.4513 -0.6191,-0.4513 0.2365,0.7302 v 0 3e-4 l -0.6191,0.4513 h 0.765 v 0 z"
         style="fill:#ffffff;fill-opacity:1;fill-rule:evenodd;stroke:none"
         id="path4126"
         inkscape:connector-curvature="0" /><path
         d="M 12.0322,18.7673 12.35,17.7857 v 0 h 1.0281 l -0.8317,-0.6066 0.3178,-0.9817 -0.832,0.6067 -0.8319,-0.6067 0.3177,0.9817 v 0 0 l -0.8317,0.6066 h 1.0282 v 0 0 z"
         style="fill:#ffffff;fill-opacity:1;fill-rule:evenodd;stroke:none"
         id="path4128"
         inkscape:connector-curvature="0" /><path
         d="m 7.5719,14.7764 0.3178,-0.9816 v 0 h 1.0284 l -0.832,-0.6066 0.3178,-0.9816 -0.832,0.6066 -0.832,-0.6066 0.3178,0.9816 v 0 0 L 6.226,13.7948 h 1.0281 v 0 0 z"
         style="fill:#ffffff;fill-opacity:1;fill-rule:evenodd;stroke:none"
         id="path4130"
         inkscape:connector-curvature="0" /><path
         d="m 11.9999,23.9992 v 0 c 3.3041,0 6.304,-1.3475 8.4779,-3.5212 2.1741,-2.1738 3.522,-5.1735 3.522,-8.4778 v -3e-4 c 0,-3.3043 -1.3479,-6.304 -3.522,-8.4781 C 18.3039,1.3484 15.3043,9e-4 12.0002,9e-4 h -6e-4 C 8.6956,9e-4 5.6957,1.3484 3.5218,3.522 1.3476,5.6959 -3e-4,8.6956 -3e-4,11.9999 v 3e-4 c 0,3.3043 1.3479,6.304 3.5221,8.4778 2.1739,2.1737 5.1738,3.5212 8.4778,3.5212 z m 0,-0.3546 h -3e-4 c -3.2077,0 -6.1197,-1.3079 -8.2292,-3.4171 C 1.6608,18.1182 0.3532,15.207 0.3532,12.0002 v -3e-4 c 0,-3.2071 1.3076,-6.118 3.4172,-8.227 2.1095,-2.1095 5.0215,-3.4174 8.2292,-3.4174 h 6e-4 c 3.2077,0 6.1194,1.3079 8.229,3.4171 2.1095,2.1093 3.4171,5.0205 3.4171,8.2273 v 3e-4 c 0,3.2068 -1.3076,6.118 -3.4171,8.227 -2.1096,2.1095 -5.0216,3.4174 -8.2293,3.4174"
         style="fill:#ffffff;fill-opacity:1;fill-rule:nonzero;stroke:none"
         id="path4132"
         inkscape:connector-curvature="0" /></g></g></svg>