<?xml version="1.0" encoding="UTF-8"?>
<!DOCTYPE svg PUBLIC "-//W3C//DTD SVG 1.1//EN" "http://www.w3.org/Graphics/SVG/1.1/DTD/svg11.dtd">
<!-- Creator: CorelDRAW X8 -->
<svg xmlns="http://www.w3.org/2000/svg" xml:space="preserve" width="87.64mm" height="106.321mm" version="1.1" style="shape-rendering:geometricPrecision; text-rendering:geometricPrecision; image-rendering:optimizeQuality; fill-rule:evenodd; clip-rule:evenodd"
viewBox="0 0 8764 10632"
 xmlns:xlink="http://www.w3.org/1999/xlink">
 <defs>
  <style type="text/css">
   <![CDATA[
    .fil3 {fill:none}
    .fil0 {fill:#FEFEFE}
    .fil2 {fill:#0F3C7E}
    .fil5 {fill:#103B7B}
    .fil1 {fill:#113B7E}
    .fil4 {fill:#123A7E}
   ]]>
  </style>
 </defs>
 <g id="Camada_x0020_1">
  <metadata id="CorelCorpID_0Corel-Layer"/>
  <g id="_1155670992">
   <path class="fil0" d="M2802 307l3175 -2c158,368 345,634 637,759l542 105c332,311 587,651 785,1011l-522 627 -49 861 430 650 545 231c-27,173 -81,316 -157,432l-384 1056c-124,453 -368,976 -577,1144l-821 1312c-552,809 -1203,1439 -2024,1761 -306,-28 -524,-169 -659,-417l-649 -544c-213,-129 -378,-297 -481,-511l-521 -687c-153,-189 -290,-401 -407,-642l-372 -678c-143,-215 -240,-441 -304,-674l-121 -299c-211,-380 -368,-779 -433,-1208l924 -825 -555 -1578c287,-357 551,-781 861,-1072 590,27 946,-236 1137,-812z"/>
   <path class="fil1" d="M3723 9837l2709 -1389c-82,171 -675,796 -868,971 -318,286 -690,564 -1077,791 -101,59 -109,59 -210,0 -66,-39 -121,-71 -189,-116 -130,-86 -255,-160 -365,-257zm-649 -544c-138,-128 -406,-410 -522,-563 59,-62 526,-282 641,-340l3955 -2024c124,-64 572,-315 656,-329 -162,324 -269,629 -466,996 -96,179 -107,141 -281,228 -853,431 -1814,955 -2649,1359 -226,109 -437,232 -661,340 -125,61 -573,315 -673,333zm-1002 -1198c-56,-47 -376,-552 -407,-642l1659 -850c267,-140 561,-294 833,-425 146,-69 271,-141 415,-213l3113 -1593c116,-62 104,-80 210,-5 107,76 301,161 450,182 -27,119 -86,376 -188,433l-1214 620c-549,271 -1085,562 -1627,835 -326,164 -3015,1569 -3244,1658zm-1083 -1994c262,-123 546,-282 809,-415l4020 -2060c241,-123 1403,-738 1601,-819 -35,156 -95,261 -94,454 -8,175 13,214 45,407l-6077 3107c-87,-205 -242,-466 -304,-674zm-554 -1507c124,-43 305,-146 430,-213l1258 -645c298,-148 4925,-2542 5033,-2567l393 505c63,78 129,165 195,246 57,70 149,172 197,260l-7073 3622c-78,-124 -394,-1020 -433,-1208zm1230 -3475c345,11 563,-31 771,-212 74,-64 174,-156 233,-259 72,-128 120,-323 151,-334l3125 0c47,37 41,76 60,136 79,253 339,544 609,614 -103,73 -223,129 -335,187 -112,58 -214,111 -324,168 -213,112 -436,218 -652,334 -429,230 -871,446 -1314,672 -698,358 -1604,844 -2304,1179 -113,54 -215,124 -326,165 88,-367 137,-603 -21,-963 -188,-430 -479,-550 -534,-615 173,-187 718,-935 861,-1072zm-1665 3148l0 43 334 995c542,1520 1419,3259 2656,4342l556 462c208,164 814,511 827,523l19 0 206 -123c529,-298 632,-412 1073,-763l267 -242c121,-110 209,-234 321,-341 70,-66 87,-100 152,-170 51,-54 107,-130 153,-187 194,-239 390,-501 564,-778 555,-884 933,-1713 1298,-2711l338 -1007 0 -43c-328,-3 -572,-56 -771,-218 -415,-338 -474,-912 -127,-1363 198,-259 490,-284 601,-359l-934 -1181c-64,-79 -248,-334 -315,-380 -627,130 -915,-131 -959,-766l-3754 0c-39,639 -339,893 -959,766 -64,44 -662,818 -781,967 -62,77 -103,124 -160,196l-308 398c111,75 405,102 601,358 346,452 290,1023 -127,1364 -198,162 -444,216 -771,218z"/>
   <path class="fil2" d="M822 4723l219 428c153,299 690,-26 557,-287l-219 -428 -167 86 200 398c69,138 -155,238 -219,113l-205 -395 -166 85z"/>
   <polygon class="fil2" points="1441,4404 1661,4291 2046,4584 1850,4194 2008,4112 2333,4751 2128,4856 1712,4545 1918,4964 1766,5043 "/>
   <polygon class="fil2" points="2082,4074 2249,3988 2570,4629 2406,4713 "/>
   <path class="fil2" d="M2543 3837l153 -79 553 521 -174 89 -97 -105 -209 107 3 155 -162 83 -67 -771zm178 177l150 141 -123 63 -27 -204z"/>
   <path class="fil2" d="M6814 1637l153 -78 553 521 -173 89 -98 -106 -208 107 2 155 -161 83 -68 -771zm179 178l149 140 -123 64 -26 -204z"/>
   <polygon class="fil3" points="2721,4014 2871,4155 2748,4218 "/>
   <path class="fil2" d="M3208 3494c170,-87 382,-16 473,160 90,176 25,389 -145,477 -171,88 -382,17 -473,-159 -91,-176 -26,-390 145,-478zm69 124c79,-40 190,17 247,128 57,111 39,234 -40,275 -79,41 -190,-16 -247,-127 -57,-112 -39,-235 40,-276z"/>
   <path class="fil2" d="M2439 3825l59 -2c0,-19 -3,-65 33,-77 35,-13 68,3 121,-23 53,-27 57,-81 67,-133l-63 -3c0,28 -17,54 -35,66 -40,26 -57,23 -111,27 -67,5 -67,98 -71,145z"/>
   <polygon class="fil2" points="3883,3411 4198,3249 4253,3358 4056,3457 4082,3508 4277,3407 4338,3523 4142,3624 4174,3686 4371,3585 4418,3677 4101,3840 "/>
   <polygon class="fil4" points="4355,2904 4791,2679 4865,2823 4605,2957 4662,3068 4901,2945 4969,3078 4733,3200 4862,3448 4683,3541 "/>
   <path class="fil4" d="M5135 2502c171,-88 383,-17 473,159 91,176 26,390 -145,478 -170,88 -382,16 -473,-160 -90,-175 -25,-389 145,-477zm62 116c80,-41 191,15 248,126 57,111 38,234 -42,275 -80,41 -191,-15 -248,-126 -57,-110 -38,-234 42,-275z"/>
   <path class="fil4" d="M5493 2318l328 637 173 -90 -125 -243 130 -67c68,65 124,139 179,215l174 -89c-55,-54 -127,-177 -186,-229 -29,-24 -59,-32 -90,-40 51,-53 56,-119 16,-190 -48,-81 -189,-116 -289,-64l-310 160zm246 52l67 130 106 -55c28,-14 39,-61 27,-93 -11,-27 -59,-55 -92,-38l-108 56z"/>
   <path class="fil4" d="M6311 1897c132,-71 284,-46 382,69l12 14 -169 98c-51,-53 -100,-83 -155,-55 -55,28 -73,146 -18,251 54,106 158,160 214,131 57,-29 61,-95 42,-175l172 -84 0 0c49,160 -10,320 -151,386 -1,1 -3,2 -5,3l0 0 11 -5c100,-23 200,61 82,145 -37,26 -91,41 -119,37 -8,-1 -3,-32 -1,-46 66,9 171,-70 75,-81 -34,-4 -63,30 -77,23l-2 -61 6 -3 0 0c-140,46 -337,-18 -421,-182 -91,-176 -11,-395 122,-465z"/>
   <path class="fil5" d="M2452 1202c230,0 438,94 588,247 5,36 -28,73 -76,53 -132,-132 -313,-213 -512,-213 -404,0 -725,327 -732,745 -3,239 133,451 311,587 11,-60 23,-119 35,-177 -9,-8 -19,-17 -28,-25 -35,-34 -77,-70 -84,-112 0,-38 25,-50 65,-42 23,28 46,55 70,78 28,-121 61,-240 100,-360 -114,-53 -161,-137 -162,-225 -2,-154 139,-300 392,-314 136,2 274,28 386,121 10,35 -3,57 -48,62 -78,-50 -203,-88 -321,-92 57,146 111,288 159,426 106,13 210,39 289,108 45,41 79,96 79,174 0,87 -42,186 -199,278 15,62 28,123 40,184 76,-42 132,-102 197,-178 46,-13 74,5 78,54 -84,98 -152,170 -258,218 7,41 13,81 19,122 -29,31 -58,35 -87,1 -7,-29 -13,-62 -20,-92 -73,20 -164,32 -281,36 -116,4 -242,-30 -360,-92 -9,49 -18,99 -27,150 -33,37 -62,36 -89,-3 12,-67 23,-132 35,-195 -223,-149 -397,-402 -387,-692 18,-471 371,-832 828,-832zm-341 1474c111,67 232,105 341,103 111,-2 194,-14 262,-35 -13,-61 -26,-121 -40,-181 -172,60 -376,23 -526,-63 -13,58 -25,116 -37,176zm261 -1140c-62,127 -112,248 -155,367 -45,-23 -77,-58 -88,-116 -13,-170 102,-240 243,-251zm-203 875c32,-133 69,-262 114,-395 66,16 147,25 243,25 4,0 8,0 11,0 46,144 83,290 118,438 -63,24 -124,35 -185,35 -105,0 -207,-34 -301,-103zm143 -478c28,-77 59,-156 94,-237 38,84 72,170 102,257 -70,-6 -137,-9 -196,-20zm430 504c-33,-127 -72,-255 -116,-385 73,14 137,40 180,77 92,81 95,207 -63,307l-1 1z"/>
  </g>
 </g>
</svg>
