<?xml version="1.0" encoding="UTF-8"?>
<!DOCTYPE svg PUBLIC "-//W3C//DTD SVG 1.1//EN" "http://www.w3.org/Graphics/SVG/1.1/DTD/svg11.dtd">
<!-- Creator: CorelDRAW X8 -->
<svg xmlns="http://www.w3.org/2000/svg" xml:space="preserve" width="100%" height="100%" version="1.1" style="shape-rendering:geometricPrecision; text-rendering:geometricPrecision; image-rendering:optimizeQuality; fill-rule:evenodd; clip-rule:evenodd"
viewBox="0 0 847 847"
 xmlns:xlink="http://www.w3.org/1999/xlink">
 <defs>
  <style type="text/css">
   <![CDATA[
    .fil0 {fill:black;fill-rule:nonzero}
    .fil1 {fill:#C22816;fill-rule:nonzero}
    .fil2 {fill:#FEFEFE;fill-rule:nonzero}
    .fil3 {fill:white;fill-rule:nonzero}
   ]]>
  </style>
 </defs>
 <g id="Camada_x0020_1">
  <metadata id="CorelCorpID_0Corel-Layer"/>
  <g id="_4374180096">
   <g>
    <g>
     <g>
      <g>
       <g>
        <path class="fil0" d="M138 136l0 232c0,26 2,52 7,77 5,25 12,51 22,76 11,26 24,52 40,76 19,28 41,53 65,76 36,32 76,57 120,76l3 1 4 -1c44,-19 84,-44 119,-76 25,-23 47,-48 66,-76 16,-24 29,-50 40,-76 9,-25 17,-51 22,-76 4,-25 7,-51 7,-77l0 -232 -515 0z"/>
       </g>
       <polygon class="fil1" points="385,359 148,359 148,146 385,146 "/>
       <polygon class="fil0" points="643,146 643,220 395,220 395,146 "/>
       <polygon class="fil1" points="643,220 643,294 395,294 395,220 "/>
       <polygon class="fil0" points="643,294 643,368 395,368 395,294 "/>
       <g>
        <path class="fil1" d="M636 443c4,-24 7,-49 7,-75l-495 0c0,26 2,51 7,75l481 0z"/>
        <path class="fil0" d="M176 517l438 0c10,-24 17,-49 22,-74l-481 0c5,25 12,50 21,74z"/>
        <path class="fil1" d="M215 591l360 0c16,-23 29,-48 39,-74l-438 0c11,26 24,51 39,74z"/>
        <path class="fil0" d="M279 665l233 0c24,-22 45,-47 63,-74l-360 0c18,27 40,52 64,74z"/>
        <path class="fil1" d="M395 740c43,-18 83,-44 117,-75l-233 0c34,31 73,57 116,75z"/>
       </g>
      </g>
     </g>
     <g>
      <g>
       <path class="fil2" d="M341 319c-12,12 -25,8 -33,-8 -11,-24 -28,-52 -67,-53l0 -85c47,-14 82,38 53,70 0,0 0,13 0,13 9,0 19,-8 23,-20 5,-12 8,-17 13,-19 -12,-13 -8,-35 -30,-50 -26,-18 -50,-6 -56,-3 -6,3 -9,-4 -21,-6 -8,-2 -15,-1 -17,0 1,1 4,4 6,6 9,9 10,11 10,21l0 114c7,3 12,5 19,5l0 -31c32,2 46,25 53,41 4,11 15,28 27,28 21,0 21,-19 20,-23z"/>
       <path class="fil2" d="M243 323c-8,1 -14,0 -21,-1 0,7 -3,16 -13,25 0,0 10,1 25,-10 0,0 10,9 25,10 0,0 -13,-10 -16,-24z"/>
      </g>
      <g>
       <path class="fil2" d="M245 202c0,14 5,18 12,18 2,0 7,-3 8,-5 -11,-16 -4,-37 -4,-38 -5,-1 -10,-2 -16,-1 0,4 0,20 0,26z"/>
       <path class="fil2" d="M191 249c1,-23 10,-43 28,-54l0 -10 0 1 0 -5c0,0 0,-1 0,-1 -24,9 -40,29 -47,53 -1,4 -5,17 -8,19 2,2 7,14 11,24 14,32 50,56 91,37l0 -12c-39,21 -77,-14 -75,-52z"/>
      </g>
      <g>
       <path class="fil2" d="M290 316c0,0 0,0 0,-1 -2,-6 -7,-17 -17,-26 -1,-1 -2,-1 -3,-2l0 27c0,9 -2,24 -8,29 0,0 8,2 20,-7 1,1 8,7 21,6 -4,-1 -12,-9 -13,-26z"/>
       <path class="fil2" d="M318 260l-28 0 0 -51 10 0c-1,-5 -3,-11 -6,-16 0,0 -29,1 -31,0 0,2 1,3 3,5 3,4 4,3 4,11l0 0 0 51c6,3 11,6 16,11 1,1 3,3 4,5l28 0c1,2 3,2 3,7 0,4 -3,9 -9,14 16,-2 23,-9 19,-31 -2,-15 10,-28 13,-32 -11,3 -22,14 -26,26z"/>
       <path class="fil2" d="M364 198c3,-14 -6,-26 -8,-27 0,4 0,9 -2,14 -2,7 -6,8 -12,8l-20 0c1,2 1,3 2,4 1,4 2,8 4,12l10 0c6,0 8,1 10,3 3,2 4,6 7,14 3,7 9,10 13,10 -9,-17 -7,-28 -4,-38z"/>
      </g>
     </g>
    </g>
   </g>
   <g>
    <g>
     <g>
      <g>
       <g>
        <path class="fil0" d="M79 11l0 312c0,34 3,68 9,102 7,34 17,69 30,101 14,36 32,70 53,102 25,38 54,72 88,102 47,43 101,78 159,102l5 2 5 -2c59,-24 113,-59 160,-102 33,-30 63,-64 88,-102 21,-32 39,-66 53,-102 13,-32 23,-67 30,-101 6,-34 9,-68 9,-102l0 -312 -689 0z"/>
        <path class="fil0" d="M72 11l0 312c0,34 3,69 10,103 6,35 16,70 29,103 15,36 33,71 55,103 25,38 55,72 88,103 48,44 102,78 162,103 0,0 5,2 5,2l2 1 3 -1 5 -2c59,-25 114,-59 162,-103 33,-31 63,-65 88,-103 22,-32 40,-67 54,-103 13,-33 23,-68 30,-103 6,-34 10,-69 10,-103l0 -312 0 -6 -7 0 -689 0 -7 0 0 6zm689 0l0 0 0 312c0,34 -3,67 -9,100 -6,35 -16,69 -29,101 -14,35 -32,69 -53,101 -25,37 -54,70 -86,100 -47,43 -100,77 -158,101l-5 2 5 0 -5 -2c-58,-24 -111,-58 -158,-101 -33,-30 -62,-63 -86,-100 -21,-32 -39,-66 -53,-101 -13,-32 -23,-66 -29,-101 -7,-33 -10,-67 -10,-100l0 -312 -6 7 689 0 -7 -7z"/>
       </g>
      </g>
      <g>
       <polygon class="fil1" points="404,303 92,303 92,25 404,25 "/>
      </g>
      <g>
       <polygon class="fil0" points="755,25 755,124 423,124 423,25 "/>
      </g>
      <g>
       <polygon class="fil1" points="755,124 755,223 423,223 423,124 "/>
      </g>
      <g>
       <polygon class="fil0" points="755,223 755,323 423,323 423,223 "/>
      </g>
      <g>
       <g>
        <path class="fil1" d="M745 422c7,-32 10,-65 10,-99l-663 0c0,34 3,67 9,99l644 0z"/>
       </g>
       <g>
        <path class="fil0" d="M130 522l587 0c12,-32 22,-65 28,-100l-644 0c7,35 16,68 29,100z"/>
       </g>
       <g>
        <path class="fil1" d="M182 621l483 0c20,-31 38,-64 52,-99l-587 0c14,35 31,68 52,99z"/>
       </g>
       <g>
        <path class="fil0" d="M268 720l311 0c32,-29 61,-63 86,-99l-483 0c25,36 53,70 86,99z"/>
       </g>
       <g>
        <path class="fil1" d="M423 820c58,-24 111,-58 156,-100l-311 0c45,42 98,76 155,100z"/>
       </g>
      </g>
     </g>
    </g>
    <g>
     <g>
      <g>
       <path class="fil2" d="M347 253c-16,16 -33,10 -43,-11 -15,-31 -36,-69 -88,-69l0 -112c62,-18 108,50 69,93 0,0 0,16 0,16 13,0 25,-11 31,-26 6,-16 10,-22 16,-26 -15,-16 -10,-45 -38,-64 -35,-25 -67,-8 -74,-4 -8,3 -11,-6 -28,-9 -10,-2 -19,-1 -22,0 2,1 6,5 8,8 12,11 13,15 14,28l0 149c8,4 15,7 25,7l-1 -41c42,3 61,33 69,54 6,15 20,37 36,37 27,0 27,-25 26,-30z"/>
      </g>
      <g>
       <path class="fil2" d="M218 258c-9,1 -18,0 -27,-2 0,10 -3,21 -17,33 0,0 13,2 33,-12 0,0 13,11 33,12 0,0 -17,-13 -22,-31z"/>
      </g>
     </g>
     <g>
      <g>
       <path class="fil2" d="M221 99c0,19 6,23 15,23 4,0 10,-3 12,-6 -15,-21 -6,-48 -6,-50 -6,-1 -13,-2 -21,-1 0,6 0,26 0,34z"/>
      </g>
      <g>
       <path class="fil2" d="M150 161c1,-30 13,-57 37,-72l0 -12 0 0 0 -5c0,-1 0,-1 0,-2 -31,12 -52,39 -61,70 -2,5 -7,22 -11,24 3,3 9,19 14,32 18,43 66,73 120,49l0 -16c-51,28 -102,-18 -99,-68z"/>
      </g>
     </g>
     <g>
      <g>
       <path class="fil2" d="M280 249c0,0 0,-1 0,-1 -2,-8 -8,-23 -22,-34 -1,-2 -3,-3 -4,-3l0 35c0,12 -2,32 -10,38 0,0 10,2 26,-9 2,2 11,10 27,8 -5,-2 -15,-12 -17,-34z"/>
      </g>
      <g>
       <path class="fil2" d="M317 175l-37 0 0 -66 14 0c-1,-8 -4,-15 -9,-21 0,0 -37,1 -40,-1 0,2 2,5 3,6 5,5 6,5 6,16l0 0 0 67c7,3 14,8 21,13 2,2 4,5 6,7l36 0c1,3 3,3 3,9 1,6 -2,13 -11,18 22,-2 30,-11 26,-39 -4,-20 12,-38 16,-43 -14,3 -29,19 -34,34z"/>
      </g>
      <g>
       <path class="fil2" d="M377 94c5,-19 -7,-34 -10,-35 0,4 -1,12 -3,18 -3,9 -8,10 -16,11l-25 0c0,1 1,3 1,5 2,5 4,11 6,16l13 0c8,0 11,1 13,3 5,3 6,9 9,18 4,10 13,14 18,14 -13,-23 -9,-37 -6,-50z"/>
      </g>
     </g>
    </g>
   </g>
   <g>
    <g>
     <g>
      <polygon class="fil0" points="755,25 755,124 423,124 423,25 "/>
     </g>
     <g>
      <polygon class="fil0" points="755,223 755,323 423,323 423,223 "/>
     </g>
     <g>
      <g>
       <path class="fil0" d="M79 11l0 312c0,34 3,68 9,102 7,34 17,69 30,102 14,35 32,69 53,101 25,38 54,72 88,102 47,43 101,78 159,102l5 2 5 -2c59,-24 113,-59 160,-102 33,-30 63,-64 88,-102 21,-32 39,-66 53,-101 13,-33 23,-68 30,-102 6,-34 9,-68 9,-102l0 -312 -689 0z"/>
       <path class="fil0" d="M65 11l0 312c0,35 4,70 10,104 7,36 17,71 30,104 15,37 33,72 55,105 26,38 56,73 90,104 48,44 103,79 163,104 0,0 5,3 5,3l5 2 6 -2 5 -3c60,-25 115,-60 163,-104 34,-31 64,-66 90,-104 22,-33 40,-68 55,-105 13,-33 23,-68 30,-104 6,-34 9,-69 9,-104l0 -312 0 -13 -13 0 -689 0 -14 0 0 13zm690 0l0 0 0 312c0,33 -4,67 -10,99 -6,34 -16,68 -28,100 -14,34 -32,68 -53,99 -24,36 -53,70 -85,99 -46,42 -98,76 -156,100 0,0 -5,2 -5,2l11 0 -6 -2c-57,-24 -109,-58 -155,-100 -33,-29 -61,-63 -86,-99 -21,-31 -38,-65 -52,-99 -13,-32 -22,-66 -29,-100 -6,-32 -9,-66 -9,-99l0 -312 -13 14 689 0 -13 -14z"/>
      </g>
     </g>
     <g>
      <polygon class="fil1" points="398,297 92,297 92,25 398,25 "/>
     </g>
     <g>
      <polygon class="fil1" points="755,124 755,223 423,223 423,124 "/>
     </g>
     <g>
      <g>
       <path class="fil1" d="M745 422c7,-32 10,-65 10,-99l-663 0c0,34 3,67 9,99l644 0z"/>
      </g>
      <g>
       <path class="fil0" d="M130 522l587 0c12,-32 22,-65 28,-100l-644 0c7,35 16,68 29,100z"/>
      </g>
      <g>
       <path class="fil1" d="M182 621l483 0c20,-31 38,-64 52,-99l-587 0c14,35 31,68 52,99z"/>
      </g>
      <g>
       <path class="fil0" d="M268 720l311 0c32,-29 61,-62 86,-99l-483 0c25,37 53,70 86,99z"/>
      </g>
      <g>
       <path class="fil1" d="M423 820c58,-24 111,-58 156,-100l-311 0c45,42 98,76 155,100z"/>
      </g>
     </g>
    </g>
    <g>
     <g>
      <g>
       <path class="fil3" d="M340 246c-16,15 -32,10 -42,-10 -14,-30 -35,-67 -84,-67l0 -108c59,-17 104,48 66,89 0,0 0,16 0,16 12,0 24,-10 30,-25 5,-15 10,-21 15,-25 -15,-16 -10,-43 -37,-62 -33,-24 -64,-8 -71,-4 -8,4 -11,-5 -27,-9 -9,-2 -18,0 -21,0 2,2 5,5 8,8 11,11 12,15 13,28l0 143c8,4 15,6 24,6l0 -39c40,3 58,32 66,52 6,14 19,36 35,36 26,0 26,-24 25,-29z"/>
      </g>
      <g>
       <path class="fil3" d="M215 251c-9,1 -17,0 -25,-2 -1,10 -4,21 -17,32 0,0 12,2 32,-12 0,0 13,11 31,12 0,0 -16,-13 -21,-30z"/>
      </g>
     </g>
     <g>
      <g>
       <path class="fil3" d="M219 98c0,18 5,22 14,22 3,0 9,-3 11,-6 -15,-20 -6,-46 -5,-48 -6,-1 -13,-2 -21,-1 0,5 1,25 1,33z"/>
      </g>
      <g>
       <path class="fil3" d="M149 158c2,-30 13,-55 36,-70l0 -11 0 0 0 -6c0,0 0,-1 0,-1 -29,11 -50,37 -59,67 -1,5 -6,21 -10,24 3,2 8,18 13,30 18,41 64,71 116,47l0 -15c-49,27 -98,-18 -96,-65z"/>
      </g>
     </g>
     <g>
      <g>
       <path class="fil3" d="M275 242c0,0 0,-1 0,-1 -2,-7 -8,-22 -21,-33 -2,-1 -3,-2 -4,-3l0 34c0,11 -2,31 -10,37 0,0 10,2 25,-8 2,1 11,8 27,7 -5,-2 -15,-11 -17,-33z"/>
      </g>
      <g>
       <path class="fil3" d="M310 171l-35 0 0 -64 14 0c-2,-7 -5,-14 -9,-20 0,0 -36,1 -38,-1 0,2 1,4 2,6 5,5 6,5 6,15l0 0 0 64c7,4 14,8 20,14 2,2 4,4 6,6l34 0c2,3 4,3 4,9 0,5 -3,12 -11,17 21,-2 29,-11 25,-38 -4,-19 12,-36 15,-41 -13,3 -27,18 -33,33z"/>
      </g>
      <g>
       <path class="fil3" d="M369 93c4,-19 -7,-33 -10,-34 0,4 -1,11 -3,18 -3,8 -8,9 -15,10l-25 0c1,1 1,3 2,4 2,6 3,11 6,16l12 0c8,0 10,1 13,3 4,3 5,8 8,17 4,10 12,14 17,14 -12,-22 -9,-35 -5,-48z"/>
      </g>
     </g>
    </g>
   </g>
  </g>
 </g>
</svg>
