<?xml version="1.0" encoding="UTF-8"?>
<!DOCTYPE svg PUBLIC "-//W3C//DTD SVG 1.1//EN" "http://www.w3.org/Graphics/SVG/1.1/DTD/svg11.dtd">
<!-- Creator: CorelDRAW X8 -->
<svg xmlns="http://www.w3.org/2000/svg" xml:space="preserve" width="100%" height="100%" version="1.1" style="shape-rendering:geometricPrecision; text-rendering:geometricPrecision; image-rendering:optimizeQuality; fill-rule:evenodd; clip-rule:evenodd"
viewBox="0 0 847 847"
 xmlns:xlink="http://www.w3.org/1999/xlink">
 <defs>
  <style type="text/css">
   <![CDATA[
    .fil2 {fill:#005C36;fill-rule:nonzero}
    .fil0 {fill:#8E122C;fill-rule:nonzero}
    .fil1 {fill:white;fill-rule:nonzero}
   ]]>
  </style>
 </defs>
 <g id="Camada_x0020_1">
  <metadata id="CorelCorpID_0Corel-Layer"/>
  <g id="_4374207520">
   <path class="fil0" d="M423 -2c-92,120 -215,165 -367,135 -9,299 113,538 367,716 255,-178 377,-417 367,-716 -152,30 -274,-15 -367,-135z"/>
   <path class="fil1" d="M423 10c-92,115 -211,159 -359,133 -7,290 113,522 359,696 247,-174 367,-406 360,-696 -148,26 -268,-18 -360,-133z"/>
   <path class="fil0" d="M423 62c-87,93 -196,133 -325,119 1,83 13,160 37,232l577 0c23,-72 36,-149 37,-232 -129,14 -238,-26 -326,-119z"/>
   <path class="fil2" d="M481 433c-50,-10 -106,-10 -165,0l-175 0c51,141 145,263 282,365 138,-102 232,-224 282,-365l-224 0z"/>
   <path class="fil1" d="M507 249c-1,0 -1,0 -1,0 -4,6 -8,13 -10,21 2,1 5,1 7,2 1,4 0,9 -2,14 -23,59 -13,89 29,91 -31,-46 -18,-83 37,-111l-9 -20c-18,9 -35,10 -51,3z"/>
   <path class="fil1" d="M364 245c-34,12 -56,13 -68,4l-30 31c17,-5 26,7 28,34 12,-6 24,-11 37,-15 0,-5 0,-11 -1,-16 37,-19 81,-25 133,-18 -1,-5 0,-9 1,-13 1,-4 2,-7 4,-10 -44,-7 -78,-5 -104,3z"/>
   <path class="fil1" d="M359 173l-29 29c21,-3 33,10 36,39 12,-3 24,-6 39,-6 -1,-10 -1,-19 -2,-27 28,-2 52,-9 73,-20 8,9 19,16 33,20 -49,30 -56,60 -22,90 5,-48 28,-79 71,-91 -29,-16 -55,-33 -77,-50 -69,24 -109,29 -122,16z"/>
   <path class="fil1" d="M485 300c-3,-2 -6,-5 -8,-8 -23,-3 -46,-4 -67,-3 0,9 0,17 0,26 24,0 50,2 77,6 2,-8 4,-17 7,-26 -1,0 -2,-1 -3,-1 0,2 0,3 -1,4 0,1 0,2 -1,2 0,1 -1,1 -2,1 -1,0 -1,0 -2,-1z"/>
   <path class="fil1" d="M406 354l1 -19c0,-25 0,-48 -1,-69 -13,1 -26,3 -38,7 0,42 1,84 0,127 13,-1 26,-2 37,-3l1 -16 26 -4 5 4c-2,7 -4,13 -6,19 -28,-1 -61,2 -100,9 1,-25 2,-50 1,-76 -13,4 -26,11 -37,18 3,96 -8,174 -31,235l13 14c25,-5 44,3 57,25 4,-6 8,-13 12,-20 -10,-15 -22,-24 -39,-28 11,-44 19,-91 22,-139 38,-7 69,-9 92,-9 3,0 5,0 8,0 1,25 15,42 42,52l0 -10c-13,-13 -20,-26 -21,-40 5,1 10,2 15,3 10,2 18,8 22,15 1,-16 1,-32 0,-48 -8,1 -18,1 -30,1 5,-8 11,-15 19,-23l-13 -26c-12,1 -25,3 -39,4 -10,2 -16,0 -18,-3z"/>
   <path class="fil1" d="M405 433c-11,0 -24,1 -37,2 -1,28 -2,56 -3,84 7,0 13,1 20,1 6,0 12,0 18,0l2 -87z"/>
   <path class="fil1" d="M365 320c0,-8 0,-17 0,-26 -74,14 -131,55 -173,122 -5,8 -10,15 -16,21 7,2 13,7 17,14 21,38 49,66 83,83 3,-10 5,-21 7,-33 -26,-13 -43,-32 -53,-57 -4,-11 -3,-21 3,-31 29,-51 73,-81 132,-93z"/>
   <path class="fil1" d="M323 516c-2,11 -4,23 -6,34 20,5 41,7 64,7 41,0 78,-6 111,-20 32,-13 63,-18 94,-14 1,-19 8,-33 21,-42 13,-8 23,-6 30,7l17 0c-9,-10 -5,-21 14,-34 -30,0 -48,-4 -56,-13 -63,57 -139,84 -227,82 -23,0 -43,-3 -62,-7z"/>
   <path class="fil1" d="M403 560c-7,0 -15,1 -22,1 -6,0 -13,0 -19,-1 -5,31 -15,56 -31,74l12 17c17,-20 40,-23 69,-7 30,16 60,20 92,10 -63,-9 -97,-40 -101,-94z"/>
   <path class="fil1" d="M361 641c-5,2 -9,6 -13,10 12,16 24,23 35,21 -9,-10 -17,-20 -22,-31z"/>
   <path class="fil1" d="M602 328l-10 -16c-23,2 -45,-1 -66,-8 -3,4 -5,8 -6,12 -2,4 -3,8 -3,13 20,8 32,20 36,38 5,22 26,32 62,30 10,-2 12,-8 7,-17 -6,-10 -13,-9 -22,2 -17,-2 -26,-11 -26,-26 0,-14 9,-24 28,-28z"/>
  </g>
 </g>
</svg>
