<?xml version="1.0" encoding="UTF-8"?>
<!DOCTYPE svg PUBLIC "-//W3C//DTD SVG 1.1//EN" "http://www.w3.org/Graphics/SVG/1.1/DTD/svg11.dtd">
<!-- Creator: CorelDRAW X8 -->
<svg xmlns="http://www.w3.org/2000/svg" xml:space="preserve" width="178.873mm" height="184.175mm" version="1.1" style="shape-rendering:geometricPrecision; text-rendering:geometricPrecision; image-rendering:optimizeQuality; fill-rule:evenodd; clip-rule:evenodd"
viewBox="0 0 17887 18418"
 xmlns:xlink="http://www.w3.org/1999/xlink">
 <defs>
  <style type="text/css">
   <![CDATA[
    .fil2 {fill:white}
    .fil1 {fill:#003896;fill-rule:nonzero}
    .fil3 {fill:#D12421;fill-rule:nonzero}
    .fil0 {fill:white;fill-rule:nonzero}
   ]]>
  </style>
 </defs>
 <g id="Camada_x0020_1">
  <metadata id="CorelCorpID_0Corel-Layer"/>
  <g id="_1227875216">
   <polygon class="fil0" points="17887,0 2,0 2,5248 3,5248 0,5248 8944,18417 17887,5248 "/>
   <polygon class="fil1" points="232,5371 232,5371 125,5211 125,123 17765,123 17765,5211 8944,18199 "/>
   <path class="fil2" d="M555 4863l16780 0 0 -4310 -16780 0 0 4310zm0 218l45 67 8344 12286 8391 -12356 -16780 0 0 3z"/>
   <polygon class="fil1" points="8637,15888 8637,5693 1712,5693 "/>
   <polygon class="fil3" points="9251,5693 9251,15889 16175,5693 "/>
   <polygon class="fil1" points="1203,3951 1203,1436 2499,1436 2499,1824 1733,1824 1733,2425 2463,2425 2463,2812 1733,2812 1733,3951 "/>
   <path class="fil1" d="M3295 2687c0,371 24,615 70,734 47,118 130,177 250,177 125,0 211,-57 258,-171 47,-115 71,-370 71,-765 0,-351 -24,-582 -70,-696 -47,-114 -131,-171 -252,-171 -124,0 -209,58 -256,174 -47,116 -71,356 -71,718zm327 1303c-116,0 -224,-15 -325,-46 -100,-31 -180,-73 -241,-126 -103,-90 -177,-220 -222,-391 -45,-170 -67,-424 -67,-762 0,-261 13,-466 41,-612 27,-147 72,-266 134,-358 62,-93 150,-165 267,-215 116,-50 253,-75 410,-75 120,0 230,15 330,47 100,31 182,74 245,130 99,88 170,209 213,364 42,155 63,385 63,688 0,316 -13,548 -40,695 -28,148 -74,269 -138,366 -62,93 -151,166 -268,218 -117,51 -251,77 -402,77z"/>
   <path class="fil1" d="M5337 2522l129 0c141,0 239,-27 295,-80 55,-54 82,-147 82,-280 0,-128 -25,-216 -75,-263 -50,-48 -147,-71 -291,-71l-140 0 0 694zm220 -1086c308,0 517,46 627,139 111,94 166,262 166,507 0,193 -28,337 -85,433 -56,96 -150,160 -282,193 150,30 253,84 307,159 55,76 82,222 82,438 0,13 -1,34 -3,63 -1,28 -2,49 -2,63 0,115 5,213 16,296 11,82 28,157 50,224l-547 0c-24,-82 -37,-248 -39,-498 -1,-85 -3,-151 -4,-198 -3,-125 -26,-213 -70,-264 -43,-51 -115,-77 -216,-77l-220 0 0 1037 -527 0 0 -2515 747 0z"/>
   <polygon class="fil1" points="7102,3951 7102,1848 6529,1848 6529,1436 8219,1436 8219,1848 7643,1848 7643,3951 "/>
   <path class="fil1" d="M8761 3004l537 0 -260 -1089 -277 1089zm768 947l-135 -559 -730 0 -133 559 -529 0 710 -2515 670 0 699 2515 -552 0z"/>
   <polygon class="fil1" points="10274,3951 10274,1436 10804,1436 10804,3508 11573,3508 11573,3951 "/>
   <polygon class="fil1" points="11773,3951 11773,1436 13132,1436 13132,1824 12303,1824 12303,2425 13066,2425 13066,2812 12303,2812 12303,3545 13163,3545 13163,3951 "/>
   <polygon class="fil1" points="13230,3951 13230,3518 14270,1841 13279,1841 13279,1436 14798,1436 14798,1884 13772,3538 14833,3538 14833,3951 "/>
   <path class="fil1" d="M15562 3004l538 0 -261 -1089 -277 1089zm768 947l-135 -559 -730 0 -133 559 -528 0 709 -2515 670 0 699 2515 -552 0z"/>
  </g>
 </g>
</svg>
