<?xml version="1.0" encoding="UTF-8"?>
<!DOCTYPE svg PUBLIC "-//W3C//DTD SVG 1.1//EN" "http://www.w3.org/Graphics/SVG/1.1/DTD/svg11.dtd">
<!-- Creator: CorelDRAW X8 -->
<svg xmlns="http://www.w3.org/2000/svg" xml:space="preserve" width="150mm" height="150mm" version="1.1" style="shape-rendering:geometricPrecision; text-rendering:geometricPrecision; image-rendering:optimizeQuality; fill-rule:evenodd; clip-rule:evenodd"
viewBox="0 0 15000 15000"
 xmlns:xlink="http://www.w3.org/1999/xlink">
 <defs>
  <style type="text/css">
   <![CDATA[
    .fil1 {fill:#FEFEFE}
    .fil0 {fill:#2D753E}
   ]]>
  </style>
 </defs>
 <g id="Camada_x0020_1">
  <metadata id="CorelCorpID_0Corel-Layer"/>
  <g id="Goias.eps">
   <path class="fil0" d="M7500 0c4131,0 7500,3369 7500,7500 0,4131 -3369,7500 -7500,7500 -4131,0 -7500,-3369 -7500,-7500 0,-4131 3369,-7500 7500,-7500z"/>
   <path class="fil1" d="M7500 319c3955,0 7181,3226 7181,7181 0,3955 -3226,7181 -7181,7181 -3955,0 -7181,-3226 -7181,-7181 0,-3955 3226,-7181 7181,-7181z"/>
   <path class="fil0" d="M7500 2793c1803,0 3374,1022 4164,2516l-1527 0c-631,-757 -1579,-1240 -2637,-1240 -1890,0 -3431,1541 -3431,3431 0,1890 1541,3431 3431,3431 1438,0 2674,-893 3183,-2152l-4460 0 0 -1279 5984 0c0,2593 -2114,4707 -4707,4707 -2593,0 -4707,-2114 -4707,-4707 0,-2593 2114,-4707 4707,-4707z"/>
   <path class="fil0" d="M4898 12564l-190 -96c19,-40 25,-74 18,-103 -7,-30 -25,-54 -54,-73 -39,-25 -83,-29 -132,-11 -50,17 -114,79 -192,184 81,-24 155,-14 223,30 77,50 123,122 140,216 17,94 -5,186 -65,279 -63,98 -143,158 -239,180 -96,22 -189,3 -279,-55 -97,-63 -152,-152 -166,-268 -13,-115 36,-259 147,-430 114,-176 229,-281 344,-317 115,-35 225,-19 328,49 73,47 120,106 141,178 21,72 13,150 -24,237zm-676 130c-39,59 -55,114 -49,165 6,50 27,86 63,109 34,22 71,28 111,16 39,-12 79,-48 118,-109 41,-62 58,-116 53,-160 -6,-45 -27,-80 -64,-103 -35,-23 -74,-29 -116,-17 -42,12 -81,45 -116,99zm696 472l92 -198 390 181 -93 199 -389 -182zm982 663l63 -221 -449 -129 52 -184 677 -561 177 51 -200 696 136 39 -53 185 -136 -39 -63 221 -204 -58zm116 -406l108 -375 -360 302 252 73zm623 235l31 -217 425 60 -30 217 -426 -60zm1242 363l-218 8 -29 -825c-77,77 -170,136 -277,175l-7 -198c57,-21 117,-58 183,-113 65,-54 109,-117 131,-187l177 -6 40 1146zm512 -315l203 -63c14,41 33,70 58,86 26,16 56,21 91,14 45,-9 78,-37 102,-83 23,-47 26,-136 10,-266 -42,73 -104,118 -185,134 -88,17 -170,-2 -248,-58 -77,-56 -126,-138 -147,-247 -22,-114 -7,-212 47,-295 55,-83 134,-134 238,-154 114,-23 216,3 306,77 90,74 154,211 194,413 39,205 30,360 -28,466 -58,105 -148,170 -270,194 -88,17 -163,7 -226,-29 -64,-36 -112,-99 -145,-189zm395 -564c-14,-70 -40,-120 -79,-152 -40,-32 -80,-44 -122,-36 -40,7 -70,29 -90,66 -20,36 -23,90 -9,162 14,72 38,123 74,151 35,28 74,38 117,30 41,-8 72,-31 95,-69 21,-38 26,-89 14,-152zm1147 411l-86 -213 -434 175 -72 -177 188 -859 171 -68 271 671 132 -53 72 179 -132 53 87 213 -197 79zm-158 -391l-146 -362 -98 460 244 -98zm615 -144l168 -131c34,43 70,69 111,78 40,9 78,3 114,-19 38,-23 62,-57 71,-103 9,-45 -2,-92 -32,-142 -28,-48 -63,-77 -105,-90 -42,-12 -81,-7 -118,15 -24,14 -50,36 -77,65l-72 -165c52,-29 84,-63 97,-103 12,-39 7,-78 -16,-117 -20,-33 -45,-53 -77,-61 -31,-8 -63,-2 -96,17 -32,20 -52,47 -62,83 -9,36 -3,77 17,122l-190 75c-24,-66 -34,-125 -31,-175 3,-50 20,-98 51,-144 32,-46 74,-86 128,-118 92,-56 184,-71 275,-45 74,20 130,61 166,121 52,86 46,183 -17,291 63,-22 124,-22 183,0 59,21 106,62 142,121 51,86 64,178 38,276 -27,99 -87,176 -180,232 -89,53 -178,72 -267,56 -89,-16 -163,-62 -221,-139zm-8242 -3340l-180 69 -178 -464 425 -163c61,28 124,79 190,151 66,73 116,154 150,241 43,112 57,218 42,319 -15,101 -58,189 -129,264 -71,75 -158,132 -260,172 -111,42 -219,57 -323,43 -104,-13 -197,-56 -277,-128 -62,-55 -112,-133 -151,-235 -51,-132 -63,-246 -36,-342 27,-95 85,-173 175,-232l122 199c-47,35 -77,79 -92,132 -14,53 -9,111 15,173 36,94 94,157 175,190 81,33 180,26 298,-19 126,-48 210,-113 252,-193 42,-81 45,-167 10,-258 -17,-45 -43,-87 -78,-125 -36,-39 -72,-70 -110,-92l-135 51 95 247zm-443 -887c-116,15 -215,9 -298,-16 -61,-18 -117,-47 -168,-86 -51,-39 -92,-84 -120,-134 -39,-67 -64,-147 -75,-239 -20,-167 15,-307 106,-420 91,-113 229,-181 414,-204 183,-22 332,10 448,97 116,87 184,213 204,380 21,168 -14,309 -105,421 -90,112 -226,179 -406,201zm-37 -235c128,-15 222,-57 281,-124 59,-68 83,-147 71,-238 -11,-92 -53,-162 -126,-213 -73,-50 -175,-67 -306,-51 -130,16 -224,56 -281,121 -56,65 -79,144 -68,239 12,94 54,166 125,216 72,50 173,67 304,50zm483 -1293l-1138 -100 20 -230 1138 100 -20 230zm291 -1647l-56 245 -275 39 -103 444 232 151 -55 238 -1013 -690 55 -238 1215 -189zm-535 312l-449 58 378 246 71 -304zm330 -713l86 -208c73,23 135,25 185,5 51,-20 93,-61 126,-123 34,-65 47,-122 37,-170 -10,-48 -34,-82 -71,-102 -24,-12 -48,-16 -72,-11 -24,5 -52,22 -83,50 -21,20 -64,66 -130,140 -85,95 -159,153 -222,176 -89,33 -173,28 -253,-15 -51,-27 -91,-67 -121,-120 -29,-53 -40,-113 -35,-180 6,-67 30,-140 71,-217 67,-127 145,-208 235,-242 90,-34 181,-29 276,17l-100 209c-56,-19 -103,-20 -141,-4 -38,17 -72,54 -103,111 -31,60 -44,112 -37,159 4,29 19,51 45,65 24,13 50,14 77,3 36,-15 91,-65 167,-152 76,-86 140,-147 190,-181 50,-34 104,-53 162,-57 57,-4 118,11 182,45 57,31 103,76 136,135 34,59 47,124 40,196 -6,72 -33,151 -79,239 -68,127 -150,210 -245,247 -95,37 -203,32 -323,-15zm1302 -1338l-779 -835 619 -578 132 142 -451 420 173 185 419 -391 132 141 -420 391 212 227 467 -435 131 141 -635 592zm721 -1119l186 -128c48,59 99,94 152,105 53,11 111,-1 172,-35 65,-36 106,-76 124,-122 18,-46 16,-87 -4,-124 -13,-24 -31,-40 -54,-49 -23,-9 -56,-10 -97,-3 -28,5 -90,20 -186,46 -123,33 -217,42 -282,27 -92,-20 -159,-71 -203,-150 -29,-50 -40,-106 -36,-166 4,-61 27,-117 68,-171 42,-53 101,-101 178,-143 125,-70 235,-95 329,-75 93,20 167,75 221,165l-196 121c-37,-47 -77,-74 -117,-80 -41,-7 -90,5 -147,37 -58,32 -98,70 -117,112 -13,27 -12,54 2,80 13,23 34,38 64,44 37,7 111,-5 222,-36 111,-31 197,-47 258,-49 60,-1 116,12 166,41 51,28 93,73 128,136 32,58 46,120 42,188 -4,67 -29,129 -73,186 -45,57 -111,109 -198,157 -126,70 -239,95 -339,74 -100,-21 -188,-84 -263,-188zm1337 -286l-315 -1098 356 -102c135,-39 224,-58 268,-59 68,-1 131,19 189,62 58,43 100,108 125,196 19,67 23,127 12,181 -11,52 -32,97 -62,134 -30,37 -64,66 -100,85 -50,26 -125,53 -226,82l-144 42 119 414 -222 63zm-40 -976l89 312 122 -35c87,-25 144,-47 170,-67 26,-20 44,-45 54,-74 10,-29 10,-60 0,-93 -11,-40 -32,-69 -63,-88 -31,-19 -65,-27 -103,-24 -28,3 -82,16 -162,39l-107 30zm1211 108c-2,-116 14,-214 47,-294 25,-59 59,-111 104,-158 44,-47 92,-82 145,-106 71,-31 153,-48 246,-49 168,-3 304,47 407,149 102,103 155,247 159,433 3,185 -45,330 -143,435 -99,107 -232,161 -399,164 -170,3 -306,-47 -408,-149 -102,-101 -155,-243 -158,-425zm237 -12c3,129 34,227 95,292 61,66 137,98 229,97 92,-2 167,-36 225,-104 58,-67 85,-167 83,-299 -2,-131 -33,-228 -91,-292 -59,-63 -135,-94 -230,-92 -96,2 -172,35 -228,102 -58,66 -85,165 -83,296zm1250 602l237 -1118 475 101c119,25 204,54 254,86 50,31 85,76 107,134 22,59 26,121 11,187 -17,84 -57,147 -118,192 -61,44 -142,63 -243,56 43,39 77,79 101,119 25,41 55,111 90,209l90 247 -270 -57 -111 -278c-39,-99 -67,-162 -84,-190 -17,-27 -36,-47 -58,-61 -22,-13 -59,-25 -111,-36l-46 -10 -99 466 -225 -47zm362 -597l167 35c108,23 177,33 206,30 29,-4 53,-15 73,-34 20,-19 34,-46 41,-79 8,-38 4,-70 -11,-98 -15,-27 -40,-48 -76,-62 -17,-6 -72,-19 -163,-38l-176 -38 -61 284zm1151 1061l431 -846 -302 -154 88 -172 808 412 -87 172 -302 -153 -431 845 -205 -104zm797 444l703 -900 667 522 -119 152 -485 -379 -156 199 452 353 -119 152 -452 -353 -191 245 503 393 -119 151 -684 -535zm1988 1591l63 226c-123,40 -232,42 -326,8 -94,-34 -175,-102 -242,-205 -82,-127 -107,-260 -73,-398 34,-138 126,-256 277,-354 159,-104 310,-143 451,-118 142,25 256,105 344,239 76,117 103,235 81,353 -13,70 -50,141 -113,212l-170 -161c43,-44 66,-93 72,-148 5,-54 -9,-107 -42,-159 -46,-71 -109,-112 -189,-123 -80,-11 -176,20 -291,95 -121,78 -193,156 -216,233 -23,77 -12,150 33,220 34,51 79,85 136,101 56,16 125,9 205,-21zm-84 783l1071 -369 75 219 -889 306 186 542 -182 63 -261 -761zm1459 1016l20 230 -616 54c-98,8 -161,17 -189,25 -46,14 -81,41 -106,80 -25,40 -35,92 -29,156 5,65 23,113 52,144 30,30 65,48 104,51 39,3 104,1 194,-7l630 -55 20 230 -598 52c-137,12 -234,14 -291,7 -58,-8 -107,-27 -149,-57 -42,-30 -77,-71 -105,-125 -27,-54 -45,-126 -53,-216 -10,-109 -5,-192 16,-251 20,-58 49,-105 86,-141 37,-36 77,-62 121,-76 63,-21 159,-37 286,-48l607 -53zm45 1620l-72 451c-14,89 -28,155 -43,198 -14,43 -36,80 -65,110 -29,31 -65,55 -108,72 -43,17 -88,22 -137,14 -53,-8 -99,-30 -139,-66 -40,-35 -66,-79 -81,-131 -31,65 -73,113 -127,142 -54,29 -114,39 -179,28 -51,-8 -100,-28 -144,-59 -45,-32 -78,-70 -101,-116 -22,-46 -32,-100 -29,-161 2,-39 14,-131 36,-276l60 -384 1129 178zm-224 198l-261 -41 -24 149c-14,89 -21,144 -22,166 -2,40 7,73 26,99 18,26 46,41 83,47 34,6 64,1 89,-15 25,-16 43,-43 53,-80 7,-22 18,-87 35,-194l21 -131zm-449 -71l-302 -48 -33 211c-13,82 -19,135 -18,158 1,34 12,64 32,89 21,25 51,41 91,48 34,5 64,1 90,-11 26,-13 47,-34 63,-63 16,-30 32,-96 48,-200l29 -184zm-721 1010l1043 464 -344 774 -177 -79 251 -563 -231 -103 -234 524 -176 -78 234 -524 -284 -126 -260 583 -176 -79 354 -793zm-697 1830c-239,0 -434,195 -434,434 0,240 195,435 434,435 239,0 434,-195 434,-435 0,-239 -195,-434 -434,-434zm-8768 0c239,0 434,195 434,434 0,240 -195,435 -434,435 -239,0 -434,-195 -434,-435 0,-239 195,-434 434,-434zm-2073 -5100l60 -203c-90,-39 -105,-153 -107,-228l-139 49c-29,230 89,316 186,382z"/>
  </g>
 </g>
</svg>
