<?xml version="1.0" encoding="UTF-8"?>
<!DOCTYPE svg PUBLIC "-//W3C//DTD SVG 1.1//EN" "http://www.w3.org/Graphics/SVG/1.1/DTD/svg11.dtd">
<!-- Creator: CorelDRAW X8 -->
<svg xmlns="http://www.w3.org/2000/svg" xml:space="preserve" width="100%" height="100%" version="1.1" style="shape-rendering:geometricPrecision; text-rendering:geometricPrecision; image-rendering:optimizeQuality; fill-rule:evenodd; clip-rule:evenodd"
viewBox="0 0 847 847"
 xmlns:xlink="http://www.w3.org/1999/xlink">
 <defs>
  <style type="text/css">
   <![CDATA[
    .fil0 {fill:black;fill-rule:nonzero}
    .fil2 {fill:#009AE3;fill-rule:nonzero}
    .fil1 {fill:white;fill-rule:nonzero}
   ]]>
  </style>
 </defs>
 <g id="Camada_x0020_1">
  <metadata id="CorelCorpID_0Corel-Layer"/>
  <g id="_4374175104">
   <path class="fil0" d="M423 -2c235,0 426,191 426,425 0,235 -191,426 -426,426 -234,0 -425,-191 -425,-426 0,-234 191,-425 425,-425l0 0z"/>
   <path class="fil1" d="M423 12c227,0 411,185 411,411 0,227 -184,411 -411,411 -226,0 -411,-184 -411,-411 0,-226 185,-411 411,-411l0 0z"/>
   <path class="fil0" d="M735 203c45,62 71,138 71,220 0,82 -26,159 -71,221 -71,-70 -184,-116 -312,-116 -127,0 -240,46 -312,116 -44,-62 -70,-139 -70,-221 0,-82 26,-158 70,-220 72,70 185,116 312,116 128,0 241,-46 312,-116l0 0z"/>
   <path class="fil2" d="M423 806c38,0 74,-6 109,-16 -21,-22 -62,-37 -109,-37 -47,0 -88,15 -108,37 34,10 71,16 108,16l0 0zm132 -24c66,-24 123,-66 166,-119 -37,-37 -87,-67 -145,-87 -17,72 -45,131 -79,166 25,9 46,23 58,40l0 0zm-284 -206c-58,19 -108,50 -145,87 43,53 100,95 165,119 13,-17 34,-31 59,-40 -35,-35 -62,-94 -79,-166l0 0zm152 -535c38,0 74,5 109,16 -21,22 -62,37 -109,37 -47,0 -88,-15 -108,-37 34,-11 71,-16 108,-16l0 0zm132 23c66,25 123,66 166,120 -37,37 -87,67 -145,87 -17,-72 -45,-131 -79,-166 25,-9 46,-24 58,-41l0 0zm-284 207c-58,-20 -108,-50 -145,-87 43,-54 100,-95 165,-120 13,17 34,32 59,41 -35,35 -62,94 -79,166l0 0z"/>
   <path class="fil0" d="M331 584l38 0 0 7 -29 0 0 18 21 0 0 8 -21 0 0 28 -9 0 0 -61zm55 33l0 21 12 0 0 0c5,0 8,-1 11,-3 2,-1 3,-4 3,-8 0,-3 -1,-6 -4,-8 -2,-1 -6,-2 -10,-2l-12 0 0 0zm0 -26l0 18 12 0 0 0c4,0 7,0 9,-2 2,-2 3,-4 3,-7 0,-3 -1,-5 -3,-7 -2,-1 -6,-2 -10,-2l-11 0 0 0zm-8 -7l19 0 0 0c7,0 13,1 17,4 3,2 5,6 5,11 0,4 0,6 -2,9 -2,2 -4,4 -7,5 3,1 6,3 8,6 2,2 3,6 3,9 0,6 -2,10 -6,13 -4,3 -10,4 -17,4l-20 0 0 -61zm64 7l0 20 10 0 0 0c5,0 8,0 10,-2 2,-1 3,-4 3,-8 0,-3 -1,-6 -3,-8 -2,-1 -6,-2 -11,-2l-9 0 0 0zm-9 -7l20 0 0 0c7,0 12,1 16,4 4,3 5,7 5,13 0,6 -1,10 -5,13 -3,3 -8,5 -15,5l-12 0 0 26 -9 0 0 -61zm65 7l-9 30 18 0 -9 -30 0 0 0 0zm-6 -7l12 0 19 61 -9 0 -5 -16 -22 0 -5 16 -9 0 19 -61 0 0zm-145 -384l6 0 0 56 10 0 0 7 -28 0 0 -7 10 0 0 -47 -11 1 0 -5c2,-1 4,-1 7,-2 2,-1 4,-2 6,-3l0 0zm34 60l4 -7 0 0c2,1 3,2 5,3 1,0 2,0 3,1 1,0 2,0 3,0 5,0 9,-2 12,-6 2,-2 3,-5 4,-8 0,-2 1,-6 1,-9 -2,2 -5,4 -7,5 -3,1 -5,1 -8,1 -6,0 -10,-1 -14,-5 -3,-4 -5,-9 -5,-14 0,-7 2,-11 6,-15 3,-4 8,-6 15,-6 7,0 12,3 16,8 4,4 6,12 6,21 0,11 -3,19 -7,26 -5,6 -11,9 -19,9 -3,0 -6,0 -8,-1 -3,-1 -5,-2 -7,-3l0 0zm32 -36c0,-3 0,-5 -1,-7 -1,-2 -2,-4 -3,-5 -2,-3 -5,-5 -9,-5 -4,0 -7,2 -9,4 -2,2 -4,6 -4,9 0,4 2,8 4,10 2,2 5,4 9,4 2,0 5,-1 7,-3 3,-2 5,-4 6,-7l0 0zm40 -17c-5,0 -8,2 -10,7 -3,4 -4,10 -4,18 0,8 1,14 4,19 2,4 5,6 10,6 4,0 7,-2 10,-6 2,-5 3,-11 3,-19 0,-8 -1,-14 -3,-18 -3,-5 -6,-7 -10,-7l0 0zm0 -7c7,0 12,3 16,8 4,6 6,14 6,24 0,11 -2,19 -6,24 -4,6 -9,8 -16,8 -8,0 -13,-2 -17,-8 -4,-5 -5,-13 -5,-24 0,-10 1,-18 5,-24 4,-5 9,-8 17,-8l0 0zm60 30c3,1 6,3 8,6 1,1 2,2 2,4 1,2 1,4 1,6 0,5 -2,10 -6,13 -3,4 -9,5 -15,5 -5,0 -9,-1 -13,-3 -4,-2 -7,-5 -9,-9l0 0 7 -5 0 0c2,3 4,6 6,7 3,2 6,3 9,3 4,0 7,-1 9,-3 2,-2 3,-5 3,-9 0,-4 -1,-7 -4,-8 -3,-2 -8,-3 -14,-3l-3 0 0 -8 2 0 0 0c1,0 1,0 1,0 6,0 10,0 13,-2 2,-2 3,-5 3,-8 0,-3 0,-5 -2,-6 -2,-2 -5,-3 -8,-3 -3,0 -5,1 -7,2 -2,1 -4,3 -6,6l0 0 -6 -5 0 0c2,-3 5,-6 8,-7 4,-2 7,-3 12,-3 5,0 10,1 13,4 3,3 5,7 5,12 0,3 -1,6 -2,8 -2,2 -4,4 -7,6l0 0z"/>
   <g>
    <path class="fil0" d="M369 585l-38 0 0 -2 38 0 1 1 -1 1zm0 -2l1 0 0 1 -1 -1zm-1 8l0 -7 2 0 0 7 -1 1 -1 -1zm2 0l0 1 -1 0 1 -1zm-30 -1l29 0 0 2 -29 0 -1 -1 1 -1zm-1 1l0 -1 1 0 -1 1zm0 18l0 -18 2 0 0 18 -1 1 -1 -1zm1 1l-1 0 0 -1 1 1zm21 0l-21 0 0 -2 21 0 1 1 -1 1zm0 -2l1 0 0 1 -1 -1zm-1 9l0 -8 2 0 0 8 -1 1 -1 -1zm2 0l0 1 -1 0 1 -1zm-22 -1l21 0 0 2 -21 0 -1 -1 1 -1zm-1 1l0 -1 1 0 -1 1zm0 28l0 -28 2 0 0 28 -1 1 -1 -1zm2 0l0 1 -1 0 1 -1zm-10 -1l9 0 0 2 -9 0 -1 -1 1 -1zm0 2l-1 0 0 -1 1 1zm1 -62l0 61 -2 0 0 -61 1 -1 1 1zm-2 0l0 -1 1 0 -1 1zm55 54l0 -21 2 0 0 21 -1 1 -1 -1zm1 1l-1 0 0 -1 1 1zm12 0l-12 0 0 -2 12 0 0 0 0 2zm0 -1l0 0 0 0 0 0 0 -1 0 1zm10 -3l1 1 0 0 0 0 0 0 -1 1 0 0 0 0 0 0 -1 0 0 0 0 0 -1 1 0 0 0 0 -1 0 0 0 0 0 -1 0 0 0 0 0 -1 0 0 0 -1 1 0 0 0 0 -1 0 0 0 -1 0 0 0 0 0 -1 0 0 0 -1 0 0 0 0 -2 0 0 1 0 0 0 0 0 1 0 0 0 1 0 0 0 0 0 1 0 0 0 1 0 0 0 0 -1 1 0 0 0 0 0 1 0 0 0 0 0 0 0 1 0 0 0 0 0 0 -1 1 0 0 0 0 0 0 0 1 0 0 0 0 0 0 0zm1 1l0 0 0 0 0 0zm2 -9l2 0 0 0 0 1 0 0 0 0 0 1 0 0 0 0 0 1 0 0 0 0 0 1 -1 0 0 0 0 1 0 0 0 0 0 0 0 1 0 0 0 0 -1 0 0 1 0 0 0 0 0 0 0 1 -1 0 0 0 0 0 0 1 0 0 -1 0 0 0 -1 -1 0 -1 0 0 1 0 0 0 0 0 0 0 0 -1 0 0 0 0 1 0 0 0 0 0 0 -1 0 0 0 0 0 0 0 -1 0 0 0 0 1 0 0 -1 0 0 0 0 0 0 0 -1 0 0 0 0 0 0 0 -1 0 0 0 0 0 -1 0 0zm-3 -7l1 -1 0 0 0 0 0 0 1 0 0 0 0 1 0 0 0 0 1 0 0 1 0 0 0 0 0 0 1 1 0 0 0 0 0 0 0 1 0 0 0 0 0 0 0 1 1 0 0 0 0 1 0 0 0 0 0 1 0 0 0 0 0 1 0 0 0 0 -2 0 0 0 0 0 0 -1 0 0 0 0 0 0 0 -1 0 0 0 0 0 0 0 -1 0 0 -1 0 0 0 0 -1 0 0 0 0 0 0 0 -1 0 0 0 0 -1 0 0 0 0 -1 0 0 0 0 0 0 0 0 -1 0 0 -1 0 0 0 0 0 0zm1 -1l0 0 0 0 0 0zm-11 -1l0 -2 0 0 0 0 1 0 0 0 1 0 0 0 0 0 1 0 0 0 1 0 0 0 0 0 1 0 0 0 0 0 1 0 0 0 1 0 0 1 0 0 1 0 0 0 0 0 0 0 1 0 0 0 0 1 1 0 0 0 0 0 0 0 1 0 0 1 -1 1 0 0 -1 0 0 0 0 0 0 -1 -1 0 0 0 0 0 0 0 -1 0 0 0 0 0 0 0 -1 -1 0 0 0 0 -1 0 0 0 0 0 -1 0 0 0 0 0 -1 0 0 0 0 0 -1 0 0 0 0 0 -1 0 0 0 -1 0 0 0 0 0zm-12 -2l12 0 0 2 -12 0 -1 -1 1 -1zm-1 1l0 -1 1 0 -1 1zm1 0l0 0 0 0 0 0 1 0 -1 0zm-1 0l0 -1 1 0 -1 1zm0 -8l0 -18 2 0 0 18 -1 1 -1 -1zm1 1l-1 0 0 -1 1 1zm12 0l-12 0 0 -2 12 0 0 0 0 2zm0 -1l0 0 0 0 0 0 0 -1 0 1zm9 -3l1 2 0 0 0 0 -1 0 0 0 0 0 0 1 -1 0 0 0 0 0 0 0 -1 0 0 0 0 0 -1 0 0 1 0 0 0 0 -1 0 0 0 0 0 -1 0 0 0 0 0 -1 0 0 0 0 0 -1 0 0 0 0 0 -1 0 0 0 -1 0 0 0 0 -2 0 0 1 0 0 0 0 0 1 0 0 0 0 0 1 0 0 0 0 0 1 0 0 0 0 0 1 0 0 0 0 0 0 0 1 0 0 0 0 0 0 -1 1 0 0 0 0 0 0 0 0 0 1 0 0 0 0 0 0 -1 0 0 1 0 0 0zm1 2l0 0 0 0 0 0zm1 -8l2 0 0 0 0 0 0 1 0 0 0 0 0 0 0 1 0 0 0 0 0 1 0 0 0 0 0 0 0 1 0 0 0 0 -1 0 0 1 0 0 0 0 0 0 0 1 0 0 0 0 -1 0 0 0 0 1 0 0 0 0 -1 0 0 0 0 1 0 0 -1 -2 0 0 0 0 0 0 0 0 0 0 1 -1 0 0 0 0 0 0 0 0 0 0 0 -1 0 0 1 0 0 0 0 0 0 -1 0 0 0 0 0 0 0 0 0 -1 0 0 0 0 0 0 0 -1 0 0 0 0 0 0 0 -1 0 0 0 0 0 0zm-2 -6l1 -2 0 0 0 1 0 0 0 0 0 0 1 0 0 0 0 1 0 0 0 0 1 0 0 0 0 1 0 0 0 0 0 0 0 1 1 0 0 0 0 0 0 1 0 0 0 0 0 0 0 1 0 0 0 0 0 0 0 1 0 0 0 0 0 1 0 0 -2 0 0 0 0 -1 0 0 0 0 0 0 0 -1 0 0 0 0 0 0 0 0 0 -1 0 0 0 0 0 0 0 0 0 -1 0 0 0 0 -1 0 0 0 0 0 0 -1 0 0 0 0 0 0 0 0 -1 0 0 -1 0 0 0 0 0 0 0 0 0 0zm0 0l0 0 0 0 0 0zm-10 -2l0 -2 0 0 0 0 1 0 0 0 0 0 1 0 0 0 1 0 0 0 0 0 1 0 0 0 1 0 0 0 0 1 1 0 0 0 0 0 1 0 0 0 0 0 1 0 0 0 0 0 1 0 0 0 0 1 0 0 1 0 0 0 0 0 0 0 1 0 -1 2 -1 0 0 0 0 0 0 0 0 -1 -1 0 0 0 0 0 0 0 -1 0 0 0 0 0 0 0 -1 0 0 0 0 0 -1 -1 0 0 0 0 -1 0 0 0 0 0 -1 0 0 0 0 0 -1 0 0 0 -1 0 0 0 -1 0 0 0 0 0 0 0zm-11 -2l11 0 0 2 -11 0 -1 -1 1 -1zm-1 1l0 -1 1 0 -1 1zm1 0l0 0 0 0 0 0 1 0 -1 0zm-1 0l0 -1 1 0 -1 1zm12 -6l-19 0 0 -2 19 0 0 0 0 2zm0 -1l0 0 0 0 0 0 0 -1 0 1zm17 3l-1 1 0 0 0 0 -1 0 0 0 0 0 -1 -1 0 0 0 0 -1 0 0 0 -1 -1 0 0 -1 0 0 0 -1 0 0 0 -1 0 0 0 -1 -1 0 0 -1 0 0 0 -1 0 0 0 -1 0 -1 0 0 0 -1 0 0 0 -1 0 -1 0 0 0 -1 0 0 -2 1 0 0 0 1 0 1 0 0 0 1 0 1 0 0 0 1 0 0 0 1 0 1 0 0 0 1 1 0 0 1 0 0 0 1 0 0 0 1 0 0 1 1 0 0 0 1 0 0 0 1 0 0 1 1 0 0 0 0 0 1 1 0 0 0 0zm0 0l0 0 -5 -4 5 4zm6 12l-2 0 0 0 0 0 0 -1 0 0 0 -1 0 0 0 0 0 -1 0 0 0 -1 0 0 0 0 0 -1 0 0 -1 0 0 -1 0 0 0 0 0 -1 0 0 -1 0 0 -1 0 0 0 0 -1 -1 0 0 0 0 0 0 -1 -1 0 0 0 0 -1 0 0 -1 1 -1 1 0 0 0 0 1 1 0 0 0 0 1 1 0 0 0 0 1 0 0 1 0 0 1 0 0 0 0 1 1 0 0 0 0 0 1 0 0 0 1 1 0 0 1 0 0 0 0 0 1 0 0 0 1 0 0 0 1 0 0 0 1 0 0 0 0zm-2 9l-2 -1 0 0 0 0 0 0 1 -1 0 0 0 0 0 0 0 0 0 -1 0 0 0 0 0 0 1 0 0 -1 0 0 0 0 0 0 0 -1 0 0 0 0 0 0 0 -1 0 0 0 0 0 0 0 -1 0 0 0 0 0 -1 0 0 0 0 0 0 0 -1 2 0 0 1 0 0 0 0 0 1 0 0 0 0 0 1 0 0 0 0 0 0 0 1 0 0 0 0 0 1 0 0 0 0 0 0 -1 1 0 0 0 0 0 0 0 1 0 0 0 0 0 1 0 0 -1 0 0 0 0 0 0 1 0 0 0 0 0 0zm-2 -1l0 0 0 0 0 0zm-6 5l-1 2 0 -2 1 0 0 0 0 0 0 0 1 -1 0 0 0 0 1 0 0 0 0 0 0 0 1 -1 0 0 0 0 0 0 0 0 1 0 0 0 0 -1 0 0 0 0 1 0 0 0 0 0 0 -1 0 0 0 0 1 0 0 0 0 -1 0 0 0 0 2 1 0 0 -1 1 0 0 0 0 0 0 0 0 0 1 -1 0 0 0 0 0 0 0 -1 1 0 0 0 0 0 0 0 0 -1 1 0 0 0 0 0 0 -1 0 0 0 0 1 -1 0 0 0 0 0 0 0 -1 0 0 0 0 1 -1 0 0 0 0 -2zm9 6l-2 1 0 0 0 0 0 0 0 0 0 0 -1 -1 0 0 0 0 0 0 0 0 -1 -1 0 0 0 0 0 0 0 0 -1 -1 0 0 0 0 0 0 -1 0 0 0 0 -1 -1 0 0 0 0 0 0 0 -1 0 0 0 0 -1 -1 0 0 0 0 0 -1 0 1 -2 0 0 1 0 0 0 0 1 1 0 0 0 0 0 1 0 0 0 0 1 1 0 0 0 0 0 1 0 0 0 0 1 0 0 1 0 0 0 0 0 0 1 1 0 0 0 0 0 0 1 1 0 0 0 0 0 0 1 0 0 1 0 0 0 0 0zm3 10l-2 0 0 0 0 0 0 0 0 -1 0 0 0 0 0 -1 0 0 0 0 0 0 0 -1 0 0 0 0 0 -1 -1 0 0 0 0 -1 0 0 0 0 0 0 0 -1 0 0 0 0 0 0 0 -1 -1 0 0 0 0 0 0 -1 0 0 0 0 0 0 -1 -1 2 -1 0 1 0 0 0 0 1 0 0 1 0 0 0 0 0 1 0 0 0 0 1 0 0 1 0 0 0 0 0 1 0 0 0 0 0 1 0 0 0 0 1 1 0 0 0 0 0 1 0 0 0 0 0 1 0 0 0 0 0 1 0 0 0 0 0 0zm-6 14l-1 -2 0 0 0 0 0 0 1 0 0 -1 0 0 0 0 1 -1 0 0 0 0 0 -1 1 0 0 0 0 -1 0 0 0 0 1 -1 0 0 0 0 0 -1 0 0 0 -1 0 0 1 0 0 -1 0 0 0 -1 0 0 0 -1 0 0 0 -1 0 0 0 -1 2 0 0 1 0 0 0 1 0 1 0 0 0 1 0 0 0 1 -1 0 0 1 0 0 0 0 0 1 0 0 0 1 -1 0 0 1 0 0 0 0 -1 1 0 0 0 1 0 0 -1 0 0 1 0 0 -1 0 0 1 0 0 -1 0 0 1 0 0 0 0zm-18 4l0 -2 0 0 0 0 1 0 1 0 1 0 0 0 1 0 0 0 1 0 1 0 0 0 1 0 0 0 1 0 1 0 0 -1 1 0 0 0 1 0 0 0 1 0 0 0 1 -1 0 0 0 0 1 0 0 0 1 -1 0 0 1 0 0 0 0 0 1 -1 1 2 -1 0 0 0 0 1 -1 0 0 0 -1 0 0 1 -1 0 0 0 -1 0 0 0 -1 1 0 0 -1 0 0 0 -1 0 0 0 -1 0 -1 1 0 0 -1 0 0 0 -1 0 -1 0 0 0 -1 0 -1 0 0 0 -1 0 -1 0 -1 0 0 0 0 0zm-20 -2l20 0 0 2 -20 0 -1 -1 1 -1zm0 2l-1 0 0 -1 1 1zm1 -62l0 61 -2 0 0 -61 1 -1 1 1zm-2 0l0 -1 1 0 -1 1zm64 27l0 -20 2 0 0 20 -1 1 -1 -1zm1 1l-1 0 0 -1 1 1zm10 0l-10 0 0 -2 10 0 0 0 0 2zm0 -1l0 0 0 0 0 0 0 -1 0 1zm10 -3l1 2 0 0 0 0 -1 0 0 0 0 0 0 1 -1 0 0 0 0 0 -1 0 0 0 0 0 0 0 -1 1 0 0 0 0 -1 0 0 0 -1 0 0 0 0 0 -1 0 0 0 0 0 -1 0 0 0 -1 0 0 0 -1 0 0 0 0 0 -1 0 0 0 0 -2 0 0 1 0 0 0 0 0 1 0 0 0 1 0 0 0 0 0 1 0 0 0 0 0 1 0 0 0 0 0 1 0 0 0 0 0 1 0 0 0 0 0 1 -1 0 0 0 0 0 0 0 0 1 0 0 0 0 0 0 0 0 -1 1 0 0 0zm2 -7l2 0 0 0 0 1 0 0 0 0 0 1 0 0 0 0 0 1 0 0 0 0 0 1 0 0 0 0 0 0 0 1 0 0 -1 0 0 1 0 0 0 0 0 0 0 1 0 0 -1 0 0 0 0 0 0 1 0 0 0 0 -1 0 0 0 0 1 0 0 -1 -2 0 0 0 0 0 0 0 0 0 0 1 -1 0 0 0 0 0 0 0 0 0 0 0 -1 0 0 0 0 1 0 0 0 0 -1 0 0 0 0 0 0 0 -1 0 0 0 0 0 0 0 -1 0 0 0 0 0 -1 0 0 0 0 0 -1 0 0 0 0zm-2 -7l1 -1 0 0 0 0 0 0 0 0 1 0 0 1 0 0 0 0 0 0 0 0 1 1 0 0 0 0 0 0 0 1 0 0 0 0 0 0 1 1 0 0 0 0 0 1 0 0 0 0 0 0 0 1 0 0 0 0 0 1 0 0 0 0 0 1 0 0 -2 0 0 0 0 0 0 -1 0 0 0 0 0 -1 0 0 0 0 0 0 0 -1 0 0 0 0 0 0 0 -1 0 0 0 0 0 0 -1 0 0 -1 0 0 0 0 0 0 0 0 0 -1 0 0 -1 0 0 0 0 0 0 0 0 0 0 -1 0 0 0 0zm0 0l0 0 1 1 -1 -1zm-11 -2l0 -2 0 0 1 0 0 0 1 0 0 0 1 0 0 0 1 0 0 0 0 0 1 0 0 1 1 0 0 0 0 0 1 0 0 0 0 0 1 0 0 0 0 0 1 0 0 0 0 0 1 1 0 0 0 0 0 0 1 0 0 0 0 0 0 1 1 0 -1 1 -1 0 0 0 0 0 0 0 0 0 -1 0 0 -1 0 0 0 0 -1 0 0 0 0 0 0 0 -1 0 0 0 0 0 -1 0 0 0 0 0 -1 -1 0 0 0 0 -1 0 0 0 -1 0 0 0 0 0 -1 0 0 0 -1 0 0 0 -1 0 0 0zm-9 -2l9 0 0 2 -9 0 -1 -1 1 -1zm-1 1l0 -1 1 0 -1 1zm1 0l0 0 0 0 0 0 1 0 -1 0zm-1 0l0 -1 1 0 -1 1zm12 -6l-20 0 0 -2 20 0 0 0 0 2zm0 -1l0 0 0 0 0 0 0 -1 0 1zm17 3l-2 2 0 0 0 0 0 -1 -1 0 0 0 0 0 -1 -1 0 0 0 0 -1 0 0 0 -1 -1 0 0 -1 0 0 0 0 0 -1 0 0 0 -1 -1 0 0 -1 0 -1 0 0 0 -1 0 0 0 -1 0 0 0 -1 0 -1 0 0 0 -1 0 -1 0 0 0 0 -2 0 0 1 0 1 0 0 0 1 0 1 0 0 0 1 0 1 0 0 0 1 0 0 0 1 0 0 1 1 0 1 0 0 0 1 0 0 0 1 1 0 0 1 0 0 0 0 0 1 1 0 0 1 0 0 0 0 0 1 1 0 0 1 0 0 0zm0 0l0 0 0 0 0 0zm5 14l-2 0 0 0 0 0 0 -1 0 0 0 -1 0 0 0 -1 0 0 0 -1 0 0 0 -1 0 0 0 -1 0 0 -1 0 0 -1 0 0 0 -1 0 0 0 0 -1 -1 0 0 0 0 0 -1 0 0 -1 0 0 -1 0 0 0 0 -1 0 0 -1 0 0 -1 0 2 -2 0 1 0 0 1 0 0 1 0 0 1 0 0 1 0 0 0 0 1 1 0 0 0 0 0 1 0 0 1 1 0 0 0 1 0 0 0 0 0 1 1 0 0 1 0 0 0 1 0 0 0 1 0 0 0 1 0 1 0 0 0 1 0 0 0 0zm-5 14l-1 -1 0 0 0 -1 0 0 0 0 1 0 0 -1 0 0 0 0 1 -1 0 0 0 0 0 -1 0 0 1 0 0 -1 0 0 0 0 0 -1 0 0 1 -1 0 0 0 -1 0 0 0 0 0 -1 0 0 0 -1 0 0 0 -1 0 0 0 -1 0 0 0 -1 2 0 0 1 0 0 0 1 0 0 0 1 0 0 0 1 0 0 0 1 0 0 0 1 0 0 -1 1 0 0 0 1 0 0 0 1 0 0 -1 0 0 1 0 0 0 1 -1 0 0 0 0 1 0 0 -1 1 0 0 0 0 -1 1 0 0 0 0 0 0zm0 0l0 0 -2 2 2 -2zm-16 5l0 -2 0 0 1 0 0 0 1 0 1 0 0 0 1 0 0 0 1 0 0 0 1 0 0 0 1 -1 0 0 1 0 0 0 1 0 0 0 0 0 1 0 0 -1 1 0 0 0 0 0 1 0 0 -1 1 0 0 0 0 0 1 -1 0 0 0 0 1 0 1 1 -1 0 0 1 0 0 -1 0 0 1 0 0 -1 0 0 0 -1 0 0 1 -1 0 0 0 0 0 -1 0 0 1 -1 0 0 0 -1 0 0 0 -1 0 0 0 -1 0 0 1 -1 0 -1 0 0 0 -1 0 0 0 -1 0 0 0 -1 0 -1 0 0 0zm-12 -2l12 0 0 2 -12 0 -1 -1 1 -1zm-1 1l0 -1 1 0 -1 1zm0 26l0 -26 2 0 0 26 -1 1 -1 -1zm2 0l0 1 -1 0 1 -1zm-10 -1l9 0 0 2 -9 0 -1 -1 1 -1zm0 2l-1 0 0 -1 1 1zm1 -62l0 61 -2 0 0 -61 1 -1 1 1zm-2 0l0 -1 1 0 -1 1zm56 37l9 -30 2 0 -9 30 -1 1 -1 -1zm1 1l-1 0 0 -1 1 1zm18 0l-18 0 0 -2 18 0 1 1 -1 1zm1 -1l0 1 -1 0 1 -1zm-9 -30l9 30 -2 0 -8 -30 0 -1 1 1zm-1 -1l1 0 0 1 -1 -1zm0 0l0 0 0 2 0 0 -1 -1 1 -1zm-1 1l0 -1 1 0 -1 1zm1 0l0 0 0 0 0 0 1 0 -1 0zm-1 0l0 -1 1 0 -1 1zm7 -6l-12 0 0 -2 12 0 1 0 -1 2zm0 -2l1 0 0 0 -1 0zm18 63l-19 -62 2 -1 19 62 -1 1 -1 0zm2 -1l0 1 -1 0 1 -1zm-10 -1l9 0 0 2 -9 0 -1 0 1 -2zm0 2l-1 0 0 0 1 0zm-4 -18l5 17 -2 1 -5 -17 1 -1 1 0zm-1 0l1 0 0 0 -1 0zm-22 0l22 0 0 2 -22 0 -1 -2 1 0zm-1 0l0 0 1 0 -1 0zm-5 17l5 -17 2 1 -5 17 -1 0 -1 -1zm2 1l0 0 -1 0 1 0zm-10 -2l9 0 0 2 -9 0 -1 -1 1 -1zm0 2l-1 0 0 -1 1 1zm20 -62l-19 62 -2 -1 19 -62 1 0 1 1zm-2 -1l0 0 1 0 -1 0zm1 1l0 0 0 0 0 0 0 -1 0 1zm-1 -1l0 0 1 0 -1 0zm-138 -382l-6 0 0 -2 6 0 1 1 -1 1zm0 -2l1 0 0 1 -1 -1zm-1 57l0 -56 2 0 0 56 -1 1 -1 -1zm1 1l-1 0 0 -1 1 1zm10 0l-10 0 0 -2 10 0 1 1 -1 1zm0 -2l1 0 0 1 -1 -1zm-1 8l0 -7 2 0 0 7 -1 1 -1 -1zm2 0l0 1 -1 0 1 -1zm-29 -1l28 0 0 2 -28 0 -1 -1 1 -1zm0 2l-1 0 0 -1 1 1zm1 -8l0 7 -2 0 0 -7 1 -1 1 1zm-2 0l0 -1 1 0 -1 1zm11 1l-10 0 0 -2 10 0 1 1 -1 1zm1 -1l0 1 -1 0 1 -1zm0 -47l0 47 -2 0 0 -47 1 -1 1 1zm-1 -1l1 0 0 1 -1 -1zm-11 1l11 -1 0 2 -11 1 -1 -1 1 -1zm0 2l-1 0 0 -1 1 1zm1 -6l0 5 -2 0 0 -5 1 -1 1 1zm-2 0l0 -1 1 0 -1 1zm7 -3l1 2 0 0 0 0 0 0 -1 0 0 0 0 0 0 0 -1 0 0 0 0 0 0 0 0 0 -1 0 0 1 0 0 0 0 -1 0 0 0 0 0 0 0 0 0 -1 0 0 0 0 0 0 0 -1 0 0 0 0 0 0 0 0 0 -1 0 0 1 0 0 0 -2 0 0 0 0 0 0 0 0 1 -1 0 0 0 0 0 0 0 0 1 0 0 0 0 0 0 0 1 0 0 0 0 0 0 0 0 0 1 0 0 0 0 0 0 0 0 -1 1 0 0 0 0 0 0 0 1 0 0 0 0 0 0 0 0 0 0 0zm0 0l0 0 0 0 0 0zm7 -3l0 2 1 0 0 0 -1 0 0 0 0 0 0 0 -1 0 0 1 0 0 0 0 0 0 -1 0 0 0 0 0 0 0 0 0 -1 0 0 0 0 1 0 0 0 0 -1 0 0 0 0 0 0 0 0 0 -1 0 0 0 0 0 0 0 -1 0 0 1 0 0 -1 -2 1 0 0 0 0 0 0 0 0 -1 1 0 0 0 0 0 0 0 0 0 1 0 0 0 0 0 0 0 1 0 0 0 0 0 0 -1 0 0 1 0 0 0 0 0 0 0 0 0 0 0 1 0 0 0 0 0 0 -1 0 0 1 0 0 0 0 0zm0 0l0 0 0 0 0 0zm0 1l0 0 0 0 0 0 0 -1 0 1zm0 -1l0 0 0 0 0 0zm39 55l-4 7 -1 -1 3 -7 2 0 0 1zm-2 -1l1 -1 1 1 -2 0zm1 0l0 0 0 0 0 0 1 0 -1 0zm-1 0l1 -1 1 1 -2 0zm7 2l-1 2 0 0 0 0 0 0 0 0 -1 0 0 0 0 -1 0 0 0 0 -1 0 0 0 0 0 0 0 0 0 0 0 -1 0 0 0 0 0 0 0 0 -1 0 0 -1 0 0 0 0 0 0 0 0 0 0 0 -1 0 0 0 0 0 0 -1 0 0 0 0 1 -1 0 0 0 0 0 0 0 0 0 0 0 0 1 0 0 0 0 0 0 1 0 0 0 0 1 0 0 0 0 0 0 0 0 0 0 0 1 0 0 0 0 0 0 0 0 1 0 0 1 0 0 0 0 0 0 0 0 0 0 0 1 0 0 0 0 0zm-1 2l0 0 0 0 0 0zm3 -1l0 2 0 0 0 0 0 0 0 0 0 -1 0 0 -1 0 0 0 0 0 0 0 0 0 0 0 0 0 0 0 0 0 0 0 0 0 -1 0 0 0 0 0 0 0 0 0 0 0 0 0 0 0 0 0 0 0 0 0 -1 0 0 0 0 0 0 0 0 0 1 -2 0 0 0 0 0 0 0 0 0 0 0 0 0 0 0 0 0 0 0 0 1 0 0 0 0 0 0 0 0 0 0 0 0 0 0 0 0 0 0 0 0 1 1 0 0 0 0 0 0 0 0 0 0 0 0 0 0 0 0 0 0 0 0 0 0 0zm0 2l0 0 0 0 0 0zm3 -2l0 2 0 0 0 0 0 0 0 0 0 0 0 0 -1 0 0 0 0 0 0 0 0 0 0 0 0 0 0 0 0 0 0 0 -1 0 0 0 0 0 0 0 0 0 0 0 0 0 0 0 0 0 0 0 0 0 -1 0 0 0 0 0 0 0 0 0 0 0 0 -2 0 0 0 0 0 0 1 0 0 0 0 0 0 0 0 0 0 0 0 0 0 0 0 0 0 0 0 0 1 0 0 0 0 0 0 0 0 0 0 0 0 0 0 0 0 0 0 0 0 0 0 0 1 0 0 0 0 0 0 0 0 0 0 0 0 0zm11 -6l2 1 0 0 0 1 -1 0 0 0 0 1 -1 0 0 0 0 1 -1 0 0 0 -1 1 0 0 0 0 -1 0 0 1 0 0 -1 0 0 0 -1 1 0 0 0 0 -1 0 0 0 -1 0 0 0 -1 0 0 1 -1 0 0 0 0 0 -1 0 0 0 -1 0 0 -2 0 0 1 0 0 0 1 0 0 0 1 0 0 0 0 0 1 -1 0 0 1 0 0 0 0 0 1 0 0 0 0 -1 1 0 0 0 0 0 1 0 0 -1 0 0 1 0 0 0 0 -1 1 0 0 0 0 -1 0 0 1 0 0 -1 0 0 0 0zm2 1l0 0 0 1 0 -1zm2 -8l2 1 0 0 -1 0 0 0 0 0 0 1 0 0 0 0 0 0 0 1 0 0 0 0 0 0 -1 1 0 0 0 0 0 0 0 1 0 0 0 0 0 0 -1 1 0 0 0 0 0 0 0 1 0 0 0 0 0 0 -1 0 0 1 0 0 0 0 0 0 -2 -1 0 0 1 0 0 0 0 -1 0 0 0 0 0 0 0 0 0 -1 1 0 0 0 0 0 0 0 0 -1 0 0 0 0 0 0 0 -1 1 0 0 0 0 0 0 0 0 -1 0 0 0 0 0 0 0 -1 0 0 0 0 1 0 0 -1 0 0 0 0zm3 -8l-2 -2 2 1 0 0 0 1 0 0 0 0 0 1 0 0 0 0 0 1 0 0 0 0 0 1 0 0 0 0 0 0 0 1 0 0 -1 0 0 1 0 0 0 0 0 1 0 0 0 0 0 0 0 1 0 0 0 0 0 1 0 0 0 0 0 0 0 1 -2 -1 0 0 0 0 0 -1 0 0 0 0 0 0 0 -1 0 0 0 0 0 -1 0 0 0 0 1 0 0 -1 0 0 0 0 0 -1 0 0 0 0 0 0 0 -1 0 0 0 0 0 -1 0 0 0 0 0 0 0 -1 0 0 0 0 0 -1 0 0 2 1zm-8 5l-1 -2 0 0 1 0 0 0 0 0 0 0 1 -1 0 0 0 0 0 0 0 0 1 0 0 0 0 0 0 -1 0 0 1 0 0 0 0 0 0 0 1 0 0 -1 0 0 0 0 0 0 1 0 0 0 0 -1 0 0 0 0 1 0 0 0 0 -1 0 0 2 2 -1 0 0 0 0 0 0 0 -1 1 0 0 0 0 0 0 0 0 -1 1 0 0 0 0 0 0 -1 0 0 0 0 1 0 0 0 0 -1 0 0 0 0 0 0 1 -1 0 0 0 0 0 0 0 -1 0 0 0 0 0 0 1 -1 0 0 0 0 0zm-8 1l0 -1 0 0 0 0 0 0 1 0 0 0 0 0 0 -1 1 0 0 0 0 0 0 0 1 0 0 0 0 0 0 0 1 0 0 0 0 0 0 0 1 0 0 0 0 0 0 0 0 0 1 0 0 0 0 0 0 -1 1 0 0 0 0 0 0 0 0 0 1 2 0 0 0 0 -1 0 0 0 0 0 0 0 -1 0 0 0 0 1 0 0 0 0 -1 0 0 0 0 0 -1 0 0 0 0 0 0 0 -1 0 0 0 0 0 0 0 -1 0 0 0 0 0 0 0 -1 0 0 0 0 0 -1 0 0 0 0 0 0 0zm-14 -5l1 -2 0 0 0 1 1 0 0 0 0 0 1 1 0 0 0 0 1 1 0 0 0 0 1 0 0 0 1 1 0 0 0 0 1 0 0 0 1 1 0 0 0 0 1 0 0 0 1 0 0 0 1 0 0 0 1 0 0 0 0 0 1 1 0 0 1 0 0 1 -1 0 0 0 -1 0 0 0 -1 0 0 0 -1 0 0 0 -1 0 0 0 -1 0 0 0 -1 -1 0 0 -1 0 0 0 0 0 -1 0 0 -1 -1 0 0 0 -1 0 0 -1 0 0 -1 0 0 0 -1 -1 0 0 0 0 -1 -1 0 0 0 0 0 0zm1 -2l0 0 0 0 0 0zm-7 -13l2 0 0 0 0 0 0 1 0 0 0 1 0 0 0 1 0 0 0 1 0 0 0 0 0 1 1 0 0 1 0 0 0 1 0 0 0 1 0 0 1 0 0 1 0 0 0 1 1 0 0 0 0 1 0 0 1 0 0 1 0 0 0 1 1 0 0 0 -1 2 -1 -1 0 0 0 -1 -1 0 0 0 0 -1 -1 0 0 -1 0 0 0 0 -1 -1 0 0 0 -1 0 0 0 -1 -1 0 0 -1 0 0 0 -1 0 0 0 -1 0 0 -1 -1 0 0 0 -1 0 0 0 -1 0 0 0 -1 0 0 0 -1 0 0 0 0zm6 -16l1 1 0 0 0 1 0 0 -1 0 0 1 0 0 -1 1 0 0 0 0 0 1 -1 0 0 1 0 0 0 0 0 1 -1 0 0 1 0 0 0 1 0 0 0 0 0 1 -1 0 0 1 0 0 0 1 0 0 0 1 0 0 0 1 0 0 0 1 0 1 -2 0 0 -1 0 -1 0 0 0 -1 0 0 0 -1 0 0 0 -1 0 -1 1 0 0 -1 0 0 0 -1 0 0 0 -1 0 0 1 -1 0 0 0 0 0 -1 1 0 0 -1 0 0 0 -1 1 0 0 -1 0 0 1 0 0 -1 0 0 1 -1 0 0 0 0zm16 -6l0 2 0 0 -1 0 0 0 -1 0 -1 0 0 0 -1 0 0 0 -1 0 0 0 -1 1 0 0 -1 0 0 0 0 0 -1 0 0 0 -1 1 0 0 -1 0 0 0 -1 0 0 1 0 0 -1 0 0 0 -1 1 0 0 0 0 -1 0 0 1 0 0 -1 0 -1 -1 0 0 1 -1 0 0 1 0 0 -1 0 0 1 0 0 -1 1 0 0 0 1 0 0 -1 1 0 0 0 0 0 1 0 0 -1 1 0 0 0 1 0 0 0 1 0 1 0 0 0 1 -1 0 0 1 0 0 0 1 0 0 0 1 0 1 0 0 0zm17 8l-2 1 0 0 0 0 0 -1 -1 0 0 -1 -1 0 0 0 0 -1 -1 0 0 0 -1 -1 0 0 0 0 -1 0 0 -1 -1 0 0 0 -1 0 0 -1 -1 0 0 0 -1 0 0 0 -1 0 -1 -1 0 0 -1 0 0 0 -1 0 0 0 -1 0 -1 0 0 0 0 -2 0 0 1 0 1 0 0 0 1 0 1 0 0 1 1 0 0 0 1 0 1 0 0 0 1 0 0 1 1 0 0 0 1 0 1 1 0 0 1 0 0 0 1 1 0 0 0 1 1 0 0 0 1 1 0 0 1 1 0 0 0 0 1 1 0 0zm6 22l-2 0 0 0 0 -1 0 -1 0 -1 0 0 0 -1 0 -1 -1 -1 0 -1 0 0 0 -1 0 -1 0 0 0 -1 0 -1 -1 -1 0 0 0 -1 0 0 0 -1 0 -1 -1 0 0 -1 0 0 0 -1 -1 -1 0 0 0 -1 -1 0 0 -1 0 0 0 0 -1 -1 2 -1 0 0 0 1 1 0 0 1 0 1 1 0 0 1 0 0 1 1 0 0 0 1 0 1 1 0 0 1 0 1 0 0 0 1 0 1 1 0 0 1 0 1 0 1 0 0 0 1 0 1 0 1 0 1 1 1 0 0 0 1 0 1 0 1 0 0zm-7 26l-2 -1 0 0 0 0 1 -1 0 -1 1 0 0 -1 0 -1 1 0 0 -1 0 -1 1 0 0 -1 0 -1 0 0 1 -1 0 -1 0 -1 0 -1 0 0 1 -1 0 -1 0 -1 0 -1 0 -1 0 0 0 -1 0 -1 1 -1 0 -1 0 -1 0 -1 0 -1 0 -1 2 0 0 1 0 1 0 1 -1 1 0 1 0 1 0 1 0 1 0 1 0 1 0 1 0 0 -1 1 0 1 0 1 0 1 0 1 -1 0 0 1 0 1 0 1 -1 0 0 1 0 1 -1 1 0 0 0 1 -1 1 0 0 -1 1 0 1 0 0 0 0zm-2 -1l0 0 0 0 0 0zm-18 11l0 -2 0 0 1 0 0 0 1 0 1 0 0 0 1 0 1 0 0 0 1 0 1 -1 0 0 1 0 0 0 1 0 1 -1 0 0 1 0 0 -1 1 0 0 0 1 -1 0 0 1 0 0 -1 1 0 0 -1 1 0 0 -1 1 0 0 -1 1 0 0 -1 2 1 -1 1 0 0 -1 1 0 1 -1 0 0 1 -1 0 0 1 -1 0 0 1 -1 0 -1 0 0 1 -1 0 0 0 -1 1 -1 0 0 0 -1 1 0 0 -1 0 -1 0 0 0 -1 1 -1 0 -1 0 0 0 -1 0 -1 0 0 0 -1 0 -1 0 0 0zm-8 -1l0 -2 0 0 0 0 1 0 0 0 0 1 0 0 1 0 0 0 0 0 0 0 0 0 1 0 0 0 0 0 0 0 1 0 0 0 0 0 0 0 1 0 0 0 0 0 0 0 1 0 0 0 0 0 0 0 1 0 0 0 0 0 1 0 0 0 0 0 0 2 0 0 -1 0 0 0 0 0 0 0 -1 0 0 0 0 0 0 0 -1 0 0 0 0 0 -1 0 0 0 0 0 0 0 -1 0 0 0 0 0 0 0 -1 0 0 0 0 0 0 0 -1 0 0 -1 0 0 0 0 -1 0 0 0 0 0 0 0 0 0zm0 -2l0 0 1 0 -1 0zm-7 -2l1 1 0 -2 0 0 0 1 0 0 1 0 0 0 0 0 0 0 0 0 1 0 0 0 0 1 0 0 0 0 0 0 1 0 0 0 0 0 0 0 0 0 1 0 0 0 0 1 0 0 0 0 1 0 0 0 0 0 0 0 1 0 0 0 0 0 0 0 0 2 -1 0 0 0 0 0 0 0 -1 0 0 0 0 0 0 -1 0 0 -1 0 0 0 0 0 0 0 -1 0 0 0 0 0 0 0 0 0 -1 -1 0 0 0 0 0 0 0 0 -1 0 0 0 0 0 0 0 0 -1 -1 0 0 0 0 0 0 0 0 -1zm0 1l-1 -1 1 0 0 1zm0 -1l0 0 0 0 0 0 0 0 0 0zm0 1l-1 -1 1 0 0 1zm30 -44l2 0 0 0 0 0 0 0 0 0 0 0 0 1 0 0 0 0 0 0 0 0 1 1 0 0 0 0 0 0 0 0 0 1 0 0 0 0 0 0 0 1 0 0 0 0 0 0 0 0 0 1 0 0 0 0 0 0 0 1 0 0 0 0 0 0 0 1 -2 0 0 -1 0 0 0 0 0 0 0 -1 0 0 0 0 0 0 0 0 0 -1 0 0 0 0 0 0 0 0 0 -1 0 0 0 0 0 0 0 0 0 -1 0 0 0 0 0 0 0 0 0 -1 -1 0 0 0 0 0 0 0 0 0 0 -1 0 0 0 0zm0 0l0 0 0 0 0 0zm-3 -5l2 -1 0 0 0 0 0 0 0 1 0 0 0 0 1 0 0 0 0 0 0 1 0 0 0 0 0 0 0 0 0 0 1 1 0 0 0 0 0 0 0 0 0 0 0 1 0 0 0 0 0 0 0 0 1 0 0 1 0 0 0 0 0 0 0 0 0 1 -2 0 0 0 0 0 0 0 0 0 0 -1 0 0 0 0 0 0 0 0 -1 0 0 -1 0 0 0 0 0 0 0 0 0 0 0 -1 0 0 0 0 0 0 0 0 -1 0 0 0 0 -1 0 0 0 0 0 0 0 0 0 0 0 0 0 -1 -1 0 0 0zm2 -1l0 0 -1 -1 1 1zm-10 -3l0 -2 0 0 0 0 0 0 1 0 0 0 1 0 0 1 0 0 1 0 0 0 0 0 1 0 0 0 0 0 1 0 0 0 0 1 1 0 0 0 0 0 1 0 0 0 0 1 1 0 0 0 0 0 0 0 1 1 0 0 0 0 0 1 1 0 0 0 -2 1 0 0 0 0 0 0 0 -1 -1 0 0 0 0 0 0 0 -1 -1 0 0 0 0 0 0 -1 0 0 0 0 -1 0 0 -1 0 0 0 0 0 -1 0 0 0 0 0 0 0 -1 0 0 -1 0 0 -1 0 0 0 0 0 -1 0 0 0 0 0 0 0zm-8 4l-2 -2 0 0 0 0 1 0 0 0 0 -1 0 0 1 0 0 0 0 0 0 -1 1 0 0 0 0 0 1 0 0 0 0 -1 0 0 1 0 0 0 0 0 1 0 0 0 0 0 1 0 0 0 0 0 1 0 0 -1 0 0 1 0 0 0 0 0 1 0 0 2 -1 0 0 0 0 0 -1 0 0 0 0 0 0 0 -1 0 0 1 0 0 0 0 -1 0 0 0 0 0 -1 0 0 0 0 0 0 0 -1 0 0 1 0 0 0 0 0 0 -1 0 0 0 0 1 0 0 -1 0 0 0 0 0 0 0 0 1 0 0zm-4 8l-2 0 0 0 0 0 0 0 1 -1 0 0 0 0 0 -1 0 0 0 0 0 -1 0 0 0 0 0 -1 0 0 0 0 0 -1 0 0 1 0 0 -1 0 0 0 0 0 -1 0 0 0 0 1 -1 0 0 0 0 0 0 0 -1 1 0 0 0 0 0 0 -1 2 2 -1 0 0 0 0 0 0 1 0 0 0 0 -1 0 0 0 0 1 0 0 0 0 0 0 0 1 -1 0 0 0 0 1 0 0 0 0 0 0 0 1 0 0 0 0 0 1 0 0 0 0 0 1 -1 0 0 0 0 0 0 1 0 0 0 0 0 0zm3 9l-1 2 0 0 0 -1 0 0 -1 0 0 0 0 -1 0 0 0 0 0 -1 -1 0 0 0 0 0 0 -1 0 0 0 0 -1 -1 0 0 0 0 0 -1 0 0 0 0 0 -1 0 0 0 0 0 -1 0 0 0 0 0 -1 0 0 0 0 -1 -1 0 0 0 -1 2 0 0 1 0 0 0 0 0 1 0 0 1 0 0 1 0 0 0 0 0 1 0 0 0 0 0 1 0 0 0 0 0 0 0 1 0 0 0 0 1 1 0 0 0 0 0 0 0 0 0 1 0 0 1 0 0 0 0 1 0 0 0 0 0 0 0 0zm0 0l0 0 0 0 0 0zm9 4l0 1 0 0 -1 0 0 0 -1 0 0 0 0 0 -1 0 0 0 0 0 -1 0 0 0 0 0 0 0 -1 0 0 0 0 0 -1 0 0 -1 0 0 -1 0 0 0 0 0 0 0 -1 -1 0 0 0 0 0 0 -1 0 0 -1 0 0 0 0 -1 0 0 0 1 -2 1 0 0 1 0 0 0 0 1 0 0 0 0 1 0 0 0 0 1 0 0 0 0 0 0 0 1 1 0 0 0 0 0 0 1 0 0 0 0 0 0 0 1 0 0 0 0 0 0 0 1 0 0 0 0 1 1 0 0 0 0 0 1 0 0 0zm7 -3l1 2 0 0 0 0 0 0 -1 0 0 0 0 0 0 1 -1 0 0 0 0 0 0 0 -1 0 0 0 0 0 0 1 -1 0 0 0 0 0 -1 0 0 0 0 0 0 0 -1 0 0 0 0 0 0 0 -1 0 0 0 0 0 -1 0 0 0 0 0 0 0 0 -1 0 0 0 0 0 0 1 0 0 0 0 -1 0 0 1 0 0 0 0 0 0 0 0 0 1 0 0 0 0 0 0 0 1 0 0 0 0 0 0 0 1 0 0 -1 0 0 0 0 0 0 1 0 0 0 0 0 0 0 1 -1 0 0 0 0 0 0zm0 0l0 0 1 -1 -1 1zm5 -6l2 0 0 0 0 0 0 1 0 0 -1 0 0 0 0 1 0 0 0 0 0 1 0 0 -1 0 0 0 0 1 0 0 0 0 -1 0 0 1 0 0 0 0 0 0 0 0 -1 1 0 0 0 0 0 0 -1 1 0 0 0 0 0 0 0 0 -1 0 0 1 -1 -2 0 0 0 0 1 0 0 -1 0 0 0 0 0 0 1 0 0 0 0 -1 0 0 0 0 0 0 1 0 0 -1 0 0 0 0 0 0 0 -1 1 0 0 0 0 0 0 0 0 -1 0 0 0 0 1 0 0 -1 0 0 0 0 0 -1 0 0 0 1zm2 0l0 0 0 0 0 0zm-1 0l0 0 0 0 0 0 -1 0 1 0zm1 0l0 0 0 0 0 0zm29 -10l-1 -1 0 0 0 0 0 -1 1 0 0 0 0 -1 0 0 1 0 0 -1 0 0 0 0 1 -1 0 0 0 0 1 0 0 -1 0 0 1 0 0 0 0 -1 1 0 0 0 1 0 0 0 0 0 1 0 0 0 0 0 1 -1 0 0 1 0 0 0 1 0 0 2 -1 0 0 0 0 0 -1 0 0 0 -1 0 0 1 0 0 -1 0 0 0 0 0 0 0 -1 0 0 0 0 1 -1 0 0 0 0 0 0 0 -1 0 0 1 0 0 0 0 -1 0 0 1 0 0 0 0 -1 1 0 0 0 0 0 1 -1 0 0 0zm-1 -1l0 0 0 0 0 0zm-2 19l-2 0 0 0 0 -1 0 0 0 -1 0 -1 0 -1 0 0 0 -1 0 -1 1 0 0 -1 0 -1 0 0 0 -1 0 -1 0 0 0 -1 0 0 0 -1 0 -1 1 0 0 -1 0 0 0 -1 0 0 0 -1 1 0 0 -1 0 0 0 -1 0 0 1 0 0 -1 1 1 0 0 0 1 0 0 0 1 0 0 -1 1 0 0 0 0 0 1 0 0 0 1 -1 0 0 1 0 0 0 1 0 1 0 0 0 1 0 0 0 1 0 1 -1 0 0 1 0 0 0 1 0 1 0 0 0 1 0 1 0 1 0 0 0 1 0 0zm3 18l-1 1 0 0 0 0 -1 -1 0 0 0 -1 0 0 0 -1 -1 0 0 -1 0 0 0 -1 0 0 0 -1 -1 0 0 -1 0 0 0 -1 0 -1 0 0 0 -1 0 0 0 -1 0 -1 0 0 -1 -1 0 -1 0 0 0 -1 0 -1 0 -1 0 0 0 -1 0 -1 2 0 0 1 0 1 0 0 0 1 0 1 0 0 0 1 0 1 0 0 0 1 1 1 0 0 0 1 0 0 0 1 0 1 0 0 0 1 0 0 0 1 1 0 0 1 0 0 0 1 0 0 0 1 1 0 0 1 0 0 0 0 0 1 0 0 0 0zm0 0l0 0 -1 -2 1 2zm10 6l0 2 0 0 -1 0 0 0 -1 0 0 0 -1 0 0 0 0 -1 -1 0 0 0 -1 0 0 0 0 0 -1 0 0 -1 0 0 -1 0 0 0 0 0 -1 -1 0 0 0 0 -1 0 0 -1 0 0 0 0 -1 -1 0 0 0 0 -1 -1 0 0 0 -1 0 0 1 -1 1 0 0 1 0 0 0 0 1 1 0 0 0 0 0 1 0 0 1 0 0 0 0 1 0 0 1 0 0 0 0 0 1 1 0 0 0 0 0 0 1 0 0 0 0 0 1 1 0 0 0 0 1 0 0 0 0 0 1 0 0 0 1 0 0 0zm9 -6l1 1 0 0 0 0 0 1 0 0 -1 1 0 0 0 0 0 1 -1 0 0 0 0 1 0 0 -1 0 0 0 0 1 -1 0 0 0 0 0 -1 0 0 1 -1 0 0 0 0 0 -1 0 0 0 0 0 -1 1 0 0 -1 0 0 0 -1 0 0 0 0 0 0 -2 0 0 0 0 1 0 0 0 0 0 1 0 0 0 0 0 1 -1 0 0 0 0 1 0 0 0 0 0 1 0 0 -1 0 0 0 0 1 0 0 0 0 -1 0 0 1 0 0 0 0 -1 0 0 1 0 0 0 0 -1 0 0 1 -1 0 0 0 0zm1 1l0 0 -1 2 1 -2zm2 -19l2 0 0 0 0 1 0 1 0 0 0 1 0 1 0 1 0 0 0 1 0 1 0 0 0 1 -1 1 0 0 0 1 0 0 0 1 0 1 0 0 0 1 0 0 -1 1 0 0 0 1 0 0 0 1 0 0 -1 1 0 0 0 1 0 0 0 1 -1 0 -1 -1 0 0 0 -1 0 0 0 0 1 -1 0 0 0 -1 0 0 0 -1 0 0 1 -1 0 0 0 -1 0 0 0 -1 0 0 0 -1 0 0 0 -1 1 -1 0 0 0 -1 0 -1 0 0 0 -1 0 -1 0 0 0 -1 0 -1 0 0 0 -1 0 -1 0 0zm-3 -18l1 -1 0 0 1 0 0 1 0 0 0 1 0 0 1 1 0 0 0 1 0 0 0 1 0 0 1 1 0 0 0 1 0 1 0 0 0 1 0 0 0 1 0 1 1 0 0 1 0 1 0 0 0 1 0 1 0 0 0 1 0 1 0 1 0 0 0 1 -2 0 0 -1 0 0 0 -1 0 -1 0 -1 0 0 0 -1 0 -1 0 0 0 -1 0 -1 0 0 -1 -1 0 0 0 -1 0 -1 0 0 0 -1 0 0 0 -1 0 0 -1 -1 0 0 0 -1 0 0 0 -1 0 0 0 0 -1 -1 0 0 0 -1 0 0 0 0zm1 -1l0 0 0 -1 0 1zm-10 -5l0 -2 0 0 0 0 0 0 1 0 0 0 1 1 0 0 1 0 0 0 0 0 1 0 0 0 0 0 1 0 0 1 1 0 0 0 0 0 1 1 0 0 0 0 1 0 0 1 0 0 0 0 1 0 0 1 0 0 0 1 1 0 0 0 0 1 0 0 -1 1 0 0 -1 -1 0 0 0 0 0 -1 -1 0 0 0 0 -1 0 0 0 0 -1 0 0 -1 0 0 -1 0 0 0 0 0 0 0 -1 -1 0 0 0 0 -1 0 0 0 0 0 -1 0 0 0 0 -1 -1 0 0 0 0 0 -1 0 0 0 0 0 0 0zm0 -1l0 0 0 0 0 0 0 1 0 -1zm17 1l-2 1 0 0 0 -1 -1 0 0 -1 0 0 -1 -1 0 0 0 0 -1 -1 0 0 -1 0 0 -1 0 0 -1 0 0 -1 -1 0 0 0 -1 0 0 -1 -1 0 0 0 -1 0 0 0 -1 0 -1 -1 0 0 -1 0 0 0 -1 0 0 0 -1 0 -1 0 0 0 0 -2 0 0 1 0 1 0 0 0 1 0 1 0 0 0 1 1 0 0 1 0 1 0 0 0 1 0 0 1 1 0 1 0 0 0 1 1 0 0 1 0 0 1 1 0 0 0 0 1 1 0 0 1 1 0 0 1 1 0 0 1 0 0 1 1 0 0zm-2 1l0 0 0 0 0 0zm8 23l-2 0 0 0 0 -1 0 -1 0 -1 0 -1 -1 -1 0 0 0 -1 0 -1 0 -1 0 -1 0 -1 0 -1 0 0 0 -1 -1 -1 0 -1 0 0 0 -1 0 -1 -1 0 0 -1 0 -1 0 0 0 -1 -1 0 0 -1 0 -1 -1 0 0 -1 0 0 0 -1 -1 0 2 -1 0 0 0 1 1 0 0 1 0 0 1 1 0 1 0 0 1 1 0 1 0 0 0 1 1 1 0 1 0 0 0 1 0 1 0 1 1 0 0 1 0 1 0 1 0 1 0 1 0 0 0 1 0 1 0 1 0 1 0 1 1 1 0 1 0 0zm-6 25l-2 -1 0 0 1 -1 0 -1 0 0 0 -1 1 0 0 -1 0 0 1 -1 0 -1 0 0 0 -1 0 0 1 -1 0 -1 0 -1 0 0 0 -1 1 -1 0 -1 0 0 0 -1 0 -1 0 -1 0 -1 0 0 0 -1 0 -1 1 -1 0 -1 0 -1 0 -1 0 -1 2 0 0 1 -1 1 0 1 0 1 0 1 0 1 0 1 0 1 0 0 0 1 0 1 0 1 0 1 -1 1 0 0 0 1 0 1 0 1 0 0 -1 1 0 1 0 1 0 0 -1 1 0 0 0 1 -1 1 0 0 0 1 -1 0 0 1 0 1 0 0zm-17 8l0 -2 0 0 0 0 1 0 1 0 0 0 1 0 0 0 1 0 0 0 1 0 1 0 0 -1 1 0 0 0 1 0 0 0 1 -1 0 0 1 0 0 0 1 -1 0 0 0 0 1 -1 0 0 1 0 0 -1 0 0 1 -1 0 0 1 -1 0 0 0 0 2 1 -1 0 0 1 0 0 -1 1 0 0 -1 1 0 0 0 0 -1 1 0 0 -1 0 0 1 -1 0 0 0 -1 1 0 0 -1 0 -1 1 0 0 -1 0 0 0 -1 0 0 1 -1 0 -1 0 0 0 -1 0 -1 0 0 0 -1 0 -1 0 0 0 0 0zm-18 -8l2 -1 0 0 0 0 1 0 0 1 0 0 1 1 0 0 1 1 0 0 0 0 1 1 0 0 1 0 0 1 1 0 0 0 1 0 0 1 1 0 0 0 1 0 0 0 1 1 0 0 1 0 0 0 1 0 0 0 1 0 1 0 0 0 1 0 1 0 0 2 -1 0 -1 0 0 0 -1 0 -1 0 0 0 -1 0 -1 0 0 0 -1 -1 0 0 -1 0 -1 0 0 0 -1 -1 0 0 -1 0 0 -1 -1 0 0 0 -1 -1 0 0 -1 0 0 -1 -1 0 0 0 -1 -1 0 0 0 -1 -1 0 0 -1 -1 0 0 0zm0 0l0 0 0 0 0 0zm-5 -25l2 0 0 0 0 1 0 1 0 1 0 1 0 1 0 1 0 1 0 0 0 1 0 1 0 1 0 1 0 0 1 1 0 1 0 1 0 0 0 1 0 1 1 1 0 0 0 1 0 0 1 1 0 1 0 0 0 1 1 0 0 1 0 0 1 1 0 1 -2 1 0 -1 0 -1 -1 0 0 -1 0 0 -1 -1 0 -1 0 0 0 -1 -1 0 0 -1 0 -1 0 -1 -1 0 0 -1 0 -1 0 -1 0 0 0 -1 -1 -1 0 -1 0 -1 0 -1 0 0 0 -1 0 -1 0 -1 0 -1 0 -1 0 -1 0 -1 0 -1 0 0zm5 -24l2 1 0 0 0 0 -1 1 0 0 0 1 -1 0 0 1 0 1 0 0 -1 1 0 0 0 1 0 1 -1 0 0 1 0 1 0 0 0 1 0 1 -1 1 0 0 0 1 0 1 0 1 0 1 0 1 0 1 0 0 0 1 0 1 0 1 0 1 0 1 -2 0 0 -1 0 -1 0 -1 0 -1 0 -1 0 -1 0 -1 0 0 0 -1 0 -1 0 -1 0 -1 1 -1 0 0 0 -1 0 -1 0 -1 0 0 1 -1 0 -1 0 -1 0 0 1 -1 0 -1 0 0 0 -1 1 -1 0 0 0 -1 1 0 0 -1 0 0 0 0zm2 1l0 0 0 0 0 0zm16 -10l0 2 0 0 -1 0 -1 0 0 0 -1 0 -1 0 0 0 -1 0 0 0 -1 1 0 0 -1 0 0 0 -1 0 0 0 -1 1 0 0 -1 0 0 0 -1 1 0 0 -1 0 0 1 -1 0 0 0 0 1 -1 0 0 0 -1 1 0 0 0 1 -1 0 0 1 -2 -1 1 -1 0 0 1 -1 0 0 0 -1 1 0 0 -1 1 0 0 -1 1 0 0 0 1 -1 0 0 1 0 0 -1 1 0 0 0 1 0 0 -1 1 0 1 0 0 0 1 0 0 0 1 -1 1 0 0 0 1 0 1 0 0 0 1 0 1 0 0 0zm0 1l0 0 0 0 0 0 0 -1 0 1zm69 35l-2 1 0 0 0 0 0 0 0 -1 0 0 -1 0 0 0 0 0 0 -1 0 0 -1 0 0 0 0 0 0 -1 0 0 -1 0 0 0 0 0 0 -1 -1 0 0 0 0 0 -1 0 0 0 0 0 0 -1 -1 0 0 0 0 0 -1 0 0 0 0 0 -1 -1 1 -1 0 0 1 0 0 0 0 0 1 0 0 0 0 1 1 0 0 0 0 0 1 0 0 0 0 1 1 0 0 0 0 0 0 0 1 1 0 0 0 0 0 0 1 1 0 0 0 0 0 0 1 0 0 1 0 0 0 0 0 0 1 1 0 0 0 0zm2 5l-2 0 0 0 0 0 0 0 0 0 0 0 0 0 0 0 0 -1 0 0 0 0 0 0 0 0 0 0 0 0 0 -1 -1 0 0 0 0 0 0 0 0 0 0 0 0 -1 0 0 0 0 0 0 0 0 0 0 0 0 0 0 0 -1 -1 0 0 0 0 0 2 -1 0 0 0 0 0 0 0 1 0 0 0 0 0 0 1 0 0 0 0 0 0 1 0 0 0 0 0 0 0 0 0 0 0 0 0 1 0 0 0 0 1 0 0 0 0 0 0 1 0 0 0 0 0 0 0 0 0 0 0 1 0 0 0 0 0 0zm-2 0l0 0 0 1 0 -1zm3 6l-2 0 0 0 0 0 0 -1 0 0 0 0 0 0 0 0 0 -1 0 0 0 0 0 0 0 0 0 0 0 -1 0 0 0 0 0 0 0 0 0 0 0 -1 0 0 0 0 0 0 0 0 0 0 0 -1 -1 0 0 0 0 0 0 0 0 0 0 0 0 -1 2 0 0 0 0 0 0 0 0 1 0 0 0 0 0 0 0 0 0 0 0 1 1 0 0 0 0 0 0 0 0 0 0 1 0 0 0 0 0 0 0 0 0 1 0 0 0 0 0 0 0 0 0 1 0 0 0 0 0 0 0 0 0 1 0 0 0 0zm-6 14l-1 -2 0 0 0 0 0 0 1 0 0 -1 0 0 0 0 1 -1 0 0 0 0 0 -1 1 0 0 -1 0 0 0 0 0 -1 1 0 0 0 0 -1 0 0 0 -1 0 0 0 -1 1 0 0 0 0 -1 0 0 0 -1 0 0 0 -1 0 0 0 -1 0 0 2 0 0 0 0 1 0 0 0 1 0 0 0 1 0 0 -1 1 0 0 0 1 0 0 0 1 0 0 0 1 0 0 -1 1 0 0 0 1 0 0 0 0 -1 1 0 0 0 1 0 0 -1 0 0 1 0 0 -1 1 0 0 0 0 -1 1 0 0 0 0zm-16 5l0 -2 0 0 1 0 0 0 1 0 0 0 1 0 0 0 1 0 1 0 0 0 1 0 0 0 1 0 0 -1 0 0 1 0 0 0 1 0 0 0 1 0 0 -1 1 0 0 0 0 0 1 0 0 -1 1 0 0 0 0 0 1 -1 0 0 0 0 1 -1 1 2 0 0 -1 1 0 0 -1 0 0 0 0 1 -1 0 0 0 -1 0 0 1 -1 0 0 0 -1 0 0 1 -1 0 0 0 -1 0 0 0 -1 0 0 0 -1 1 0 0 -1 0 0 0 -1 0 0 0 -1 0 0 0 -1 0 -1 0 0 0 -1 0 0 0zm-13 -3l1 -2 0 0 0 1 0 0 1 0 0 0 0 0 1 0 0 1 0 0 1 0 0 0 1 0 0 0 0 0 1 0 0 0 0 1 1 0 0 0 1 0 0 0 0 0 1 0 0 0 1 0 0 0 1 0 0 0 0 0 1 0 0 0 1 0 0 0 0 2 0 0 -1 0 0 0 -1 0 0 0 -1 0 0 0 -1 0 0 0 0 0 -1 0 0 0 -1 0 0 0 -1 0 0 -1 0 0 -1 0 0 0 -1 0 0 0 0 0 -1 0 0 -1 -1 0 0 0 0 0 -1 0 0 0 -1 -1 0 0 0 0 0 0zm0 0l0 0 0 0 0 0zm-10 -11l2 2 0 -2 0 1 0 0 0 1 1 0 0 0 0 1 0 0 1 0 0 1 0 0 0 0 1 1 0 0 0 0 1 0 0 1 0 0 0 0 1 1 0 0 0 0 1 0 0 1 0 0 0 0 1 0 0 0 0 1 1 0 0 0 0 0 1 0 -1 2 -1 0 0 0 0 -1 -1 0 0 0 0 0 -1 0 0 -1 0 0 -1 0 0 -1 0 0 -1 0 0 0 0 -1 -1 0 0 0 0 -1 0 0 -1 0 0 -1 0 0 -1 0 0 -1 0 0 0 0 -1 -1 0 0 0 0 0 -1 -1 0 0 -1 0 -1zm0 1l0 0 0 -1 0 1zm1 0l0 0 0 0 0 0 -1 -1 1 1zm-1 0l0 0 0 -1 0 1zm8 -4l-6 5 -2 -2 7 -4 2 0 -1 1zm-1 -1l1 -1 1 1 -2 0zm1 0l0 0 0 0 0 0 1 0 -1 0zm-1 0l1 -1 1 1 -2 0zm8 7l-1 1 0 0 0 0 -1 0 0 0 0 0 0 -1 -1 0 0 0 0 0 0 0 0 -1 -1 0 0 0 0 0 0 0 -1 -1 0 0 0 0 0 0 0 -1 -1 0 0 0 0 0 0 -1 0 0 -1 0 0 0 0 -1 0 0 0 0 -1 -1 0 0 0 0 2 -1 0 0 0 0 0 1 0 0 1 0 0 0 0 1 0 0 0 0 1 0 0 1 0 0 0 0 0 0 0 1 1 0 0 0 0 0 0 0 0 1 1 0 0 0 0 0 0 0 0 1 1 0 0 0 0 0 0 0 1 0 0 0 0 1 0 0zm0 0l0 0 0 0 0 0zm8 2l0 2 0 0 -1 0 0 0 0 0 0 0 -1 0 0 0 0 0 -1 0 0 0 0 0 0 -1 -1 0 0 0 0 0 -1 0 0 0 0 0 0 0 -1 0 0 0 0 0 -1 0 0 -1 0 0 0 0 -1 0 0 0 0 0 0 0 -1 0 0 -1 0 0 1 -1 0 0 0 0 1 0 0 0 0 0 0 0 1 1 0 0 0 0 0 0 0 0 1 0 0 0 0 0 0 0 1 0 0 0 0 0 0 1 1 0 0 0 0 0 0 0 1 0 0 0 0 0 0 0 1 0 0 0 0 0 0 0 1 0 0 0zm8 -3l1 2 0 0 0 0 0 0 0 0 0 0 -1 0 0 1 0 0 -1 0 0 0 0 0 0 0 -1 1 0 0 0 0 -1 0 0 0 0 0 0 0 -1 0 0 0 0 0 -1 0 0 1 0 0 -1 0 0 0 0 0 -1 0 0 0 -1 0 0 0 0 0 0 -2 0 0 0 0 1 0 0 0 0 0 1 0 0 0 0 0 1 0 0 0 0 0 0 -1 1 0 0 0 0 0 1 0 0 0 0 0 0 0 1 0 0 0 0 0 0 -1 1 0 0 0 0 0 0 0 0 0 1 0 0 -1 0 0 0 0 0 0zm1 2l0 0 0 0 0 0zm2 -10l2 0 0 0 0 1 0 0 0 0 0 1 0 0 0 0 0 1 0 0 0 0 0 1 0 0 0 0 0 1 -1 0 0 0 0 1 0 0 0 0 0 0 0 1 0 0 -1 0 0 0 0 1 0 0 0 0 0 0 -1 1 0 0 0 0 0 0 -1 1 -1 -2 0 0 1 0 0 0 0 -1 0 0 0 0 0 0 1 0 0 -1 0 0 0 0 0 0 0 0 0 -1 0 0 0 0 1 0 0 -1 0 0 0 0 0 0 0 -1 0 0 0 0 0 0 0 -1 0 0 0 0 0 -1 0 0 0 0 0 -1 0 0zm-4 -8l1 -1 0 0 1 0 0 0 0 0 0 1 1 0 0 0 0 0 0 1 1 0 0 0 0 0 0 1 0 0 1 0 0 0 0 1 0 0 0 0 0 1 0 0 1 0 0 1 0 0 0 0 0 1 0 0 0 0 0 1 0 0 0 1 0 0 0 0 -2 0 0 0 0 0 0 -1 0 0 0 0 0 -1 0 0 0 0 0 0 0 -1 0 0 0 0 0 -1 -1 0 0 0 0 0 0 -1 0 0 0 0 0 0 0 -1 -1 0 0 0 0 0 0 0 0 -1 -1 0 0 0 0 0 0 0 -1 0 0 -1 0 0zm-13 -2l0 -2 0 0 1 0 0 0 1 0 0 0 1 0 0 0 1 0 0 0 1 0 0 0 1 0 0 0 1 0 0 0 1 0 0 1 1 0 0 0 1 0 0 0 0 0 1 0 0 0 1 0 0 1 0 0 1 0 0 0 0 0 1 0 0 1 0 0 -1 1 0 0 0 0 -1 0 0 0 0 0 0 -1 -1 0 0 0 0 0 -1 0 0 0 -1 0 0 0 0 0 -1 -1 0 0 -1 0 0 0 0 0 -1 0 0 0 -1 0 0 0 -1 0 0 0 -1 0 0 0 -1 0 0 0 -1 0 0 0 -1 0 0 0zm-3 -2l3 0 0 2 -3 0 -1 -1 1 -1zm0 2l-1 0 0 -1 1 1zm1 -9l0 8 -2 0 0 -8 2 -1 0 1zm-2 0l0 -1 2 0 -2 1zm3 1l-2 0 1 -2 1 0 0 2 0 0zm0 0l0 0 0 0 0 0zm0 -1l0 0 0 0 0 0 0 -1 0 1zm0 1l0 0 0 0 0 0zm1 -2l0 2 0 0 0 0 0 0 0 0 0 0 0 0 0 0 0 0 0 0 0 0 0 0 0 0 0 0 0 0 0 0 0 0 0 0 0 0 0 0 0 0 0 0 0 0 0 0 0 0 0 0 0 0 -1 0 0 0 0 0 0 0 0 0 0 0 0 0 0 -2 0 0 0 0 0 0 0 0 0 0 0 0 1 0 0 0 0 0 0 0 0 0 0 0 0 0 0 0 0 0 0 0 0 0 0 0 0 0 0 0 0 0 0 0 0 0 0 0 0 0 0 0 0 0 0 0 0 0 0 0 0 0 0 0 0 0zm12 -2l1 2 0 0 0 0 -1 0 0 0 0 0 0 0 -1 1 0 0 0 0 -1 0 0 0 0 0 -1 0 0 0 -1 1 0 0 0 0 -1 0 0 0 -1 0 0 0 0 0 -1 0 0 0 -1 0 0 0 -1 0 0 0 -1 0 0 0 -1 0 0 0 -1 0 0 -2 1 0 0 0 1 0 0 0 1 0 0 0 1 0 0 0 1 0 0 0 0 0 1 0 0 0 1 0 0 0 0 0 1 0 0 0 0 0 1 -1 0 0 0 0 1 0 0 0 0 0 1 0 0 0 0 0 0 -1 1 0 0 0 0 0 0 0zm4 -7l1 0 0 0 0 0 0 1 0 0 0 0 0 1 0 0 0 0 0 1 0 0 0 0 0 1 0 0 0 0 0 0 -1 1 0 0 0 0 0 1 0 0 0 0 0 0 -1 1 0 0 0 0 0 0 0 0 -1 1 0 0 0 0 0 0 -1 0 0 1 -1 -2 0 0 0 0 1 0 0 -1 0 0 0 0 0 0 1 0 0 0 0 -1 0 0 0 0 0 0 0 0 1 -1 0 0 0 0 0 0 0 -1 0 0 0 0 0 0 0 -1 0 0 0 0 0 0 0 -1 0 0 1 0 0 0 0 -1 0 0 0 0zm-3 -6l1 -1 0 0 0 0 1 0 0 0 0 0 0 1 0 0 0 0 1 0 0 0 0 1 0 0 0 0 0 0 0 0 1 1 0 0 0 0 0 0 0 1 0 0 0 0 0 0 0 1 0 0 0 0 0 0 0 1 0 0 0 0 0 0 0 1 0 0 -1 0 0 0 0 0 0 -1 -1 0 0 0 0 0 0 -1 0 0 0 0 0 0 0 0 0 -1 0 0 0 0 0 0 0 0 0 0 0 -1 0 0 0 0 -1 0 0 0 0 0 0 -1 0 0 0 0 0 0 0 0 -1 0 0 0 0 -1 0 0 0 0zm0 0l0 0 0 0 0 0zm-7 -2l0 -2 0 0 0 0 0 0 1 0 0 0 0 0 1 0 0 0 0 0 0 0 1 0 0 0 0 1 1 0 0 0 0 0 0 0 1 0 0 0 0 0 0 0 1 0 0 0 0 1 0 0 1 0 0 0 0 0 0 0 1 0 0 0 0 1 0 0 -1 1 0 0 0 0 -1 0 0 0 0 0 0 0 0 -1 0 0 -1 0 0 0 0 0 0 0 0 0 -1 0 0 0 0 0 0 0 -1 0 0 -1 0 0 0 0 -1 0 0 0 0 0 0 0 -1 0 0 0 0 0 -1 0 0 0 0 0 0 0 0 0zm-7 2l-1 -2 0 0 0 0 1 0 0 0 0 0 0 0 1 0 0 -1 0 0 0 0 0 0 1 0 0 0 0 0 0 0 1 0 0 0 0 0 0 0 0 0 1 -1 0 0 0 0 0 0 1 0 0 0 0 0 0 0 1 0 0 0 0 0 0 0 1 0 0 2 -1 0 0 0 0 0 0 0 0 0 -1 0 0 0 0 0 0 0 -1 0 0 0 0 0 0 0 0 0 0 0 -1 1 0 0 0 0 0 0 0 0 -1 0 0 0 0 0 0 0 0 0 -1 0 0 0 0 0 0 1 0 0 -1 0 0 0 0 0zm0 0l0 0 2 -1 -2 1zm-7 5l2 -1 -2 0 0 0 0 0 1 -1 0 0 0 0 0 0 0 -1 1 0 0 0 0 0 0 0 0 -1 0 0 1 0 0 0 0 0 0 -1 0 0 1 0 0 0 0 0 0 0 0 -1 1 0 0 0 0 0 0 0 0 0 1 0 0 -1 0 0 0 0 1 2 0 0 0 0 0 0 -1 0 0 0 0 1 0 0 0 0 0 0 -1 0 0 0 0 0 0 1 0 0 0 0 -1 0 0 0 0 0 0 1 0 0 0 0 -1 0 0 0 0 0 0 1 0 0 0 0 -1 0 0 1 0 0 0 0 0 0 -2 0zm2 0l-1 1 -1 -1 2 0zm-1 0l0 0 0 0 0 0 -1 0 1 0zm1 0l-1 1 -1 -1 2 0zm-7 -6l7 5 -2 1 -6 -4 0 -2 1 0zm-1 2l0 -1 0 -1 0 2zm1 -1l0 0 0 0 0 0 -1 -1 1 1zm-1 1l0 -1 0 -1 0 2zm9 -9l1 1 0 0 -1 1 0 0 0 0 0 0 -1 0 0 0 0 1 -1 0 0 0 0 0 0 0 -1 0 0 1 0 0 0 0 -1 0 0 1 0 0 0 0 -1 0 0 1 0 0 0 0 -1 0 0 1 0 0 0 0 -1 0 0 1 0 0 0 0 0 0 -2 -1 0 0 1 0 0 -1 0 0 0 0 0 0 1 -1 0 0 0 0 0 -1 1 0 0 0 0 0 1 -1 0 0 0 0 0 0 1 -1 0 0 0 0 1 0 0 0 0 -1 0 0 1 0 0 0 0 0 1 -1 0 0 0 0 1 0 0 0 0 0zm12 -3l0 2 0 0 -1 0 0 0 -1 0 0 0 0 0 -1 0 0 0 0 0 -1 0 0 0 0 0 -1 0 0 0 0 0 -1 0 0 1 0 0 -1 0 0 0 0 0 -1 0 0 0 0 0 -1 0 0 0 0 1 -1 0 0 0 0 0 -1 0 0 0 0 0 -1 -1 0 0 1 -1 0 0 0 0 1 0 0 0 0 0 1 0 0 -1 0 0 1 0 0 0 0 0 1 0 0 0 0 0 1 0 0 0 1 -1 0 0 0 0 1 0 0 0 0 0 1 0 0 0 1 0 0 0 0 0 1 0 0 0 1 0 0 0zm14 5l-2 1 0 0 0 0 0 0 -1 -1 0 0 0 0 0 0 -1 -1 0 0 0 0 -1 0 0 0 -1 0 0 -1 0 0 -1 0 0 0 -1 0 0 0 0 0 -1 0 0 -1 -1 0 0 0 -1 0 0 0 0 0 -1 0 0 0 -1 0 0 0 -1 0 0 0 0 -2 0 0 1 0 0 0 1 0 0 0 1 0 0 0 1 0 0 0 1 0 0 1 1 0 0 0 1 0 0 0 0 0 1 0 0 0 1 1 0 0 1 0 0 0 0 0 1 1 0 0 1 0 0 0 0 0 1 1 0 0 0 0 1 1 0 0zm0 0l0 0 0 0 0 0zm5 12l-2 0 0 0 0 -1 0 0 0 -1 0 0 0 0 0 -1 0 0 0 -1 0 0 0 0 -1 -1 0 0 0 0 0 -1 0 0 0 0 0 -1 0 0 -1 0 0 -1 0 0 0 0 0 -1 -1 0 0 0 0 0 0 -1 -1 0 0 0 0 -1 0 0 -1 0 2 -1 0 0 0 0 1 0 0 1 0 0 0 0 1 1 0 0 0 0 0 1 1 0 0 0 0 1 0 0 0 0 1 1 0 0 0 1 0 0 0 0 0 1 0 0 0 1 1 0 0 1 0 0 0 0 0 1 0 0 0 1 0 0 0 1 0 0zm-3 9l-1 -2 0 0 0 0 0 0 0 0 0 0 0 -1 1 0 0 0 0 0 0 0 0 -1 0 0 0 0 0 0 0 -1 0 0 0 0 0 0 1 -1 0 0 0 0 0 0 0 -1 0 0 0 0 0 0 0 -1 0 0 0 0 0 0 0 -1 0 0 0 0 2 0 0 0 0 0 0 1 0 0 0 0 0 1 0 0 0 0 0 0 0 1 0 0 0 0 -1 1 0 0 0 0 0 0 0 1 0 0 0 0 0 1 0 0 0 0 0 0 -1 1 0 0 0 0 0 0 0 1 0 0 0 0 -1 0 0 1 0 0zm-7 4l-1 1 0 -1 1 0 0 -1 0 0 0 0 1 0 0 0 0 0 0 0 1 0 0 -1 0 0 0 0 0 0 1 0 0 0 0 -1 0 0 0 0 1 0 0 0 0 0 0 -1 0 0 1 0 0 0 0 0 0 -1 0 0 0 0 0 0 1 0 0 -1 1 2 0 0 0 0 0 0 0 0 -1 1 0 0 0 0 0 0 0 1 0 0 -1 0 0 0 0 0 0 1 -1 0 0 0 0 0 0 0 0 0 -1 1 0 0 0 0 0 0 -1 0 0 0 0 1 -1 0 0 0 0 0 0 0 -1 0 0 0 0 -1zm0 1l0 0 0 0 0 0 0 -1 0 1z"/>
   </g>
   <path class="fil1" d="M671 443c0,15 4,27 11,35 7,8 17,12 28,12 11,0 20,-4 27,-12 7,-8 11,-20 11,-36 0,-16 -4,-27 -11,-35 -7,-8 -16,-12 -27,-12 -12,0 -21,4 -28,12 -7,8 -11,20 -11,36l0 0zm-28 0c0,-14 2,-25 6,-35 3,-7 7,-13 13,-19 5,-5 11,-10 18,-12 8,-4 18,-6 29,-6 21,0 37,7 49,19 12,13 18,30 18,53 0,22 -6,40 -18,52 -12,13 -28,19 -48,19 -21,0 -37,-6 -49,-19 -12,-12 -18,-30 -18,-52l0 0zm-37 69l0 -138 27 0 0 138 -27 0 0 0zm-149 0l0 -138 42 0 25 94 25 -94 42 0 0 138 -26 0 0 -109 -28 109 -27 0 -27 -109 0 109 -26 0 0 0zm-116 0l0 -138 102 0 0 23 -74 0 0 31 69 0 0 23 -69 0 0 37 77 0 0 24 -105 0 0 0zm-100 -80l21 0 0 0c13,0 22,-1 25,-2 3,-1 6,-3 8,-6 2,-2 3,-6 3,-10 0,-5 -2,-8 -4,-11 -3,-3 -6,-5 -11,-6 -2,0 -9,0 -20,0l-22 0 0 35zm-28 80l0 -138 59 0 0 0c15,0 25,1 32,3 7,3 12,7 16,14 4,6 6,13 6,21 0,11 -3,19 -9,26 -6,7 -15,11 -27,13 6,3 11,7 15,11 4,5 9,12 16,23l0 0 16 27 -33 0 -20 -30 0 0c-7,-11 -12,-18 -15,-21 -2,-2 -5,-4 -8,-5 -3,-1 -8,-2 -14,-2l-6 0 0 58 -28 0 0 0zm-74 -51l0 -23 60 0 0 55c-6,5 -14,10 -25,15 -11,4 -22,6 -34,6 -14,0 -27,-3 -38,-9 -10,-6 -18,-15 -24,-26 -5,-11 -8,-24 -8,-37 0,-14 3,-27 9,-38 6,-11 15,-20 27,-26 9,-4 20,-7 33,-7 17,0 30,4 40,11 10,7 16,17 19,30l0 0 -28 5 0 0c-2,-7 -6,-12 -11,-16 -6,-4 -12,-6 -20,-6 -12,0 -22,4 -29,12 -8,7 -11,19 -11,34 0,16 4,29 11,37 7,8 17,12 28,12 6,0 12,-1 18,-3 6,-3 11,-5 15,-9l0 -17 -32 0 0 0zm222 -102l22 0 10 -13 10 13 23 0 -19 -26 -28 0 -18 26 0 0z"/>
  </g>
 </g>
</svg>
