<?xml version="1.0" encoding="UTF-8"?>
<svg width="993px" height="993px" viewBox="0 0 993 993" version="1.1" xmlns="http://www.w3.org/2000/svg" xmlns:xlink="http://www.w3.org/1999/xlink">
    <!-- Generator: Sketch 43.2 (39069) - http://www.bohemiancoding.com/sketch -->
    <title>internacional</title>
    <desc>Created with Sketch.</desc>
    <defs></defs>
    <g id="Page-1" stroke="none" stroke-width="1" fill="none" fill-rule="evenodd">
        <g id="50" transform="translate(-558.000000, -83.000000)">
            <g id="internacional" transform="translate(562.000000, 87.000000)">
                <path d="M984.19,492.91 C984.19,764.65 763.9,984.94 492.17,984.94 C220.44,984.94 0.14,764.63 0.14,492.9 C0.14,221.16 220.43,0.88 492.17,0.88 C763.91,0.88 984.19,221.16 984.19,492.9 L984.19,492.91 Z" id="Shape" stroke="#E5050F" stroke-width="8" fill="#FFFFFF" fill-rule="nonzero"></path>
                <path d="M887.09,492.3 C887.09,709.03 711.39,884.72 494.67,884.72 C277.95,884.72 102.26,709.02 102.26,492.3 C102.26,275.58 277.95,99.89 494.67,99.89 C711.39,99.89 887.1,275.58 887.1,492.3 L887.09,492.3 Z" id="Shape" stroke="#E5050F" stroke-width="8" fill="#FFFFFF" fill-rule="nonzero"></path>
                <path d="M870.97,492.14 C871,700.14 702.4,868.79 494.4,868.82 C286.4,868.85 117.76,700.25 117.73,492.25 L117.73,492.15 C117.69,284.14 286.29,115.5 494.29,115.47 C702.29,115.44 870.94,284.03 870.97,492.03 L870.97,492.14 Z" id="Shape" fill="#E5050F" fill-rule="nonzero"></path>
                <g id="Group" transform="translate(175.000000, 151.000000)" fill-rule="nonzero" fill="#FFFFFF">
                    <path d="M471.51,245.38 C473.74,228.05 480.99,212.4 489.59,197.19 L514.49,208.44 L536.97,177.91 L559.47,184.74 C559.8,224.89 558.71,266.24 573.52,293.98 L562.28,308.03 C536.8,283.96 509.68,261 471.51,245.38 L471.51,245.38 Z" id="Shape"></path>
                    <path d="M429.65,286.99 C379.9,286.79 415.95,228.53 423.23,206.29 C429.76,186.31 419.88,145.99 381.73,131.69 L381.73,80.54 C456.85,102.31 465.23,152.38 508.46,129.39 L508.46,154.73 C441.05,223.85 470.56,286.59 429.66,286.99 L429.65,286.99 Z" id="Shape"></path>
                    <path d="M229.2,175.47 C302.99,156.8 358.38,162.67 410.3,173.17 C417.76,194.95 411.28,209.75 404.3,224.32 C353.53,216.02 299.23,213.89 233.8,231.22 C222.75,214.55 221.82,195.84 229.2,175.47 L229.2,175.47 Z" id="Shape"></path>
                    <path d="M272.9,131.61 C184.37,146.66 204.27,251.48 272.9,279.78 L272.9,371.24 C78.44,315.12 113.58,103.6 272.9,82.22 L272.9,131.62 L272.9,131.61 Z M368.64,460.27 C342.29,463.84 314.9,463.19 286.93,460.27 L286.93,231.61 C314.16,228.84 341.4,227.91 368.63,231.61 L368.63,460.27 L368.64,460.27 Z" id="Shape"></path>
                    <path d="M0.34,346.24 C47.71,323.34 58.18,273.06 127.17,222.46 C129.15,245.92 131.83,268.82 141.81,285.88 C112.56,328.13 114.54,368.23 158.27,416.98 C148.09,440.31 135.71,457.03 122.29,470.64 C60.78,434.02 46.59,386.42 0.34,346.24 L0.34,346.24 Z M220.55,515.12 C238.09,495.74 242.97,481.43 250.45,466.08 C297.03,475.88 351.27,479.88 432.67,463.28 C441.17,480.34 437.93,496.32 435.07,512.33 C386.83,529.66 296.98,533.73 220.55,515.13 L220.55,515.12 Z" id="Shape"></path>
                    <path d="M86.17,507.55 L92.15,533.46 L128.04,535.86 C169.42,565.16 213.68,592.68 273.98,610.42 L273.98,559.78 C241.33,554.22 220.28,537.78 204.6,516.32 C251.04,466.35 260.46,403.62 231.07,390.86 C191.97,373.88 174.52,413.86 152.19,449.95 C137.63,473.48 116.61,496.93 86.17,507.55 L86.17,507.55 Z M368.9,79.2 C369.08,40.47 398.77,45.16 412.78,59.1 C410.82,10.55 371.42,4.77 352.53,22.29 C346.93,13.09 339.69,6.08 328.17,0.34 C318.073021,5.07160794 309.457342,12.4668476 303.25,21.73 C285.41,5.45 244.79,9.47 242.99,58.36 C258.01,45.4 286.32,40.82 286.32,79.38 L286.51,153.51 C313.962651,151.457367 341.527718,151.390526 368.99,153.31 L368.89,79.19 L368.9,79.2 Z" id="Shape"></path>
                    <path d="M368.98,612.18 C369.16,650.9 398.85,646.21 412.87,632.26 C410.9,680.82 371.5,686.6 352.61,669.08 C347.01,678.28 339.78,685.29 328.25,691.03 C318.153298,686.297964 309.537724,678.902814 303.33,669.64 C285.5,685.92 244.87,681.9 243.07,633 C258.1,645.97 286.41,650.55 286.41,611.99 L286.59,537.86 C314.042649,539.912668 341.607719,539.979509 369.07,538.06 L368.97,612.18 L368.98,612.18 Z" id="Shape"></path>
                    <path d="M380.96,316.58 L380.96,404.18 C481.15,437.51 465.29,562.3 382.24,559.32 L382.24,609.74 C489.65,599.1 531.23,532.48 531.89,467.56 C532.64,393.16 473.84,340.5 380.96,316.58 L380.96,316.58 Z M542.93,464.44 C543.06,453.01 544.08,442.84 536.52,420.43 L559.59,405.04 L585.66,426.41 C575.46,441.78 559.92,453.59 542.93,464.44 L542.93,464.44 Z" id="Shape"></path>
                </g>
                <text id="1" fill="#E5050F" transform="translate(366.475800, 916.834248) rotate(14.580000) translate(-366.475800, -916.834248) " font-family="Helvetica" font-size="75.01" font-weight="normal">
                    <tspan x="345.4758" y="944.834248">1</tspan>
                </text>
                <text id="9" fill="#E5050F" transform="translate(448.010064, 932.509273) rotate(7.990000) translate(-448.010064, -932.509273) " font-family="Helvetica" font-size="75.01" font-weight="normal">
                    <tspan x="427.010064" y="960.509273">9</tspan>
                </text>
                <text id="0" fill="#E5050F" transform="translate(531.444381, 934.477947) rotate(-7.720000) translate(-531.444381, -934.477947) " font-family="Helvetica" font-size="75.01" font-weight="normal">
                    <tspan x="510.444381" y="962.477947">0</tspan>
                </text>
                <text id="9" fill="#E5050F" transform="translate(615.002700, 918.605494) rotate(-10.330000) translate(-615.002700, -918.605494) " font-family="Helvetica" font-size="75.01" font-weight="normal">
                    <tspan x="594.0027" y="946.605494">9</tspan>
                </text>
                <path d="M925.19,499.5 L924.25,472.97 L964.26,471.58 L963.65,454.23 L912.49,456 L914.03,499.88 L925.19,499.5 Z M923.19,395.15 L919.1,378.91 L939.28,382.79 L923.18,395.15 L923.19,395.15 Z M897.07,374.91 L907.03,376.66 L913.47,402.28 L905.43,408.2 L910.06,426.62 L953.61,389.94 L949,371.59 L892.9,358.32 L897.07,374.91 L897.07,374.91 Z M853.77,276.86 L861.48,291.26 L891.93,275.18 L872.03,310.95 L882.58,330.65 L927.78,306.79 L920.07,292.39 L889.75,308.39 L909.15,272.01 L898.97,253 L853.77,276.86 Z M823.27,195.46 C831.31,188.52 839.22,188.62 844.91,195.12 C851.07,202.15 849.98,209.72 841.61,216.95 C833.93,223.58 826.84,223.34 820.64,216.25 C814.53,209.27 815.37,202.27 823.27,195.46 L823.27,195.46 Z M812.29,222.33 C826.52,238.58 840.66,241.16 853.59,229.99 C866.74,218.65 866.69,204.29 853.12,188.78 C839.4,173.12 824.75,170.8 812.08,181.73 C798.99,193.03 798.95,207.09 812.29,222.33 L812.29,222.33 Z M751.99,164.13 L765.77,174.83 L797.29,134.78 L783.5,124.08 L752,164.15 L751.99,164.13 Z M722.69,104.23 L738.49,112.93 C743.57,102.23 738.39,92.45 722.89,83.93 C704.99,74.07 690.3,77.36 681.86,92.49 C674.2,106.2 679.12,119.81 695.98,129.09 C713.01,138.47 724.59,137.97 732.3,126.79 L716.44,118.06 C712.74,122.8 707.8,123.64 702.2,120.56 C694.55,116.35 692.95,109.17 697.81,100.46 C702.88,91.39 710.08,88.82 717.79,93.06 C722.65,95.73 724.3,99.46 722.69,104.23 L722.69,104.23 Z M623.16,75.67 L606.88,71.34 L620.08,55.71 L623.16,75.67 L623.16,75.67 Z M592.67,88.53 L599.05,80.73 L624.73,87.57 L626.05,97.42 L644.53,102.33 L633.33,46.73 L614.92,41.83 L576.04,84.11 L592.67,88.53 L592.67,88.53 Z M486.28,77.85 L502.7,77.63 L502.8,43.4 L524.66,77.76 L547.12,79.41 L550.06,27.34 L533.63,27.3 L530.99,61.4 L508.09,26.65 L486.41,26.52 L486.28,77.85 L486.28,77.85 Z M407.61,45.61 L417.2,43.93 C421.82,43.12 424.08,44.09 424.74,47.77 C425.35,51.25 423.53,53.15 418.98,53.94 L409.38,55.62 L407.61,45.61 Z M397.81,88.47 L414.69,85.51 L411.21,65.91 L421.85,64.04 C426.69,63.2 428.57,63.66 429.73,68.54 L431.46,75.41 C431.936062,77.7619913 432.751239,80.0323607 433.88,82.15 L451.38,79.09 C450.031172,76.4950783 448.900605,73.7924209 448,71.01 L445.62,62.9 C443.77,56.55 440.09,54.9 432.02,55.89 C439.9,53.86 443.72,48.53 442.57,42.07 C441.78,37.62 439.31,34.25 435.94,32.77 C431.71,30.92 426.04,31.92 417.84,33.35 L388.93,38.41 L397.82,88.47 L397.81,88.47 Z M320.15,115.15 L363.75,98.53 L359.75,88.18 L332.15,98.7 L328.58,89.48 L353.2,80.09 L349.3,70.01 L324.68,79.4 L321.75,71.82 L348.37,61.67 L344.42,51.46 L301.8,67.7 L320.15,115.15 L320.15,115.15 Z M258.57,150.61 L273.41,141.41 L252.23,107.76 L268.39,97.74 L262.44,88.28 L215.29,117.53 L221.24,126.99 L237.4,116.96 L258.57,150.61 L258.57,150.61 Z M174,227.15 L185.4,215.42 L160.6,191.64 L201.02,199.37 L216.62,183.33 L179.8,148.02 L168.4,159.75 L193.1,183.43 L152.24,176.36 L137.17,191.84 L174,227.15 Z M142.13,272.43 L151.66,257.87 L108.72,230.18 L99.2,244.75 L142.13,272.43 L142.13,272.43 Z M123.13,306.69 L112.16,301.62 L105.64,315.5 L116.6,320.57 L123.12,306.69 L123.13,306.69 Z M73.84,335.58 L79.72,318.62 C68.24,315.52 59.42,322.29 53.66,338.91 C47,358.13 52.82,371.91 69.29,377.55 C84.21,382.65 96.87,375.48 103.14,357.39 C109.48,339.1 106.97,327.86 94.55,322.27 L88.65,339.29 C93.99,342.09 95.68,346.77 93.6,352.78 C90.75,360.99 83.9,363.8 74.43,360.56 C64.55,357.18 60.74,350.58 63.61,342.31 C65.41,337.11 68.84,334.83 73.84,335.58 L73.84,335.58 Z M85.32,422.05 L73.35,420.38 L71.21,435.55 L83.18,437.22 L85.33,422.05 L85.32,422.05 Z M62.69,480.91 L62.1,497.63 L62.89,497.66 C75.04,498.08 80.16,490.35 80.77,472.92 C81.42,454.58 75.77,444.78 65.54,444.42 C61,444.27 57.02,446.03 54.41,449.33 C51.21,453.46 49.81,458.78 48.17,465.08 C45.78,474.25 45.2,478.54 41.57,478.41 C39.23,478.33 37.9,475.67 38.07,470.73 C38.3,464.53 40.33,461.35 43.81,461.47 L44.02,461.47 L44.58,445.6 L44.02,445.58 C33.64,445.22 28.6,453.1 28.02,469.75 C27.41,486.89 32.57,495.9 42.59,496.25 C46.64,496.39 50.03,495.16 52.54,492.57 C56.67,488.33 58.19,481.6 60.5,472.64 C62.3,465.64 62.93,462.06 66.34,462.18 C69.04,462.27 70.71,465.44 70.51,470.94 C70.27,477.92 68.31,481.24 64.25,481.11 C63.75,481.09 63.25,481.01 62.69,480.91 L62.69,480.91 Z" id="Shape" fill="#E5050F" fill-rule="nonzero"></path>
            </g>
        </g>
    </g>
</svg>