<?xml version="1.0" encoding="UTF-8"?>
<!DOCTYPE svg PUBLIC "-//W3C//DTD SVG 1.1//EN" "http://www.w3.org/Graphics/SVG/1.1/DTD/svg11.dtd">
<!-- Creator: CorelDRAW X8 -->
<svg xmlns="http://www.w3.org/2000/svg" xml:space="preserve" width="100%" height="100%" version="1.1" style="shape-rendering:geometricPrecision; text-rendering:geometricPrecision; image-rendering:optimizeQuality; fill-rule:evenodd; clip-rule:evenodd"
viewBox="0 0 1510 1840"
 xmlns:xlink="http://www.w3.org/1999/xlink">
 <defs>
  <style type="text/css">
   <![CDATA[
    .str0 {stroke:#B4B4B4;stroke-width:7.62}
    .str1 {stroke:#B4B4B4;stroke-width:7.62;stroke-linecap:round;stroke-linejoin:round}
    .fil2 {fill:none}
    .fil1 {fill:#C8C8C8}
    .fil6 {fill:#9F9F9F}
    .fil7 {fill:#888888}
    .fil4 {fill:#939394}
    .fil5 {fill:#BDBDBE}
    .fil0 {fill:white}
    .fil3 {fill:#B4B4B4;fill-rule:nonzero}
   ]]>
  </style>
    <clipPath id="id0">
     <path d="M21 20l0 0 0 823c0,754 734,977 734,977 0,0 734,-223 734,-977l0 -823 -1468 0z"/>
    </clipPath>
 </defs>
 <g id="Camada_x0020_1">
  <metadata id="CorelCorpID_0Corel-Layer"/>
  <g id="_1012473472">
   <g id="fundo">
    <path class="fil0 str0" d="M21 20l0 0 0 823c0,754 734,977 734,977 0,0 734,-223 734,-977l0 -823 -1468 0z"/>
   </g>
   <g>
   </g>
   <g style="clip-path:url(#id0)">
    <g id="_1012465312">
     <rect class="fil1" x="304" y="17" width="181" height="1896"/>
     <rect class="fil1" x="665" y="17" width="181" height="1896"/>
     <rect class="fil1" x="1026" y="17" width="181" height="1896"/>
     <rect id="estampa2" class="fil1" x="-148" y="17" width="1806" height="361"/>
    </g>
   </g>
   <path class="fil2 str0" d="M21 20l0 0 0 823c0,754 734,977 734,977 0,0 734,-223 734,-977l0 -823 -1468 0z"/>
   <g id="borda">
    <g>
     <path class="fil3" d="M21 20l0 0 0 0 0 0 18 0 -18 0zm-18 0l0 -18 18 0 -18 18zm0 823l0 -823 36 0 0 823 0 0 -36 0zm747 960l10 34 -10 0 -3 0 -6 -3 -10 -3 -14 -5 -17 -7 -20 -8 -22 -10 -25 -11 -28 -14 -29 -15 -31 -17 -32 -19 -33 -21 -34 -23 -35 -25 -34 -28 -35 -30 -35 -32 -34 -34 -33 -37 -33 -39 -31 -42 -29 -45 -27 -47 -25 -50 -23 -52 -20 -56 -17 -58 -14 -61 -10 -64 -6 -67 -2 -71 36 0 2 68 6 65 10 62 13 59 16 56 19 54 22 50 25 48 26 46 28 42 30 41 31 38 32 35 33 33 34 31 33 29 34 27 34 24 33 23 32 20 31 19 30 16 29 15 26 13 24 11 22 10 20 8 16 6 13 5 10 3 5 2 2 1 -10 0zm10 34l-5 2 -5 -2 10 0zm711 -994l36 0 0 0 -2 71 -6 67 -10 64 -14 61 -17 58 -20 56 -23 52 -25 50 -27 47 -29 45 -31 42 -33 39 -33 37 -34 34 -35 32 -35 30 -34 28 -35 25 -34 23 -33 21 -32 19 -31 17 -29 15 -28 14 -25 11 -22 10 -20 8 -17 7 -14 5 -10 3 -6 3 -3 0 -10 -34 1 -1 6 -2 10 -3 13 -5 16 -6 20 -8 22 -10 24 -11 26 -13 29 -15 30 -16 31 -19 32 -20 33 -23 34 -24 34 -27 33 -29 34 -31 33 -33 32 -35 31 -38 30 -41 28 -42 26 -46 25 -48 22 -50 19 -54 16 -56 13 -59 10 -62 6 -65 2 -68 0 0zm36 -823l0 823 -36 0 0 -823 18 -18 18 18zm-18 -18l18 0 0 18 -18 -18zm-1468 0l1468 0 0 36 -1468 0 -18 -18 18 -18zm-18 18l0 -18 18 0 -18 18z"/>
    </g>
   </g>
   <g>
    <path id="svg_31" class="fil4 str1" d="M800 1048l26 15c-4,2 -7,3 -11,4 -2,-2 -4,-3 -7,-3 -3,0 -6,2 -8,4 -2,-2 -5,-4 -9,-4 -3,0 -6,2 -8,4 -2,-2 -5,-4 -9,-4 -3,0 -6,2 -8,4 -3,-2 -6,-4 -9,-4 -3,0 -6,2 -8,4 -3,-2 -6,-4 -9,-4 -3,0 -6,2 -8,4 -3,-2 -6,-4 -9,-4 -3,0 -6,2 -9,4 -2,-2 -5,-4 -8,-4 -3,0 -6,1 -8,3 -1,0 -1,0 -2,-1 -2,-1 -4,-1 -6,-1l24 -18 86 1 0 0z"/>
    <path id="svg_32" class="fil4 str1" d="M974 876c0,1 0,3 0,4 0,0 0,0 0,0 -3,31 -13,59 -28,85l-7 -21 24 -83 10 -5c1,7 1,13 1,20z"/>
    <polygon id="svg_33" class="fil5 str1" points="920,786 963,861 939,944 863,980 812,914 851,807 "/>
    <path id="svg_34" class="fil4 str1" d="M812 914l51 66 -57 61c-59,0 -111,-32 -139,-80l32 -47 113 0 0 0z"/>
    <path id="svg_35" class="fil5 str1" d="M665 807l-6 -2c19,-41 55,-73 98,-87l1 26 -93 63z"/>
    <path id="svg_36" class="fil5 str1" d="M553 861l19 83 -5 23c-20,-33 -31,-71 -31,-112l17 6z"/>
    <path id="svg_37" class="fil5 str1" d="M665 807l34 107 -32 47c-15,-25 -24,-54 -24,-85 0,-26 6,-50 16,-71l6 2 0 0z"/>
    <path id="svg_38" class="fil4 str1" d="M800 1048l-86 -1 -62 -65 15 -21c28,48 80,80 139,80l-6 7z"/>
    <path id="svg_39" class="fil5 str1" d="M686 646l-10 19 -68 45 -18 0c25,-29 59,-52 96,-64l0 0z"/>
    <path id="svg_40" class="fil0 str1" d="M667 961l-15 21 -80 -38 -19 -83 37 -76 69 20c-10,21 -16,45 -16,71 0,31 9,60 24,85l0 0z"/>
    <path id="svg_41" class="fil5 str1" d="M913 747l7 39 -69 21 -93 -63 -1 -26c16,-5 34,-8 52,-8 39,0 75,14 104,37z"/>
    <path id="svg_42" class="fil0 str1" d="M756 674l1 44c-43,14 -79,46 -98,87l-69 -20 18 -75 68 -45 80 9 0 0z"/>
    <path id="svg_43" class="fil0 str1" d="M906 709l7 38c-29,-23 -65,-37 -104,-37 -18,0 -36,3 -52,8l-1 -44 82 -9 68 44 0 0z"/>
    <path id="svg_44" class="fil5 str1" d="M922 710l-16 -1 -68 -44 -5 -16c35,13 65,34 89,61l0 0z"/>
    <path id="svg_45" class="fil4 str1" d="M809 1042c48,0 92,-22 123,-55 -27,35 -64,62 -106,76l-26 -15 6 -7c1,1 2,1 3,1z"/>
    <path id="svg_46" class="fil6 str1" d="M939 944l7 21c-4,8 -9,15 -14,22 -31,33 -75,55 -123,55 -1,0 -2,0 -3,-1l57 -61 76 -36z"/>
    <path id="svg_47" class="fil6 str1" d="M973 856l-10 5 -43 -75 -7 -39c32,27 55,65 60,109z"/>
    <path id="svg_48" class="fil6 str1" d="M976 855l-3 1c-5,-44 -28,-82 -60,-109l-7 -38 16 1c33,39 54,89 54,145z"/>
    <polygon id="svg_49" class="fil6 str1" points="851,807 812,914 699,914 665,807 758,744 "/>
    <path id="svg_50" class="fil6 str1" d="M833 649l5 16 -82 9 -80 -9 10 -19c22,-7 45,-11 70,-11 27,0 53,5 77,14l0 0z"/>
    <path id="svg_51" class="fil6 str1" d="M608 710l-18 75 -37 76 -17 -6c0,-56 20,-106 54,-145l18 0 0 0z"/>
    <path id="svg_52" class="fil6 str1" d="M652 982l62 65 -24 18c0,-1 -1,-1 -1,-1l0 0c-52,-16 -95,-51 -122,-97l5 -23 80 38 0 0z"/>
    <path id="svg_53" class="fil4 str1" d="M800 1048l-86 -1 -24 18 0 1c16,5 32,8 49,9l0 0 0 0c29,2 59,-2 87,-12l-26 -15 0 0z"/>
   </g>
   <path id="svg_54" class="fil7 str1" d="M373 1027c17,9 35,7 47,0 -4,-14 -16,-27 -33,-36 -17,-9 -34,-11 -47,-5 2,16 15,32 33,41z"/>
   <path id="svg_55" class="fil7 str1" d="M465 984c-6,16 -17,29 -30,35 -9,-11 -11,-28 -4,-45 6,-16 20,-27 33,-31 7,10 7,25 1,41z"/>
   <path id="svg_56" class="fil7 str1" d="M408 1090c19,6 36,2 47,-7 -6,-13 -20,-24 -38,-31 -18,-6 -36,-5 -48,2 5,15 20,30 39,36z"/>
   <path id="svg_57" class="fil7 str1" d="M493 1033c-4,17 -13,32 -24,39 -11,-9 -16,-26 -12,-43 4,-18 16,-31 29,-37 8,10 10,24 7,41l0 0z"/>
   <path id="svg_58" class="fil7 str1" d="M453 1146c19,3 36,-3 45,-14 -8,-12 -23,-21 -42,-24 -19,-3 -36,0 -47,9 7,14 24,27 44,29z"/>
   <path id="svg_59" class="fil7 str1" d="M528 1077c-1,17 -8,34 -18,43 -12,-8 -19,-24 -18,-42 1,-18 11,-32 23,-40 9,8 14,22 13,39l0 0z"/>
   <path id="svg_60" class="fil7 str1" d="M506 1195c19,0 35,-9 42,-21 -10,-10 -26,-16 -45,-17 -19,0 -36,5 -45,16 9,13 28,23 48,22z"/>
   <path id="svg_61" class="fil7 str1" d="M569 1116c2,17 -2,34 -11,45 -13,-6 -23,-21 -24,-39 -1,-18 6,-34 16,-43 10,7 17,20 19,37l0 0z"/>
   <path id="svg_62" class="fil7 str1" d="M565 1236c20,-3 34,-15 39,-27 -11,-9 -29,-13 -47,-11 -19,3 -35,11 -42,23 11,12 31,18 50,15z"/>
   <path id="svg_63" class="fil7 str1" d="M616 1147c4,17 3,34 -4,47 -13,-4 -26,-17 -30,-35 -4,-17 1,-34 10,-45 11,5 19,17 24,33z"/>
   <path id="svg_64" class="fil7 str1" d="M631 1267c18,-6 30,-20 34,-33 -13,-7 -31,-8 -49,-3 -18,5 -33,16 -38,29 13,9 34,13 53,7l0 0z"/>
   <path id="svg_65" class="fil7 str1" d="M667 1171c7,16 8,34 3,47 -14,-2 -28,-13 -35,-30 -6,-16 -4,-34 3,-46 11,3 22,14 29,29z"/>
   <path id="svg_66" class="fil7 str1" d="M700 1287c17,-9 27,-24 28,-38 -13,-5 -31,-3 -48,5 -17,8 -30,21 -33,34 14,8 35,8 53,-1l0 0z"/>
   <path id="svg_67" class="fil7 str1" d="M721 1187c9,15 13,32 10,46 -14,0 -29,-9 -39,-24 -9,-16 -9,-33 -4,-46 12,1 24,10 33,24l0 0z"/>
   <path id="svg_68" class="fil7 str1" d="M1051 984c6,16 17,29 30,35 8,-11 11,-28 4,-45 -7,-16 -20,-27 -34,-31 -6,10 -6,25 0,41z"/>
   <path id="svg_69" class="fil7 str1" d="M1143 1027c-18,9 -35,7 -47,0 4,-14 16,-27 33,-36 16,-9 34,-11 47,-5 -3,16 -15,32 -33,41z"/>
   <path id="svg_70" class="fil7 str1" d="M1023 1033c4,17 12,32 24,39 10,-9 15,-26 11,-43 -4,-18 -16,-31 -28,-37 -8,10 -10,24 -7,41z"/>
   <path id="svg_71" class="fil7 str1" d="M1108 1090c-19,6 -37,2 -47,-7 6,-13 20,-24 38,-31 18,-6 36,-5 47,2 -5,15 -20,30 -38,36z"/>
   <path id="svg_72" class="fil7 str1" d="M988 1077c1,17 7,34 18,43 11,-8 19,-24 18,-42 -2,-18 -11,-32 -23,-40 -9,8 -14,22 -13,39l0 0z"/>
   <path id="svg_73" class="fil7 str1" d="M1063 1146c-20,3 -36,-3 -45,-14 8,-12 23,-21 42,-24 18,-3 36,0 47,9 -8,14 -25,27 -44,29z"/>
   <path id="svg_74" class="fil7 str1" d="M947 1116c-2,17 2,34 11,45 12,-6 22,-21 24,-39 1,-18 -6,-34 -17,-43 -10,7 -17,20 -18,37l0 0z"/>
   <path id="svg_75" class="fil7 str1" d="M1010 1195c-20,0 -35,-9 -42,-21 10,-10 26,-16 45,-17 19,0 36,5 45,16 -10,13 -28,23 -48,22l0 0z"/>
   <path id="svg_76" class="fil7 str1" d="M900 1147c-4,17 -3,34 4,47 13,-4 25,-17 30,-35 4,-17 -1,-34 -10,-45 -11,5 -20,17 -24,33z"/>
   <path id="svg_77" class="fil7 str1" d="M950 1236c-19,-3 -33,-15 -38,-27 11,-9 28,-13 47,-11 19,3 35,11 42,23 -11,12 -31,18 -51,15l0 0z"/>
   <path id="svg_78" class="fil7 str1" d="M849 1171c-7,16 -8,34 -3,47 14,-2 28,-13 34,-30 7,-16 5,-34 -2,-46 -12,3 -22,14 -29,29z"/>
   <path id="svg_79" class="fil7 str1" d="M885 1267c-19,-6 -31,-20 -34,-33 13,-7 30,-8 49,-3 18,5 32,16 38,29 -14,9 -34,13 -53,7z"/>
   <path id="svg_80" class="fil7 str1" d="M795 1187c-9,15 -13,32 -10,46 13,0 29,-9 38,-24 9,-16 10,-33 5,-46 -12,1 -24,10 -33,24l0 0z"/>
   <path id="svg_81" class="fil7 str1" d="M816 1287c-18,-9 -27,-24 -29,-38 14,-5 31,-3 49,5 17,8 29,21 33,34 -15,8 -35,8 -53,-1z"/>
  </g>
 </g>
</svg>
