<?xml version="1.0" encoding="UTF-8"?>
<!DOCTYPE svg PUBLIC "-//W3C//DTD SVG 1.1//EN" "http://www.w3.org/Graphics/SVG/1.1/DTD/svg11.dtd">
<!-- Creator: CorelDRAW X8 -->
<svg xmlns="http://www.w3.org/2000/svg" xml:space="preserve" width="100%" height="100%" version="1.1" style="shape-rendering:geometricPrecision; text-rendering:geometricPrecision; image-rendering:optimizeQuality; fill-rule:evenodd; clip-rule:evenodd"
viewBox="0 0 847 847"
 xmlns:xlink="http://www.w3.org/1999/xlink">
 <defs>
  <style type="text/css">
   <![CDATA[
    .fil0 {fill:#026A2E}
    .fil1 {fill:white}
   ]]>
  </style>
 </defs>
 <g id="Camada_x0020_1">
  <metadata id="CorelCorpID_0Corel-Layer"/>
  <g id="_1659863216">
   <path class="fil0" d="M423 849c235,0 426,-191 426,-426 0,-234 -191,-425 -426,-425 -234,0 -425,191 -425,425 0,235 191,426 425,426z"/>
   <path class="fil1" d="M423 835c-113,0 -216,-47 -290,-121 -75,-75 -121,-178 -121,-291 0,-113 46,-216 121,-290 74,-75 177,-121 290,-121 113,0 217,46 291,121 74,74 121,177 121,290 0,113 -47,216 -121,291 -74,74 -178,121 -291,121z"/>
   <path class="fil0" d="M423 826c111,0 212,-45 285,-118 73,-73 118,-174 118,-285 0,-110 -45,-211 -118,-284 -73,-73 -174,-119 -285,-119 -110,0 -211,46 -284,119 -73,73 -119,174 -119,284 0,111 46,212 119,285 73,73 174,118 284,118z"/>
   <polygon class="fil1" points="206,135 201,146 210,155 198,153 192,165 190,152 178,151 188,145 186,132 195,141 "/>
   <polygon class="fil1" points="178,168 173,184 186,193 170,193 166,209 160,194 144,194 157,185 152,169 165,178 "/>
   <polygon class="fil1" points="147,218 147,237 165,244 147,249 147,269 135,253 117,258 128,243 117,227 136,233 "/>
   <polygon class="fil1" points="126,280 131,308 159,312 133,325 139,353 118,334 93,347 105,321 85,301 113,305 "/>
   <polygon class="fil1" points="641,135 646,146 636,155 649,153 654,165 657,152 669,151 658,145 661,132 652,141 "/>
   <polygon class="fil1" points="669,168 674,184 660,193 676,193 681,209 686,194 702,194 690,185 695,169 682,178 "/>
   <polygon class="fil1" points="700,218 700,237 682,244 700,249 700,269 712,253 730,258 718,243 730,227 711,233 "/>
   <polygon class="fil1" points="721,280 716,308 688,312 713,325 708,353 729,334 754,347 741,321 762,301 733,305 "/>
   <path class="fil1" d="M283 482c-1,-1 -3,-1 -3,0l-136 179c-1,2 -1,6 1,8 23,25 47,46 75,66 1,1 4,3 6,0l14 -34c1,-2 0,-5 -1,-6 -15,-9 -27,-20 -39,-32 -2,-2 -2,-6 0,-8l106 -155c1,0 0,-2 -1,-2 -8,-5 -15,-10 -22,-16z"/>
   <path class="fil1" d="M409 797c2,0 2,-1 2,-2l1 -262c0,-1 -1,-2 -1,-2 -7,0 -14,-1 -21,-2 0,0 -1,1 -2,2l-32 73c0,1 -1,1 -1,-1l-3 -81c0,-2 0,-2 -1,-2 -8,-3 -15,-6 -23,-10 0,0 -1,0 -2,1l-95 229c0,1 0,2 1,3 9,6 19,11 28,16 1,1 4,1 4,-1l59 -163c0,-2 1,-3 1,0l2 139c0,7 1,7 4,0l55 -123c1,-2 2,-2 1,0l-14 181c0,1 1,2 2,2 12,2 23,3 35,3z"/>
   <path class="fil1" d="M504 548c-12,4 -25,7 -43,10 -1,0 -2,2 -2,3l2 69c0,1 0,2 2,2 18,-2 35,-5 52,-9 2,-1 3,0 3,3l4 27c1,1 1,3 -1,4 -19,4 -37,8 -56,11 -2,0 -4,1 -4,3l2 72c0,3 2,5 4,5 22,-1 44,-7 65,-13 1,0 3,0 4,3l6 37c0,2 -2,4 -4,4 -36,11 -70,18 -108,19 -3,0 -5,-1 -5,-4l1 -260c0,-1 3,-2 4,-2 25,-2 46,-5 68,-13 2,-1 3,-1 3,0l4 27c1,1 0,2 -1,2z"/>
   <path class="fil1" d="M559 772c-1,0 -2,0 -2,-2l-47 -255c-1,0 0,-1 1,-1 7,-3 14,-7 20,-10 1,-1 2,-1 2,0l65 246c1,2 1,3 0,3 -13,7 -25,13 -39,19z"/>
   <path class="fil1" d="M763 439c-2,9 -4,17 -6,24 -1,1 -1,2 -3,2l-6 -3c0,-1 -2,0 -2,1l-9 21c0,2 0,3 1,5l40 26c1,1 4,1 5,-2 7,-32 10,-63 10,-95 0,-2 0,-3 -2,-4l-65 -22c-3,-2 -6,-1 -8,2 -6,11 -11,20 -16,28 -1,1 -2,3 -5,2l-32 -16c-1,-1 -2,-1 -1,-4l5 -11c1,-2 3,-1 4,-1l11 4c1,1 2,1 3,-1l5 -13c0,-1 -1,-3 -2,-3l-43 -15c-2,-1 -3,1 -3,2 -5,14 -11,28 -18,42 -2,2 -1,4 1,5l80 55c2,1 4,1 6,-2 8,-13 16,-26 23,-39 1,-1 1,-2 3,-1l23 10c1,0 1,1 1,3z"/>
   <path class="fil1" d="M75 549c0,-2 1,-3 2,-4l163 -104c1,0 3,0 4,1 4,6 9,11 14,17 1,1 2,2 1,4l-119 195c-1,1 -4,0 -5,-1 -5,-6 -9,-12 -14,-19 0,-1 0,-3 1,-4l28 -45c1,-2 1,-4 0,-6 -5,-13 -9,-25 -13,-38 0,-1 -3,-1 -4,-1l-44 30c-1,1 -4,0 -4,-1 -4,-8 -7,-16 -10,-24zm133 -55l-46 31c-1,1 -2,3 -1,4 2,8 5,16 8,23 0,2 2,3 3,1l37 -58c0,-1 0,-1 -1,-1z"/>
   <path class="fil1" d="M701 671c-1,0 -3,1 -4,0l-72 -87c0,-1 -1,-2 -2,-1l-13 9c-1,0 -2,2 -2,4l45 118c1,1 0,2 -1,3 -11,9 -23,18 -36,25 0,1 -2,2 -2,0l-72 -244 2 -2c18,-12 32,-22 46,-38 6,-6 12,-2 15,2l47 78c4,7 4,17 -1,24l-2 1 71 79c2,1 1,3 0,4 -6,8 -12,16 -19,25zm-87 -129l-20 -38c-1,-2 -2,-2 -3,-1 -4,2 -9,6 -13,9 -1,1 -1,1 0,2l16 43c0,0 1,1 1,0l17 -12c1,-1 2,-2 2,-3z"/>
   <path class="fil1" d="M770 552c0,1 -1,2 -2,2l-38 -27c-1,0 -2,0 -3,1l-16 40c0,1 0,2 1,3l26 45c1,1 1,2 1,2 -5,8 -10,15 -15,23 0,0 -1,0 -2,0l-118 -197c-1,-1 -1,-2 0,-3 5,-6 9,-13 14,-19 0,-1 1,-2 2,-1l158 102c1,1 1,1 1,3 -2,8 -5,17 -9,26zm-70 -45l-43 -30c-2,-1 -2,-1 -1,1l34 57c0,1 2,3 3,0 1,-3 7,-16 9,-24 0,-2 -1,-3 -2,-4z"/>
   <path class="fil1" d="M147 487c-12,-16 -23,-34 -34,-53 0,-2 -2,-2 -3,-2l-52 18c-3,1 -4,-1 -4,-2 -1,-12 -1,-24 -1,-36 0,-3 2,-4 4,-5l148 -29c1,0 3,1 3,2 7,18 16,33 26,49 1,1 0,3 -1,4l-81 55c-1,1 -3,1 -5,-1zm48 -59c-5,-6 -9,-13 -13,-20 0,0 -1,0 -1,0l-38 13c-2,1 -2,2 -2,2 5,10 11,18 17,27 1,1 3,2 4,1l33 -22c0,0 0,-1 0,-1z"/>
   <path class="fil1" d="M423 498c119,0 216,-97 216,-216 0,-119 -97,-216 -216,-216 -119,0 -215,97 -215,216 0,119 96,216 215,216z"/>
   <path class="fil0" d="M423 489c-57,0 -108,-24 -146,-61 -37,-37 -60,-89 -60,-146 0,-114 92,-207 206,-207 57,0 109,23 146,61 38,37 61,89 61,146 0,114 -93,207 -207,207z"/>
   <path class="fil1" d="M363 119c22,-13 40,-27 52,-38 -58,2 -110,30 -146,72 32,-5 63,-16 94,-34z"/>
   <path class="fil1" d="M483 119c31,18 63,29 94,34 -4,-5 -8,-9 -12,-13 -35,-35 -82,-57 -134,-59 13,11 30,25 52,38z"/>
   <path class="fil1" d="M296 340c-29,-58 -43,-122 -39,-171 -22,32 -35,71 -35,113 0,56 23,106 59,142 35,34 81,56 133,59 -62,-46 -98,-102 -118,-143z"/>
   <path class="fil1" d="M590 170c4,48 -11,112 -39,170 -28,57 -69,106 -118,143 106,-5 191,-93 191,-201 0,-42 -12,-80 -34,-112z"/>
   <path class="fil1" d="M423 482c56,-39 96,-91 122,-145 32,-65 44,-132 37,-177 -40,-4 -74,-19 -102,-35 -26,-16 -46,-32 -57,-43 -11,11 -30,27 -57,43 -27,16 -62,30 -102,35 -6,45 5,112 38,177 26,53 66,106 121,145z"/>
   <path class="fil0" d="M423 474c-5,-4 -11,-7 -16,-12 -43,-34 -76,-79 -99,-124 -27,-54 -40,-110 -41,-152 0,-7 0,-15 1,-22 11,-1 21,-3 31,-6 18,-4 35,-10 50,-18 24,-11 43,-25 57,-35 6,-6 12,-11 17,-16 6,5 11,10 18,15 13,11 33,25 57,36 17,8 36,16 57,20 7,2 16,3 24,4 0,7 1,14 1,21 -1,42 -14,98 -41,153 -23,46 -56,90 -100,125 -5,4 -11,8 -16,11z"/>
   <path class="fil1" d="M446 116c-10,-7 -18,-14 -23,-19 -5,5 -12,12 -23,19l46 0z"/>
   <path class="fil1" d="M484 140c-11,-6 -21,-12 -29,-18l-63 0c-9,6 -18,12 -29,18l121 0z"/>
   <path class="fil1" d="M543 163c-17,-4 -33,-10 -48,-17l-144 0c-14,7 -30,13 -48,17l240 0z"/>
   <path class="fil1" d="M574 187c0,-6 0,-12 -1,-17l-300 0c0,5 0,11 0,17l301 0z"/>
   <path class="fil1" d="M572 211c1,-6 1,-12 1,-18l-300 0c0,6 1,12 2,18l297 0z"/>
   <path class="fil1" d="M568 235c2,-6 2,-12 3,-18l-296 0c1,6 2,12 4,18l289 0z"/>
   <path class="fil1" d="M563 258c1,-5 3,-11 4,-17l-287 0c1,6 3,12 4,17l279 0z"/>
   <path class="fil1" d="M555 282c2,-6 4,-12 6,-18l-275 0c2,6 3,12 5,18l264 0z"/>
   <path class="fil1" d="M547 306c2,-6 4,-12 6,-18l-260 0c2,6 5,12 7,18l247 0z"/>
   <path class="fil1" d="M536 330c3,-6 6,-12 8,-18l-241 0c2,6 5,12 8,18l225 0z"/>
   <path class="fil1" d="M524 354c3,-6 6,-12 9,-18l-219 0c3,6 6,12 9,18l201 0z"/>
   <path class="fil1" d="M509 377c4,-6 7,-12 11,-18l-193 0c3,6 7,12 11,18l171 0z"/>
   <path class="fil1" d="M492 401c4,-6 9,-12 13,-18l-163 0c4,6 8,12 13,18l137 0z"/>
   <path class="fil1" d="M472 424c5,-5 10,-11 15,-17l-128 0c6,6 11,12 16,17l97 0z"/>
   <path class="fil1" d="M447 448c7,-6 13,-12 19,-18l-85 0c6,6 12,12 19,18l47 0z"/>
   <path class="fil1" d="M423 467c6,-4 12,-8 17,-13l-34 0c6,5 12,9 17,13z"/>
   <path class="fil0" d="M345 377c8,0 18,1 23,-8 3,-4 3,-9 3,-10l0 -101c0,-1 -1,-2 -2,-4 -4,-3 -11,-5 -15,-6 4,-1 11,-3 15,-6 1,-2 2,-3 2,-4l0 -61c0,-2 0,-4 -1,-5 -1,-2 -3,-4 -5,-5 -6,-3 -15,-2 -20,-1 0,-2 3,-7 4,-8 7,-13 15,-15 23,-14 8,1 15,5 20,9 7,-7 15,-12 24,-16 11,-4 23,-6 32,-6 21,0 40,9 53,24 15,14 24,34 24,54 0,19 -10,40 -25,56 -13,14 -31,24 -51,24 -10,1 -21,-2 -28,-8 -6,-4 -11,-12 -11,-21 0,-1 0,-2 0,-3 0,-7 2,-13 7,-17 4,-5 10,-8 18,-8 1,0 2,0 3,0l0 0c6,1 11,2 13,5 4,3 5,7 5,12 0,7 -4,14 -12,15 2,0 3,0 5,1 13,0 30,-12 32,-25 2,-5 0,-9 -1,-14 -2,-3 -3,-7 -3,-12 0,-7 2,-11 4,-15 2,-5 4,-8 1,-16 -2,-8 -7,-15 -14,-20 -6,-4 -14,-7 -24,-7 -7,0 -16,4 -23,10 -6,6 -11,12 -11,19l0 219c-7,-2 -14,-4 -19,-9 -3,-2 -5,-6 -6,-9 -5,4 -10,6 -15,7 -9,0 -22,-7 -25,-16z"/>
   <path class="fil1" d="M357 382c4,3 9,5 13,5 7,-1 15,-8 18,-13 0,5 2,12 7,17 3,2 5,4 9,5l0 -211c0,-9 5,-17 13,-23 8,-7 18,-12 27,-11 11,0 20,3 27,7 8,6 14,14 17,23 4,10 1,15 -2,21 -1,3 -3,7 -3,12 0,4 1,7 2,10 2,6 4,11 2,18 -3,15 -22,29 -38,29 -4,-1 -8,-2 -11,-4 -7,-5 -7,-12 -6,-16 1,2 5,5 8,6l0 0c1,1 2,1 3,1 5,0 7,-5 7,-9 0,-3 0,-6 -3,-8 -2,-1 -5,-3 -9,-3l0 0c-1,0 -2,0 -3,0 -7,0 -11,2 -14,6 -3,3 -5,8 -5,14 0,0 0,2 0,2 0,7 3,13 8,17 7,4 16,7 25,6 18,0 35,-9 47,-23 14,-14 23,-34 23,-51 0,-19 -8,-37 -22,-50 -12,-13 -30,-22 -49,-22 -9,0 -20,2 -30,6 -9,4 -17,9 -24,16l-2 2 -2 -2c-4,-3 -11,-8 -19,-9 -5,-1 -11,1 -16,9 4,-1 9,0 13,2 3,2 6,5 8,8 1,3 1,5 1,8l0 61c0,3 -1,6 -4,8 -1,1 -2,2 -3,2 1,1 2,1 3,2 3,3 4,6 4,8l0 101c0,2 0,8 -4,14 -3,4 -8,8 -16,9z"/>
  </g>
 </g>
</svg>
