<?xml version="1.0" encoding="UTF-8"?>
<!DOCTYPE svg PUBLIC "-//W3C//DTD SVG 1.1//EN" "http://www.w3.org/Graphics/SVG/1.1/DTD/svg11.dtd">
<!-- Creator: CorelDRAW X8 -->
<svg xmlns="http://www.w3.org/2000/svg" xml:space="preserve" width="100%" height="100%" version="1.1" style="shape-rendering:geometricPrecision; text-rendering:geometricPrecision; image-rendering:optimizeQuality; fill-rule:evenodd; clip-rule:evenodd"
viewBox="0 0 847 847"
 xmlns:xlink="http://www.w3.org/1999/xlink">
 <defs>
  <style type="text/css">
   <![CDATA[
    .fil0 {fill:black}
    .fil1 {fill:white}
   ]]>
  </style>
 </defs>
 <g id="Camada_x0020_1">
  <metadata id="CorelCorpID_0Corel-Layer"/>
  <g id="_1659833392">
   <path class="fil0" d="M794 523l0 0c-1,-66 -23,-116 -44,-164 -15,-36 -21,-61 -24,-93 2,-39 14,-69 33,-105l16 -31 -137 -132 -2 1 -28 17c-53,32 -118,50 -184,51 -70,1 -134,-16 -185,-49l-31 -19 -137 131 16 30c13,27 23,50 29,75 2,10 3,20 3,29 0,36 -11,67 -23,95 -15,33 -32,73 -41,117l0 2 -1 2c-1,11 -2,23 -2,34 0,49 12,96 35,135l1 3 2 3c17,22 36,40 58,54l1 1 1 0c36,21 74,35 111,49 49,18 94,35 132,66l29 24 29 -24c24,-19 48,-33 79,-46 16,-6 33,-12 51,-19 38,-14 77,-28 115,-50l1 0 2 -1c74,-51 89,-117 95,-181l0 -2 0 -3z"/>
   <path class="fil1" d="M620 37c-56,33 -126,53 -196,54 -74,1 -142,-17 -198,-52l-15 -10 -111 106 8 14c15,29 25,54 32,81 2,11 3,23 3,34 0,37 -10,70 -25,105 -14,31 -32,71 -40,112l0 1 0 1c-1,10 -2,21 -2,31 0,44 11,87 32,124l0 1 1 1c16,21 32,36 52,49l0 0 1 1c35,20 72,33 107,47 51,18 99,36 139,69l14 12 14 -11c26,-21 52,-36 84,-50 17,-7 35,-13 52,-19 38,-14 76,-28 112,-48l1 -1 0 0c63,-43 79,-96 85,-163l0 -1 0 -1c-1,-62 -22,-109 -42,-155 -16,-40 -23,-68 -26,-103 2,-43 15,-77 36,-116l8 -15 -111 -107 -15 9z"/>
   <path class="fil0" d="M754 524c-1,-54 -17,-94 -41,-149 -17,-41 -25,-72 -27,-109 2,-46 16,-83 37,-124l2 -4 -93 -90 -4 3c-58,35 -131,55 -204,56 -77,2 -149,-17 -207,-54l-4 -3 -92 88 2 4c15,30 26,56 33,84 2,13 3,26 3,38 0,40 -10,74 -26,111 -14,31 -31,70 -38,109l0 0 0 0c-2,10 -2,20 -2,30 0,42 10,82 29,115l0 1 0 0c15,19 30,34 48,45l0 0 0 0c34,20 70,33 105,46 50,19 101,38 143,73l4 3 4 -3c27,-22 54,-38 88,-52 17,-7 35,-14 53,-20 36,-13 74,-27 109,-47l0 0 0 0c57,-39 72,-88 78,-151l0 0 0 0zm-59 -350l-35 15 0 -97c21,20 47,45 51,48 -6,12 -12,23 -16,34zm-409 -76c27,10 57,16 88,19l0 195 -88 38 0 -252zm185 18c32,-4 62,-11 91,-21l0 136 -91 39 0 -154zm-327 264c16,-38 27,-74 27,-116 0,-13 -1,-26 -3,-40l0 0 0 -1c-8,-27 -18,-54 -33,-82 4,-4 31,-30 53,-50l0 301 -60 26c5,-14 11,-26 16,-38zm-38 106c4,-18 10,-36 16,-53l567 -243c-9,24 -14,48 -15,76l0 0 0 0c2,32 8,57 16,82l0 0 -571 246c-9,-25 -14,-52 -14,-80 0,-9 0,-18 1,-28zm268 264c-29,-15 -59,-27 -88,-38l0 -177 88 -38 0 253zm-242 -127c-3,-6 -6,-12 -9,-18l65 -28 0 94c-4,-2 -8,-4 -12,-6 -16,-11 -30,-24 -44,-42zm378 108c-14,6 -27,12 -39,18l0 -294 91 -39 0 295c-17,6 -35,13 -52,20zm159 -66c-3,2 -6,4 -9,5l0 -296 34 -15c2,7 5,14 8,21 24,53 39,92 40,144 -5,60 -19,105 -73,141z"/>
   <path class="fil0" d="M134 570l17 -125 25 -11 58 92 -24 11 -11 -20 -39 17 -3 26 -23 10zm29 -57l26 -12 -21 -38 -5 50zm105 -25l4 21 -22 10 -5 -22 23 -9zm18 15l17 -125 25 -11 58 93 -24 10 -11 -19 -39 16 -2 26 -24 10zm29 -57l26 -12 -21 -38 -5 50zm105 -26l4 22 -23 11 -4 -23 23 -10zm27 13l-21 -109 46 -20c10,-5 17,-5 24,-2 5,2 10,7 13,13 3,8 4,14 3,22 -1,8 -4,15 -8,20 -5,7 -11,12 -19,16l-24 10 8 40 -22 10zm11 -67l21 -10c3,-1 5,-4 7,-7 3,-2 4,-6 4,-9 0,-4 0,-8 -2,-12 -1,-3 -4,-5 -7,-6 -3,0 -7,1 -12,2l-19 8 8 34zm87 0l4 22 -23 10 -4 -23 23 -9zm27 12l-21 -109 47 -20c8,-5 16,-5 22,-2 7,2 11,7 14,13 3,8 4,15 3,22 -1,8 -4,15 -8,21 -5,6 -10,11 -19,15l-25 10 9 40 -22 10zm11 -67l21 -10c3,-1 6,-4 7,-7 3,-2 4,-6 4,-9 0,-4 0,-8 -2,-11 -2,-4 -4,-6 -7,-7 -3,0 -7,1 -12,2l-18 8 7 34zm86 0l5 22 -22 10 -4 -23 21 -9z"/>
  </g>
 </g>
</svg>
