<?xml version="1.0" encoding="UTF-8"?>
<!DOCTYPE svg PUBLIC "-//W3C//DTD SVG 1.1//EN" "http://www.w3.org/Graphics/SVG/1.1/DTD/svg11.dtd">
<!-- Creator: CorelDRAW X8 -->
<svg xmlns="http://www.w3.org/2000/svg" xml:space="preserve" width="100%" height="100%" version="1.1" style="shape-rendering:geometricPrecision; text-rendering:geometricPrecision; image-rendering:optimizeQuality; fill-rule:evenodd; clip-rule:evenodd"
viewBox="0 0 847 847"
 xmlns:xlink="http://www.w3.org/1999/xlink">
 <defs>
  <style type="text/css">
   <![CDATA[
    .fil0 {fill:black}
    .fil1 {fill:white}
    .fil2 {fill:black;fill-rule:nonzero}
   ]]>
  </style>
 </defs>
 <g id="Camada_x0020_1">
  <metadata id="CorelCorpID_0Corel-Layer"/>
  <g id="_4374173600">
   <polygon class="fil0" points="423,849 407,832 399,824 389,817 378,810 367,804 355,798 342,793 328,787 314,782 300,778 285,773 270,768 254,764 238,759 222,755 207,749 190,744 175,738 159,732 144,726 129,719 114,711 100,702 86,693 73,683 61,671 49,659 38,646 28,632 20,616 12,599 6,581 2,569 0,557 -2,545 -2,533 -2,521 -1,510 1,498 3,488 6,477 9,466 13,455 17,445 22,435 26,425 31,415 37,405 42,396 47,386 53,377 58,367 64,358 69,348 74,339 79,330 83,321 87,312 91,303 95,294 98,285 101,276 103,267 104,258 105,254 105,250 105,247 105,235 105,231 105,226 104,223 103,219 103,215 102,211 101,206 100,202 99,199 98,195 97,191 95,187 94,183 92,179 90,175 89,171 87,167 85,164 83,160 80,157 78,153 76,149 73,146 71,143 68,139 58,128 186,-2 200,5 207,9 213,12 220,15 227,18 234,21 241,24 248,27 255,30 262,33 269,35 276,38 283,40 290,42 298,44 305,46 312,48 320,50 327,51 334,53 341,54 349,56 356,57 363,58 371,59 378,60 386,60 393,61 401,61 409,62 416,62 431,62 438,62 446,61 453,61 461,60 468,60 476,59 483,58 491,57 498,56 505,54 513,53 520,51 527,50 535,48 542,46 549,44 556,42 563,40 571,38 578,35 585,33 592,30 599,27 606,24 613,21 620,18 626,15 633,12 640,9 647,5 661,-2 788,128 779,139 776,143 774,146 771,149 769,153 766,157 764,160 762,164 760,167 758,171 756,175 755,179 753,183 751,187 750,191 749,195 747,199 746,202 745,206 745,211 744,215 743,219 743,223 742,226 742,231 741,235 741,247 742,250 742,254 743,258 744,267 746,276 749,285 752,294 755,303 759,312 763,321 768,330 773,339 778,348 783,358 789,367 794,377 799,386 805,396 810,405 815,415 820,425 825,435 830,445 834,455 838,466 841,477 844,488 846,498 848,510 848,521 849,533 848,545 846,557 844,569 841,581 834,599 827,616 818,632 808,646 798,659 786,671 774,683 760,693 747,702 732,711 718,719 703,726 687,732 672,738 656,744 640,749 624,755 609,759 593,764 577,768 562,773 547,778 532,782 518,787 505,793 492,798 480,804 468,810 458,817 448,824 439,832 "/>
   <path class="fil1" d="M394 799l-7 -4 -13 -7 -13 -6 -13 -6 -14 -5 -6 -2 0 -277 66 -51 0 358zm-133 -253l0 202 -2 -1 -16 -5 -16 -4 -16 -5 -11 -4 0 -136 61 -47zm-125 97l0 60 -14 -8 -13 -8 -13 -9 -3 -2 43 -33zm-119 -138l0 -3 2 -10 3 -10 3 -10 3 -10 4 -10 5 -9 4 -10 5 -10 5 -9 6 -10 5 -9 5 -10 5 -9 6 -9 5 -10 5 -9 5 -9 5 -10 5 -10 4 -9 4 -10 3 -10 3 -9 2 -10 2 -10 0 -5 0 -4 1 -5 0 -4 0 -5 0 -4 -1 -5 0 -4 0 -5 -1 -4 -1 -5 -1 -4 0 -5 -2 -4 -1 -4 -1 -5 -2 -4 -1 -5 -2 -4 -2 -4 -1 -4 -3 -5 -2 -4 -2 -4 -2 -4 -3 -4 -2 -4 -3 -4 -3 -4 -2 -3 -3 -3 108 -110 3 2 7 3 7 4 7 3 7 3 7 3 8 4 7 3 7 2 7 3 8 3 7 2 7 3 8 2 7 2 7 2 8 2 8 2 7 2 8 1 7 2 8 1 8 1 7 1 8 1 8 1 7 1 8 0 8 1 7 0 32 0 8 0 7 -1 8 0 8 -1 7 -1 8 -1 8 -1 7 -1 8 -1 8 -2 7 -1 8 -2 7 -2 8 -2 7 -2 8 -2 7 -2 7 -3 8 -2 7 -3 7 -3 8 -2 7 -3 7 -4 3 0 -605 468zm673 -296l0 503 -9 4 -15 6 -15 5 -16 6 -15 5 -3 0 0 -472 73 -57zm-151 118l0 435 -12 4 -14 5 -15 5 -13 6 -13 6 -5 3 0 -407 72 -57zm229 38l0 2 6 9 5 9 6 10 5 9 5 10 5 9 5 10 5 10 4 9 4 10 4 10 3 10 2 10 2 10 2 10 0 10 1 10 -1 11 -1 11 -2 11 -3 11 -6 16 -7 16 -8 14 -9 13 -10 13 -11 11 -6 5 0 -299z"/>
   <g>
    <path class="fil2" d="M321 184l-5 0 0 0 0 -5 0 -5 -1 -4 -1 -4 -1 -5 -1 -4 -1 -4 -2 -4 -1 -4 -2 -4 -2 -4 -3 -3 -2 -4 -3 -3 -3 -3 -2 -3 -3 -3 -4 -3 -3 -3 -3 -2 -4 -3 -4 -2 -3 -2 -4 -2 -4 -1 -4 -2 -4 -1 -4 -1 -5 0 -4 -1 -4 0 -5 -1 0 -5 5 0 5 1 4 0 5 1 4 1 4 1 5 2 4 2 4 1 4 2 4 3 4 2 3 3 4 3 3 3 3 3 3 3 3 3 3 4 3 4 2 3 2 4 2 5 2 4 2 4 1 4 1 5 2 4 0 5 1 5 0 5 0 5 0 0zm-92 95l0 -6 0 0 5 0 4 0 4 -1 5 -1 4 -1 4 -1 4 -1 4 -2 4 -2 3 -2 4 -2 4 -2 3 -3 3 -2 4 -3 3 -3 2 -3 3 -4 3 -3 2 -3 3 -4 2 -4 2 -4 1 -4 2 -4 1 -4 1 -4 1 -5 1 -4 1 -4 0 -5 0 -4 5 0 0 4 0 5 -1 5 0 5 -2 4 -1 5 -1 4 -2 4 -2 5 -2 4 -2 4 -2 4 -3 3 -3 4 -3 3 -3 4 -3 3 -3 3 -4 3 -3 2 -4 3 -4 2 -4 2 -4 2 -4 2 -5 1 -4 2 -4 1 -5 0 -4 1 -5 0 -5 1 0 0zm-90 -95l5 0 0 0 0 4 0 5 1 4 0 5 1 4 2 4 1 4 1 4 2 4 2 4 2 4 2 4 3 3 2 4 3 3 3 3 3 3 3 3 3 2 4 3 3 2 4 2 3 2 4 2 4 2 4 1 4 1 4 1 4 1 5 1 4 0 4 0 0 6 -4 -1 -5 0 -4 -1 -5 0 -4 -1 -5 -2 -4 -1 -4 -2 -4 -2 -4 -2 -4 -2 -3 -3 -4 -2 -3 -3 -4 -3 -3 -3 -3 -4 -3 -3 -2 -4 -3 -3 -2 -4 -2 -4 -2 -4 -2 -5 -2 -4 -1 -4 -2 -5 -1 -4 0 -5 -1 -5 0 -5 0 -4 0 0zm90 -95l0 5 0 0 -4 1 -4 0 -5 1 -4 0 -4 1 -4 1 -4 2 -4 1 -4 2 -3 2 -4 2 -3 3 -4 2 -3 3 -3 3 -3 3 -3 3 -3 3 -2 3 -3 4 -2 3 -2 4 -2 4 -2 4 -1 4 -1 4 -2 4 -1 5 0 4 -1 4 0 5 0 5 -5 0 0 -5 0 -5 1 -5 0 -5 1 -4 2 -5 1 -4 2 -4 2 -4 2 -5 2 -3 2 -4 3 -4 2 -4 3 -3 3 -3 3 -3 4 -3 3 -3 4 -3 3 -2 4 -2 4 -3 4 -1 4 -2 4 -2 5 -1 4 -1 5 -1 4 0 5 -1 4 0 0 0z"/>
   </g>
   <g>
    <path class="fil2" d="M287 201l-4 3 0 0 -1 -1 0 0 -1 -1 0 0 0 0 -1 -1 -1 0 0 0 -1 0 0 0 -1 -1 -1 0 0 0 -1 0 -1 0 -1 0 0 0 -1 1 -1 0 -1 0 -1 0 -1 0 -1 1 -1 0 -1 1 -1 0 0 1 -1 0 -1 1 -1 0 -1 1 -1 0 -3 -4 1 -1 1 0 1 -1 1 -1 1 0 1 -1 1 0 1 -1 2 0 1 -1 1 0 1 0 1 0 1 -1 1 0 1 0 1 0 1 0 1 0 1 0 1 0 1 0 1 1 1 0 1 0 0 1 1 0 1 1 1 0 0 1 1 1 1 1 0 0zm-4 3l0 0 0 0 0 0zm-8 26l-3 -4 0 -1 1 0 1 -1 1 -1 0 0 1 -1 1 -1 1 -1 0 0 1 -1 1 -1 0 -1 1 0 0 -1 1 -1 0 -1 0 -1 1 0 0 -1 0 -1 0 -1 1 0 0 -1 0 -1 0 0 0 -1 0 0 0 -1 -1 0 0 -1 0 0 0 -1 0 0 4 -3 0 0 1 1 0 1 0 1 1 1 0 1 0 1 0 1 0 1 0 1 0 1 -1 1 0 1 0 1 -1 1 0 1 0 1 -1 1 0 1 -1 1 -1 0 0 1 -1 1 -1 1 -1 1 0 1 -1 1 -1 1 -1 1 -1 0 -1 1 -1 1 0 0zm-3 -4l0 0 0 -1 0 1zm-28 5l5 -3 -1 0 1 1 0 0 1 0 0 1 0 0 1 0 1 1 0 0 1 0 0 0 1 0 1 0 0 0 1 1 1 0 1 -1 0 0 1 0 1 0 1 0 1 0 1 -1 1 0 1 0 0 -1 1 0 1 -1 1 0 1 -1 1 0 1 -1 1 0 3 4 -1 1 -1 0 -1 1 -1 1 -1 0 -1 1 -1 0 -2 1 -1 0 -1 0 -1 1 -1 0 -1 0 -1 1 -1 0 -1 0 -1 0 -1 0 -1 0 -1 0 -1 0 -1 -1 -1 0 -1 0 -1 0 0 -1 -1 0 -1 -1 -1 0 0 -1 -1 -1 -1 -1 0 0zm0 0l0 0 0 0 0 0zm12 -29l3 4 0 0 -1 1 -1 1 -1 1 -1 0 0 1 -1 1 -1 0 0 1 -1 1 -1 1 0 1 -1 0 0 1 -1 1 0 1 0 0 -1 1 0 1 0 1 0 0 0 1 -1 1 0 0 0 1 0 1 0 0 1 1 0 0 0 1 0 0 0 1 1 0 -5 3 0 -1 -1 0 0 -1 0 -1 -1 -1 0 -1 0 -1 0 -1 0 -1 0 -1 0 -1 1 -1 0 -1 0 -1 1 -1 0 -1 0 -1 1 -1 0 -1 1 -1 1 -1 0 0 1 -1 1 -1 0 -1 1 -1 1 -1 1 -1 1 -1 1 0 1 -1 1 -1 0 0z"/>
   </g>
   <g>
    <polygon class="fil2" points="262,272 257,270 257,269 258,268 258,266 259,265 259,264 259,263 260,262 260,261 260,260 261,259 261,258 261,257 261,256 261,255 262,253 262,252 262,251 262,250 262,249 262,248 262,247 262,245 262,244 262,243 262,242 262,241 262,240 262,238 262,237 262,236 261,235 261,234 266,233 267,234 267,235 267,237 267,238 267,239 267,240 267,242 267,243 267,244 267,246 267,247 267,248 267,249 267,251 267,252 267,253 267,254 266,255 266,257 266,258 266,259 266,260 265,261 265,263 265,264 264,265 264,266 263,267 263,268 263,270 262,271 "/>
   </g>
   <g>
    <polygon class="fil2" points="310,222 310,228 310,228 309,228 308,228 307,228 306,228 305,228 304,228 303,228 302,228 302,227 301,227 300,227 299,227 298,227 297,227 296,227 295,226 294,226 294,226 293,226 292,226 291,225 290,225 289,225 288,225 287,224 286,224 285,224 284,224 283,224 282,223 281,223 282,218 283,218 284,218 285,219 286,219 287,219 288,219 289,219 290,220 291,220 292,220 293,220 294,221 295,221 296,221 296,221 297,221 298,221 299,222 300,222 301,222 301,222 302,222 303,222 304,222 305,222 305,222 306,223 307,223 308,223 308,223 309,222 "/>
   </g>
   <g>
    <polygon class="fil2" points="316,172 321,175 320,176 319,177 319,178 318,179 317,180 316,181 315,182 315,183 314,184 313,185 312,186 311,187 310,188 309,190 308,191 307,192 306,193 304,194 303,195 302,195 301,196 300,197 298,198 297,199 296,200 294,201 293,201 292,202 290,203 289,203 287,204 286,205 284,200 285,199 287,199 288,198 289,197 291,197 292,196 293,195 294,194 296,194 297,193 298,192 299,191 300,190 301,189 302,188 303,188 304,187 305,186 306,185 307,184 308,183 309,182 310,181 311,180 311,179 312,178 313,177 314,176 314,175 315,174 316,173 "/>
   </g>
   <g>
    <polygon class="fil2" points="266,104 271,101 272,104 274,107 275,110 276,113 277,116 278,119 279,122 280,125 281,128 282,131 282,134 283,137 283,140 284,143 284,146 284,149 285,152 285,155 285,158 285,161 284,164 284,167 284,170 284,173 283,176 283,179 282,182 282,185 281,188 280,191 280,194 279,198 274,196 275,193 275,190 276,187 277,184 277,181 278,178 278,175 279,173 279,170 279,167 279,164 279,161 279,158 279,155 279,152 279,149 279,146 279,144 278,141 278,138 277,135 277,132 276,129 275,126 274,124 274,121 273,118 271,115 270,112 269,109 268,106 "/>
   </g>
   <g>
    <polygon class="fil2" points="206,97 210,93 213,96 215,100 217,103 220,106 222,109 224,112 226,115 228,119 230,122 232,125 234,128 236,132 237,135 239,138 241,142 243,145 244,148 246,152 247,155 249,159 250,162 252,166 253,169 255,172 256,176 257,179 259,183 260,186 262,190 263,193 264,197 266,200 261,202 259,199 258,195 257,192 255,188 254,185 253,181 251,178 250,175 249,171 247,168 246,164 244,161 243,158 241,154 240,151 238,147 236,144 235,141 233,138 231,134 229,131 228,128 226,125 224,121 222,118 220,115 218,112 215,109 213,106 211,103 209,100 "/>
   </g>
   <g>
    <polygon class="fil2" points="154,137 158,134 160,137 162,140 165,143 167,146 170,149 172,152 175,155 177,157 180,160 183,163 185,166 188,168 191,171 194,174 196,176 199,179 202,181 205,183 208,186 211,188 214,190 217,192 220,195 223,197 227,199 230,201 233,203 236,205 240,207 243,209 246,210 250,212 248,217 244,215 241,213 237,211 234,209 231,208 227,205 224,203 221,201 217,199 214,197 211,195 208,192 205,190 202,188 199,185 196,183 193,180 190,178 187,175 184,172 182,170 179,167 176,164 174,161 171,158 168,155 166,152 163,149 161,146 158,143 156,140 "/>
   </g>
   <g>
    <polygon class="fil2" points="140,204 143,200 146,202 148,204 151,205 154,207 157,209 160,210 163,212 166,213 169,215 172,216 175,218 178,219 181,220 184,221 187,222 190,223 193,224 197,225 200,225 203,226 206,226 210,227 213,227 217,227 220,227 224,227 227,227 231,226 234,226 238,225 242,224 245,223 247,228 243,229 239,230 235,231 231,232 228,232 224,232 220,232 216,232 213,232 209,232 206,232 202,231 199,231 195,230 192,229 189,228 185,227 182,226 179,225 176,224 173,223 170,221 166,220 163,218 160,217 157,215 154,213 151,212 149,210 146,208 143,206 "/>
   </g>
   <g>
    <polygon class="fil2" points="195,271 195,265 196,265 198,265 199,265 201,264 203,264 205,263 206,263 208,262 210,262 212,261 214,260 215,259 217,258 219,257 221,256 223,255 224,254 226,253 228,252 230,251 231,249 233,248 235,246 236,245 238,243 240,242 241,240 242,238 244,236 245,234 246,232 248,230 252,233 251,235 249,237 248,239 246,241 245,243 243,245 242,247 240,249 238,250 236,252 235,253 233,255 231,256 229,258 227,259 225,260 223,261 221,262 219,263 218,264 216,265 214,266 212,267 210,267 208,268 206,269 204,269 202,270 200,270 199,270 197,271 "/>
   </g>
   <path class="fil1" d="M159 539l23 -14c0,5 2,10 8,12 6,2 27,-13 31,-22 7,-12 5,-33 -3,-33 -9,0 -31,24 -44,24 -2,0 -11,3 -14,-11 -1,-3 -1,-38 -1,-44 0,-28 10,-34 32,-49 8,-5 27,-14 40,-17l4 -14 14 -8 0 51 -21 9c0,-5 -4,-7 -6,-7 -9,2 -23,11 -32,22 0,0 -6,23 1,29 4,3 37,-28 50,-24 0,0 10,3 11,6 4,12 3,57 0,64 -7,16 -35,35 -49,42 -1,0 -21,6 -25,11l0 12 -19 11 0 -50zm122 -64c1,0 2,-1 4,-2 1,0 2,0 3,1 1,1 1,2 1,4 0,2 0,4 -1,6 -1,2 -2,4 -3,6 -2,2 -3,4 -4,5 -3,2 -5,2 -7,2 -1,-1 -2,-3 -2,-5 0,-2 0,-4 1,-6 1,-2 2,-4 3,-6 2,-2 3,-3 5,-5zm44 -166l101 -77 0 45 -20 13 0 -6c0,-3 -1,-10 -1,-10 0,-1 -2,-2 -4,-2 -2,0 -28,22 -35,30l0 41 23 -17 0 26 -23 17 0 20c0,3 -1,13 6,12 1,0 9,-8 15,-11l0 20 -61 47 0 -20c8,-5 12,-8 12,-21l0 -84c0,-10 -4,-12 -13,-8l0 -15zm98 56c1,-1 2,-2 4,-2 1,0 2,0 3,1 1,1 1,2 1,4 0,1 0,4 -1,5 -1,3 -2,4 -3,7 -2,2 -3,3 -4,4 -3,2 -5,3 -7,2 -1,0 -2,-2 -2,-4 0,-2 0,-4 1,-6 1,-2 2,-4 3,-7 2,-1 3,-3 5,-4zm134 -191l1 -10c1,-7 -3,-9 -9,-5 -5,3 -15,7 -25,16 -5,4 -6,17 -6,26l0 60c0,16 7,15 7,15 13,0 33,-17 32,-23l0 -27 25 -18 -1 41c-1,17 -24,32 -40,45 -13,9 -24,17 -31,20 -14,7 -24,2 -24,-26l-1 -64c0,-56 14,-65 50,-85 5,-3 16,-7 24,-6 1,-4 0,-16 4,-20l19 -11 0 53 -25 19zm62 40c1,-1 3,-1 4,-2 1,0 3,0 3,1 1,1 2,2 2,4 0,2 -1,4 -2,6 0,2 -2,3 -3,6 -1,2 -3,3 -4,5 -3,2 -4,2 -6,2 -2,-2 -3,-3 -3,-5 0,-2 1,-4 1,-6 1,-2 2,-4 4,-6 1,-2 2,-4 4,-5z"/>
  </g>
 </g>
</svg>
