<?xml version="1.0" encoding="UTF-8"?>
<!DOCTYPE svg PUBLIC "-//W3C//DTD SVG 1.1//EN" "http://www.w3.org/Graphics/SVG/1.1/DTD/svg11.dtd">
<!-- Creator: CorelDRAW X8 -->
<svg xmlns="http://www.w3.org/2000/svg" xml:space="preserve" width="100%" height="100%" version="1.1" style="shape-rendering:geometricPrecision; text-rendering:geometricPrecision; image-rendering:optimizeQuality; fill-rule:evenodd; clip-rule:evenodd"
viewBox="0 0 847 847"
 xmlns:xlink="http://www.w3.org/1999/xlink">
 <defs>
  <style type="text/css">
   <![CDATA[
    .fil1 {fill:black}
    .fil0 {fill:#C22315}
    .fil2 {fill:#F6E100}
   ]]>
  </style>
 </defs>
 <g id="Camada_x0020_1">
  <metadata id="CorelCorpID_0Corel-Layer"/>
  <g id="_4374217760">
   <path class="fil0" d="M40 150c1,306 104,550 383,699 280,-149 382,-393 384,-699 -59,-9 -118,-19 -175,-34 -53,-15 -105,-35 -150,-67 -22,-15 -41,-32 -59,-51 -17,19 -37,36 -58,51 -45,32 -97,52 -150,67 -57,15 -116,25 -175,34z"/>
   <path class="fil1" d="M40 150c0,52 4,102 10,150l186 -190c-7,2 -14,4 -21,6 -57,15 -116,25 -175,34z"/>
   <path class="fil1" d="M79 437c12,41 28,81 47,118l444 -459c-31,-12 -61,-27 -88,-47 -6,-3 -11,-7 -17,-12l-386 400z"/>
   <path class="fil1" d="M190 656c23,30 49,59 79,85l537 -557c0,-11 0,-23 1,-34 -37,-6 -74,-12 -111,-19l-506 525z"/>
   <path class="fil1" d="M362 813c20,12 40,24 61,36 206,-110 316,-272 360,-472 -1,-1 -1,-2 -1,-3l-420 439z"/>
   <path class="fil2" d="M215 289c-40,-25 -59,-62 -61,-121 32,-1 51,-11 62,-25 11,14 27,21 59,23 -2,62 -19,98 -60,123z"/>
   <path class="fil1" d="M495 359c0,4 -1,8 -1,12 0,14 0,28 2,39 1,7 3,14 6,21 3,7 7,15 14,23 2,3 6,7 9,11 5,6 10,12 13,18 1,1 2,2 3,3 0,0 0,0 0,0 3,5 8,9 14,11 7,3 14,5 20,5 8,0 16,-3 22,-8 5,-5 9,-12 9,-21 2,-22 -11,-45 -26,-70 -7,-13 -14,-26 -21,-39 -5,-13 -10,-25 -13,-38 -2,-13 -3,-26 -2,-41 1,-10 4,-18 8,-26 4,-8 10,-14 17,-18 3,-2 6,-4 10,-5 4,-1 7,-1 11,-1 14,0 26,6 35,18 7,11 12,26 13,45 2,3 4,8 6,13 3,6 5,13 7,19 1,5 1,10 1,14 0,5 0,9 1,13 1,3 2,6 3,9 3,7 6,14 6,24 0,2 -2,3 -4,2 -3,-2 -4,-3 -6,-4 -2,-1 -4,-3 -8,-6 -1,0 -3,-2 -6,-3 0,0 0,0 -1,-1 -5,-2 -10,-5 -13,-8 -3,-3 -6,-8 -8,-13 -3,-6 -5,-12 -6,-19 -1,-6 -1,-14 -1,-21 1,-8 2,-16 4,-20 0,-1 1,-4 2,-7 1,-2 2,-5 2,-7 -1,-6 -4,-14 -9,-19 -5,-5 -10,-7 -17,-7 -6,0 -10,3 -13,7 -4,4 -6,10 -7,15 -2,6 -2,13 -2,20 0,9 2,18 4,27 6,26 17,43 29,62 5,9 11,17 16,27 5,9 10,19 12,31 3,9 4,20 4,29 -1,17 -7,32 -17,43 -10,10 -24,17 -41,17 -6,0 -12,0 -17,-2 -5,-1 -9,-3 -13,-6 0,2 -1,3 -1,5l0 0c-1,3 -1,6 0,9 0,4 2,8 4,12 2,6 4,11 6,14 2,4 3,6 4,7 2,2 3,3 5,4 6,7 12,13 18,16 1,0 3,0 4,1 4,1 7,1 7,6 0,2 0,4 -1,6 0,1 -1,2 -1,4 -1,3 -1,6 -2,10 0,3 0,7 0,10 0,4 0,8 1,13 1,5 3,9 4,14 0,2 1,4 2,6 2,3 3,7 5,14 0,0 0,0 0,0 1,0 2,1 3,1 3,2 7,4 7,8 -1,3 -4,6 -8,10 -1,1 -3,3 -4,4 0,1 -2,1 -2,1 -2,1 -4,1 -7,1 -1,0 -2,0 -3,0l0 0c-2,0 -6,3 -9,5 -1,1 -2,2 -2,2l0 0c-3,2 -9,3 -15,2 -5,-1 -9,-3 -11,-6 -2,0 -3,1 -4,1 -2,0 -4,0 -6,0 -2,0 -5,0 -7,-1 -1,0 -1,0 -2,0 0,0 0,0 0,1 0,1 1,3 1,5 0,1 -1,3 -2,3 -3,1 -6,1 -8,0 -2,-1 -4,-2 -5,-4 -2,-2 -3,-3 -3,-5 -1,-1 -1,-2 -1,-3 0,0 -1,1 -2,2 0,0 0,1 -1,1 -2,2 -3,3 -6,0l0 0c-3,-3 -4,-8 -4,-12 0,-5 1,-11 3,-13 0,-1 0,-2 1,-3 0,0 0,-1 0,-1 1,-2 2,-4 5,-7 2,-3 6,-6 14,-9 4,-2 13,5 20,5 1,0 1,-1 2,-1 0,0 0,-1 0,-2 1,-23 1,-31 -4,-38 -3,-3 -6,-6 -9,-8 -3,-2 -7,-3 -11,-5 -8,-3 -15,-5 -21,-8 -7,-4 -13,-7 -20,-11 -15,-9 -24,-21 -30,-35 -1,-3 -3,-7 -4,-10 -3,2 -10,4 -17,6 0,1 -1,1 -1,1 -6,2 -16,9 -24,17 -6,6 -10,12 -11,17 0,4 0,7 1,11 1,9 3,19 -13,31 -1,3 -2,6 -3,9 -3,6 -5,12 -5,20 3,3 4,7 4,11 -1,4 -3,8 -6,11 -3,3 -6,5 -10,5 -1,0 -3,0 -5,0 -2,0 -5,-1 -6,0 -10,4 -17,5 -22,4 -5,-1 -9,-3 -11,-4 -2,1 -5,2 -6,2 -1,0 -1,0 -1,0 -1,0 -1,0 -2,0l-4 3c-1,1 -2,1 -3,1 -2,-1 -4,-2 -6,-4 0,-1 -1,-2 -1,-2 -1,2 -1,4 -4,5 -2,0 -6,-1 -9,-5 -3,-2 -5,-5 -7,-8 0,-1 0,-1 0,-1 0,0 0,-1 0,-2 0,0 0,0 0,0 0,-1 -1,-1 -1,-2 -1,-1 -1,-2 -2,-3 -1,-4 -2,-8 -1,-12 0,-3 2,-7 4,-10 3,-3 6,-6 10,-8 4,-2 8,-4 12,-4 7,0 12,4 17,7 4,2 9,5 13,4 1,0 3,0 4,-1 2,-1 3,-3 4,-4 1,-2 1,-4 1,-7 0,0 0,-1 0,-1 0,-4 0,-9 0,-13 0,-4 0,-9 0,-14 0,-4 0,-9 -1,-14 0,-9 0,-19 -2,-28 0,-5 -1,-10 -2,-14 0,-9 1,-17 3,-26 2,-8 7,-16 14,-23 19,-20 44,-21 75,-23 2,-1 4,-1 6,-1 -1,-1 -2,-3 -2,-4l0 0c-7,-12 -16,-22 -28,-33 -16,-15 -34,-34 -51,-66l0 0c-4,0 -9,-2 -13,-3 -6,-2 -11,-5 -17,-9 -5,-3 -9,-5 -12,-8 -4,-3 -18,-14 -24,-14 -1,0 -4,2 -6,4 -2,2 -4,4 -5,5 -3,1 -6,1 -7,-3 -1,-1 -1,-2 -1,-4 -1,0 -3,1 -5,2 -4,2 -8,4 -11,4 -4,0 -7,-1 -11,-4 -4,-4 -9,-9 -13,-14 -4,-5 -7,-10 -8,-14 -2,-5 -5,-15 1,-18 -2,-3 -4,-10 -3,-14 2,-2 5,-3 7,-3 0,-3 -2,-7 -2,-10 2,-3 8,-3 9,-4 0,0 0,0 0,-1 -1,-2 -1,-5 -1,-8 7,-5 23,-2 25,2 2,2 4,6 5,9 1,3 2,5 3,8 1,5 3,11 6,13l0 0c5,5 8,7 13,9 2,1 4,2 6,3 2,1 4,2 7,4 9,5 18,9 31,17 0,0 1,-1 1,-1 -3,-10 -7,-23 -11,-36 -3,-10 -7,-19 -10,-25 -2,-2 -2,-4 -3,-6 -1,-2 -1,-3 -5,-5 0,0 -1,-1 -2,-1 -2,-1 -4,-2 -5,-5 0,-1 1,-4 2,-6 0,0 0,0 0,0 -2,-2 -5,-4 -7,-7 -4,-4 -8,-10 -10,-16 -1,-4 -2,-8 -3,-12 -1,-5 -1,-11 -1,-14 0,-1 1,-3 2,-3 4,0 7,0 10,0 0,0 0,0 0,0 -1,-2 -1,-3 -2,-5 -1,-2 1,-4 3,-4 2,0 4,0 6,0 2,-1 3,-1 4,-1 0,0 0,0 0,0 -1,-2 -1,-5 -1,-6 1,-1 2,-1 2,-2 4,-1 8,-1 12,-1 0,0 1,0 2,0 0,-1 0,-2 1,-3 0,0 1,-1 2,-1 4,0 7,0 9,1 3,0 6,1 8,2 2,2 4,3 6,5 5,5 8,12 9,18 1,7 0,14 -3,20 -2,2 -3,4 -5,6 -1,0 -1,1 -2,1 -2,3 -4,4 -4,8 2,5 7,13 13,22 5,7 11,15 17,22 9,-9 18,-16 27,-22l0 0c5,-3 11,-6 17,-9 0,0 0,0 0,0 0,0 0,-1 0,-1 -1,0 -1,1 -2,1 -3,1 -6,3 -11,3 -1,0 -2,-1 -3,-1 -3,-1 -5,-3 -6,-5 -1,-3 -1,-5 -1,-8 0,-1 0,-2 1,-4 0,-1 -1,-2 -2,-4 -1,-2 -1,-4 -1,-6 0,-4 3,-7 7,-9 0,-1 1,-1 1,-1 1,-2 1,-4 2,-5 0,-1 1,-1 1,-1 -2,-1 -3,-3 -4,-5 -1,-2 -1,-3 -2,-4 0,-1 0,-1 0,-1 -2,-1 -6,-4 -8,-12 -1,-5 0,-9 1,-13 0,-2 1,-4 0,-7 0,-3 -1,-5 1,-8 1,-2 4,-3 11,-3 2,0 6,-1 11,-2 4,-1 7,-3 10,-4 3,-4 6,-7 10,-9 4,-2 9,-3 16,-4 1,0 2,0 3,-1 4,0 7,-1 11,-1 1,-3 3,-6 5,-8 3,-4 6,-6 10,-6 6,0 13,4 18,10 2,3 4,7 5,10 0,3 0,5 0,7 1,0 1,1 1,1 1,2 2,5 4,7 1,2 3,4 5,4 3,2 7,4 9,7 4,3 7,7 9,10 1,2 2,4 3,7 0,1 1,3 1,4 1,2 3,4 5,6 3,3 5,5 8,7 4,3 6,6 8,9 3,7 3,14 3,21 1,4 2,8 4,12 2,3 5,6 11,7 1,1 2,2 2,3 0,1 0,2 0,2 -1,2 -2,4 -3,5 -2,2 -4,2 -7,2 1,8 0,16 -2,24 -1,8 -3,15 -6,22 -1,3 -6,14 -9,15 0,12 2,24 4,30 1,1 1,2 1,3 -1,1 -3,1 -4,1 -3,-1 -6,-1 -10,-3 1,2 2,3 2,4 0,0 1,1 1,1 0,1 0,2 0,2 2,2 4,3 4,3 1,0 2,0 2,1 1,1 -1,3 -1,4 -4,3 -9,4 -15,4 -6,0 -12,-2 -16,-3 0,0 -1,0 -1,0 -1,0 -2,0 -2,0z"/>
   <path class="fil1" d="M191 257l0 -2c1,0 2,-1 2,-1 1,-1 1,-2 1,-3l0 -65c0,-1 0,-2 -1,-3 0,0 0,-1 -1,-1l0 -2 26 0c12,0 20,9 20,21 0,6 -2,15 -8,20l10 27c0,1 1,2 1,3 1,1 2,2 4,4l0 2 -14 0 0 -2c0,0 1,0 1,-1 1,-1 0,-4 -1,-5l-8 -25c-2,0 -4,1 -6,1l-16 0 0 26c0,1 0,2 0,3 1,0 2,1 2,1l0 2 -12 0z"/>
   <path class="fil2" d="M215 187l-14 0 0 29 14 0c12,0 16,-5 16,-15 0,-9 -5,-14 -16,-14z"/>
   <path class="fil1" d="M241 228l1 -1 5 15 -1 0c-3,-2 -3,-3 -7,0 -8,4 -17,5 -29,5 -8,0 -17,-2 -22,-6 -8,-6 -10,-14 -10,-20 0,-12 5,-27 32,-27 8,0 17,2 23,3 5,2 8,3 8,3 1,0 2,0 2,0 1,-1 2,-2 3,-2l1 1 -5 15 -1 -1 0 0c0,-3 -3,-5 -6,-6 -6,-3 -15,-4 -23,-4 -20,0 -27,8 -26,18 0,6 4,12 11,16 3,1 12,1 19,1 5,0 18,-2 24,-8 0,0 1,-1 1,-2z"/>
   <path class="fil1" d="M206 255l2 0c1,5 4,4 7,-1 2,-3 2,-8 2,-13 -1,-8 -3,-16 -6,-24 -3,-10 -6,-19 -6,-29 0,-7 2,-14 6,-19 3,-3 7,-6 13,-7 1,0 3,0 3,-2l2 0 0 14 -2 0c-1,-4 -3,-4 -6,-3 -2,1 -3,2 -4,3 -3,4 -4,9 -4,14 0,8 3,17 5,26 3,9 6,17 6,26 1,7 0,14 -3,19 -2,3 -5,6 -9,7 -3,2 -4,3 -4,5l-2 0 0 -16z"/>
   <path class="fil2" d="M304 685c-1,-2 -1,-3 -2,-3 0,0 -1,0 -1,0 -1,0 -2,0 -3,0 1,1 1,2 2,3 0,1 1,2 2,2l2 -2z"/>
   <path class="fil2" d="M290 681c-1,0 -2,0 -3,0 -1,-1 -3,-1 -4,0 0,1 1,2 2,2 2,2 3,3 4,3 0,0 -1,0 -1,-1 1,-1 1,-2 2,-4z"/>
   <path class="fil2" d="M445 543c-1,-2 -1,-4 -2,-5 -2,0 -5,-1 -6,-2 -3,-1 -5,-4 -5,-6 0,-4 2,-8 3,-12 1,-2 2,-4 3,-6 0,0 -1,0 -1,-1 -1,-9 -3,-18 -7,-26 -2,0 -5,0 -8,0 -29,2 -54,4 -71,21 -6,7 -10,14 -13,22 -2,8 -2,16 -2,24 0,6 2,12 3,18 1,7 5,11 10,18 1,1 1,2 2,2 0,1 2,3 -1,5 -2,1 -3,0 -4,-1 -2,-3 -4,-5 -6,-8 0,3 0,5 0,8 0,5 0,9 1,14 0,5 0,9 0,14 0,4 0,9 0,13 0,0 0,1 0,1 0,4 0,7 -2,10 -2,2 -4,4 -6,6 -2,1 -4,2 -7,2 -6,1 -11,-2 -16,-5 -4,-3 -9,-6 -14,-6 -3,0 -6,1 -9,3 -4,1 -6,4 -8,6 -2,3 -3,5 -4,8 0,1 0,2 0,3 1,-3 3,-5 4,-6 3,-3 7,-5 11,-5 2,-1 3,-1 5,-1 1,1 3,1 3,3 0,3 -2,3 -4,3 -1,0 -2,0 -3,0 -3,1 -5,2 -8,4 -2,2 -3,5 -4,9l0 0c0,1 0,3 0,4 1,1 1,1 1,2 3,-1 6,-2 8,-1 2,0 3,0 4,1 0,-3 0,-7 2,-10 2,-5 6,-8 15,-9 1,-1 3,-1 4,2 0,3 -2,3 -3,3 -7,1 -10,3 -11,6 -1,3 -1,6 -1,9 1,0 1,-1 2,-1 1,0 2,0 3,0 0,0 0,0 0,0 3,1 4,3 6,5 0,0 0,1 0,1 1,0 1,0 2,1 0,0 0,0 0,0 1,0 3,-1 5,-2 5,-2 11,-4 16,-5 1,0 3,0 3,3 1,3 -1,3 -3,3 -2,1 -5,1 -8,2 1,1 3,1 4,1 5,1 11,0 20,-4 2,-1 6,0 9,0 2,0 3,1 4,1 2,-1 4,-2 6,-4 2,-2 4,-5 4,-7 0,-8 -6,-11 -13,-11 0,0 -1,0 -2,0 -1,1 -2,2 -3,3 -1,1 -3,3 -5,1 -2,-2 0,-3 0,-5 2,-1 4,-3 5,-4 2,-1 4,-1 6,-1 3,0 6,1 8,2 1,-7 3,-13 5,-18 2,-5 5,-11 5,-16 1,-5 0,-11 -2,-18 0,-1 -1,-3 2,-4 3,-1 3,1 4,2 2,8 2,14 2,19 7,-7 6,-14 5,-21 0,-3 -1,-7 0,-11 0,-7 5,-14 12,-21 3,-3 6,-6 10,-8 -8,1 -15,2 -21,1 -8,-1 -13,-4 -15,-11 -2,-7 1,-14 7,-19 5,-5 11,-8 16,-9 2,-1 4,-1 5,1 0,3 -2,4 -3,4 -4,1 -10,4 -14,8 -4,4 -7,8 -6,14 1,4 5,6 10,6 6,1 14,0 22,-1 14,-3 28,-9 34,-11z"/>
   <path class="fil2" d="M546 499c1,2 1,4 1,6 1,5 1,10 0,16 4,3 9,5 13,7 5,1 11,1 16,1 15,0 28,-6 37,-15 9,-10 15,-23 15,-39 1,-9 -1,-19 -3,-28 -3,-11 -7,-21 -12,-29 -5,-10 -10,-18 -16,-27 -12,-19 -23,-37 -30,-64 -2,-9 -3,-19 -4,-28 0,-8 0,-15 2,-21 2,-6 4,-13 8,-18 4,-5 10,-8 18,-9 8,0 15,3 21,9 6,6 10,15 11,23 0,3 -1,6 -3,10 -1,2 -2,4 -2,5 0,0 0,1 0,1 -1,4 -3,10 -3,18 -1,7 0,15 1,20 0,3 1,5 1,8 1,-9 4,-16 6,-20 1,-1 3,-4 5,-2 2,2 1,4 0,5 -2,3 -5,12 -5,20 -1,6 0,11 3,15 0,0 0,1 0,1 1,1 2,2 2,2 1,0 1,1 2,1 -1,-1 -1,-3 -2,-5 -1,-8 0,-18 2,-24 0,-1 1,-4 3,-3 3,1 2,3 2,5 -1,5 -2,14 -1,21 1,5 3,10 6,13 0,0 1,0 1,0 0,0 1,1 1,1 -1,-2 -1,-4 -2,-5 -2,-8 -3,-17 -1,-28 1,-1 1,-4 4,-4 3,1 2,4 2,5 -2,10 -2,18 1,25 2,7 5,12 10,16 0,0 0,0 0,0 -1,-6 -3,-11 -5,-16 -1,-3 -3,-7 -4,-10 -1,-4 -1,-9 -1,-13 0,-5 0,-10 -1,-13 -1,-6 -3,-13 -6,-19 -2,-5 -4,-10 -6,-12 -1,0 -1,-1 -1,-2 0,-18 -5,-32 -12,-42 -8,-11 -18,-17 -30,-17 -3,0 -6,1 -10,2 -3,1 -5,2 -8,4 -6,3 -11,9 -15,16 -4,7 -6,15 -7,24 -1,14 0,26 2,39 3,12 7,24 13,37 6,13 13,26 20,38 15,26 29,50 27,73 0,11 -5,19 -11,25 -7,6 -16,9 -26,10 -7,0 -15,-2 -22,-5 -3,-2 -5,-3 -7,-4z"/>
   <path class="fil1" d="M392 195c1,1 1,3 2,4 1,1 7,10 7,11 4,0 13,-6 14,-10 0,-1 -2,-4 -4,-6 -4,-4 -10,-8 -16,-5 -1,1 -2,5 -3,6z"/>
   <path class="fil1" d="M349 296c0,-1 1,-2 1,-3 0,-1 1,-1 1,-1 1,-3 2,-5 3,-8 0,-2 1,-5 2,-7 -5,5 -9,10 -12,15 -2,4 -4,10 -4,16 4,-3 7,-6 9,-12z"/>
   <path class="fil2" d="M533 204c-1,-3 -3,-6 -6,-8 0,3 0,7 0,11 0,1 -1,2 -1,3 3,-1 5,-3 7,-6z"/>
   <path class="fil2" d="M501 354c3,1 8,3 13,2 2,0 5,0 7,-1 -1,0 -2,-1 -3,-2 -8,0 -26,-8 -31,-33 1,4 2,8 3,12 2,7 6,14 11,22z"/>
   <path class="fil2" d="M429 333c7,17 19,45 29,69 5,10 9,20 12,29 1,1 1,2 -1,3 -3,1 -3,0 -4,-1 -1,-4 -3,-8 -6,-14 0,0 0,0 0,0 -1,2 -4,3 -5,3 -1,0 -3,1 -4,-2 0,-2 2,-3 3,-3 2,-1 3,-2 4,-3 -1,-3 -2,-6 -4,-9 -2,3 -4,5 -7,6 -4,2 -7,3 -11,4 -1,0 -3,1 -4,-2 0,-3 2,-4 3,-4 3,0 6,-1 9,-3 2,-1 6,-4 8,-6 -6,-15 -13,-31 -19,-44 -1,4 -3,8 -5,11 -4,7 -10,12 -17,13 -5,0 -10,-2 -14,-4 -4,-2 -7,-4 -10,-6 0,0 -1,0 -2,0 -11,4 -21,6 -30,6 16,30 33,47 48,62 12,11 22,21 29,34l0 0c7,12 9,25 12,38 0,1 0,1 1,3 3,15 6,30 11,43 6,12 14,23 28,32 6,4 13,7 19,10 7,3 13,6 21,9 5,1 9,3 12,5 4,3 8,6 10,10 7,8 6,17 6,41 0,1 0,2 0,3 4,0 4,1 8,0 1,0 3,-1 5,-1 1,1 3,1 5,2 1,0 3,2 4,3 1,1 2,3 0,4 -2,2 -4,0 -5,-1 0,0 -1,-1 -2,-1 -1,-1 -2,-1 -2,-1 -1,0 -2,0 -4,1l0 0c-5,1 -6,0 -11,-1 -1,0 -3,0 -5,0 -6,1 -19,-5 -19,-5 -6,3 -10,5 -12,8 -2,2 -3,4 -4,5 0,0 0,1 0,1 0,1 0,1 -1,1 0,1 1,1 1,1 0,1 0,2 1,2 1,1 1,1 2,1 0,-1 1,-2 1,-3 2,-3 5,-5 8,-7 5,-2 11,-2 19,0 1,1 3,2 2,5 -1,2 -3,1 -4,1 -6,-2 -11,-2 -14,0 -3,1 -4,2 -6,4 -1,2 -2,4 -2,6 0,3 0,5 1,6 0,1 0,1 1,1 1,0 3,0 5,0 1,0 2,0 4,0 1,-2 2,-4 5,-6 2,-2 6,-3 10,-3 2,0 4,1 7,1 1,1 3,1 2,4 -1,3 -3,2 -4,2 -2,-1 -3,-1 -5,-1 -3,0 -5,1 -7,2 -1,1 -2,2 -3,3 1,0 2,0 2,1 2,0 5,1 7,1 1,0 2,0 4,-1 1,0 3,0 4,-1 3,-1 5,-2 7,-3 2,-1 3,-2 4,-2 2,0 3,-1 4,2 1,2 -1,3 -2,4 -1,0 -2,0 -3,1 -1,1 -2,1 -3,2 1,1 3,2 6,2 4,1 9,1 10,-1l1 0c0,0 1,-1 1,-1 4,-3 9,-7 13,-7 1,0 2,0 3,0 2,0 4,0 5,0 1,-2 3,-3 5,-5 2,-2 5,-4 5,-5 0,-1 -2,-2 -4,-3 -2,0 -3,-1 -4,-2 -2,-2 -4,-3 -8,-3 -2,1 -6,2 -10,4 -1,1 -3,3 -4,0 -2,-2 0,-4 1,-4 5,-4 9,-5 13,-5 2,0 3,0 5,0 0,0 0,0 0,0 -1,-1 -1,-2 -2,-3 -1,-1 -3,-2 -5,-2 -2,0 -4,0 -6,0 -1,0 -3,1 -3,-2 0,-3 1,-3 3,-3 2,-1 5,-1 7,-1 1,1 1,1 2,1 -1,-2 -1,-3 -2,-5 -1,-4 -2,-9 -3,-14 -1,-2 -1,-4 -1,-5 -1,1 -1,4 -4,3 -3,-1 -2,-3 -2,-4 1,-8 0,-16 -3,-23 -2,-7 -7,-12 -13,-15 -1,0 -3,-1 -2,-4 1,-2 3,-1 4,-1 8,3 13,10 17,17 1,3 2,6 2,9 0,-1 0,-1 1,-2 0,-3 1,-7 1,-10 1,-2 1,-4 1,-5 1,-1 1,-2 1,-4 0,0 -1,0 -2,-1 -2,0 -3,0 -5,-1 -7,-3 -13,-9 -21,-16 -1,-2 -2,-3 -4,-5 -1,-1 -3,-4 -5,-8 -2,-4 -4,-9 -7,-15 -2,-4 -3,-9 -4,-13 -1,-4 -1,-8 0,-11l0 -1c3,-9 4,-17 3,-24 -1,-8 -4,-14 -8,-20 -4,-6 -9,-12 -14,-18 -3,-3 -6,-7 -9,-11 -6,-8 -11,-16 -14,-24 -3,-7 -5,-14 -7,-22 -2,-12 -2,-26 -1,-40 0,-4 0,-8 0,-13 -5,0 -10,-2 -15,-7 -1,-1 -2,-2 -3,-3 0,0 -1,0 -1,0 -1,0 -3,0 -4,0 -10,-1 -19,-6 -26,-15 -3,-4 -6,-8 -8,-13 1,4 1,7 2,10 1,1 -1,3 -3,3 0,0 -1,0 -2,0z"/>
   <path class="fil2" d="M338 315c0,1 0,1 -1,2 -2,3 -5,7 -11,11 0,0 1,0 1,0 8,-2 17,-3 24,-2 1,0 3,0 3,3 -1,3 -3,3 -4,2 -6,-1 -14,0 -22,3 -7,2 -14,5 -19,9 -1,1 -3,3 -5,1 -2,-3 0,-4 1,-5 4,-3 9,-6 14,-8 -13,-8 -22,-13 -32,-18 -2,-1 -4,-2 -7,-4 -2,-1 -4,-2 -6,-3 -5,-2 -9,-4 -14,-10 -4,-3 -6,-9 -8,-16 -1,-2 -1,-5 -2,-7 -1,-3 -2,-5 -4,-7 -3,-3 -5,-3 -9,-3 -4,2 -2,1 -5,6 4,0 9,2 12,4 3,2 4,5 5,8 0,1 1,4 -2,4 -3,1 -3,-2 -4,-3 0,-1 -1,-3 -2,-4 -2,-2 -4,-2 -7,-3 -2,0 -3,0 -5,0 -3,2 -3,3 -3,9 9,2 13,7 16,11 2,2 6,6 4,9 -3,2 -7,-3 -8,-5 -3,-4 -7,-9 -16,-10 -5,0 -2,8 -2,9 2,1 2,2 5,4 2,1 6,2 11,6 2,0 4,2 2,4 -1,2 -3,1 -5,1 -5,-4 -8,-5 -10,-6 -5,2 -4,7 -4,9 2,3 4,8 8,12 3,5 8,10 12,13 2,2 4,3 7,3 2,0 5,-1 8,-3 3,-1 5,-3 7,-3 7,-2 6,3 7,7 1,-1 2,-2 3,-3 3,-3 7,-6 10,-5 8,0 21,10 27,15 4,2 7,5 12,8 5,3 11,5 16,7 4,2 9,3 14,3 10,1 20,-2 33,-5 1,0 2,-1 3,-1 1,0 2,0 3,1 2,2 6,4 9,6 4,2 7,3 11,3 5,0 10,-4 13,-10 2,-3 4,-7 5,-10 1,-6 1,-8 -1,-13 -2,-4 -3,-7 -4,-10 -11,-5 -19,-19 -22,-33 0,7 0,14 1,19 1,2 -1,4 -4,3 -11,-4 -16,-8 -18,-13 -2,3 -5,4 -7,5 0,0 -1,1 -1,1 -1,1 -4,1 -4,-1 -2,-3 -3,-6 -3,-9 -2,4 -5,7 -9,10 -2,0 -4,0 -4,-1 -1,-2 -2,-3 -2,-4 -2,3 -5,5 -10,7 0,0 0,0 -1,0z"/>
   <path class="fil2" d="M352 274c-7,-7 -13,-16 -18,-23 -6,-9 -11,-18 -13,-23l0 -1c-1,-7 1,-9 5,-13 1,0 2,-1 2,-2 2,-1 3,-2 4,-4 2,-5 3,-10 2,-16 -1,-5 -3,-11 -7,-15 -1,-1 -3,-3 -5,-4 -2,-1 -4,-1 -6,-2 0,0 -2,0 -2,2 6,3 11,8 14,14 1,6 1,12 -2,20 -1,1 -1,2 -4,1 -2,-1 -2,-2 -1,-3 3,-7 3,-12 1,-16 -2,-5 -6,-9 -11,-11 -3,-2 -6,-3 -9,-3 -3,-1 -5,1 -5,4 0,0 0,0 0,0 7,1 12,4 15,10 3,5 4,12 3,21 0,2 0,3 -3,3 -3,-1 -3,-2 -2,-4 1,-7 0,-13 -2,-17 -3,-4 -7,-7 -12,-8 -3,0 -6,0 -9,0 -2,0 -2,5 -2,6 5,2 9,5 12,9 5,7 8,16 9,24 1,1 1,3 -2,3 -3,1 -3,0 -3,-2 -2,-7 -4,-15 -9,-21 -3,-4 -6,-7 -12,-8 -1,-1 -7,3 -7,5 0,1 0,3 1,4 0,4 1,7 3,11 2,6 5,10 8,14 3,4 7,6 10,7 3,1 3,5 0,6 -1,0 -2,1 -2,2 -1,0 -1,1 -1,1 0,0 1,1 1,1 1,0 2,1 3,1 6,3 6,5 8,8 0,2 1,3 2,6 3,6 7,15 11,25 4,12 7,24 10,34 3,-3 4,-5 6,-7 0,0 1,-1 1,-1 0,0 0,-1 0,-1 0,-9 2,-16 5,-22 3,-5 7,-10 13,-15z"/>
   <path class="fil2" d="M455 124c1,-3 3,-4 6,-4 2,-1 3,-1 5,0 2,0 5,2 7,4 2,3 3,6 3,9 1,4 0,8 -1,11 -1,1 -2,2 -2,2 3,-1 4,-4 5,-6 1,-3 1,-5 0,-8 -1,-3 -2,-6 -4,-8 -4,-5 -8,-9 -13,-8 -2,0 -4,1 -5,3 -2,3 -4,6 -6,9 0,1 -1,2 -2,2 -4,0 -8,1 -12,1 -1,0 -2,1 -3,1 -6,1 -11,2 -14,3 -3,2 -6,4 -8,8 -1,0 -1,0 -1,0 -4,2 -8,4 -12,5 -5,2 -11,3 -14,3 -3,0 -5,0 -5,0 0,1 0,3 0,4l0 1c0,3 0,6 -1,9 -1,3 -1,6 0,10 1,6 3,7 5,8 1,1 3,2 3,4 0,1 1,3 2,4 0,0 0,-1 0,-1 1,-2 2,-5 4,-6 3,-2 7,-2 11,-1 4,0 9,3 12,7 4,4 6,8 5,11 0,4 -4,8 -8,11 -3,2 -8,4 -12,3 -4,-1 -8,-9 -10,-13 -1,1 -1,3 -2,4 0,0 0,1 -1,2 0,0 -1,1 -2,1 -2,2 -5,4 -5,5 0,1 1,2 2,4 0,2 1,4 1,7 0,0 0,1 0,1 0,1 0,2 0,3 0,1 0,3 0,4 1,1 2,2 3,3 0,0 1,0 1,0 4,0 6,-1 8,-2 2,-1 3,-1 5,-1 2,0 3,1 4,2 1,1 2,1 2,2 4,-1 7,-2 11,-2 4,-1 9,-4 14,-8 5,-3 9,-9 11,-14 2,-4 4,-9 4,-13 0,-5 0,-10 -2,-14 0,-2 -1,-4 2,-4 2,-1 3,1 4,2 1,5 2,10 2,16 -1,5 -2,11 -5,16 -3,6 -7,11 -12,16 -6,4 -11,7 -17,8 -4,1 -7,2 -11,3 0,0 -1,1 -1,0 -8,3 -14,6 -20,10 -9,6 -17,13 -27,22 0,0 1,0 1,0 3,1 2,2 2,4 -1,2 -2,5 -3,7 -2,5 -3,8 -4,12 -1,2 -1,3 -1,5 0,1 0,2 0,3 6,-5 9,-15 11,-22 1,-2 1,-4 2,-5 1,-2 2,-3 4,-2 1,0 2,2 1,3 0,2 -1,4 -1,6 -1,1 -1,2 -1,3 0,2 -1,4 -1,6 0,4 1,8 2,11 2,-1 5,-4 6,-13 0,-1 1,-3 1,-4 0,-2 0,-4 0,-6 0,-1 1,-2 3,-2 1,0 3,1 3,2 0,0 0,0 0,0 0,4 -1,7 -1,10 0,9 1,15 12,20 -1,-5 -1,-11 -1,-17 1,-7 2,-13 5,-16 1,-1 3,-2 4,-1 1,0 1,2 1,3 -2,15 8,41 24,45 -2,-6 -2,-12 -2,-19 0,-8 1,-16 2,-23 1,-2 2,-3 4,-3 1,1 2,2 2,4 0,3 0,6 0,9 0,15 4,26 10,34 6,8 14,12 23,13 -4,-5 -6,-11 -8,-17 -4,-11 -5,-24 -5,-34 0,-1 0,-4 3,-3 3,0 3,2 3,3 -1,10 1,22 4,33 4,9 8,17 14,23 5,5 10,6 16,6 -5,-7 -8,-13 -10,-20 -2,-8 -3,-16 -3,-26 0,-6 2,-12 3,-18 1,-2 2,-4 4,-3 3,1 2,3 2,4 -2,6 -3,12 -3,18 0,2 0,4 0,6 0,-1 1,-1 2,-2 3,0 3,2 3,3 2,23 18,31 25,32 -2,-4 -4,-9 -5,-15 -2,-7 -3,-14 -3,-20 0,-5 1,-10 1,-14 1,-5 2,-9 3,-12 0,-1 1,-4 4,-3 3,1 2,3 1,5 -1,2 -2,6 -2,10 -1,4 -1,9 -1,13 0,-2 1,-4 2,-7 0,-2 1,-4 1,-7 0,-2 1,-4 4,-4 3,1 2,3 2,4 -1,4 -1,6 -2,9 -1,5 -2,10 0,16 0,3 6,10 2,13 -2,1 -3,-1 -4,-2 -2,-3 -3,-6 -4,-9 0,2 1,3 1,5 0,0 0,0 0,0 3,5 5,8 7,9 1,1 2,1 3,1 -2,-7 -3,-17 -3,-28 1,-10 3,-22 7,-30 0,-1 2,-3 3,-3 1,1 2,3 2,4 0,2 0,5 0,8 2,-5 2,-11 3,-16 2,-9 4,-18 2,-25 0,-1 0,-2 1,-3 1,-1 3,0 5,0 2,0 3,-1 4,-2 -6,-2 -10,-5 -12,-9 -3,-5 -4,-10 -4,-15 -1,-3 -1,-6 -1,-9 -1,1 -2,2 -3,3 -2,2 -5,3 -8,5 -3,1 -5,-2 -4,-4 0,-1 1,-2 1,-3 0,1 0,1 -1,1 -4,4 -10,5 -16,6 -2,0 -4,-3 -3,-5 1,-1 1,-2 2,-3 -5,6 -11,11 -19,13 -2,1 -4,-2 -3,-4 1,-2 2,-5 2,-7 -4,5 -10,10 -16,12 -2,0 -4,-2 -4,-4 2,-6 4,-11 3,-16 0,-6 -1,-11 -5,-17 -1,-1 -2,-3 1,-4 2,-2 3,0 4,1 4,7 6,13 6,20 0,4 0,7 -1,11 3,-1 5,-4 8,-7 3,-4 5,-9 5,-14 1,-1 2,-3 3,-3 2,0 3,2 3,3 0,5 0,10 0,15 -1,2 -1,4 -2,6 4,-2 8,-6 11,-9 4,-5 6,-11 6,-14 -1,-2 0,-3 1,-4 2,0 4,1 4,2 1,3 1,8 1,12 -1,3 -1,6 -3,9 3,0 6,-1 8,-3 4,-3 6,-9 6,-18 -1,-1 -2,-2 -4,-4 -2,-2 -5,-5 -6,-8 -1,-2 -1,-3 -2,-4 0,-2 -1,-4 -2,-6 -2,-3 -4,-6 -7,-9 -3,-2 -6,-4 -8,-5 -3,-1 -5,-4 -7,-6 -1,-1 -2,-3 -3,-4 -2,4 -6,7 -11,9 -1,0 -3,1 -4,-2 0,-1 0,-2 0,-2 0,0 -1,0 -1,0 -1,0 -3,1 -3,-2 -1,-3 0,-3 2,-4 2,0 4,-1 5,-3 1,-2 1,-4 1,-7 -1,-2 -2,-4 -3,-6 -1,-2 -2,-3 -3,-3 -1,0 -2,0 -3,0 -1,0 -1,1 -2,2 -1,1 -1,2 -4,1 -2,-1 -2,-3 -1,-4z"/>
   <path class="fil1" d="M406 150c-1,-1 -1,-4 1,-4 0,0 0,0 0,-1 2,-1 5,-3 10,-4 1,-1 3,-1 4,-1 1,0 3,0 4,1 2,0 3,1 5,2 2,2 4,3 4,4 0,0 0,1 0,2 0,2 -2,3 -5,3 -2,1 -4,1 -6,2 -10,5 -12,2 -15,-2 0,0 -1,-1 -2,-2z"/>
   <path class="fil2" d="M412 149c1,0 1,0 1,0 1,2 2,3 7,0 2,-1 4,-2 5,-2 0,0 -1,-1 -2,-1 -1,0 -1,0 -2,0 -1,0 -2,0 -3,0 -2,1 -4,2 -6,3z"/>
   <path class="fil1" d="M417 163c9,5 15,13 18,22 1,6 2,12 0,18 -1,6 -4,11 -8,15 -6,6 -14,10 -25,10 -1,0 -3,0 -3,-3 0,-3 2,-3 3,-3 9,0 16,-3 21,-8 3,-3 6,-8 7,-12 1,-6 1,-11 -1,-16 -2,-7 -7,-14 -15,-18 -1,-1 -2,-1 -1,-4 1,-2 3,-2 4,-1z"/>
   <path class="fil1" d="M458 240c-1,4 -1,10 0,15 1,4 3,7 5,10 0,-4 0,-8 1,-11 0,-6 2,-12 4,-16 0,-2 1,-3 4,-2 2,1 2,3 1,4 -2,4 -3,9 -4,15 0,4 0,10 0,16 0,2 -2,4 -4,3 -7,-4 -10,-11 -12,-17 -2,-7 -1,-13 -1,-18 0,-1 1,-2 3,-2 3,0 3,2 3,3z"/>
   <path class="fil1" d="M489 232c0,2 -1,3 -1,5 0,6 1,13 4,19 2,4 5,8 10,10 -1,-4 -2,-7 -2,-11 0,-7 2,-15 5,-20 1,-2 1,-3 4,-1 2,1 2,2 1,3 -3,5 -4,11 -4,18 0,5 1,10 4,13 1,1 1,2 1,3 -2,3 -5,2 -7,1 -8,-1 -14,-7 -17,-14 -4,-7 -5,-15 -4,-22 0,-2 0,-3 0,-5 1,-1 1,-3 4,-2 2,0 2,2 2,3z"/>
   <path class="fil1" d="M418 284c0,3 -1,6 0,10 0,4 1,8 2,11 1,2 2,3 -1,4 -3,1 -3,0 -4,-1 -2,-4 -3,-9 -3,-14 0,-6 0,-11 1,-15l0 0c-1,-3 -2,-5 -3,-8 -2,-6 -1,-13 1,-18 1,-2 1,-4 4,-3 3,1 2,3 1,5 -1,4 -2,10 -1,15 1,2 2,3 3,5 0,-3 0,-5 0,-7 1,-4 3,-8 4,-11 1,-1 3,-3 5,-1 2,1 1,3 0,4 -1,3 -3,6 -3,9 -1,4 -1,8 0,13 0,3 -3,5 -5,3 0,0 -1,-1 -1,-1z"/>
   <path class="fil1" d="M451 295c0,0 0,1 -1,2 0,7 -1,22 6,28 1,1 2,2 0,4 -2,2 -3,1 -4,0 -9,-7 -8,-24 -7,-32 0,-1 0,-2 0,-2 0,-2 0,-4 3,-4 3,0 3,2 3,4z"/>
   <path class="fil1" d="M468 302c0,6 0,10 1,15 1,4 2,8 4,13 1,1 1,2 -1,3 -3,1 -4,0 -4,-1 -2,-5 -3,-9 -4,-14 -1,-5 -2,-10 -2,-16 1,-1 1,-4 3,-3 3,0 3,2 3,3z"/>
   <path class="fil1" d="M503 297c-2,7 -1,14 1,21 0,1 0,3 -2,4 -3,0 -4,-2 -4,-3 -1,-8 -2,-16 -1,-23 0,-1 1,-4 3,-4 3,1 3,3 3,5z"/>
   <path class="fil1" d="M444 394c-2,2 -4,5 -7,7 -2,2 -5,3 -8,3 -2,1 -4,1 -4,-2 0,-3 2,-3 3,-3 2,0 4,-1 6,-3 2,-1 4,-4 5,-5 1,-2 2,-4 4,-2 3,1 1,3 1,5z"/>
   <path class="fil1" d="M440 382c-2,4 -5,7 -9,9 -3,2 -7,3 -10,3 -2,0 -4,1 -4,-2 0,-3 2,-3 4,-3 2,0 5,-1 7,-3 3,-2 5,-4 7,-7 1,-1 2,-3 4,-1 3,1 2,3 1,4z"/>
   <path class="fil1" d="M327 354c6,0 14,1 23,1 9,-1 20,-1 32,-4 2,0 3,-1 4,2 0,3 -1,3 -3,4 -12,2 -24,3 -33,3 -10,0 -17,0 -23,-1 -1,0 -3,0 -3,-3 1,-3 2,-3 3,-2z"/>
  </g>
 </g>
</svg>
