<?xml version="1.0" encoding="UTF-8"?>
<!DOCTYPE svg PUBLIC "-//W3C//DTD SVG 1.1//EN" "http://www.w3.org/Graphics/SVG/1.1/DTD/svg11.dtd">
<!-- Creator: CorelDRAW X8 -->
<svg xmlns="http://www.w3.org/2000/svg" xml:space="preserve" width="100%" height="100%" version="1.1" style="shape-rendering:geometricPrecision; text-rendering:geometricPrecision; image-rendering:optimizeQuality; fill-rule:evenodd; clip-rule:evenodd"
viewBox="0 0 847 847"
 xmlns:xlink="http://www.w3.org/1999/xlink">
 <defs>
  <style type="text/css">
   <![CDATA[
    .fil2 {fill:black}
    .fil3 {fill:#D93F16}
    .fil5 {fill:#EEB450}
    .fil0 {fill:white}
    .fil1 {fill:black;fill-rule:nonzero}
    .fil4 {fill:#FEFEFE;fill-rule:nonzero}
   ]]>
  </style>
 </defs>
 <g id="Camada_x0020_1">
  <metadata id="CorelCorpID_0Corel-Layer"/>
  <g id="_4374212416">
   <path class="fil0" d="M50 348l0 -156c263,57 170,-164 170,-164 64,-28 203,-30 203,-30 0,0 140,2 203,30 0,0 -81,223 171,164l0 156c1,391 -374,501 -374,501 0,0 -374,-110 -373,-501z"/>
   <g>
    <path class="fil1" d="M58 192l0 156 -17 0 0 -156 11 -7 6 7zm-17 0l0 -10 11 3 -11 7zm176 -171l7 14 4 -9 1 0 0 2 1 3 2 4 2 5 1 6 2 7 2 7 2 8 1 9 1 8 1 9 0 10 0 9 -1 10 -1 10 -3 9 -3 9 -4 10 -6 8 -7 8 -8 8 -9 6 -11 6 -12 5 -14 3 -15 2 -17 2 -19 -1 -20 -1 -22 -3 -24 -5 4 -14 23 4 21 3 19 1 17 1 16 -1 13 -3 12 -3 11 -4 9 -4 7 -6 7 -6 5 -6 5 -7 3 -8 3 -8 2 -8 2 -9 1 -8 0 -9 -1 -9 0 -8 -2 -8 -1 -8 -1 -8 -2 -7 -2 -6 -2 -6 -1 -4 -2 -4 -1 -3 0 -2 0 0 4 -10zm-4 10l-3 -7 7 -3 -4 10zm211 -41l-1 15 1 0 -1 0 -1 0 -2 1 -2 0 -4 0 -4 0 -4 0 -5 0 -5 1 -6 0 -7 0 -6 1 -8 0 -7 1 -8 0 -7 1 -8 1 -9 1 -8 1 -8 1 -9 1 -8 1 -8 2 -8 1 -8 2 -8 1 -8 2 -7 2 -7 2 -7 2 -6 3 -6 2 -7 -14 6 -2 7 -3 7 -2 8 -2 8 -2 8 -2 8 -2 8 -2 9 -1 8 -2 9 -1 8 -1 9 -1 8 -1 9 -1 8 -1 8 -1 8 0 7 -1 7 0 7 -1 7 0 6 -1 5 0 5 0 5 0 4 0 3 0 3 -1 2 0 1 0 0 0 1 0zm-1 0l0 0 1 0 -1 0zm211 41l-16 -5 5 9 -6 -2 -6 -3 -7 -2 -7 -2 -7 -2 -8 -2 -8 -1 -8 -2 -8 -1 -8 -2 -9 -1 -8 -1 -8 -1 -9 -1 -8 -1 -8 -1 -8 -1 -7 0 -8 -1 -7 0 -7 -1 -6 0 -6 0 -5 -1 -5 0 -5 0 -4 0 -3 0 -2 0 -2 -1 -1 0 -1 0 1 -15 0 0 1 0 2 0 3 1 3 0 4 0 5 0 5 0 5 0 6 1 7 0 6 1 8 0 7 1 8 0 8 1 8 1 8 1 9 1 8 1 9 1 9 1 8 2 9 1 8 2 8 2 8 2 8 2 7 2 8 2 6 3 7 2 4 10zm-4 -10l6 3 -2 7 -4 -10zm175 171l-16 0 10 7 -23 5 -21 3 -20 2 -18 0 -16 -1 -15 -2 -14 -3 -12 -5 -11 -6 -9 -6 -8 -8 -7 -8 -5 -8 -5 -9 -4 -10 -2 -9 -2 -10 -1 -10 -1 -9 0 -10 1 -9 1 -9 1 -8 1 -8 2 -8 1 -6 2 -6 1 -5 1 -4 1 -3 1 -2 0 -1 16 5 0 0 -1 2 0 3 -2 4 -1 4 -1 6 -2 6 -1 7 -2 8 -1 8 0 8 -1 9 0 8 1 9 1 9 1 9 3 8 3 8 3 8 5 7 6 6 6 6 8 6 9 4 10 4 11 3 14 2 14 1 17 0 18 -2 21 -3 22 -4 10 7zm-10 -7l10 -3 0 10 -10 -7zm-6 163l0 -156 16 0 0 156 -16 0 0 0zm0 0l0 0 0 0 0 0zm-368 508l5 -14 -5 0 1 -1 3 -1 5 -1 6 -3 9 -3 9 -4 12 -5 12 -5 13 -7 15 -7 15 -9 16 -9 17 -10 16 -12 18 -12 17 -14 17 -14 17 -16 17 -17 16 -18 16 -20 16 -21 14 -22 13 -23 13 -25 11 -26 10 -28 8 -29 7 -31 5 -32 3 -34 1 -35 16 0 -1 36 -3 35 -5 33 -7 31 -8 30 -10 29 -12 27 -13 25 -13 24 -15 23 -16 22 -16 20 -17 18 -18 18 -17 16 -18 15 -18 14 -17 13 -18 12 -16 11 -17 9 -16 9 -14 7 -14 7 -13 6 -12 5 -10 4 -8 3 -7 3 -5 1 -4 2 -1 0 -5 0zm5 0l-3 1 -2 -1 5 0zm-385 -508l17 0 0 0 1 35 3 34 5 32 7 31 8 29 10 28 11 26 12 25 14 23 14 22 15 21 16 20 17 18 17 17 17 16 17 14 17 14 17 12 17 12 17 10 16 9 15 9 14 7 14 7 12 5 11 5 10 4 9 3 6 3 5 1 3 1 1 1 -5 14 -1 0 -4 -2 -5 -1 -7 -3 -9 -3 -10 -4 -11 -5 -13 -6 -14 -7 -15 -7 -15 -9 -17 -9 -17 -11 -17 -12 -18 -13 -17 -14 -18 -15 -18 -16 -17 -18 -17 -18 -16 -20 -16 -22 -15 -23 -14 -24 -13 -25 -11 -27 -10 -29 -9 -30 -7 -31 -5 -33 -3 -35 -1 -36 0 0zm17 0l0 0 0 0 0 0z"/>
   </g>
   <path class="fil2" d="M84 354l0 -124c234,33 184,-175 184,-175 57,-25 155,-23 155,-23 0,0 98,-2 156,23 0,0 -50,208 184,175l0 124c1,356 -340,456 -340,456 0,0 -340,-100 -339,-456z"/>
   <path class="fil0" d="M774 234c-155,-2 -174,-71 -174,-71l-496 384 94 133 576 -446z"/>
   <g>
    <polygon class="fil1" points="86,230 86,354 81,354 81,230 "/>
   </g>
   <g>
    <path class="fil1" d="M266 53l3 5 1 -3 1 0 0 2 0 3 1 4 1 5 1 5 0 6 1 7 0 8 0 7 0 9 -1 8 -1 9 -2 9 -2 10 -3 9 -3 9 -5 9 -5 8 -6 9 -7 7 -8 8 -9 7 -10 6 -12 5 -13 4 -14 4 -15 2 -17 2 -18 0 -19 -1 -22 -3 1 -5 21 3 19 1 18 0 16 -2 15 -2 14 -3 12 -5 11 -5 10 -6 8 -6 8 -7 6 -7 6 -8 5 -9 4 -8 4 -9 3 -9 2 -9 1 -8 1 -9 1 -8 0 -9 0 -7 0 -8 0 -6 -1 -6 -1 -6 0 -4 -1 -4 -1 -3 0 -2 0 0 1 -3zm-1 3l-1 -2 2 -1 -1 3zm158 -26l0 5 0 0 0 0 -1 0 -1 0 -2 0 -2 0 -3 0 -3 0 -4 0 -4 0 -4 0 -5 0 -5 0 -5 1 -5 0 -6 0 -6 1 -6 0 -6 1 -6 1 -6 0 -7 1 -6 1 -7 1 -6 1 -6 2 -7 1 -6 2 -6 1 -6 2 -6 2 -6 2 -5 3 -3 -5 6 -2 6 -2 6 -2 6 -2 6 -2 7 -2 6 -1 7 -1 6 -2 7 -1 6 -1 7 -1 6 0 7 -1 6 -1 6 0 6 -1 5 0 6 0 5 -1 5 0 5 0 4 0 4 0 4 0 3 0 3 0 2 0 2 0 1 0 1 0 0 0 0 0zm0 5l0 0 0 0 0 0zm159 21l-6 -1 2 3 -6 -3 -5 -2 -6 -2 -6 -2 -6 -1 -6 -2 -7 -1 -6 -2 -7 -1 -6 -1 -7 -1 -6 -1 -6 0 -7 -1 -6 -1 -6 0 -6 -1 -5 0 -6 0 -5 -1 -5 0 -4 0 -5 0 -3 0 -4 0 -3 0 -3 0 -2 0 -2 0 -1 0 -1 0 -1 0 0 -5 1 0 0 0 2 0 2 0 2 0 3 0 3 0 4 0 4 0 4 0 5 0 5 0 5 1 5 0 6 0 6 1 6 0 6 1 6 1 7 0 6 1 7 1 6 1 7 2 6 1 7 1 6 2 7 2 6 2 6 2 6 2 5 2 2 3zm-2 -3l2 1 0 2 -2 -3zm183 174l0 5 -21 3 -20 1 -18 0 -16 -2 -16 -2 -14 -4 -12 -4 -12 -5 -10 -6 -9 -7 -8 -8 -7 -7 -6 -9 -6 -8 -4 -9 -3 -9 -3 -9 -2 -10 -2 -9 -1 -9 -1 -8 0 -9 0 -7 0 -8 1 -7 0 -6 1 -5 1 -5 0 -4 1 -3 0 -2 0 0 6 1 0 0 -1 2 0 3 -1 4 -1 4 0 6 -1 6 0 6 -1 8 0 7 1 9 0 8 1 9 2 8 2 9 3 9 3 9 4 8 5 9 6 8 7 7 8 7 8 6 10 6 11 5 12 5 13 3 15 2 17 2 17 0 20 -1 21 -3z"/>
   </g>
   <g>
    <polygon class="fil1" points="760,354 760,230 766,230 766,354 "/>
   </g>
   <g>
    <path class="fil1" d="M423 812l1 -5 -1 0 0 0 3 -1 5 -1 6 -2 8 -3 9 -4 10 -4 11 -6 13 -6 13 -6 14 -8 14 -9 16 -9 15 -11 16 -11 16 -12 15 -14 16 -14 16 -16 15 -17 14 -18 14 -19 13 -20 13 -22 11 -22 10 -24 9 -26 8 -26 6 -29 5 -29 2 -31 1 -33 6 0 -1 33 -3 31 -4 30 -7 29 -7 27 -9 25 -11 25 -11 23 -13 21 -13 21 -14 19 -15 18 -15 17 -16 16 -16 15 -16 13 -16 13 -16 11 -15 11 -15 10 -15 8 -14 8 -14 7 -12 6 -12 5 -10 5 -9 3 -8 3 -6 2 -5 2 -3 1 -1 0 -1 0zm1 0l-1 1 0 -1 1 0zm-343 -458l5 0 1 33 3 31 5 29 6 29 7 26 9 26 11 24 11 22 12 22 14 20 14 19 14 18 15 17 16 16 15 14 16 14 16 12 16 11 15 11 15 9 15 9 14 8 13 6 13 6 11 6 10 4 9 4 8 3 6 2 5 1 2 1 1 0 -1 5 -2 0 -2 -1 -5 -2 -6 -2 -8 -3 -9 -3 -11 -5 -11 -5 -13 -6 -13 -7 -14 -8 -15 -8 -15 -10 -16 -11 -16 -11 -16 -13 -16 -13 -15 -15 -16 -16 -15 -17 -15 -18 -14 -19 -14 -21 -12 -21 -12 -23 -10 -25 -9 -25 -8 -27 -6 -29 -4 -30 -3 -31 -1 -33z"/>
   </g>
   <path class="fil0" d="M363 69l5 19 32 -20c0,0 10,-7 10,10 0,0 -10,6 -10,12 0,0 -2,14 -1,22l0 23c0,0 -18,13 -23,22l79 0c0,0 -8,-13 -23,-21 0,0 -15,-17 6,-24l5 -30 -10 -4 -30 -24 -40 15z"/>
   <path class="fil2" d="M405 104c0,0 6,3 6,7 0,0 4,3 5,-1 0,0 2,-8 -5,-12 0,0 -8,-1 -6,6z"/>
   <path class="fil2" d="M419 128c0,0 -1,8 6,16 0,0 3,3 4,-1 0,0 -3,-6 -4,-11 0,0 -1,-9 -6,-4z"/>
   <path class="fil2" d="M401 148c0,0 2,-14 6,-17 0,0 5,-5 4,6 0,0 -2,11 -6,13 0,0 -2,2 -4,-2z"/>
   <path class="fil0" d="M461 285l-141 0c0,-41 -25,-62 -25,-62l162 0 4 62z"/>
   <g>
    <path class="fil1" d="M320 283l141 0 0 5 -141 0 -3 -3 3 -2zm0 5l-3 0 0 -3 3 3zm-25 -67l0 5 2 -4 0 0 1 0 0 0 1 1 0 0 1 1 1 1 0 1 1 1 1 1 1 1 2 2 1 1 1 2 1 2 1 2 1 2 2 2 1 2 1 3 1 2 1 3 1 3 1 2 1 3 1 4 0 3 1 3 0 4 1 3 0 4 0 4 -6 0 0 -4 0 -3 0 -4 -1 -3 0 -3 -1 -3 -1 -3 0 -3 -1 -3 -1 -3 -1 -2 -1 -3 -1 -2 -1 -2 -2 -2 -1 -2 -1 -2 -1 -1 -1 -2 -1 -1 -1 -2 -1 -1 -1 -1 -1 -1 -1 -1 0 -1 -1 0 0 -1 -1 0 0 0 0 -1 0 0 1 -4zm-1 4l-6 -4 7 0 -1 4zm163 1l-162 0 0 -5 162 0 3 2 -3 3zm0 -5l2 0 1 2 -3 -2zm1 64l-4 -61 6 -1 4 62 -3 3 -3 -3zm6 0l0 3 -3 0 3 -3z"/>
   </g>
   <g>
    <path class="fil1" d="M382 235l0 10 -54 0 0 -10 54 0zm82 10l-50 0 0 -10 50 0 0 10z"/>
   </g>
   <path class="fil0" d="M354 472c76,-1 122,33 122,33 105,-108 38,-226 38,-226l-259 0c0,0 68,118 -37,226 0,0 60,-33 136,-33z"/>
   <g>
    <path class="fil1" d="M474 503l4 3 -4 0 0 0 0 0 -1 0 -1 -1 -1 -1 -1 0 -2 -1 -2 -2 -2 -1 -2 -1 -3 -1 -3 -2 -3 -1 -3 -2 -4 -1 -4 -2 -4 -1 -4 -2 -4 -1 -5 -2 -5 -1 -5 -1 -5 -2 -6 -1 -5 -1 -6 -1 -6 -1 -6 -1 -7 0 -6 -1 -7 0 -7 0 0 -5 7 0 7 0 7 1 6 0 7 1 6 1 6 1 6 1 5 1 6 2 5 1 5 2 5 1 4 2 4 1 5 2 3 1 4 2 4 1 3 2 3 1 2 2 3 1 2 1 2 1 2 1 1 1 2 1 1 1 0 0 1 0 0 1 -4 0zm4 3l-1 2 -3 -2 4 0zm36 -224l0 -5 2 1 0 0 1 1 1 2 1 2 1 3 2 4 2 4 1 4 2 6 2 5 2 6 1 7 2 6 1 8 1 7 1 8 1 9 0 8 0 9 -1 9 -1 9 -2 10 -2 10 -3 10 -4 10 -4 10 -5 10 -6 10 -6 10 -8 11 -8 10 -10 10 -4 -3 9 -10 9 -10 7 -10 6 -10 6 -10 5 -10 4 -10 4 -10 2 -9 3 -10 1 -9 1 -9 1 -9 0 -9 0 -8 -1 -8 0 -8 -1 -8 -2 -7 -1 -6 -2 -7 -2 -6 -1 -5 -2 -5 -2 -4 -1 -4 -2 -4 -1 -3 -1 -2 -1 -1 -1 -1 0 -1 3 2zm0 -5l1 0 1 1 -2 -1zm-259 0l259 0 0 5 -259 0 -2 -2 2 -3zm-2 3l-2 -3 4 0 -2 3zm-37 222l3 5 -3 -4 9 -10 8 -10 7 -10 7 -10 6 -10 4 -10 5 -10 3 -10 3 -9 2 -10 2 -9 1 -9 0 -9 1 -9 0 -8 -1 -8 -1 -8 -1 -8 -1 -7 -2 -6 -1 -7 -2 -6 -2 -5 -2 -5 -1 -4 -2 -4 -1 -4 -2 -3 -1 -2 -1 -1 0 -1 0 -1 5 -2 0 0 1 1 0 2 2 2 1 3 1 4 2 4 2 4 2 6 1 5 2 6 2 7 1 6 2 8 1 7 1 8 0 9 0 8 0 9 -1 9 -1 9 -1 10 -3 10 -3 10 -3 10 -4 10 -5 10 -6 10 -7 10 -7 11 -9 10 -9 10 -4 -4zm138 -33l0 5 0 0 -7 0 -7 0 -7 1 -6 1 -7 0 -6 1 -7 1 -6 1 -6 1 -5 2 -6 1 -6 1 -5 2 -5 1 -5 2 -5 1 -4 2 -4 1 -4 2 -4 1 -4 2 -3 1 -3 1 -2 2 -3 1 -2 1 -2 1 -1 0 -1 1 -1 0 -1 1 0 0 -3 -5 0 0 1 0 1 0 1 -1 2 -1 1 -1 3 -1 2 -1 3 -1 3 -1 3 -2 4 -1 4 -2 4 -1 4 -2 4 -1 5 -2 5 -1 5 -2 6 -1 5 -2 6 -1 6 -1 6 -2 6 -1 7 -1 6 -1 7 0 7 -1 7 -1 7 0 7 0 0 0z"/>
   </g>
   <g>
    <path class="fil1" d="M340 296l0 10 -54 0 0 -10 54 0zm85 0l0 10 -53 0 0 -10 53 0zm85 0l0 10 -53 0 0 -10 53 0z"/>
   </g>
   <path class="fil0" d="M497 154l-155 0c0,0 23,19 10,59 0,0 63,-34 147,0 0,0 11,-38 -2,-59z"/>
   <g>
    <path class="fil1" d="M342 152l155 0 0 5 -155 0 -2 -1 2 -4zm-2 4l-6 -4 8 0 -2 4zm11 55l3 4 -5 -3 2 -4 0 -3 1 -3 1 -4 0 -3 0 -3 0 -2 0 -3 0 -3 0 -2 -1 -3 0 -2 -1 -2 -1 -2 0 -2 -1 -1 -1 -2 -1 -2 0 -1 -1 -1 -1 -2 -1 -1 0 -1 -1 -1 -1 0 0 -1 -1 -1 0 0 -1 0 0 -1 0 0 0 0 3 -3 1 0 0 0 0 0 1 1 0 0 1 1 1 1 0 0 1 1 1 2 1 1 1 1 1 2 0 1 1 2 1 2 1 2 1 2 0 2 1 2 1 3 0 2 0 3 1 3 0 3 0 3 -1 3 0 3 0 3 -1 4 -1 4 -1 3 -4 -2zm3 4l-6 3 1 -6 5 3zm142 -3l5 1 -4 2 -7 -3 -8 -3 -7 -2 -7 -2 -8 -1 -7 -1 -6 -1 -7 -1 -6 -1 -7 0 -6 0 -5 0 -6 1 -5 0 -6 1 -5 0 -4 1 -5 1 -4 1 -4 1 -3 1 -4 1 -3 1 -3 1 -2 1 -2 1 -2 1 -2 1 -1 0 -1 1 0 0 0 0 -3 -4 0 -1 1 0 0 0 2 -1 1 -1 2 0 3 -1 2 -1 3 -1 3 -2 4 -1 4 -1 4 -1 4 -1 5 -1 4 -1 6 0 5 -1 6 0 5 -1 6 0 7 0 6 0 7 1 6 1 7 1 8 1 7 1 7 2 8 3 8 2 8 3 -4 2zm5 1l-1 3 -3 -1 4 -2zm-4 -56l0 -5 2 1 1 2 1 3 1 2 1 2 1 3 1 2 0 2 1 3 0 2 0 3 0 2 0 3 0 2 0 3 0 2 0 3 -1 2 0 2 0 2 -1 2 0 2 0 2 -1 1 0 2 0 1 -1 2 0 1 0 1 0 0 -1 1 0 0 0 0 -5 -1 0 0 0 0 0 -1 0 -1 1 0 0 -1 0 -2 0 -1 1 -1 0 -2 1 -2 0 -2 0 -2 0 -2 1 -2 0 -2 0 -2 0 -2 0 -3 1 -2 -1 -2 0 -3 0 -2 0 -2 0 -3 -1 -2 0 -2 -1 -2 -1 -2 -1 -2 -1 -2 -1 -2 3 1zm0 -5l1 0 1 1 -2 -1z"/>
   </g>
   <path class="fil0" d="M580 207l-209 0c0,0 42,62 -2,102 0,0 131,-51 192,8 0,0 46,-53 19,-110z"/>
   <g>
    <path class="fil1" d="M371 204l209 0 0 5 -209 0 -3 -1 3 -4zm-3 4l-2 -4 5 0 -3 4zm0 99l2 4 -3 -4 3 -3 4 -4 3 -4 2 -4 2 -4 2 -4 1 -4 1 -4 1 -4 0 -4 0 -5 0 -4 0 -4 -1 -4 -1 -4 -1 -3 0 -4 -2 -4 -1 -3 -1 -4 -1 -3 -2 -3 -1 -2 -1 -3 -1 -2 -1 -2 -1 -2 -1 -1 -1 -1 0 -1 -1 -1 0 0 5 -2 0 0 1 0 0 1 1 1 1 2 1 2 1 2 1 2 1 3 2 3 1 3 1 3 2 3 1 4 1 4 1 3 1 4 1 5 0 4 1 4 0 4 -1 5 0 4 -1 5 -1 4 -1 5 -2 4 -2 4 -3 5 -3 4 -3 4 -4 4 -3 -4zm191 9l4 3 -4 0 -6 -5 -6 -4 -6 -4 -7 -4 -7 -3 -7 -2 -8 -2 -7 -1 -8 -2 -8 0 -8 -1 -8 0 -7 0 -8 1 -8 1 -8 1 -7 1 -7 1 -7 1 -7 2 -6 1 -6 2 -6 1 -5 2 -5 1 -4 1 -4 1 -3 1 -2 1 -2 1 -1 0 0 0 -2 -4 0 0 1 -1 2 0 2 -1 4 -1 3 -1 5 -2 4 -1 6 -2 5 -1 6 -2 7 -1 7 -2 7 -1 7 -1 8 -1 7 -1 8 -1 8 -1 8 0 8 0 9 1 8 0 8 2 8 1 8 2 7 3 8 3 7 3 7 5 6 4 6 6 -4 0zm4 3l-2 2 -2 -2 4 0zm17 -110l0 -5 2 2 3 5 2 6 1 5 1 6 1 5 1 5 0 5 0 6 0 4 -1 5 -1 5 -1 5 -1 4 -1 4 -1 5 -2 4 -1 3 -2 4 -2 3 -1 4 -2 3 -2 3 -1 2 -2 3 -1 2 -1 2 -2 1 -1 1 0 2 -1 0 0 1 -1 0 -4 -3 0 0 0 -1 1 0 1 -1 1 -2 1 -1 1 -2 2 -2 1 -2 1 -3 2 -3 2 -2 1 -4 2 -3 1 -3 2 -4 1 -4 2 -4 1 -4 1 -4 1 -5 1 -4 0 -5 0 -5 0 -4 0 -5 0 -5 -1 -5 -1 -6 -2 -5 -2 -5 -2 -5 3 1zm0 -5l2 0 0 2 -2 -2z"/>
   </g>
   <path class="fil0" d="M388 513c-61,1 -128,29 -128,29 129,-109 32,-232 32,-232l327 0c0,0 43,188 -133,232 0,0 -36,-29 -98,-29z"/>
   <g>
    <path class="fil1" d="M258 540l4 3 -3 -4 0 0 0 0 1 0 2 -1 1 -1 2 0 3 -1 2 -1 3 -1 3 -1 4 -1 3 -2 4 -1 4 -1 5 -1 4 -2 5 -1 5 -1 5 -2 5 -1 5 -1 6 -1 5 -1 6 -2 5 -1 6 0 6 -1 6 -1 6 0 5 -1 6 0 6 0 0 5 -5 0 -6 0 -6 1 -6 0 -5 1 -6 1 -6 0 -5 1 -6 1 -5 2 -5 1 -6 1 -5 1 -5 1 -5 2 -4 1 -5 1 -4 2 -4 1 -4 1 -3 1 -4 1 -3 2 -3 1 -2 0 -2 1 -2 1 -2 1 -1 0 -1 1 -1 0 0 0 -3 -4zm34 -232l0 5 2 -4 0 0 1 1 1 2 2 3 2 3 2 3 3 4 2 5 3 5 3 6 3 6 2 7 3 7 2 8 2 8 2 8 1 9 1 8 1 10 -1 9 0 10 -2 9 -2 10 -3 11 -4 10 -5 10 -5 10 -7 11 -8 10 -9 11 -11 10 -11 10 -4 -3 11 -10 10 -10 9 -11 8 -10 7 -10 5 -10 5 -10 4 -10 3 -10 2 -9 1 -10 1 -9 0 -9 0 -9 -1 -9 -2 -8 -1 -8 -2 -8 -3 -7 -2 -7 -3 -7 -2 -6 -3 -5 -3 -6 -2 -4 -3 -4 -2 -4 -2 -3 -2 -2 -1 -2 -1 -1 0 0 3 -4zm-3 4l-3 -4 6 0 -3 4zm330 1l-327 0 0 -5 327 0 2 2 -2 3zm0 -5l2 0 0 2 -2 -2zm-135 235l4 -3 -3 -1 16 -4 14 -5 14 -6 12 -7 11 -7 10 -8 9 -8 8 -8 7 -9 6 -10 6 -9 5 -10 4 -9 3 -10 3 -10 3 -10 1 -9 2 -10 1 -9 0 -9 1 -9 0 -8 -1 -7 0 -7 -1 -7 0 -6 -1 -5 -1 -4 0 -4 -1 -2 0 -2 0 0 5 -1 0 0 1 2 0 3 1 3 1 5 0 5 1 6 0 6 1 7 0 8 0 8 0 9 -1 9 -1 10 -1 9 -2 10 -2 10 -3 10 -4 10 -4 10 -5 10 -6 10 -6 9 -8 10 -8 8 -9 9 -11 8 -11 7 -13 7 -13 6 -15 5 -16 5 -3 -1zm3 1l-2 0 -1 -1 3 1zm-99 -28l0 -5 0 0 6 0 6 0 5 0 5 1 6 1 5 0 4 1 5 1 5 1 4 1 4 2 4 1 4 1 4 1 3 2 3 1 4 1 2 2 3 1 3 1 2 2 2 1 2 1 2 1 2 1 1 1 1 1 1 0 1 1 0 0 1 1 0 0 -4 3 0 0 0 0 -1 0 0 -1 -1 0 -1 -1 -2 -1 -1 -1 -2 -1 -2 -1 -2 -1 -2 -1 -3 -2 -2 -1 -3 -1 -3 -1 -3 -2 -3 -1 -4 -1 -4 -2 -4 -1 -4 -1 -4 -1 -4 -1 -5 -1 -4 -1 -5 0 -5 -1 -5 -1 -6 0 -5 0 -6 0 0 0z"/>
   </g>
   <g>
    <path class="fil1" d="M414 326l0 15 -80 0 0 -15 80 0zm129 0l0 15 -81 0 0 -15 81 0zm68 15l-20 0 0 -15 20 0 0 15z"/>
   </g>
   <g>
    <path class="fil1" d="M456 221l0 10 -54 0 0 -10 54 0zm85 0l0 10 -53 0 0 -10 53 0zm39 10l-7 0 0 -10 7 0 0 10z"/>
   </g>
   <g>
    <path class="fil1" d="M397 167l0 5 -26 0 0 -5 26 0zm44 0l0 5 -27 0 0 -5 27 0zm43 0l0 5 -27 0 0 -5 27 0z"/>
   </g>
   <path class="fil3" d="M515 437c0,0 -20,-14 -41,-14l0 0c0,19 15,37 15,37l-52 0c0,0 15,-18 15,-37l0 0c-21,0 -42,14 -42,14l0 -47c0,0 21,14 42,14l0 0c0,-19 -15,-38 -15,-38l52 0c0,0 -15,19 -15,38l0 0c21,0 41,-14 41,-14l0 47z"/>
   <g>
    <polygon class="fil4" points="160,267 160,394 144,394 144,267 "/>
   </g>
   <g>
    <path class="fil4" d="M212 303l-15 3 -1 -1 0 -3 0 -3 -1 -2 0 -2 -1 -2 -1 -2 -2 -2 -1 -2 -2 -1 -1 -1 -2 -2 -2 -1 -2 -1 -2 -1 -2 -1 -2 0 -2 -1 -2 -1 -2 0 -2 -1 -2 0 -2 0 -2 -1 -2 0 -2 0 -1 0 -1 0 -1 0 -1 0 -1 0 0 0 0 0 0 -15 0 0 0 0 1 0 1 0 2 0 1 0 2 0 2 1 2 0 2 0 3 1 2 0 3 1 2 0 3 1 3 1 3 1 3 1 2 2 3 1 3 2 3 2 2 2 2 2 3 3 2 2 1 4 2 3 1 3 1 4 0 4 1 4 -1 -2zm-15 3l-1 0 0 -1 1 1zm-45 37l0 -15 5 0 5 0 4 0 4 -1 4 0 3 -1 3 -1 2 -1 3 -1 2 -1 1 -1 2 -1 1 -1 1 -1 1 -1 1 -1 1 -1 0 -1 1 -1 0 -1 0 0 0 -1 1 -1 0 -1 0 -1 0 0 0 -1 0 0 0 -1 -1 0 0 0 1 0 15 -3 0 1 1 0 0 1 0 0 0 1 0 2 0 1 0 1 0 2 -1 1 0 2 -1 2 0 2 -1 1 -1 2 -1 2 -2 2 -2 2 -2 2 -2 2 -2 1 -3 2 -3 1 -3 2 -4 1 -4 1 -4 1 -4 1 -5 0 -5 1 -6 0 -5 0z"/>
   </g>
   <g>
    <path class="fil1" d="M180 301l0 -25 0 0 2 0 2 0 2 1 2 0 3 0 2 0 2 1 2 0 2 0 2 1 2 0 2 1 2 0 2 1 2 0 2 1 2 1 2 1 2 0 1 1 2 1 2 1 2 1 1 1 2 1 2 1 1 1 2 1 1 1 2 1 1 2 1 1 -20 17 -1 -1 -1 0 0 -1 -1 -1 -1 0 -1 -1 -1 -1 -1 0 -1 -1 -1 0 -1 -1 -2 -1 -1 0 -1 -1 -1 0 -2 -1 -1 0 -1 0 -1 -1 -2 0 -1 -1 -2 0 -1 0 -1 0 -2 -1 -1 0 -2 0 -1 0 -2 0 -1 0 -2 0 -1 -1 0 0zm-49 32l-28 0 0 0 1 -3 0 -3 0 -3 1 -3 1 -3 1 -2 1 -3 2 -3 2 -2 1 -3 2 -2 2 -3 3 -2 2 -2 2 -2 3 -2 3 -2 2 -1 3 -2 3 -2 3 -1 3 -1 4 -1 3 -1 3 -1 4 -1 3 -1 4 -1 3 0 4 0 4 -1 4 0 0 25 -3 1 -3 0 -2 0 -3 0 -2 1 -3 0 -2 1 -2 0 -2 1 -2 1 -3 1 -2 1 -1 1 -2 1 -2 1 -2 1 -1 1 -2 1 -1 1 -1 2 -1 1 -2 1 0 2 -1 1 -1 1 -1 2 0 1 -1 1 0 2 0 1 -1 2 0 1 0 0zm49 32l0 25 0 0 -4 0 -4 0 -4 0 -3 -1 -4 0 -3 -1 -4 -1 -3 -1 -3 -1 -4 -1 -3 -1 -3 -2 -3 -1 -3 -2 -2 -2 -3 -1 -3 -2 -2 -2 -2 -3 -3 -2 -2 -2 -2 -2 -1 -3 -2 -3 -2 -2 -1 -3 -1 -3 -1 -3 -1 -3 0 -3 0 -3 -1 -3 28 0 0 2 1 1 0 2 0 1 1 2 0 1 1 1 1 2 1 1 0 1 2 2 1 1 1 1 1 2 2 1 1 1 2 1 2 1 2 1 1 1 2 1 3 1 2 1 2 0 2 1 2 1 3 0 2 0 3 1 2 0 3 0 3 0 0 0zm43 -18l23 14 -1 2 -2 2 -1 1 -2 2 -1 1 -2 2 -2 1 -1 1 -2 2 -2 1 -2 1 -2 1 -2 1 -2 2 -2 1 -2 1 -2 0 -2 1 -3 1 -2 1 -2 1 -2 0 -3 1 -2 0 -3 1 -2 0 -3 0 -2 1 -3 0 -2 0 -3 0 -2 0 0 -25 1 0 2 0 2 0 2 0 2 0 1 -1 2 0 2 0 1 -1 2 0 1 0 2 -1 1 0 2 -1 1 0 2 -1 1 -1 2 0 1 -1 1 -1 1 0 1 -1 2 -1 1 -1 1 -1 1 0 1 -1 1 -1 0 -1 1 -1 1 -1 1 -1z"/>
   </g>
   <g>
    <path class="fil4" d="M180 296l0 -14 0 0 2 0 2 0 2 0 2 0 2 0 2 0 2 1 2 0 2 0 2 1 2 0 2 1 1 0 2 1 2 0 2 1 2 1 1 0 2 1 2 1 1 1 2 0 1 1 2 1 2 1 1 1 1 1 2 1 1 1 2 1 1 1 1 2 -12 10 -1 -1 -1 -1 -1 -1 -1 -1 -1 0 -1 -1 -1 -1 -1 -1 -1 0 -1 -1 -2 -1 -1 0 -1 -1 -2 0 -1 -1 -1 0 -2 -1 -1 0 -2 -1 -1 0 -2 -1 -1 0 -2 0 -1 -1 -2 0 -1 0 -2 0 -2 0 -1 -1 -2 0 -2 0 -1 0 0 0zm-54 37l-17 0 0 0 0 -2 1 -3 0 -3 1 -2 1 -3 1 -3 1 -2 1 -2 2 -3 1 -2 2 -2 2 -2 2 -2 2 -2 2 -2 3 -2 2 -1 3 -2 2 -2 3 -1 3 -1 3 -1 3 -2 3 0 3 -1 3 -1 3 -1 4 0 3 -1 4 0 3 0 4 0 0 14 -3 0 -3 0 -3 1 -3 0 -2 0 -3 1 -2 1 -3 0 -2 1 -3 1 -2 1 -2 1 -2 1 -2 1 -2 1 -2 2 -2 1 -2 1 -1 2 -2 1 -1 2 -1 1 -1 2 -2 1 0 2 -1 2 -1 1 0 2 -1 2 0 2 0 1 0 2 0 0zm54 37l0 15 0 0 -4 0 -3 0 -4 -1 -3 0 -4 -1 -3 0 -3 -1 -3 -1 -3 -1 -3 -1 -3 -1 -3 -1 -3 -2 -2 -1 -3 -2 -2 -2 -3 -1 -2 -2 -2 -2 -2 -2 -2 -2 -2 -2 -1 -3 -2 -2 -1 -2 -1 -3 -1 -2 -1 -3 -1 -3 0 -2 -1 -3 0 -3 17 0 0 2 0 2 0 2 1 1 0 2 1 2 1 2 0 1 2 2 1 1 1 2 1 1 2 2 1 1 2 2 2 1 2 1 2 1 2 2 2 1 2 1 2 1 3 1 2 0 2 1 3 1 3 0 2 1 3 0 3 0 3 0 3 0 0 0zm48 -20l13 8 -1 2 -1 1 -1 2 -2 1 -1 1 -2 2 -1 1 -2 1 -1 1 -2 2 -2 1 -2 1 -1 1 -2 1 -2 1 -2 1 -2 1 -2 0 -2 1 -3 1 -2 0 -2 1 -2 1 -2 0 -3 1 -2 0 -2 0 -3 1 -2 0 -3 0 -2 0 -2 0 0 -15 2 0 2 0 2 0 1 0 2 0 2 0 2 -1 2 0 2 -1 2 0 1 0 2 -1 2 -1 1 0 2 -1 2 0 1 -1 2 -1 1 -1 1 0 2 -1 1 -1 1 -1 2 -1 1 -1 1 -1 1 -1 1 -1 1 -1 1 -1 1 -1 1 -1z"/>
   </g>
   <g>
    <path class="fil1" d="M196 374l27 3 0 -1 0 1 1 1 0 2 0 0 0 1 0 1 1 1 0 0 0 0 1 1 0 0 0 0 0 1 1 0 0 0 0 0 1 0 0 1 0 0 1 0 0 0 1 0 0 0 0 0 1 0 0 0 0 0 0 0 0 0 0 0 0 0 0 0 0 25 -1 0 0 0 -1 0 0 0 -1 0 -1 0 -1 0 -1 0 -2 0 -1 -1 -1 0 -2 -1 -1 0 -2 -1 -1 0 -2 -1 -2 -1 -1 -1 -2 -2 -2 -1 -1 -1 -2 -2 -1 -2 -2 -2 -1 -2 -1 -2 -1 -2 0 -3 -1 -2 0 -3 -1 -3 0 -2 1 -2zm-1 2l0 -1 1 -1 -1 2zm-6 -20l20 -18 1 2 2 1 1 2 1 2 2 1 1 2 1 2 1 1 0 2 1 2 1 1 0 2 1 1 0 2 0 1 1 2 0 1 0 1 0 2 0 1 0 1 1 1 0 1 0 1 0 1 0 1 -1 0 0 1 0 0 0 1 0 0 0 0 -27 -3 -1 0 1 0 0 0 0 0 0 0 0 0 0 -1 0 0 0 -1 0 0 0 -1 -1 0 0 -1 0 -1 0 0 0 -1 0 -1 0 -1 0 0 -1 -1 0 -1 0 -1 -1 0 0 -1 0 -1 -1 -1 0 -1 -1 0 0 -1 -1 -1 -1 0 0 -1z"/>
   </g>
   <g>
    <path class="fil4" d="M201 375l16 2 1 -1 0 1 0 2 0 1 0 2 1 1 0 1 0 1 1 1 0 0 1 1 0 1 1 0 1 1 0 0 1 0 0 1 1 0 1 0 0 1 1 0 0 0 1 0 1 0 0 0 1 0 0 1 0 0 1 0 0 0 0 0 0 0 0 0 0 14 -1 0 0 0 0 0 -1 0 0 0 -1 0 -1 0 -1 0 -1 -1 -1 0 -1 0 -2 0 -1 -1 -1 0 -2 -1 -1 -1 -1 -1 -2 0 -1 -1 -2 -2 -1 -1 -1 -1 -1 -2 -1 -1 -1 -2 -1 -2 -1 -2 -1 -2 0 -2 0 -2 -1 -3 0 -2 0 -1zm0 1l0 -1 0 0 0 1zm-41 -33l0 -15 5 0 5 1 5 0 5 1 4 1 4 1 3 2 4 1 3 2 3 2 2 2 3 2 2 2 2 3 1 2 2 2 1 3 1 2 1 2 0 2 1 2 0 2 0 2 1 2 0 1 0 2 0 1 0 1 0 1 0 1 0 0 -1 1 -16 -2 0 0 0 0 0 -1 0 0 0 -1 0 -1 0 -1 0 -1 0 -1 0 -2 0 -1 -1 -1 0 -2 -1 -1 0 -2 -1 -1 -1 -2 -1 -1 -1 -2 -1 -1 -2 -1 -1 -2 -2 -1 -2 -1 -3 -1 -2 -1 -3 -1 -3 -1 -4 0 -4 -1 -4 0 -4 0z"/>
   </g>
   <g>
    <polygon class="fil1" points="166,277 166,324 138,324 138,277 "/>
   </g>
   <g>
    <polygon class="fil4" points="160,277 160,324 144,324 144,277 "/>
   </g>
   <path class="fil0" d="M159 275l-15 4c0,-14 -11,-19 -11,-19l19 0 7 15z"/>
   <path class="fil0" d="M170 406l-37 0c0,0 11,-5 11,-14l15 0c0,10 11,14 11,14z"/>
   <g>
    <path class="fil4" d="M433 672l0 -14 0 0 2 0 2 0 1 0 2 0 1 0 2 0 2 1 1 0 2 0 1 1 2 0 1 1 2 0 1 1 2 0 1 1 2 1 1 0 1 1 2 1 1 0 1 1 2 1 1 1 1 1 1 1 2 1 1 1 1 1 1 1 1 1 1 1 -12 9 -1 0 -1 -1 -1 -1 -1 -1 -1 -1 0 0 -1 -1 -1 -1 -1 0 -1 -1 -1 0 -1 -1 -1 -1 -1 0 -1 -1 -1 0 -1 -1 -1 0 -1 0 -1 -1 -1 0 -1 0 -1 -1 -2 0 -1 0 -1 0 -1 0 -1 -1 -1 0 -1 0 -2 0 -1 0 0 0zm-44 46l-17 0 0 0 1 -3 0 -3 0 -3 1 -3 0 -3 1 -3 1 -2 1 -3 1 -3 2 -2 1 -3 2 -2 1 -3 2 -2 2 -2 2 -2 2 -2 2 -2 3 -2 2 -2 2 -1 3 -2 3 -1 2 -2 3 -1 3 -1 3 0 3 -1 3 -1 3 0 3 0 3 0 0 14 -2 0 -2 0 -2 1 -2 0 -3 1 -2 0 -2 1 -2 1 -2 1 -2 0 -1 2 -2 1 -2 1 -2 1 -1 2 -2 1 -1 2 -2 2 -1 1 -1 2 -2 2 -1 2 -1 2 -1 2 0 2 -1 2 -1 2 0 3 -1 2 0 2 0 3 0 2 0 0zm44 46l0 15 0 0 -3 0 -3 -1 -3 0 -3 -1 -3 0 -3 -1 -3 -1 -3 -1 -2 -2 -3 -1 -3 -1 -2 -2 -2 -2 -3 -1 -2 -2 -2 -2 -2 -3 -2 -2 -2 -2 -1 -2 -2 -3 -1 -2 -2 -3 -1 -3 -1 -2 -1 -3 -1 -3 0 -3 -1 -3 0 -3 0 -3 -1 -3 17 0 0 3 0 2 0 2 1 3 0 2 1 2 1 2 0 2 1 2 1 2 1 2 2 2 1 2 1 2 2 1 1 2 2 1 1 2 2 1 2 1 2 2 1 1 2 1 2 1 2 0 2 1 2 1 3 0 2 1 2 0 2 0 2 0 0 0zm35 -17l13 9 -1 1 -1 1 -1 1 -1 2 -1 1 -2 1 -1 1 -1 1 -2 1 -1 1 -1 1 -2 1 -1 1 -2 1 -1 1 -2 0 -1 1 -2 1 -1 0 -2 1 -1 1 -2 0 -2 1 -2 0 -1 0 -2 1 -2 0 -1 0 -2 0 -2 1 -2 0 -2 0 0 -15 2 0 1 0 1 0 1 0 2 0 1 -1 1 0 1 0 2 0 1 -1 1 0 1 -1 1 0 1 0 1 -1 2 0 1 -1 1 -1 1 0 1 -1 1 -1 1 0 1 -1 1 -1 1 -1 1 0 1 -1 1 -1 0 -1 1 -1 1 -1 1 -1z"/>
   </g>
   <g>
    <path class="fil4" d="M465 771l0 0 17 0 0 0 -8 8 -9 -8zm17 0l0 8 -8 0 8 -8zm-44 -7l36 0 0 15 -36 0 0 -15z"/>
   </g>
   <g>
    <path class="fil1" d="M418 776l-16 -33 26 -10 16 32 0 10 -26 1zm26 -1l-13 27 -13 -26 26 -1zm15 -30l-15 30 -26 -10 15 -30 26 10z"/>
   </g>
   <g>
    <polygon class="fil1" points="498,674 480,706 455,695 473,663 "/>
   </g>
   <g>
    <path class="fil4" d="M424 774l-60 -110 15 -6 59 109 0 7 -14 0zm14 0l-7 13 -7 -13 14 0zm61 -113l-61 113 -14 -7 60 -112 15 6z"/>
   </g>
   <g>
    <polygon class="fil1" points="447,710 471,710 471,720 447,720 "/>
   </g>
   <g>
    <polygon class="fil1" points="466,719 466,729 464,729 462,729 460,729 459,729 457,728 456,728 454,728 453,727 452,727 451,726 450,726 449,725 448,725 447,724 446,723 445,723 445,722 444,721 444,721 443,720 443,719 443,719 442,718 442,718 442,717 442,717 442,716 442,716 442,715 442,715 442,715 442,715 453,714 453,714 453,714 453,714 453,714 453,714 453,714 453,714 453,714 453,715 453,715 453,715 453,715 453,715 453,715 454,716 454,716 454,716 454,716 455,717 455,717 455,717 456,717 456,718 457,718 458,718 459,718 460,718 461,719 462,719 463,719 464,719 "/>
   </g>
   <g>
    <polygon class="fil1" points="476,717 471,726 461,722 466,712 "/>
   </g>
   <path class="fil0" d="M471 715l-24 0c0,0 0,9 19,9l5 -9z"/>
   <g>
    <polygon class="fil4" points="465,771 465,715 482,715 482,771 "/>
   </g>
   <g>
    <polygon class="fil1" points="395,718 367,718 367,715 367,712 367,708 368,705 369,702 369,699 370,696 372,693 373,690 374,687 376,685 378,682 379,679 381,677 383,674 386,672 388,670 390,668 393,666 395,664 398,662 401,661 404,659 407,658 410,656 413,655 416,654 420,654 423,653 426,653 430,652 433,652 433,677 431,677 429,678 428,678 426,678 424,679 422,679 421,680 419,680 417,681 415,682 414,683 412,684 411,685 409,686 408,687 407,689 405,690 404,692 403,693 402,695 401,696 400,698 399,700 398,702 397,704 396,706 396,708 395,710 395,712 395,714 395,716 "/>
   </g>
   <g>
    <polygon class="fil4" points="389,718 372,718 373,715 373,712 373,709 374,706 374,703 375,700 376,698 377,695 378,692 380,690 381,687 383,685 384,682 386,680 388,678 390,676 392,674 394,672 397,670 399,668 401,667 404,665 407,664 409,662 412,661 415,660 418,660 421,659 424,658 427,658 430,658 433,658 433,672 431,672 429,672 427,673 425,673 422,674 420,674 418,675 416,676 414,677 412,677 411,679 409,680 407,681 405,682 404,684 402,685 401,687 399,689 398,690 397,692 395,694 394,696 393,698 392,700 392,702 391,704 390,706 390,709 389,711 389,713 389,716 "/>
   </g>
   <path class="fil0" d="M494 665c11,0 16,-12 16,-12l-36 0c0,0 4,12 12,12l8 0z"/>
   <path class="fil0" d="M367 665c-11,0 -16,-12 -16,-12l37 0c0,0 -4,12 -12,12l-9 0z"/>
   <path class="fil2" d="M302 547c0,0 -9,39 113,39 0,0 50,3 74,-21l47 -45c0,0 -24,-44 -51,-44 0,0 -68,-2 -183,71z"/>
   <g>
    <path class="fil1" d="M415 584l-1 5 1 0 -12 0 -10 -1 -10 0 -9 -1 -8 -1 -7 -1 -8 -1 -6 -1 -6 -2 -5 -1 -5 -2 -5 -2 -4 -2 -3 -2 -3 -2 -3 -2 -2 -1 -2 -2 -2 -2 -2 -2 -1 -2 -1 -2 0 -2 -1 -1 0 -2 0 -1 -1 -1 0 -1 0 -1 1 -1 0 0 0 -1 5 1 0 0 0 1 0 0 0 1 0 0 0 1 0 1 1 1 0 2 0 1 1 2 1 1 1 2 2 1 2 2 2 2 2 1 3 2 3 2 4 2 4 1 5 2 5 1 5 2 7 1 6 1 8 1 8 1 9 1 9 0 11 1 11 0 0 0zm0 0l0 0 0 0 0 0zm72 -21l4 3 0 0 -3 3 -2 2 -3 2 -3 2 -3 1 -3 2 -3 1 -3 2 -3 1 -3 1 -3 1 -4 1 -3 0 -3 1 -3 1 -3 0 -3 1 -3 0 -2 0 -3 0 -3 1 -2 0 -2 0 -2 0 -2 0 -2 0 -1 0 -1 0 -1 0 -1 0 -1 0 0 0 1 -5 0 0 0 0 1 0 1 0 1 0 1 0 2 0 2 0 2 0 2 0 2 0 2 -1 3 0 3 0 2 0 3 -1 3 0 3 -1 3 0 3 -1 3 -1 3 -1 3 -1 3 -1 3 -1 3 -1 2 -2 3 -2 3 -1 2 -2 2 -2 3 -2 0 0zm0 0l0 0 -1 0 1 0zm51 -42l-47 45 -4 -3 46 -45 5 0 0 3zm0 -3l1 2 -1 1 0 -3zm-53 -39l0 -5 0 0 3 0 3 0 2 1 3 1 3 1 2 1 3 1 2 2 3 2 2 1 2 2 2 2 2 2 2 2 2 2 2 2 1 2 2 2 2 3 1 1 1 2 2 2 1 2 1 2 1 1 1 1 0 2 1 0 0 1 1 1 0 0 0 0 -5 3 0 0 0 -1 -1 0 0 -1 -1 -1 0 -1 -1 -2 -1 -1 -1 -2 -1 -1 -1 -2 -2 -2 -1 -2 -1 -2 -2 -2 -2 -2 -1 -2 -2 -2 -2 -1 -2 -2 -2 -2 -2 -2 -2 -1 -2 -2 -2 -1 -3 -2 -2 -1 -2 -1 -2 0 -2 -1 -3 0 -2 0 0 0zm0 0l0 0 0 0 0 0zm-180 68l-5 -1 1 -1 10 -7 11 -6 10 -6 10 -5 9 -5 9 -5 9 -4 9 -4 8 -4 8 -3 8 -3 7 -3 7 -2 7 -2 7 -2 6 -2 6 -2 5 -1 5 -1 5 -1 4 -1 4 0 4 -1 3 0 3 -1 3 0 2 0 2 0 1 0 1 0 1 0 0 0 0 5 0 0 -1 0 -1 0 -1 0 -2 0 -2 0 -2 0 -3 1 -3 0 -4 0 -4 1 -4 1 -5 1 -5 1 -5 1 -6 2 -6 1 -6 2 -7 2 -7 3 -7 3 -7 3 -8 3 -9 3 -8 4 -9 5 -9 4 -10 5 -9 5 -10 6 -10 6 -11 7 1 -2zm-5 -1l0 -1 1 0 -1 1z"/>
   </g>
   <path class="fil5" d="M447 584c0,0 12,-63 24,-80 0,0 -20,-25 12,-27 0,0 14,-2 18,12 0,0 1,14 -13,19 0,0 -13,10 -23,72 0,0 -10,3 -18,4z"/>
   <g>
    <path class="fil1" d="M469 506l4 -3 0 3 -1 1 -1 2 -1 2 -1 2 -1 3 -1 3 -1 3 -1 3 -1 3 -1 3 -1 3 -1 3 -1 4 -1 3 -1 4 -1 3 -1 3 0 4 -1 3 -1 3 0 3 -1 3 -1 2 0 3 -1 2 0 2 0 2 -1 1 0 1 0 1 0 1 0 0 -6 -1 0 0 1 -1 0 -1 0 -1 0 -1 1 -2 0 -2 0 -2 1 -3 0 -2 1 -3 1 -3 0 -3 1 -3 1 -4 1 -3 1 -3 0 -4 1 -3 1 -4 1 -3 1 -3 1 -4 1 -3 1 -3 1 -3 2 -3 1 -2 1 -3 1 -2 1 -2 2 -2 0 3zm4 -3l1 1 -1 2 0 -3zm10 -29l1 5 -1 0 -2 1 -3 0 -2 0 -2 1 -1 1 -1 0 -1 1 -1 1 -1 1 0 0 -1 1 0 1 0 1 0 1 0 1 0 1 0 1 0 1 1 1 0 1 0 1 1 1 0 1 1 1 0 1 1 1 0 0 0 1 1 0 0 1 0 0 0 0 -4 3 0 0 -1 -1 0 0 0 0 -1 -1 0 -1 -1 -1 0 -1 -1 0 0 -2 -1 -1 0 -1 -1 -1 0 -1 -1 -2 0 -1 0 -2 0 -1 0 -2 0 -1 1 -1 1 -2 1 -1 1 -2 1 -1 2 -1 1 -1 2 -1 3 0 2 -1 3 0 3 -1 0 0zm1 5l-1 0 1 0 0 0zm20 10l-6 0 0 1 0 -1 -1 -1 0 -1 -1 -1 0 -1 -1 -1 0 0 -1 -1 0 0 -1 -1 0 0 -1 -1 -1 0 0 0 -1 -1 0 0 -1 0 -1 0 0 0 -1 0 0 -1 -1 0 0 0 -1 0 0 0 -1 0 0 0 0 0 0 0 0 0 -1 0 1 0 -1 -5 0 0 0 0 0 0 1 0 0 0 0 0 1 0 1 0 0 0 1 0 1 1 0 0 1 0 1 0 1 0 0 0 1 1 1 0 1 1 1 0 1 1 1 0 1 1 0 1 1 0 1 1 1 1 0 1 1 2 1 1 0 1 0 1 1 1zm-1 -1l1 1 0 0 -1 -1zm-13 22l-3 -4 0 0 1 -1 1 0 1 -1 1 0 1 -1 1 -1 0 0 1 -1 1 0 0 -1 0 -1 1 0 0 -1 1 -1 0 -1 0 0 0 -1 0 -1 1 0 0 -1 0 0 0 -1 0 0 0 -1 0 0 0 -1 0 0 0 0 0 -1 0 0 0 0 0 0 6 0 0 0 0 0 0 0 0 1 0 0 0 0 0 1 0 0 0 1 -1 1 0 0 0 1 0 1 0 1 0 0 -1 1 0 1 0 1 -1 1 0 1 -1 1 0 1 -1 0 -1 1 0 1 -1 1 -1 1 -1 1 -2 0 -1 1 -1 1 -1 0 0 0zm-3 -4l0 0 0 0 0 0zm-21 76l-2 -5 -2 2 1 -5 1 -6 1 -5 1 -5 1 -4 1 -4 1 -4 1 -4 1 -4 1 -3 1 -3 1 -3 1 -3 1 -2 1 -2 1 -2 1 -2 1 -2 0 -1 1 -2 1 -1 1 -1 0 -1 1 -1 0 -1 1 0 0 -1 1 0 0 -1 0 0 1 0 0 0 3 4 0 0 0 0 0 0 0 0 0 0 -1 1 0 0 0 1 -1 1 -1 0 0 1 -1 1 -1 2 0 1 -1 2 -1 2 -1 2 -1 2 -1 2 -1 3 -1 2 -1 3 -1 4 -1 3 -1 4 -1 4 -1 4 -1 4 -1 5 -1 5 -1 5 -1 6 -1 2zm1 -2l0 1 -1 1 1 -2zm-23 4l6 1 -3 -3 0 0 1 0 1 -1 1 0 0 0 1 0 1 0 0 0 1 0 1 -1 1 0 0 0 1 0 1 0 0 -1 1 0 1 0 0 0 1 0 0 -1 1 0 0 0 1 0 0 0 0 0 1 0 0 0 0 -1 0 0 1 0 0 0 0 0 2 5 0 0 0 0 -1 0 0 0 0 0 0 0 -1 0 0 1 0 0 -1 0 0 0 -1 0 0 0 -1 1 -1 0 0 0 -1 0 -1 0 0 1 -1 0 -1 0 0 0 -1 0 -1 1 -1 0 -1 0 0 0 -1 0 -1 0 -1 1 -1 0 0 0 -4 -3zm4 3l-4 0 0 -3 4 3z"/>
   </g>
   <path class="fil5" d="M371 516c0,0 43,-20 70,-27 0,0 13,-4 17,0 0,0 8,9 -9,15 0,0 -40,5 -127,50 0,0 -8,4 -11,0 0,0 -1,-4 6,-9 0,0 33,-21 54,-29z"/>
   <path class="fil5" d="M420 517c0,0 20,-6 27,-7 0,0 9,1 9,7 0,0 2,9 -13,12 0,0 -36,6 -99,36 0,0 -12,8 -19,2 0,0 -3,-5 6,-11 0,0 52,-27 89,-39z"/>
   <path class="fil5" d="M408 544c0,0 26,-8 37,-8 0,0 7,0 6,6 0,0 2,11 -10,12 0,0 -34,4 -66,21 0,0 -9,4 -18,3 0,0 -5,-1 -9,-2 0,0 -9,-2 13,-12 0,0 31,-15 47,-20z"/>
   <path class="fil5" d="M409 582c0,0 -20,0 -28,-1 0,0 -5,-1 4,-6 0,0 24,-9 46,-13 0,0 14,-4 14,5 0,0 2,13 -16,14l-20 1z"/>
   <path class="fil5" d="M517 503c0,0 14,14 7,21 0,0 -7,8 -17,-2 0,0 -12,-9 -7,-17 0,0 7,-16 17,-2z"/>
   <path class="fil5" d="M496 519c0,0 9,8 11,13 0,0 5,8 -5,11 0,0 -13,-4 -19,-15 0,0 0,-14 13,-9z"/>
   <path class="fil5" d="M485 540c0,0 14,8 6,15 0,0 -6,6 -10,0 0,0 -7,-3 -4,-11 0,0 2,-8 8,-4z"/>
   <path class="fil5" d="M474 558c0,0 11,5 4,10 0,0 -9,9 -8,0 0,0 -1,-9 4,-10z"/>
   <path class="fil0" d="M382 617c0,0 42,1 50,-6 0,0 -29,33 -50,6z"/>
   <path class="fil0" d="M492 588c0,0 31,6 52,4 0,0 -36,23 -52,-4z"/>
   <path class="fil0" d="M584 592c0,0 19,0 33,-5 0,0 -13,20 -33,5z"/>
   <path class="fil0" d="M548 622c0,0 19,-1 27,0 0,0 -12,-14 -27,0z"/>
   <path class="fil0" d="M460 593c0,0 -14,4 -22,3 0,0 7,11 22,-3z"/>
   <path class="fil0" d="M455 614c0,0 15,3 36,2 0,0 -10,17 -36,-2z"/>
   <path class="fil0" d="M350 597c0,0 27,1 42,-2 0,0 -15,21 -42,2z"/>
   <path class="fil2" d="M270 595c0,0 22,0 32,0 10,0 19,1 24,5 0,0 -5,-8 -19,-12 0,0 -15,-5 -30,-2 0,0 -14,2 -31,-8 0,0 11,17 24,17z"/>
   <path class="fil2" d="M281 609c0,0 -11,-2 -26,0 -9,2 -29,0 -34,-4 0,0 1,11 18,13 0,0 13,0 30,0 0,0 16,-2 33,6 0,0 -15,-13 -21,-15z"/>
  </g>
 </g>
</svg>
