<?xml version="1.0" encoding="UTF-8"?>
<!DOCTYPE svg PUBLIC "-//W3C//DTD SVG 1.1//EN" "http://www.w3.org/Graphics/SVG/1.1/DTD/svg11.dtd">
<!-- Creator: CorelDRAW X8 -->
<svg xmlns="http://www.w3.org/2000/svg" xml:space="preserve" width="100%" height="100%" version="1.1" style="shape-rendering:geometricPrecision; text-rendering:geometricPrecision; image-rendering:optimizeQuality; fill-rule:evenodd; clip-rule:evenodd"
viewBox="0 0 847 847"
 xmlns:xlink="http://www.w3.org/1999/xlink">
 <defs>
  <style type="text/css">
   <![CDATA[
    .fil0 {fill:black}
    .fil2 {fill:#D93F16}
    .fil1 {fill:white}
   ]]>
  </style>
 </defs>
 <g id="Camada_x0020_1">
  <metadata id="CorelCorpID_0Corel-Layer"/>
  <g id="_1659848272">
   <path class="fil0" d="M386 41c-82,88 -176,141 -280,155l-42 6 -2 42c-3,68 3,139 25,208l0 1c51,165 165,304 313,381l24 13 24 -13c149,-77 263,-216 314,-381l0 -1 0 -1c20,-67 25,-139 23,-207l-2 -42 -42 -6c-104,-14 -195,-65 -280,-156l-38 -40 -37 41z"/>
   <path class="fil1" d="M400 54c-84,92 -183,146 -291,162l-26 4 -2 25c-4,66 4,135 24,201l1 1c49,160 160,295 303,369l15 8 15 -8c144,-74 254,-209 304,-369l0 -1 0 0c19,-65 27,-135 23,-201l-2 -25 -26 -4c-108,-15 -204,-68 -291,-162l-24 -25 -23 25z"/>
   <path class="fil0" d="M712 437l-576 0 0 1c47,152 152,280 288,350l0 1 1 -1c136,-70 241,-198 287,-350l1 -1 -1 0z"/>
   <path class="fil2" d="M713 438c18,-64 25,-130 21,-191 -115,-16 -218,-72 -310,-171 -91,99 -196,155 -311,171 -4,61 3,127 23,191l0 0 577 0z"/>
   <path class="fil1" d="M199 269l66 -34c-1,20 2,45 11,65l0 0 64 139 0 78 -96 -200c-9,-19 -29,-33 -45,-48l0 0z"/>
   <path class="fil1" d="M655 275l-66 -34c1,20 -3,45 -11,65l0 0 -103 232 40 -6 95 -209c8,-19 29,-33 45,-48l0 0z"/>
   <path class="fil1" d="M334 662l60 0 0 -204 61 0c13,0 21,17 30,25l0 0 1 -84c-10,8 -17,23 -30,23l0 0 -62 0 0 -84 -40 12 0 279c0,13 -13,22 -20,33l0 0z"/>
   <path class="fil1" d="M355 288l0 -57c0,-13 -12,-22 -20,-32l0 0 184 0 0 56c-15,-9 -27,-26 -43,-26l0 0 -82 0 0 51 -39 8z"/>
   <path class="fil1" d="M480 663l61 0 0 -56c-3,2 -4,25 -49,25l0 0 -12 31z"/>
   <polygon class="fil1" points="407,610 407,666 436,723 493,596 458,596 432,662 "/>
   <path class="fil1" d="M340 532c-47,-21 -91,-55 -121,-94 9,-20 28,-40 44,-49l0 0 -19 -34c-23,17 -48,36 -59,61 -4,10 -12,17 -20,22 8,4 13,3 21,14 38,54 95,96 154,118 0,-15 0,-23 0,-38l0 0z"/>
   <path class="fil1" d="M298 319l17 34c79,-35 156,-36 228,-10l0 0 13 -30c-77,-33 -171,-30 -258,6l0 0z"/>
   <path class="fil1" d="M614 343l-13 30 24 12c7,2 9,12 14,18l0 0 21 -48c-8,0 -16,4 -23,0l0 0 -23 -12z"/>
   <path class="fil1" d="M406 545l0 33c87,18 168,-7 244,-52l0 0 -22 -33c-54,45 -145,67 -222,52l0 0z"/>
  </g>
 </g>
</svg>
