<?xml version="1.0" encoding="UTF-8"?>
<!DOCTYPE svg PUBLIC "-//W3C//DTD SVG 1.1//EN" "http://www.w3.org/Graphics/SVG/1.1/DTD/svg11.dtd">
<!-- Creator: CorelDRAW X8 -->
<svg xmlns="http://www.w3.org/2000/svg" xml:space="preserve" width="512px" height="512px" version="1.1" style="shape-rendering:geometricPrecision; text-rendering:geometricPrecision; image-rendering:optimizeQuality; fill-rule:evenodd; clip-rule:evenodd"
viewBox="0 0 512 512"
 xmlns:xlink="http://www.w3.org/1999/xlink">
 <defs>
  <style type="text/css">
   <![CDATA[
    .fil0 {fill:black}
    .fil1 {fill:white}
   ]]>
  </style>
 </defs>
 <g id="Camada_x0020_1">
  <metadata id="CorelCorpID_0Corel-Layer"/>
  <g id="_1004734352">
   <path class="fil0" d="M2 418l5 9c1,0 1,0 2,1 1,1 1,1 2,2 8,6 14,10 24,12 31,7 72,-2 101,-17 35,-19 107,-64 144,-88 60,-36 120,-75 179,-111 21,-13 57,-26 53,-49 -3,-14 -15,-28 -17,-37l-22 -38c-4,-3 -20,-32 -49,-56 -10,-8 -52,-33 -56,-16 -4,17 13,35 -11,61 -14,16 -52,37 -65,28 -1,-6 3,-12 6,-17 3,-6 6,-11 9,-16 14,-28 17,-38 -4,-46 -32,-13 -38,-23 -47,-4 -10,24 -19,43 -28,66 -3,6 -5,11 -8,17 -4,9 -1,7 -11,15 -6,4 -11,9 -14,15 -4,7 -4,8 -3,17 -27,15 -20,28 -22,32 0,1 -28,27 -30,30 -21,20 -39,40 -54,61 -7,11 -14,21 -23,32 -13,15 -46,48 -54,61 -14,21 -8,25 -7,36z"/>
   <path class="fil1" d="M393 225c-1,-6 -7,-5 -11,-6l-88 -18c-9,-2 -16,-3 -25,-5 -4,-1 -8,-2 -13,-3 -46,-7 -31,-16 -60,14 -11,11 0,9 25,15 3,1 4,1 7,2l57 12c16,3 47,11 62,13 5,1 9,-2 15,-5 7,-5 27,-14 31,-19z"/>
   <path class="fil1" d="M170 239c-6,6 -12,11 -18,17 -9,9 -5,9 8,12 26,6 74,15 96,21 4,1 18,5 21,4 3,-1 38,-21 39,-23 3,-6 -10,-7 -18,-8l-117 -26c-5,-1 -7,-2 -11,3z"/>
   <path class="fil0" d="M452 246l21 27c2,2 2,2 4,2 4,0 28,-14 31,-17 2,-5 -3,-13 -5,-19 -2,-6 -4,-13 -6,-20 -9,5 -41,22 -45,27z"/>
   <path class="fil0" d="M152 470c0,-4 -8,-29 -11,-34 -8,4 -17,8 -25,11 -5,2 -22,6 -24,7 2,6 19,24 24,30 6,7 9,3 17,-2 5,-3 15,-8 19,-12z"/>
   <path class="fil0" d="M378 293c27,34 22,29 39,19 11,-7 17,-8 16,-14l-11 -33 -44 28z"/>
   <path class="fil0" d="M163 424c0,4 8,11 11,15 13,15 7,15 39,-3 6,-4 4,-4 0,-18 -2,-6 -5,-14 -8,-20l-42 26z"/>
  </g>
 </g>
</svg>
