<?xml version="1.0" encoding="UTF-8"?>
<!DOCTYPE svg PUBLIC "-//W3C//DTD SVG 1.1//EN" "http://www.w3.org/Graphics/SVG/1.1/DTD/svg11.dtd">
<!-- Creator: CorelDRAW X7 -->
<svg xmlns="http://www.w3.org/2000/svg" xml:space="preserve" width="121.666mm" height="38.07mm" version="1.1" style="shape-rendering:geometricPrecision; text-rendering:geometricPrecision; image-rendering:optimizeQuality; fill-rule:evenodd; clip-rule:evenodd"
viewBox="0 0 12167 3807"
 xmlns:xlink="http://www.w3.org/1999/xlink">
 <defs>
  <style type="text/css">
   <![CDATA[
    .fil0 {fill:#CCCCCC;fill-rule:nonzero}
    .fil1 {fill:#E3672A;fill-rule:nonzero}
   ]]>
  </style>
 </defs>
 <g id="Layer_x0020_1">
  <metadata id="CorelCorpID_0Corel-Layer"/>
  <g id="_769141160">
   <g>
    <path class="fil0" d="M9452 2642c-18,-8 -35,-13 -52,-16 -17,-4 -39,-5 -66,-5l-219 0c-22,0 -38,3 -49,10 -11,7 -19,21 -24,41l-108 433c-2,8 -3,15 -3,20 0,21 16,32 50,32l173 0c59,0 99,-2 119,-6 21,-4 45,-12 72,-24l-66 163 -494 0c-53,0 -93,-11 -119,-32 -27,-21 -40,-56 -40,-105 0,-27 5,-60 15,-99l83 -331c21,-84 53,-144 95,-181 43,-36 98,-54 167,-54l481 0 -15 154z"/>
    <path id="1" class="fil0" d="M9556 2623c8,-34 12,-61 12,-80 0,-9 -1,-17 -2,-23 -2,-7 -5,-17 -9,-32l328 0 -166 666c-9,34 -13,61 -13,80 0,10 1,17 3,24 1,6 4,17 8,32l-360 0c17,-21 30,-40 39,-56 9,-15 18,-42 27,-80l133 -531z"/>
    <path id="2" class="fil0" d="M10335 3290l6 -62c-15,19 -29,34 -44,45 -14,11 -30,17 -50,17l-239 0c-53,0 -91,-12 -116,-34 -26,-23 -38,-56 -38,-99 0,-24 4,-52 11,-82l59 -239c8,-34 13,-61 13,-80 0,-9 -1,-17 -3,-23 -2,-7 -4,-17 -9,-32l329 0 -106 424c-2,10 -3,17 -3,23 0,18 13,26 40,26l107 0c19,0 32,-3 41,-10 9,-6 16,-19 21,-39l71 -289c9,-34 13,-61 13,-80 0,-9 -1,-17 -3,-23 -1,-7 -4,-17 -8,-32l328 0 -113 453c-8,34 -13,61 -13,80 0,10 1,17 3,24 2,6 5,17 9,32l-306 0z"/>
    <path id="3" class="fil0" d="M11048 3129c-3,8 -4,14 -4,20 0,17 11,25 34,25l118 0c26,0 44,-15 52,-45l67 -268c2,-7 4,-14 4,-20 0,-17 -12,-25 -34,-25l-118 0c-27,0 -44,15 -53,45l-66 268zm-361 161c11,-13 21,-28 30,-45 8,-17 16,-39 23,-66l145 -581c7,-26 10,-48 10,-66 0,-8 -1,-16 -2,-24 -2,-8 -4,-14 -5,-20l320 0 -67 280c10,-19 23,-35 36,-48 13,-13 32,-19 56,-19l232 0c51,0 89,10 113,31 24,21 36,51 36,89 0,8 0,17 -2,27 -1,10 -3,21 -7,36l-56 223c-14,56 -40,101 -77,134 -37,32 -88,49 -153,49l-250 0c-15,0 -26,-5 -33,-14 -7,-9 -14,-26 -19,-49l-34 63 -296 0z"/>
    <path class="fil0" d="M2024 951c-42,-18 -83,-31 -123,-39 -41,-8 -93,-12 -156,-12l-520 0c-52,0 -90,9 -116,25 -26,17 -45,49 -57,97l-255 1028c-6,18 -9,33 -9,47 0,50 40,75 119,75l7316 0c140,0 235,-5 283,-14 49,-9 106,-28 171,-58l-157 387 -8077 0c-126,0 -221,-25 -283,-75 -63,-49 -94,-132 -94,-249 0,-64 12,-142 36,-235l196 -784c49,-200 125,-343 226,-430 101,-86 232,-129 395,-129l1141 0 -36 366z"/>
    <path class="fil0" d="M2618 1055c88,0 153,15 195,46 42,31 62,82 62,154 0,44 -8,98 -24,162l-104 418c-10,40 -15,74 -15,102 0,28 6,53 17,78l-482 0 2 -106c-26,43 -53,72 -82,85 -29,14 -77,21 -145,21l-343 0c-80,0 -138,-13 -173,-39 -34,-26 -52,-67 -52,-123 0,-37 7,-80 19,-129l18 -70c26,-105 64,-180 115,-224 50,-44 128,-67 234,-67l439 0c34,0 58,-4 70,-11 12,-9 21,-21 25,-39 5,-17 7,-28 7,-32 0,-25 -23,-38 -71,-38l-480 0c-72,0 -139,12 -202,35l92 -223 878 0zm-498 496c-38,0 -66,5 -83,16 -17,10 -30,32 -40,66l-26 110c-4,15 -7,28 -7,37 0,18 7,30 19,36 12,6 35,9 69,9l113 0c46,0 77,-7 92,-21 14,-15 29,-53 44,-116l33 -137 -214 0z"/>
    <path id="1" class="fil0" d="M3572 1055l-23 161c41,-62 81,-104 121,-127 39,-23 96,-34 169,-34l235 0 -78 315c-30,-21 -55,-34 -76,-39 -21,-6 -66,-8 -134,-8 -93,0 -156,11 -191,32 -35,22 -60,66 -76,131l-78 308c-14,56 -20,100 -20,131 0,15 1,28 4,38 2,10 7,27 14,52l-588 0c28,-34 50,-64 64,-90 14,-26 29,-69 44,-131l129 -518c13,-56 20,-100 20,-131 0,-15 -1,-28 -4,-38 -3,-10 -8,-27 -14,-52l482 0z"/>
    <path id="2" class="fil0" d="M4335 859l486 -12 -53 208 384 0 -47 188 -384 0 -126 506c-4,17 -6,30 -6,39 0,15 5,25 17,31 12,5 34,8 66,8l170 0c41,0 75,-4 103,-11 28,-8 54,-16 79,-26l-86 225 -605 0c-69,0 -124,-14 -165,-41 -41,-27 -61,-75 -61,-143 0,-24 0,-43 2,-55 1,-12 6,-33 14,-61l116 -472 -206 0 47 -188 206 0 49 -196z"/>
    <path id="3" class="fil0" d="M5601 1749c-4,15 -6,28 -6,37 0,27 19,41 58,41l200 0c50,0 81,-26 92,-78l108 -428c4,-15 6,-28 6,-37 0,-27 -21,-41 -61,-41l-201 0c-47,0 -76,26 -87,78l-109 428zm832 -24c-26,105 -64,179 -115,224 -50,44 -128,66 -235,66l-751 0c-80,0 -138,-13 -173,-39 -34,-26 -52,-67 -52,-122 0,-37 6,-80 19,-129l96 -380c25,-105 64,-179 114,-224 50,-44 129,-66 235,-66l751 0c81,0 138,13 173,39 35,26 52,67 52,122 0,37 -6,80 -18,129l-96 380z"/>
    <path id="4" class="fil0" d="M6816 928c14,-55 21,-99 21,-130 0,-15 -1,-28 -4,-38 -3,-10 -8,-28 -14,-52l535 0 -272 1086c-14,56 -20,100 -20,131 0,15 1,28 4,38 2,10 7,27 14,52l-588 0c28,-34 50,-64 64,-90 14,-26 29,-69 44,-131l216 -866z"/>
    <path id="5" class="fil0" d="M8407 1055c89,0 154,15 195,46 42,31 63,82 63,154 0,44 -9,98 -25,162l-104 418c-10,40 -14,74 -14,102 0,28 5,53 16,78l-482 0 2 -106c-26,43 -53,72 -82,85 -28,14 -77,21 -145,21l-343 0c-80,0 -138,-13 -172,-39 -35,-26 -52,-67 -52,-123 0,-37 6,-80 18,-129l18 -70c26,-105 64,-180 115,-224 50,-44 128,-67 235,-67l439 0c34,0 57,-4 69,-11 12,-9 21,-21 26,-39 4,-17 7,-28 7,-32 0,-25 -24,-38 -72,-38l-480 0c-72,0 -139,12 -202,35l92 -223 878 0zm-498 496c-38,0 -66,5 -83,16 -17,10 -30,32 -40,66l-26 110c-4,15 -6,28 -6,37 0,18 6,30 18,36 12,6 36,9 70,9l112 0c46,0 77,-7 92,-21 15,-15 30,-53 45,-116l32 -137 -214 0z"/>
    <path class="fil0" d="M9501 2073c-21,80 -31,146 -31,195 0,28 4,57 13,88l-732 0c24,-34 46,-73 66,-115 20,-42 38,-98 55,-168l271 -1082c10,-39 18,-78 23,-114 5,-37 8,-65 8,-84 0,-16 -2,-31 -4,-48 -3,-16 -5,-29 -7,-37l1427 0 -31 317c-34,-12 -73,-23 -116,-31 -43,-9 -95,-13 -157,-13l-512 0 -96 386 448 0c67,0 118,-1 154,-4 35,-2 81,-7 140,-14l-90 355c-36,-17 -76,-32 -119,-45 -43,-13 -94,-19 -154,-19l-448 0 -108 433z"/>
    <path id="1" class="fil0" d="M12137 1025c-36,-16 -71,-27 -107,-34 -35,-7 -80,-10 -135,-10l-450 0c-45,0 -78,7 -101,22 -22,14 -38,42 -49,83l-221 891c-5,16 -8,30 -8,42 0,42 34,64 103,64l355 0c122,0 204,-4 246,-12 42,-7 92,-24 148,-50l-136 335 -1015 0c-109,0 -191,-22 -245,-65 -55,-42 -82,-115 -82,-216 0,-55 11,-123 31,-203l170 -680c43,-173 108,-297 196,-372 88,-75 202,-112 342,-112l989 0 -31 317z"/>
   </g>
   <g>
    <path class="fil1" d="M9384 2574c-18,-7 -35,-13 -52,-16 -17,-4 -39,-5 -66,-5l-219 0c-22,0 -38,3 -49,10 -11,8 -19,21 -24,41l-107 434c-3,7 -4,14 -4,20 0,21 17,31 50,31l173 0c59,0 99,-2 120,-6 20,-3 44,-12 72,-24l-67 163 -493 0c-54,0 -94,-11 -120,-32 -26,-20 -40,-55 -40,-105 0,-27 5,-59 15,-99l83 -330c21,-85 53,-145 95,-182 43,-36 98,-54 167,-54l481 0 -15 154z"/>
    <path id="1" class="fil1" d="M9488 2555c8,-34 13,-61 13,-80 0,-9 -1,-17 -3,-23 -2,-6 -5,-17 -9,-32l329 0 -167 666c-8,35 -13,61 -13,81 0,9 1,17 3,23 2,6 4,17 9,32l-361 0c17,-21 31,-39 39,-55 9,-16 18,-43 27,-81l133 -531z"/>
    <path id="2" class="fil1" d="M10267 3222l7 -62c-15,20 -30,35 -44,45 -14,11 -31,17 -50,17l-240 0c-52,0 -91,-11 -116,-34 -25,-23 -38,-56 -38,-99 0,-24 4,-51 11,-81l59 -240c9,-34 13,-61 13,-80 0,-9 -1,-17 -3,-23 -1,-6 -4,-17 -8,-32l328 0 -105 425c-3,9 -4,16 -4,22 0,18 13,27 40,27l108 0c18,0 32,-4 40,-10 9,-7 16,-20 21,-39l71 -290c9,-34 13,-61 13,-80 0,-9 -1,-17 -2,-23 -2,-6 -5,-17 -9,-32l328 0 -113 453c-8,35 -12,61 -12,81 0,9 1,17 2,23 2,6 5,17 9,32l-306 0z"/>
    <path id="3" class="fil1" d="M10980 3061c-2,8 -4,15 -4,20 0,17 12,26 34,26l118 0c27,0 44,-16 53,-46l66 -268c3,-7 4,-14 4,-20 0,-16 -12,-25 -34,-25l-118 0c-27,0 -44,15 -52,45l-67 268zm-361 161c11,-13 21,-28 30,-45 9,-17 16,-39 23,-65l145 -582c7,-26 10,-48 10,-66 0,-8 -1,-15 -2,-23 -2,-8 -4,-15 -5,-21l321 0 -68 281c11,-20 23,-36 36,-49 14,-13 32,-19 57,-19l231 0c51,0 89,10 113,31 24,21 36,51 36,89 0,9 0,18 -1,27 -2,10 -4,22 -7,36l-57 223c-14,57 -40,101 -77,134 -37,32 -88,49 -153,49l-250 0c-15,0 -26,-5 -33,-14 -7,-9 -13,-25 -19,-49l-34 63 -296 0z"/>
    <path class="fil1" d="M1956 883c-41,-18 -83,-31 -123,-39 -41,-8 -93,-12 -156,-12l-520 0c-52,0 -90,9 -116,26 -26,16 -44,49 -56,96l-256 1028c-6,18 -9,34 -9,48 0,49 40,74 119,74l7316 0c140,0 235,-5 283,-14 49,-8 106,-28 171,-57l-157 386 -8076 0c-127,0 -222,-25 -284,-75 -62,-49 -94,-132 -94,-249 0,-63 12,-142 36,-235l196 -784c50,-200 125,-343 226,-429 101,-86 233,-130 395,-130l1141 0 -36 366z"/>
    <path class="fil1" d="M2550 987c89,0 154,16 195,46 42,31 63,82 63,154 0,44 -9,98 -25,162l-104 418c-10,40 -14,74 -14,103 0,27 5,53 16,77l-482 0 2 -106c-26,43 -53,72 -82,86 -28,13 -77,20 -145,20l-343 0c-80,0 -138,-13 -172,-39 -35,-26 -52,-67 -52,-123 0,-37 6,-80 18,-129l18 -69c26,-105 64,-180 115,-225 50,-44 128,-66 235,-66l439 0c34,0 57,-4 69,-12 12,-8 21,-21 26,-38 4,-18 7,-29 7,-33 0,-25 -24,-38 -72,-38l-480 0c-72,0 -139,12 -202,35l92 -223 878 0zm-498 497c-38,0 -66,5 -83,15 -17,10 -30,32 -40,66l-26 111c-4,14 -6,27 -6,36 0,18 6,30 18,36 12,6 36,9 70,9l112 0c46,0 77,-7 92,-21 15,-15 30,-53 45,-116l32 -136 -214 0z"/>
    <path id="1" class="fil1" d="M3504 987l-23 162c41,-63 81,-105 121,-128 39,-22 96,-34 169,-34l235 0 -77 315c-30,-21 -56,-34 -77,-39 -21,-5 -66,-8 -134,-8 -92,0 -156,11 -191,33 -34,21 -60,65 -76,130l-78 309c-13,55 -20,99 -20,130 0,15 1,28 4,38 3,10 7,28 14,52l-588 0c29,-34 50,-64 64,-90 15,-26 29,-69 44,-130l129 -519c13,-56 20,-99 20,-131 0,-15 -1,-27 -4,-38 -3,-10 -7,-27 -14,-52l482 0z"/>
    <path id="2" class="fil1" d="M4268 791l486 -12 -53 208 383 0 -47 188 -383 0 -127 507c-4,16 -6,29 -6,38 0,15 6,26 17,31 12,6 34,8 67,8l169 0c41,0 75,-4 103,-11 28,-7 54,-16 79,-26l-86 225 -604 0c-70,0 -125,-13 -166,-41 -41,-27 -61,-75 -61,-143 0,-24 1,-43 2,-55 1,-12 6,-32 14,-61l117 -472 -207 0 47 -188 207 0 49 -196z"/>
    <path id="3" class="fil1" d="M5534 1682c-4,15 -6,27 -6,36 0,28 19,41 57,41l200 0c50,0 81,-26 92,-77l108 -429c4,-15 6,-27 6,-37 0,-27 -20,-41 -61,-41l-200 0c-48,0 -77,26 -88,78l-108 429zm831 -25c-26,105 -64,180 -115,224 -50,44 -128,66 -234,66l-752 0c-80,0 -138,-13 -172,-39 -35,-26 -52,-66 -52,-122 0,-37 6,-80 18,-129l96 -380c26,-105 64,-179 114,-223 51,-45 129,-67 235,-67l752 0c80,0 137,13 172,39 35,26 52,67 52,123 0,36 -6,79 -18,128l-96 380z"/>
    <path id="4" class="fil1" d="M6749 861c13,-56 20,-100 20,-131 0,-15 -1,-28 -4,-38 -3,-10 -7,-27 -14,-52l535 0 -272 1087c-13,55 -20,99 -20,130 0,15 1,28 4,38 3,10 7,28 14,52l-588 0c29,-34 50,-64 64,-90 15,-26 29,-69 44,-130l217 -866z"/>
    <path id="5" class="fil1" d="M8340 987c88,0 153,16 195,46 41,31 62,82 62,154 0,44 -8,98 -25,162l-104 418c-9,40 -14,74 -14,103 0,27 5,53 16,77l-482 0 2 -106c-26,43 -53,72 -81,86 -29,13 -77,20 -145,20l-343 0c-81,0 -138,-13 -173,-39 -35,-26 -52,-67 -52,-123 0,-37 6,-80 18,-129l19 -69c26,-105 64,-180 114,-225 50,-44 129,-66 235,-66l439 0c34,0 57,-4 69,-12 13,-8 21,-21 26,-38 5,-18 7,-29 7,-33 0,-25 -24,-38 -71,-38l-480 0c-72,0 -140,12 -202,35l91 -223 879 0zm-499 497c-38,0 -65,5 -82,15 -17,10 -31,32 -40,66l-27 111c-4,14 -6,27 -6,36 0,18 6,30 18,36 13,6 36,9 70,9l112 0c46,0 77,-7 92,-21 15,-15 30,-53 45,-116l33 -136 -215 0z"/>
    <path class="fil1" d="M9433 2005c-21,81 -31,146 -31,196 0,27 4,56 13,87l-731 0c24,-34 45,-72 65,-115 20,-42 38,-98 56,-168l270 -1082c10,-39 18,-77 23,-114 5,-37 8,-65 8,-84 0,-15 -1,-31 -4,-48 -3,-16 -5,-28 -6,-37l1426 0 -31 317c-34,-12 -73,-22 -116,-31 -43,-9 -95,-13 -157,-13l-512 0 -95 386 448 0c66,0 118,-1 153,-4 35,-2 82,-7 140,-14l-90 356c-36,-18 -76,-33 -118,-46 -43,-12 -95,-19 -155,-19l-448 0 -108 433z"/>
    <path id="1" class="fil1" d="M12070 957c-37,-16 -72,-27 -107,-34 -36,-6 -81,-10 -136,-10l-450 0c-45,0 -78,7 -101,22 -22,15 -38,42 -48,84l-222 891c-5,15 -8,29 -8,41 0,43 35,64 103,64l356 0c122,0 204,-4 246,-11 42,-8 91,-25 148,-51l-137 335 -1014 0c-110,0 -192,-21 -246,-64 -54,-43 -81,-115 -81,-217 0,-55 10,-122 31,-203l170 -680c42,-173 108,-297 195,-372 88,-75 202,-112 343,-112l988 0 -30 317z"/>
   </g>
  </g>
 </g>
</svg>
