<?xml version="1.0" encoding="UTF-8"?>
<!DOCTYPE svg PUBLIC "-//W3C//DTD SVG 1.1//EN" "http://www.w3.org/Graphics/SVG/1.1/DTD/svg11.dtd">
<!-- Creator: CorelDRAW X7 -->
<svg xmlns="http://www.w3.org/2000/svg" xml:space="preserve" width="163.661mm" height="38.07mm" version="1.1" style="shape-rendering:geometricPrecision; text-rendering:geometricPrecision; image-rendering:optimizeQuality; fill-rule:evenodd; clip-rule:evenodd"
viewBox="0 0 16366 3807"
 xmlns:xlink="http://www.w3.org/1999/xlink">
 <defs>
  <style type="text/css">
   <![CDATA[
    .fil5 {fill:#E3672A}
    .fil4 {fill:white}
    .fil6 {fill:#FEFEFE;fill-rule:nonzero}
    .fil1 {fill:#EDEDEE;fill-rule:nonzero}
    .fil0 {fill:#CCCCCC;fill-rule:nonzero}
    .fil2 {fill:#E3672A;fill-rule:nonzero}
    .fil3 {fill:white;fill-rule:nonzero}
   ]]>
  </style>
 </defs>
 <g id="Layer_x0020_1">
  <metadata id="CorelCorpID_0Corel-Layer"/>
  <g id="_773443448">
   <path class="fil0" d="M13650 2636c-18,-7 -35,-13 -52,-16 -17,-4 -39,-5 -66,-5l-219 0c-22,0 -38,3 -49,10 -11,8 -19,21 -24,41l-108 434c-2,7 -3,14 -3,20 0,21 16,31 50,31l173 0c59,0 99,-2 119,-6 21,-3 45,-12 72,-24l-66 163 -494 0c-53,0 -93,-11 -119,-32 -27,-20 -40,-55 -40,-105 0,-27 5,-59 15,-99l83 -330c21,-85 53,-145 95,-182 43,-36 98,-54 167,-54l481 0 -15 154z"/>
   <path id="1" class="fil0" d="M13754 2617c8,-34 12,-61 12,-80 0,-9 0,-17 -2,-23 -2,-6 -5,-17 -9,-32l328 0 -166 666c-9,35 -13,61 -13,81 0,9 1,17 3,23 1,6 4,17 9,32l-361 0c17,-21 30,-39 39,-55 9,-16 18,-43 27,-81l133 -531z"/>
   <path id="2" class="fil0" d="M14533 3284l6 -62c-15,20 -29,35 -43,45 -15,11 -31,17 -51,17l-239 0c-52,0 -91,-11 -116,-34 -25,-23 -38,-56 -38,-99 0,-24 4,-51 11,-81l59 -240c9,-34 13,-61 13,-80 0,-9 -1,-17 -3,-23 -1,-6 -4,-17 -9,-32l329 0 -106 425c-2,9 -3,16 -3,22 0,18 13,27 40,27l108 0c18,0 32,-4 40,-10 9,-7 16,-20 21,-39l71 -290c9,-34 13,-61 13,-80 0,-9 -1,-17 -3,-23 -1,-6 -4,-17 -8,-32l328 0 -113 453c-8,35 -12,61 -12,81 0,9 0,17 2,23 2,6 5,17 9,32l-306 0z"/>
   <path id="3" class="fil0" d="M15246 3123c-2,8 -4,15 -4,20 0,17 12,26 34,26l118 0c27,0 44,-16 52,-46l67 -268c2,-7 4,-14 4,-20 0,-16 -12,-25 -34,-25l-118 0c-27,0 -44,15 -53,45l-66 268zm-361 161c11,-13 21,-28 30,-45 8,-17 16,-39 23,-65l145 -582c7,-26 10,-48 10,-66 0,-8 -1,-15 -2,-23 -2,-8 -4,-15 -5,-21l320 0 -67 281c11,-20 23,-36 36,-49 13,-13 32,-19 56,-19l232 0c51,0 89,10 113,31 24,21 36,51 36,89 0,9 0,18 -2,27 -1,10 -3,22 -6,36l-57 223c-14,57 -40,101 -77,134 -37,32 -88,49 -153,49l-250 0c-15,0 -26,-5 -33,-14 -7,-9 -13,-25 -19,-49l-34 63 -296 0z"/>
   <path class="fil0" d="M6222 945c-42,-18 -83,-31 -123,-39 -41,-8 -93,-12 -156,-12l-520 0c-52,0 -90,9 -116,26 -26,16 -45,49 -56,96l-256 1028c-6,18 -9,34 -9,48 0,49 40,74 119,74l7316 0c140,0 235,-5 283,-14 49,-8 106,-28 171,-57l-157 386 -8076 0c-127,0 -222,-25 -284,-75 -63,-49 -94,-132 -94,-249 0,-63 12,-142 36,-235l196 -784c49,-200 125,-343 226,-429 101,-86 232,-130 395,-130l1141 0 -36 366z"/>
   <path class="fil0" d="M6816 1049c89,0 154,16 195,46 42,31 62,82 62,154 0,44 -8,98 -24,162l-104 418c-10,40 -15,74 -15,103 0,27 6,53 17,77l-482 0 2 -106c-26,43 -53,72 -82,86 -28,13 -77,20 -145,20l-343 0c-80,0 -138,-13 -172,-39 -35,-26 -52,-67 -52,-123 0,-37 6,-80 18,-129l18 -69c26,-105 64,-180 115,-225 50,-44 128,-66 234,-66l440 0c34,0 57,-4 69,-12 12,-8 21,-21 25,-38 5,-18 8,-29 8,-33 0,-25 -24,-38 -72,-38l-480 0c-72,0 -139,12 -202,35l92 -223 878 0zm-498 497c-38,0 -66,5 -83,15 -17,10 -30,32 -40,66l-26 111c-4,14 -6,27 -6,36 0,18 6,30 18,36 12,6 35,9 69,9l113 0c46,0 77,-7 92,-21 15,-15 30,-53 45,-116l32 -136 -214 0z"/>
   <path id="1" class="fil0" d="M7770 1049l-23 162c41,-63 81,-105 121,-128 39,-22 96,-34 169,-34l235 0 -78 315c-29,-21 -55,-34 -76,-39 -21,-5 -66,-8 -134,-8 -92,0 -156,11 -191,33 -35,21 -60,65 -76,130l-78 309c-14,55 -20,99 -20,130 0,15 1,28 4,38 2,10 7,28 14,52l-588 0c28,-34 50,-64 64,-90 14,-26 29,-69 44,-130l129 -519c13,-56 20,-99 20,-131 0,-15 -1,-27 -4,-38 -3,-10 -7,-27 -14,-52l482 0z"/>
   <path id="2" class="fil0" d="M8533 853l486 -12 -53 208 384 0 -47 188 -384 0 -126 507c-4,16 -6,29 -6,38 0,15 5,26 17,31 12,6 34,8 66,8l170 0c41,0 75,-4 103,-11 28,-7 54,-16 79,-26l-86 225 -605 0c-69,0 -124,-13 -165,-41 -41,-27 -61,-75 -61,-143 0,-24 0,-43 2,-55 1,-12 6,-32 14,-61l116 -472 -206 0 47 -188 206 0 49 -196z"/>
   <path id="3" class="fil0" d="M9800 1744c-5,15 -7,27 -7,36 0,28 19,41 58,41l200 0c50,0 81,-26 92,-77l108 -429c4,-15 6,-27 6,-37 0,-27 -20,-41 -61,-41l-200 0c-48,0 -77,26 -88,78l-108 429zm831 -25c-26,105 -64,180 -115,224 -50,44 -128,66 -235,66l-751 0c-80,0 -138,-13 -173,-39 -34,-26 -52,-66 -52,-122 0,-37 7,-80 19,-129l96 -380c26,-105 64,-179 114,-223 50,-45 129,-67 235,-67l751 0c81,0 138,13 173,39 35,26 52,67 52,123 0,36 -6,79 -18,128l-96 380z"/>
   <path id="4" class="fil0" d="M11015 923c13,-56 20,-100 20,-131 0,-15 -1,-28 -4,-38 -3,-10 -8,-27 -14,-52l535 0 -272 1087c-14,55 -20,99 -20,130 0,15 1,28 4,38 2,10 7,28 14,52l-588 0c29,-34 50,-64 64,-90 15,-26 29,-69 44,-130l217 -866z"/>
   <path id="5" class="fil0" d="M12605 1049c89,0 154,16 195,46 42,31 63,82 63,154 0,44 -8,98 -25,162l-104 418c-9,40 -14,74 -14,103 0,27 5,53 16,77l-482 0 2 -106c-26,43 -53,72 -81,86 -29,13 -77,20 -145,20l-344 0c-80,0 -137,-13 -172,-39 -35,-26 -52,-67 -52,-123 0,-37 6,-80 18,-129l19 -69c25,-105 64,-180 114,-225 50,-44 129,-66 235,-66l439 0c34,0 57,-4 69,-12 12,-8 21,-21 26,-38 5,-18 7,-29 7,-33 0,-25 -24,-38 -72,-38l-479 0c-73,0 -140,12 -203,35l92 -223 878 0zm-498 497c-38,0 -66,5 -83,15 -17,10 -30,32 -39,66l-27 111c-4,14 -6,27 -6,36 0,18 6,30 18,36 13,6 36,9 70,9l112 0c46,0 77,-7 92,-21 15,-15 30,-53 45,-116l33 -136 -215 0z"/>
   <path class="fil0" d="M13699 2067c-21,81 -31,146 -31,196 0,27 4,56 13,87l-732 0c24,-34 46,-72 66,-115 20,-42 38,-98 55,-168l271 -1082c10,-39 18,-77 23,-114 5,-37 8,-65 8,-84 0,-15 -2,-31 -4,-48 -3,-16 -5,-28 -7,-37l1427 0 -31 317c-34,-12 -73,-22 -116,-31 -43,-9 -95,-13 -157,-13l-512 0 -96 386 448 0c67,0 118,-1 154,-4 35,-2 82,-7 140,-14l-90 356c-36,-18 -76,-33 -119,-46 -43,-12 -94,-19 -154,-19l-448 0 -108 433z"/>
   <path id="1" class="fil0" d="M16335 1019c-36,-16 -71,-27 -106,-34 -36,-6 -81,-10 -136,-10l-450 0c-45,0 -78,7 -101,22 -22,15 -38,42 -49,84l-221 891c-5,15 -8,29 -8,41 0,43 35,64 103,64l356 0c121,0 203,-4 245,-11 43,-8 92,-25 149,-51l-137 335 -1014 0c-110,0 -192,-21 -246,-64 -54,-43 -81,-115 -81,-217 0,-55 10,-122 30,-203l170 -680c43,-173 109,-297 196,-372 88,-75 202,-112 343,-112l988 0 -31 317z"/>
  </g>
  <path class="fil0" d="M807 113c34,18 107,51 214,80 107,30 249,54 422,54 99,0 189,-18 260,-40 71,-22 124,-48 150,-61l46 -24 46 24c25,13 78,38 150,61 72,22 161,40 260,40 173,0 315,-24 423,-54 107,-29 179,-62 214,-80l64 -33 51 51 566 554 80 79 -88 70c-30,25 -51,60 -64,106 -16,55 -22,127 -22,214 0,55 2,113 6,173 3,59 9,130 15,208 6,69 11,139 14,210 4,72 6,138 6,198 0,85 -4,167 -12,249 -9,81 -22,160 -41,235 -43,169 -108,313 -208,450 -97,133 -227,256 -402,387 -117,88 -269,176 -421,254 -268,139 -537,249 -600,274l-37 15 -37 -15c-62,-25 -331,-135 -599,-274 -152,-78 -305,-166 -422,-254 -174,-131 -304,-254 -402,-387 -100,-137 -165,-281 -207,-450 -20,-75 -33,-154 -41,-235 -9,-82 -13,-164 -13,-249 0,-60 2,-126 6,-198 4,-71 9,-141 14,-210 7,-78 12,-149 16,-208 4,-60 6,-118 6,-173 0,-87 -6,-159 -22,-214 -14,-46 -34,-81 -65,-106l-87 -70 80 -79 566 -554 51 -52 64 34z"/>
  <path class="fil1" d="M2874 3135c346,-259 507,-489 586,-802 61,-241 62,-502 32,-872 -37,-451 -44,-686 123,-779l-618 -606c0,0 -258,155 -688,155 -254,0 -456,-119 -456,-119 0,0 -202,119 -456,119 -430,0 -688,-155 -688,-155l-618 606c166,93 160,328 123,779 -30,370 -29,631 32,872 79,313 240,543 586,802 346,260 1021,526 1021,526 0,0 675,-266 1021,-526z"/>
  <path class="fil2" d="M761 34c34,17 106,51 213,80 108,29 250,54 423,54 99,0 189,-19 260,-41 71,-21 124,-47 150,-61l46 -23 46 24c25,13 78,38 150,60 71,22 161,41 260,41 173,0 315,-25 423,-54 106,-29 179,-63 213,-80l64 -33 52 50 565 555 80 78 -87 71c-30,24 -51,60 -64,106 -16,55 -23,126 -23,214 0,55 3,112 6,173 4,59 9,130 16,208 6,69 10,138 14,210 4,71 6,137 6,198 0,84 -4,167 -12,248 -9,82 -22,160 -41,236 -43,169 -108,313 -208,449 -97,133 -227,257 -402,388 -117,88 -270,176 -422,254 -268,138 -536,248 -599,274l-37 15 -37 -15c-63,-26 -332,-136 -600,-274 -151,-78 -304,-166 -421,-254 -175,-131 -305,-255 -402,-388 -100,-136 -165,-280 -208,-449 -19,-76 -32,-154 -41,-236 -8,-81 -12,-164 -12,-248 0,-60 2,-127 6,-198 3,-72 8,-141 14,-210 6,-78 12,-149 16,-208 3,-61 5,-118 5,-173 0,-88 -6,-159 -22,-214 -13,-46 -34,-82 -64,-106l-87 -71 80 -78 565 -555 52 -51 64 34z"/>
  <g id="_773442392">
   <path class="fil3" d="M791 807c4,14 9,14 12,0l53 -224c3,-14 17,-30 31,-35l67 -25c13,-5 13,-13 0,-18l-82 -30c-14,-5 -29,-21 -33,-34l-41 -116c-5,-13 -11,-13 -15,1l-26 113c-3,15 -17,29 -31,33l-93 27c-14,4 -14,11 0,16l76 26c13,4 27,20 30,34l52 232z"/>
   <path class="fil3" d="M599 1325c2,10 6,10 9,0l40 -169c2,-10 13,-22 23,-26l50 -19c11,-4 10,-10 0,-14l-61 -22c-10,-4 -22,-16 -25,-26l-31 -87c-3,-10 -8,-10 -11,1l-19 85c-3,11 -13,22 -24,25l-70 20c-10,3 -10,8 0,12l57 19c10,4 21,15 23,26l39 175z"/>
   <path class="fil3" d="M2968 807c-3,14 -8,14 -11,0l-53 -224c-3,-14 -17,-30 -31,-35l-67 -25c-14,-5 -14,-13 0,-18l82 -30c13,-5 28,-21 33,-34l41 -116c5,-13 11,-13 14,1l26 113c4,15 18,29 32,33l93 27c14,4 14,11 0,16l-76 26c-14,4 -27,20 -31,34l-52 232z"/>
   <path class="fil3" d="M3161 1325c-3,10 -7,10 -9,0l-40 -169c-2,-10 -13,-22 -23,-26l-50 -19c-11,-4 -11,-10 0,-14l61 -22c10,-4 22,-16 25,-26l31 -87c3,-10 8,-10 11,1l19 85c3,11 13,22 24,25l70 20c10,3 10,8 0,12l-57 19c-10,4 -21,15 -23,26l-39 175z"/>
  </g>
  <path class="fil4" d="M1421 517c-45,46 -63,141 -29,195 12,19 53,58 82,79 30,-99 127,-216 188,-248 41,-22 125,-29 183,-6 59,24 143,93 164,144 -67,-10 -152,8 -183,27 -44,25 -91,108 -86,178 6,96 56,233 93,283 14,18 68,95 116,149 -21,2 -59,-9 -97,-26 -30,-13 -61,-29 -83,-47 -57,-45 -231,-117 -351,-129 -100,-11 -239,1 -282,10 -38,8 -84,32 -113,68 -28,33 -39,76 -39,115 0,73 32,171 52,204 50,82 162,168 233,182 62,12 128,16 140,-4 13,-21 50,-34 70,-32 25,2 65,23 80,46 -17,-36 -49,-105 -68,-134 -16,-23 -37,-91 -33,-142 5,-64 31,-124 46,-126 44,-7 160,-4 240,0 65,3 220,93 309,192 55,62 161,150 210,182 65,41 196,63 269,43 31,-8 76,-37 114,-74 26,-25 48,-56 66,-82 17,-25 13,-40 -21,-44 -33,-4 -102,2 -143,8 -88,11 -168,-19 -193,-31 -17,-8 -32,-18 -37,-31 -6,-18 3,-41 17,-73 28,-63 118,-161 197,-187 35,-12 80,-51 97,-96 11,-28 7,-59 -1,-85 -35,-116 -143,-275 -193,-333 -47,-53 -115,-112 -187,-157 -79,-49 -163,-80 -222,-88 -56,-8 -130,-20 -201,-23 -70,-3 -136,5 -178,7 -75,4 -185,45 -226,86z"/>
  <path class="fil3" d="M1853 2908c83,0 158,34 213,88 54,55 88,130 88,213 0,83 -34,159 -88,213 -55,55 -130,88 -213,88 -83,0 -158,-33 -213,-88 -54,-54 -88,-130 -88,-213 0,-83 34,-158 88,-213 55,-54 130,-88 213,-88z"/>
  <g>
   <path class="fil5" d="M1609 3072c0,1 -10,19 -10,21 0,0 0,1 -1,1 1,0 1,-1 1,-1 -29,63 -36,153 -7,218 28,77 107,154 189,167 92,31 197,0 267,-67 72,-72 102,-174 74,-276 -3,-1 -5,-8 -10,-6 10,64 16,134 -15,193 -14,0 -13,-21 -29,-18 -2,-10 3,-18 10,-23 3,-36 11,-70 16,-105 5,-6 16,-11 16,-21 -1,-5 -6,-8 -9,-5 -14,15 -20,30 -23,48 -4,-4 -2,-10 -2,-15 -5,-33 -41,-28 -62,-38 -2,-20 -7,-41 -10,-61 -3,-3 -2,-11 -8,-13 -7,22 3,45 6,66l-59 52 10 5c-2,10 -13,10 -18,18 0,41 -15,79 -18,115 31,-5 67,12 98,13 -1,2 -5,2 -3,5 16,7 33,-11 46,-23 20,-18 18,15 33,18 -20,35 -48,66 -82,92 -18,12 -40,30 -59,7 23,-26 24,-63 54,-84l-5 -3c-13,8 -28,25 -33,41 -16,21 -31,43 -61,39 -44,28 -85,-1 -124,-19l21 -27c3,-13 34,-19 18,-32 -13,19 -36,31 -49,50 -28,5 -53,2 -79,-5 -5,-34 -48,-55 -43,-91 -11,-14 -32,1 -47,-4 -36,-98 -12,-218 70,-288 10,4 18,18 30,16 13,-16 -16,-15 -21,-25 14,-14 31,-24 49,-34l1 3c-9,23 -19,46 -21,72 -26,28 -51,79 -97,66 -1,2 -5,3 -3,7 3,9 13,4 20,6 14,0 18,17 14,30 14,21 7,52 23,72 -16,16 -24,41 -45,54l6 5c23,-10 36,-35 44,-56 23,20 51,25 78,33 6,-5 1,-15 11,-20l10 12 47 -45c9,-9 22,-18 27,-29 -4,-12 -12,2 -17,-3 -3,-9 8,-4 12,-7l-15 -89 -26 -3c3,-3 8,-5 6,-11 -26,-12 -54,-20 -78,-33 4,-18 3,-36 14,-51 4,-8 -5,-11 -11,-13 10,-7 21,-10 31,-15 10,-6 25,-2 34,-11 0,-5 -1,-9 -4,-10 -64,16 -125,52 -168,111l-14 24zm0 0l0 0 0 0zm495 19c-2,5 -5,2 -8,3 -15,-23 -23,-51 -48,-67 -10,15 -24,26 -41,34l-5 -6c0,8 -10,8 -15,13 -27,-26 -62,-36 -91,-59 -30,18 -45,51 -78,61l-1 -2c24,-18 44,-41 64,-62 -20,-13 -31,-38 -51,-56 2,-5 10,-5 11,-2l46 51c17,3 12,-16 23,-18l33 -25c-34,-18 -79,-13 -116,-19l5 -8c116,-7 224,57 272,162zm-176 107c2,5 -3,6 -5,10 -23,-19 -55,-15 -75,-35 26,-7 51,16 77,23 0,2 2,3 3,2zm-116 118c10,1 8,11 13,18l-8 6c28,2 57,-3 82,-13l6 8c-28,9 -54,19 -87,15 -11,-24 -31,-52 -50,-77l0 -8c19,10 29,34 44,51z"/>
  </g>
  <path class="fil6" d="M601 2649c-48,0 -72,-19 -72,-58 0,-10 1,-21 4,-33l67 -268c7,-31 21,-54 40,-69 19,-15 44,-22 74,-22l262 0 -6 68c-10,-5 -22,-8 -37,-9 -15,-1 -25,-1 -30,-1l-137 0c-17,0 -27,8 -31,26l-71 282c-1,5 -2,9 -2,12 0,10 7,15 20,15l137 0c14,0 27,-1 38,-2 11,-1 22,-4 34,-9l-28 68 -262 0z"/>
  <path id="1" class="fil6" d="M982 2649c5,-9 9,-19 13,-29 4,-9 7,-20 10,-31l82 -330c5,-19 7,-39 7,-60l371 0 -7 68c-9,-5 -21,-8 -36,-9 -15,-1 -26,-1 -31,-1l-170 0 -34 136 149 0c20,0 34,-1 42,-2 8,-2 18,-5 30,-9l-20 79c-8,-4 -18,-6 -31,-8 -12,-2 -24,-3 -36,-3l-149 0 -35 139c-1,7 -3,15 -5,24 -1,9 -2,18 -2,26 0,5 1,8 1,10l-149 0z"/>
  <path id="2" class="fil6" d="M1743 2649c-48,0 -72,-19 -72,-58 0,-10 1,-21 4,-33l67 -268c7,-31 21,-54 40,-69 19,-15 44,-22 73,-22l263 0 -7 68c-9,-5 -21,-8 -36,-9 -15,-1 -25,-1 -31,-1l-136 0c-17,0 -27,8 -31,26l-71 282c-1,5 -2,9 -2,12 0,10 7,15 20,15l136 0c15,0 28,-1 39,-2 11,-1 22,-4 34,-9l-28 68 -262 0z"/>
  <path id="3" class="fil6" d="M2210 2575c-4,16 -7,31 -9,43 -1,12 -2,23 -2,31l-137 0c3,-6 7,-16 12,-31 5,-14 10,-29 13,-43l76 -302c5,-19 8,-34 9,-44 2,-11 3,-21 3,-30l130 0 -95 376z"/>
  <path id="4" class="fil6" d="M2544 2649l5 -33c-8,13 -15,22 -22,26 -7,5 -15,7 -26,7l-150 0c-44,0 -66,-18 -66,-54 0,-9 1,-21 4,-34l42 -168c5,-17 8,-31 9,-44 2,-12 3,-23 3,-31l130 0 -64 255c-1,5 -2,9 -2,12 0,8 6,12 17,12l104 0c15,0 24,-8 28,-24l45 -180c4,-17 7,-31 9,-44 1,-12 2,-23 2,-31l130 0 -64 257c-4,16 -7,31 -9,43 -2,12 -2,23 -2,31l-123 0z"/>
  <path id="5" class="fil6" d="M2832 2649l-123 0c3,-6 7,-16 12,-31 5,-14 9,-29 13,-43l76 -302c4,-19 8,-34 9,-44 2,-11 3,-21 3,-30l129 0 -38 151 2 0c5,-6 9,-12 13,-16 4,-4 8,-8 13,-11 5,-3 12,-5 22,-5l149 0c43,0 65,18 65,54 0,10 -1,21 -4,35l-39 154c-14,59 -49,88 -105,88l-154 0c-9,0 -15,-2 -20,-8 -5,-6 -7,-13 -7,-23l-16 31zm149 -52c15,0 24,-8 28,-24l44 -179c1,-5 2,-9 2,-12 0,-8 -6,-12 -17,-12l-108 0c-15,0 -24,8 -28,24l-44 179c-2,5 -2,9 -2,12 0,8 5,12 16,12l109 0z"/>
  <g>
   <path class="fil2" d="M13582 2568c-17,-7 -35,-13 -52,-16 -17,-3 -39,-5 -66,-5l-219 0c-22,0 -38,4 -49,11 -11,7 -19,20 -24,40l-107 434c-3,7 -4,14 -4,20 0,21 17,31 50,31l173 0c59,0 99,-2 120,-5 20,-4 44,-12 72,-25l-67 163 -493 0c-54,0 -94,-10 -120,-31 -26,-21 -39,-56 -39,-106 0,-26 5,-59 15,-99l82 -330c21,-85 53,-145 95,-181 43,-37 99,-55 167,-55l481 0 -15 154z"/>
   <path id="1" class="fil2" d="M13686 2550c8,-35 13,-61 13,-81 0,-9 -1,-17 -3,-23 -2,-6 -4,-17 -9,-32l329 0 -167 667c-8,34 -13,61 -13,80 0,9 1,17 3,23 2,6 5,17 9,32l-361 0c17,-21 31,-39 39,-55 9,-16 18,-43 27,-80l133 -531z"/>
   <path id="2" class="fil2" d="M14465 3216l7 -61c-15,19 -30,34 -44,45 -14,11 -31,16 -50,16l-240 0c-52,0 -91,-11 -116,-34 -25,-22 -38,-55 -38,-99 0,-24 4,-51 12,-81l58 -240c9,-34 13,-60 13,-80 0,-9 -1,-17 -3,-23 -1,-6 -4,-17 -8,-32l328 0 -105 425c-3,9 -4,17 -4,22 0,18 13,27 40,27l108 0c18,0 32,-4 41,-10 8,-7 15,-20 20,-39l72 -290c8,-34 12,-60 12,-80 0,-9 -1,-17 -2,-23 -2,-6 -5,-17 -9,-32l328 0 -113 454c-8,34 -12,61 -12,80 0,9 1,17 2,23 2,6 5,17 9,32l-306 0z"/>
   <path id="3" class="fil2" d="M15178 3056c-2,7 -3,14 -3,20 0,16 11,25 33,25l118 0c27,0 44,-15 53,-45l66 -268c3,-8 4,-15 4,-20 0,-17 -11,-26 -34,-26l-118 0c-26,0 -44,15 -52,46l-67 268zm-361 160c11,-13 21,-27 30,-44 9,-18 16,-39 23,-66l145 -582c7,-25 10,-48 10,-66 0,-7 0,-15 -2,-23 -2,-8 -3,-15 -5,-21l321 0 -68 281c11,-20 23,-36 36,-49 14,-12 32,-19 57,-19l231 0c51,0 89,11 113,32 24,20 37,50 37,88 0,9 -1,18 -2,27 -2,10 -4,22 -7,36l-57 223c-14,57 -39,102 -77,134 -37,33 -88,49 -153,49l-249 0c-15,0 -27,-5 -34,-14 -7,-9 -13,-25 -19,-49l-34 63 -296 0z"/>
   <path class="fil2" d="M6154 877c-41,-18 -82,-31 -123,-39 -41,-7 -93,-11 -156,-11l-520 0c-51,0 -90,8 -116,25 -26,17 -44,49 -56,96l-256 1028c-6,18 -9,34 -9,48 0,49 40,74 119,74l7316 0c140,0 235,-4 284,-13 48,-9 105,-29 170,-58l-157 386 -8076 0c-127,0 -222,-25 -284,-74 -62,-50 -94,-133 -94,-250 0,-63 12,-141 36,-235l196 -784c50,-200 125,-343 226,-429 101,-86 233,-129 395,-129l1141 0 -36 365z"/>
   <path class="fil2" d="M6748 982c89,0 154,15 195,46 42,30 63,82 63,154 0,43 -9,97 -25,161l-104 419c-10,39 -14,73 -14,102 0,27 5,53 16,77l-482 0 2 -106c-26,44 -53,72 -82,86 -28,14 -76,20 -145,20l-343 0c-80,0 -137,-13 -172,-38 -35,-27 -52,-67 -52,-124 0,-36 6,-79 18,-129l19 -69c25,-105 63,-180 114,-224 50,-45 129,-67 235,-67l439 0c34,0 57,-4 69,-12 12,-8 21,-21 26,-38 4,-18 7,-28 7,-32 0,-26 -24,-39 -72,-39l-480 0c-72,0 -139,12 -202,35l92 -222 878 0zm-498 496c-38,0 -66,5 -83,15 -17,10 -30,32 -39,66l-27 111c-4,15 -6,27 -6,37 0,17 6,29 18,35 12,6 36,9 70,9l112 0c46,0 77,-7 92,-21 15,-14 30,-53 45,-115l32 -137 -214 0z"/>
   <path id="1" class="fil2" d="M7702 982l-22 161c40,-62 81,-105 120,-127 39,-23 96,-34 169,-34l235 0 -77 314c-30,-20 -56,-33 -77,-39 -21,-5 -66,-8 -134,-8 -92,0 -156,11 -191,33 -34,22 -60,65 -76,130l-78 309c-13,56 -20,99 -20,131 0,14 1,27 4,37 3,10 7,28 14,52l-588 0c29,-34 50,-64 64,-89 15,-26 29,-70 44,-131l129 -519c14,-56 20,-99 20,-131 0,-15 -1,-27 -4,-37 -2,-11 -7,-28 -14,-52l482 0z"/>
   <path id="2" class="fil2" d="M8466 786l486 -13 -53 209 384 0 -47 187 -384 0 -127 507c-4,16 -6,29 -6,39 0,15 6,25 17,30 12,6 34,8 67,8l169 0c41,0 75,-3 103,-11 28,-7 54,-16 79,-25l-86 224 -604 0c-70,0 -125,-13 -166,-40 -41,-28 -61,-75 -61,-143 0,-25 1,-43 2,-56 1,-12 6,-32 14,-61l117 -472 -207 0 47 -187 207 0 49 -196z"/>
   <path id="3" class="fil2" d="M9732 1676c-4,15 -6,27 -6,37 0,27 19,40 57,40l200 0c50,0 81,-25 92,-77l108 -429c4,-15 6,-27 6,-37 0,-27 -20,-41 -61,-41l-200 0c-48,0 -77,26 -88,78l-108 429zm831 -25c-26,105 -64,180 -114,224 -51,44 -129,66 -235,66l-752 0c-80,0 -138,-13 -172,-38 -35,-26 -52,-67 -52,-123 0,-37 6,-80 18,-129l96 -379c26,-105 64,-180 114,-224 51,-44 129,-66 235,-66l752 0c80,0 138,13 172,38 35,26 52,67 52,123 0,37 -6,80 -18,129l-96 379z"/>
   <path id="4" class="fil2" d="M10947 855c13,-56 20,-99 20,-131 0,-15 -1,-27 -4,-38 -3,-10 -7,-27 -14,-52l535 0 -272 1087c-13,56 -20,99 -20,131 0,14 1,27 4,37 3,10 7,28 14,52l-588 0c29,-34 50,-64 64,-89 15,-26 29,-70 44,-131l217 -866z"/>
   <path id="5" class="fil2" d="M12538 982c88,0 153,15 195,46 41,30 62,82 62,154 0,43 -8,97 -25,161l-104 419c-9,39 -14,73 -14,102 0,27 5,53 16,77l-482 0 2 -106c-25,44 -53,72 -81,86 -29,14 -77,20 -145,20l-343 0c-81,0 -138,-13 -173,-38 -35,-27 -52,-67 -52,-124 0,-36 6,-79 18,-129l19 -69c26,-105 64,-180 114,-224 51,-45 129,-67 235,-67l439 0c34,0 57,-4 69,-12 13,-8 21,-21 26,-38 5,-18 7,-28 7,-32 0,-26 -24,-39 -71,-39l-480 0c-72,0 -140,12 -202,35l92 -222 878 0zm-499 496c-38,0 -65,5 -82,15 -17,10 -31,32 -40,66l-27 111c-4,15 -6,27 -6,37 0,17 6,29 19,35 12,6 35,9 69,9l112 0c47,0 77,-7 92,-21 15,-14 30,-53 45,-115l33 -137 -215 0z"/>
   <path class="fil2" d="M13631 1999c-21,81 -31,146 -31,196 0,27 4,56 13,87l-731 0c24,-34 46,-72 65,-114 20,-42 39,-99 56,-169l270 -1081c10,-40 18,-78 23,-115 5,-37 8,-65 8,-84 0,-15 -1,-31 -4,-47 -3,-17 -5,-29 -6,-38l1426 0 -31 317c-34,-12 -73,-22 -116,-31 -43,-8 -95,-13 -157,-13l-512 0 -95 387 448 0c67,0 118,-2 153,-4 35,-2 82,-8 140,-14l-90 355c-36,-18 -75,-33 -118,-46 -43,-12 -95,-19 -155,-19l-448 0 -108 433z"/>
   <path id="1" class="fil2" d="M16268 951c-36,-15 -72,-27 -107,-33 -35,-7 -80,-11 -135,-11l-451 0c-45,0 -78,8 -100,22 -23,15 -39,43 -49,84l-222 891c-5,15 -8,29 -8,41 0,43 35,64 103,64l356 0c122,0 204,-3 246,-11 42,-8 91,-25 148,-50l-137 334 -1014 0c-110,0 -192,-21 -246,-64 -54,-43 -81,-115 -81,-216 0,-55 10,-123 31,-204l170 -680c43,-173 108,-297 195,-372 88,-74 202,-112 343,-112l989 0 -31 317z"/>
  </g>
 </g>
</svg>
