<?xml version="1.0" encoding="UTF-8"?>
<!DOCTYPE svg PUBLIC "-//W3C//DTD SVG 1.1//EN" "http://www.w3.org/Graphics/SVG/1.1/DTD/svg11.dtd">
<!-- Creator: CorelDRAW X8 -->
<svg xmlns="http://www.w3.org/2000/svg" xml:space="preserve" width="100%" height="100%" version="1.1" style="shape-rendering:geometricPrecision; text-rendering:geometricPrecision; image-rendering:optimizeQuality; fill-rule:evenodd; clip-rule:evenodd"
viewBox="0 0 11491 6389"
 xmlns:xlink="http://www.w3.org/1999/xlink">
 <defs>
  <style type="text/css">
   <![CDATA[
    .fil0 {fill:#BF4408}
    .fil1 {fill:white}
   ]]>
  </style>
 </defs>
 <g id="Camada_x0020_1">
  <metadata id="CorelCorpID_0Corel-Layer"/>
  <g id="_1005707776">
   <path class="fil0" d="M2438 987c708,0 1283,696 1283,1553 0,858 -575,1554 -1283,1554 -709,0 -1283,-696 -1283,-1554 0,-857 574,-1553 1283,-1553zm0 -902c1299,0 2353,1099 2353,2455 0,1357 -1054,2456 -2353,2456 -1300,0 -2353,-1099 -2353,-2456 0,-1356 1053,-2455 2353,-2455z"/>
   <path class="fil0" d="M5070 6389l0 0c282,0 513,-231 513,-513l0 -1272c262,237 590,378 945,378 863,0 1562,-827 1562,-1848 0,-1020 -699,-1847 -1562,-1847 -366,0 -704,150 -970,400 -67,-206 -261,-356 -488,-356l0 0c-283,0 -514,231 -514,513l0 4032c0,282 231,513 514,513zm1268 -4222c-417,0 -755,438 -755,979 0,541 338,979 755,979 417,0 755,-438 755,-979 0,-541 -338,-979 -755,-979z"/>
   <path class="fil0" d="M10978 5084l0 0c282,0 513,-231 513,-513l0 -73c0,-282 -231,-513 -513,-513l0 0c-282,0 -513,231 -513,513l0 73c0,282 231,513 513,513zm0 -1466l0 0c282,0 513,-231 513,-513l0 -2493c0,-282 -231,-513 -513,-513l0 0c-282,0 -513,231 -513,513l0 2493c0,282 231,513 513,513z"/>
   <path class="fil0" d="M9509 805c336,62 438,136 570,199 308,145 384,493 205,759 -83,123 -253,163 -477,76 -135,-52 -273,-98 -405,-157 -376,-168 -572,-85 -612,165 -27,170 104,249 289,322 244,97 510,194 744,298 412,182 715,564 624,1034 -101,523 -484,1008 -1376,975 -399,-15 -819,-139 -1141,-331 -263,-157 -212,-419 -117,-576 173,-286 432,-292 654,-168 105,58 206,124 315,174 175,79 349,91 478,76 130,-15 214,-57 274,-184 51,-109 8,-219 -281,-347l-860 -380c-691,-306 -730,-1116 -249,-1597 286,-285 784,-443 1365,-338z"/>
  </g>
  <g id="_1005704256">
   <path class="fil1" d="M2353 903c709,0 1283,695 1283,1553 0,858 -574,1553 -1283,1553 -708,0 -1283,-695 -1283,-1553 0,-858 575,-1553 1283,-1553zm0 -903c1300,0 2353,1099 2353,2456 0,1356 -1053,2456 -2353,2456 -1299,0 -2353,-1100 -2353,-2456 0,-1357 1054,-2456 2353,-2456z"/>
   <path class="fil1" d="M4985 6304l0 0c282,0 513,-230 513,-513l0 -1271c263,236 590,377 946,377 862,0 1561,-827 1561,-1847 0,-1021 -699,-1848 -1561,-1848 -367,0 -704,150 -971,400 -66,-206 -261,-356 -488,-356l0 0c-282,0 -513,231 -513,513l0 4032c0,283 231,513 513,513zm1268 -4222c-417,0 -755,438 -755,979 0,541 338,980 755,980 417,0 755,-439 755,-980 0,-541 -338,-979 -755,-979z"/>
   <path class="fil1" d="M10894 5000l0 0c282,0 513,-231 513,-514l0 -73c0,-282 -231,-513 -513,-513l0 0c-283,0 -514,231 -514,513l0 73c0,283 231,514 514,514zm0 -1467l0 0c282,0 513,-230 513,-513l0 -2492c0,-282 -231,-513 -513,-513l0 0c-283,0 -514,231 -514,513l0 2492c0,283 231,513 514,513z"/>
   <path class="fil1" d="M9424 721c337,61 438,136 571,198 308,146 383,493 204,759 -83,124 -252,163 -477,76 -135,-52 -273,-98 -405,-157 -376,-167 -572,-85 -612,165 -27,170 104,249 290,323 243,97 509,194 744,297 412,183 714,564 624,1034 -101,523 -485,1008 -1377,975 -399,-14 -818,-138 -1141,-330 -263,-157 -212,-420 -117,-577 174,-286 432,-291 655,-167 104,58 205,124 314,173 175,80 349,91 479,76 129,-14 213,-56 273,-183 52,-110 9,-219 -281,-348l-860 -380c-690,-305 -730,-1116 -249,-1596 287,-286 784,-444 1365,-338z"/>
  </g>
 </g>
</svg>
