<svg xmlns="http://www.w3.org/2000/svg" width="600" height="374"><g xmlns="http://www.w3.org/2000/svg" transform="translate(-110.62091061025134, -1313.2440136042294)  scale(6.828431591052946)" ><g id="Acc12_x28_soccer_x29_">
	<g>
		<path fill-rule="evenodd" clip-rule="evenodd" d="M32.799,219.649c0-14.909,12.42-27.329,27.34-27.329
			c14.91,0,27.33,12.42,27.33,27.329c0,14.91-12.42,27.33-27.33,27.33C45.219,246.979,32.799,234.56,32.799,219.649z"/>
		<polygon fill-rule="evenodd" clip-rule="evenodd" fill="#FFFFFF" points="38.769,215.841 44.068,206.56 53.678,206.899 
			57.318,216.17 51.688,225.78 42.408,225.45 		"/>
		<path fill-rule="evenodd" clip-rule="evenodd" fill="#FFFFFF" d="M38.108,216.5l3.64,9.28v8.939l-1.99,0.99
			c0,0-6.959-5.96-5.629-19.869L38.108,216.5z"/>
		<path fill-rule="evenodd" clip-rule="evenodd" fill="#FFFFFF" d="M52.349,226.44l5.63-9.94h10.27c0,0,5.301,7.07,5.641,9.61
			c0,0-4.75,9.16-5.971,9.27c0,0-10.76-0.08-11.1-0.41C56.818,234.97,52.678,227.21,52.349,226.44z"/>
		<path fill-rule="evenodd" clip-rule="evenodd" fill="#FFFFFF" d="M68.918,215.841c0,0,4.41,5.739,5.631,9.609l6.619-0.34
			c0,0,2.99-6.01,2.66-10.1c0,0-2.209-7.011-4.31-8.111h-7.95C71.568,206.899,69.799,214.96,68.918,215.841z"/>
		<path fill-rule="evenodd" clip-rule="evenodd" fill="#FFFFFF" d="M62.948,200.601c0,0,6.74,4.199,8.29,5.629h8.61
			c0,0-0.55-3.42-1.66-5.629c0,0-5.851-5.301-10.931-6.291l-5.299,0.66L62.948,200.601z"/>
		<path fill-rule="evenodd" clip-rule="evenodd" fill="#FFFFFF" d="M61.299,194.97l0.66,5.631l-7.951,5.629l-9.939-0.33
			c0,0-0.77-4.409-0.33-5.299l-2.54,1.33c0,0,2.21-4.201,11.81-7.621L61.299,194.97z"/>
		<path fill-rule="evenodd" clip-rule="evenodd" fill="#FFFFFF" d="M72.559,242.66c3.061-1.67,6.73-4.521,9.279-8.271
			c0,0,5.631-7.069,3.971-18.549h-0.99c0,0-1.22,7.729-2.98,9.609l-0.549,8.939l-8.4,5.19L72.559,242.66z"/>
		<path fill-rule="evenodd" clip-rule="evenodd" fill="#FFFFFF" d="M72.008,239.47l-3.76-3.42h-11.26c0,0-3.64,3.42-5.189,4.19
			c0,0,2.209,4.42,4.199,5.08c0,0,7.51,1.771,15.791-2.21L72.008,239.47z"/>
		<path fill-rule="evenodd" clip-rule="evenodd" fill="#FFFFFF" d="M40.418,236.38l1.99-1l7.95,4.641c0,0,2.101,3.09,3.649,4.97
			C54.008,244.99,43.629,241.79,40.418,236.38z"/>
	</g>
</g></g></svg>
